<?xml version="1.0" encoding="utf-8"?>
<!-- Generator: Adobe Illustrator 26.2.1, SVG Export Plug-In . SVG Version: 6.00 Build 0)  -->
<svg version="1.1" id="Layer_1" xmlns="http://www.w3.org/2000/svg" xmlns:xlink="http://www.w3.org/1999/xlink" x="0px" y="0px"
	 viewBox="0 0 450 800" style="enable-background:new 0 0 450 800;" xml:space="preserve">
<style type="text/css">
	.st0{fill:#6DE063;stroke:#448E3C;stroke-width:1.2722;stroke-miterlimit:10;}
	.st1{fill:#BCBCBC;stroke:#848484;stroke-width:1.2722;stroke-miterlimit:10;}
</style>
<path class="st0" d="M82.27,305.2c-1.79,0.76-1.51,1.81-4.33,4.34c-1.17,1.05-1.78,1.52-2.61,2.02c-2.89,1.73-5.2,1.16-5.78,3.47
	c-0.58,2.31-1.73,6.94-2.31,4.63c-0.58-2.31,0.87-7.47-1.01-6.05s-4.19,6.05-3.61,7.2s1.73,2.31,1.73,3.47c0,1.16,0,3.47-1.16,4.63
	c-1.16,1.16-1.73,3.47-2.31,5.78c-0.58,2.31,0,2.89,1.16,4.63c1.16,1.73,0.58,3.47,2.31,6.36c1.73,2.89,4.63,5.78,3.47,7.52
	c-1.16,1.73-2.31,1.16-2.6,0c-0.29-1.16-0.87-3.47-0.87-2.89c0,0.58-1.16,1.73-1.16,0.58s-2.77-6.65-2.54-4.77
	c0.23,1.88,0.23,4.77,1.96,6.51s2.31,2.31,1.16,2.89c-1.16,0.58-0.58,0.58-1.73-1.16c-1.16-1.73-0.48-4.05-1.4-3.47
	s-0.92,1.16-1.49-0.58s-1.16-7.52-1.73-4.63s1.73,6.36,2.31,8.1c0.58,1.73,6.36,7.52,6.36,9.25s-0.58,6.36,1.16,8.1
	c1.73,1.73,2.89,2.31,2.89,3.47s-0.58,1.16,1.16,3.47c1.73,2.31,2.31,3.47,1.73,5.78c-0.58,2.31,0,9.25,2.89,13.88
	s3.47,6.36,3.47,9.25s1.16,4.63,0,4.63s-0.58-1.73-1.16,0.58c-0.58,2.31,1.73,2.31,0.58,4.05s-2.31,5.2-3.47,4.05
	c-1.16-1.16-2.31-1.27-2.02,0.23c0.29,1.5-0.87,4.4,0.87,4.97c1.73,0.58,5.08,0.58,5.72,2.6c0.64,2.02,0.64,3.18,4.69,3.76
	c4.05,0.58,5.78,1.16,8.1,1.16s4.05,1.16,6.36-1.16c2.31-2.31,0.58-1.16,2.31-2.31c1.73-1.16,1.73-2.89,3.47-2.31
	c1.73,0.58,1.73,0.58,3.47-0.58c1.73-1.16-2.31-1.16,0-2.02c2.31-0.87,1.73-3.18,4.05-2.6c2.31,0.58,3.47,0.58,4.05,0
	c0.58-0.58,9.83-0.58,11.57,0c1.73,0.58,6.36-1.73,7.52-0.58c1.16,1.16,2.31,1.73,4.05,1.16c1.73-0.58,3.47-7.52,5.2-8.1
	c1.73-0.58,4.05-1.16,8.1-3.47c4.05-2.31,6.36-3.47,10.41-2.89c4.05,0.58,11.57-2.89,15.61-4.05c4.05-1.16,5.78-3.47,9.83-2.89
	c4.05,0.58,8.1,1.16,8.67,0.58s2.31-2.89,4.63-1.16s4.05,5.78,5.78,4.63c1.73-1.16,4.05-1.16,5.2,0c1.16,1.16,3.47,2.31,3.47,1.16
	s0-2.31,1.16-1.16c1.16,1.16,2.31,3.47,2.31,3.47c2.89,1.16,4.63-0.58,2.89,1.16c-1.73,1.73-2.89,0.58-1.16,2.89
	c1.73,2.31,4.63,1.16,5.49,3.18c0.87,2.02-1.45,3.18,0.87,4.34c2.31,1.16,2.31,1.16,2.89,3.47c0.58,2.31,4.05,4.63,1.73,4.05
	c-2.31-0.58-3.47-0.58-2.31,0.58c1.16,1.16,1.73,0,2.31,1.73s1.73,2.31,2.31,1.16s0-2.31,1.16-2.89c1.16-0.58,1.73-0.58,1.73-1.73
	c0-1.16,5.2-5.78,6.36-6.36c1.16-0.58,1.16,0.58,2.31-2.31c1.16-2.89,1.73-3.47,2.89-4.05c1.16-0.58,1.73-2.89,1.73-2.89
	c0.58,2.31,0.58,2.6,0,3.9c-0.58,1.3,1.45,2.75,0.43,4.05s-2.75,4.77-3.33,6.51s2.31,5.78,0,5.78s-2.31-1.73-3.47,0.58
	c-1.16,2.31-1.73,3.47,0.58,2.31s2.31-1.73,3.47-1.16c1.16,0.58,2.31,0.58,2.31-1.16s1.73-9.83,2.31-7.52
	c0.58,2.31,0.58,3.47,1.73,4.63c1.16,1.16,2.02,4.96,1.01,5.66c-1.01,0.7-3.9,2.44-2.17,3.02c1.73,0.58,2.89-1.16,5.78,0
	s5.78,6.36,6.36,8.67c0.58,2.31-1.2,2.89-0.6,4.63c0.6,1.73,1.18,2.31,2.33,3.47c1.16,1.16,1.73,3.47,4.05,4.63
	c2.31,1.16,2.89-1.16,4.63,1.16c1.73,2.31,3.47,3.47,4.05,2.31c0.58-1.16,2.89-1.16,4.05,0c1.16,1.16,0-0.83,2.6,0.45
	s8.96,4.17,9.54,3.02c0.58-1.16,4.63-5.2,5.78-4.63c0,0,2.31,0,1.73-0.58c-0.58-0.58-1.16-0.58-1.73-0.58
	c-0.58,0-1.73-0.58-0.58-1.16c1.16-0.58,3.47-1.73,4.05-1.16c0.58,0.58,2.31,2.31,1.16,2.89c-1.16,0.58-2.89,0.58-2.31,1.73
	c0.58,1.16,1.16,0.58,2.31,0c1.16-0.58,1.73-2.31,2.31-1.73c0.58,0.58,0,1.59,0,2.24c0,0.65,0.58,2.39,1.73,1.81
	c1.16-0.58,1.73-1.16,1.73,0s0,2.89,1.16,2.31c1.16-0.58,0.58-1.16,2.31-1.73c1.73-0.58,4.05-0.58,5.2-1.16
	c1.16-0.58,5.2-5.78,7.52-6.36c2.31-0.58,12.72-0.58,13.3-1.16c0.58-0.58,0.58-2.31,1.16-2.31c0.58,0,1.73,0.58,1.73,0
	c0-0.58,0-2.53,0-3c0-0.47-1.16,0.69-0.58-2.2s0.58-5.2,1.16-5.2c0.58,0,0.58,0.58,0.58-1.16c0-1.73,0-2.89,0.58-4.05
	c0.58-1.16,2.89-3.47,2.89-4.05c0-0.58,0-1.73,0.58-1.73c0.58,0,1.16-0.58,1.16-1.16c0-0.58-1.16-0.58-0.58-1.16
	c0.58-0.58,1.16-0.58,1.16-1.73s-0.58-0.76,0-2.11c0.58-1.36,2.31-3.67,2.89-4.25c0.58-0.58,1.16-1.16,0.58-2.31
	c-0.58-1.16-1.73-1.73-0.58-1.73s1.73,1.16,2.31-0.58c0.58-1.73-0.58-3.47,1.16-4.05c1.73-0.58,3.47-2.31,4.05-2.89
	c0.58-0.58,1.16-0.58,1.73-1.16c0.58-0.58,1.73,0,1.16-1.73c-0.58-1.73-0.58-3.47,0.58-4.63s4.63-5.2,3.47-7.52
	c-1.16-2.31,0-7.52,0.58-8.67c0.58-1.16,1.73-2.31,1.73-4.63c0-2.31-1.16-1.95,0-3.29s2.89-2.49,2.31-4.81
	c-0.58-2.31-2.31-9.83-3.47-10.41c-1.16-0.58-1.73,0-1.73-1.73s0.76-3.47,0.96-4.92c0.2-1.45-0.38-2.6-0.38-3.76
	s1.73-2.31,0.58-2.89c0,0-1.16,0.58-1.73-1.16c-0.58-1.73,0.58-4.63-1.16-5.2c-1.73-0.58-2.31-1.16-2.31-2.31
	c0-1.16,0-2.89-1.16-2.89c-1.16,0-2.31-0.58-2.31-1.73s-1.16-3.47-2.31-3.47c-1.16,0-2.89,0-3.47-1.16
	c-0.58-1.16-0.58-2.89-1.73-2.89s-1.73,0-1.73-0.58c0-0.58,1.16-0.58,0.58-1.73c-0.58-1.16-1.16-2.89-1.16-4.05s1.16-4.05,0-3.47
	c-1.16,0.58-1.73,0.58-2.31,0c-0.58-0.58-2.89-4.63-3.47-4.05c-0.58,0.58-1.16,0.58-1.16,1.73s1.16,2.31,0.58,1.73
	c-0.58-0.58-1.73-0.58-1.73-0.58s-0.58,1.73-1.16,0.58c-0.58-1.16-0.58-3.47-0.58-4.63s-0.58-1.16-0.58-2.31
	c0-1.16,0.58-1.16,0-1.73c-0.58-0.58-1.16-0.58-1.16-1.16c0-0.58-0.58-0.58-0.58-1.73c0-1.16,1.16-1.73-0.58-2.31
	s-2.89-1.16-3.47-3.47c-0.58-2.31,0-2.31,0.58-1.16c0.58,1.16,1.73,0.58,1.16-0.58c-0.58-1.16-2.31-1.73-2.89-2.31
	s-0.54,1.16-1.43,0s-0.31-1.73-2.04-1.73c-1.73,0-1.73,0-1.73-0.58c0-0.58,0-1.73-0.58-1.16c-0.58,0.58-0.58,1.16-1.16,0
	c-0.58-1.16,0-4.05-1.73-3.47c-1.73,0.58-2.89,0-2.89-0.58s-0.58-1.16-1.16-0.58c-0.58,0.58-4.63-1.16-4.63-2.89
	c0-1.73,1.16-2.89,0-3.47c-1.16-0.58-2.89-2.31-2.31-3.47c0.58-1.16,1.16-3.47,0.58-5.2c-0.58-1.73-2.31-2.89-1.73-4.05
	s0.58-2.31,0-2.31s-1.16,0-2.31-1.73c-1.16-1.73-1.73-1.73-1.16-2.31c0.58-0.58,0.58-2.89,0-4.63c-0.58-1.73-2.31-4.05-1.73-5.2
	c0.58-1.16,2.31-2.31,1.16-3.47c-1.16-1.16-4.05-1.73-4.63-2.89c-0.58-1.16-0.58-4.05-1.73-3.47s-1.16,0.58-1.73,0.58
	s-1.16,0-1.73,0.58c-0.58,0.58-0.58,2.31-1.73,1.16c-1.16-1.16-2.31-3.47-2.31-5.2s0-8.67-0.58-8.67c-0.58,0-1.16,0-1.16-0.58
	c0-0.58,1.16-1.16,0.58-1.73c-0.58-0.58-1.16-1.16-1.16-1.73s0.58-1.16-0.58-1.16s-1.73-0.58-1.16-1.16
	c0.58-0.58,2.89-1.16,1.73-1.73c-1.16-0.58-2.31,0.58-2.89-0.58c-0.58-1.16,0-6.94-0.58-7.52c-0.58-0.58-2.31,0-2.31-0.58
	s1.73-2.31,0.58-2.31s-1.73,0-1.73,0.58c0,0.58,0,1.16-0.58,1.16c-0.58,0-0.58-0.58-1.16,0.58c-0.58,1.16,0,4.63-0.58,5.2
	c-0.58,0.58-1.73,1.73-1.16,2.89c0.58,1.16,2.31,1.16,1.16,1.73c-1.16,0.58-1.16,0.58-1.73,0c-0.58-0.58,0-0.58-0.58,0
	c-0.58,0.58-1.73,4.05-1.16,4.05s1.73-0.58,2.31,0c0.58,0.58,1.16,1.73,0,1.73c-1.16,0-0.58-1.16-1.16,0
	c-0.58,1.16-0.58,0.58-1.16,1.73c-0.58,1.16,0.58,1.73,0.58,2.89c0,1.16,0,2.31-0.58,1.73s-1.16-1.16-1.16,0
	c0,1.16,0.58,4.63,0.58,6.36c0,1.73-0.58,4.63,0,5.78c0.58,1.16,2.31,3.47,1.16,3.47c-1.16,0-1.16-0.58-1.73,1.16
	c-0.58,1.74,0,8.1-1.16,9.83c-1.16,1.73-2.31,3.47-2.89,4.63c-0.58,1.16,0,2.89-1.16,4.05c-1.16,1.16-4.05,3.47-5.2,2.89
	c-1.16-0.58-3.47-2.31-4.63-2.89c-1.16-0.58-2.31,0.58-2.89-1.16c-0.58-1.73-0.58-4.05-1.73-4.05s-5.2,0-6.94-1.73
	s-2.31-4.63-4.05-4.63c-1.73,0-1.73,0-2.89-1.16c-1.16-1.16,0-0.58-1.73-0.58c-1.73,0-2.89-0.58-2.89-1.16s-3.47-5.2-5.2-5.78
	c-1.73-0.58-5.2-1.73-4.63-2.89c0.58-1.16,1.16-1.16,1.73-2.31c0.58-1.16,0.58-1.73,1.16-2.31c0.58-0.58,1.16,0,1.73-1.73
	c0.58-1.73,0-2.31,0.58-2.89c0.58-0.58,0.58-0.58,0-1.16c-0.58-0.58-2.31-1.16-1.16-2.31c1.16-1.16,1.16-2.89,1.73-2.31
	c0.58,0.58,1.16,1.73,1.16,0.58c0-1.16,0-2.89,0.58-1.73c0.58,1.16,1.16,2.31,1.73,1.73s-0.58-1.73,0-1.73s2.31,0,1.16-0.58
	c-1.16-0.58-2.89-1.16-1.73-1.16s1.16,0.58,1.73-0.58c0.58-1.16-0.58-2.89,0.58-2.89c1.16,0,2.31-0.58,1.73-1.16
	c-0.58-0.58-1.16-1.73-1.73-1.16s0.58,1.73-0.58,0.58c-1.16-1.16-0.58-2.89-1.73-2.31c-1.16,0.58-2.31,1.16-1.73,1.73
	c0.58,0.58,2.31,1.16,1.16,1.73c-1.16,0.58-4.05,2.31-3.47,1.16c0.58-1.16,1.73-2.31,1.16-2.31s-1.16-0.58-1.16-0.58
	s-1.16,1.16-1.73,0.58c-0.58-0.58,0.58-1.73-0.58-1.16c-1.16,0.58-1.73,1.73-3.47,1.16c-1.73-0.58-2.89,0-2.89-1.16
	s-1.16-1.16-1.73-0.58c-0.58,0.58,0,1.16-1.16,0.58c-1.16-0.58-0.58-1.73-2.31-1.73s-2.89,0-2.31-0.58s1.73-1.16,0.58-1.16
	c-1.16,0-1.73,1.16-2.89,1.16c-1.16,0-2.31-0.58-2.89-1.16c-0.58-0.58-1.16-2.89-1.73-2.89c-0.58,0-1.16,0.58-1.73,1.73
	c-0.58,1.16-1.73,1.16-1.16,1.73s0.58,1.16,0.58,1.16s0.58,0.58,0,0.58c-0.58,0,0,1.16,0,1.16s0,0-0.58,0s-1.16-0.58-1.16,0.58
	c0,1.16,0,2.89-0.58,1.73c-0.58-1.16,0-2.31-1.16-1.73c-1.16,0.58-1.16,1.16-2.89,1.16s-3.47,0-3.47-0.58
	c0-0.58,1.16-1.16-0.58-1.16c-1.73,0-2.89,0.58-2.31,1.16c0.58,0.58,1.16,1.16,0,1.16c-1.16,0-1.73,0-1.16,0.58s1.16,2.31,0,1.16
	c-1.16-1.16-1.73-2.89-1.73-1.73c0,1.16,0.58,1.73-0.58,2.31c-1.16,0.58-1.73-1.16-1.73,0.58s0.58,1.16-0.58,1.73
	c-1.16,0.58-1.73-0.58-1.16,1.16c0.58,1.73,1.16,1.73,0.58,2.89c-0.58,1.16-1.16,1.16-1.73,1.16s-1.16-0.58-1.16,0.58
	s-1.16,2.89-1.16,3.47c0,0.58,0.58,0,0,0.58c-0.58,0.58-2.31,1.73-2.31,2.89c0,1.16-0.58,1.16,1.16,1.73c1.73,0.58,1.73,0,1.73,1.16
	c0,1.16-0.58,1.73,0.58,1.16c1.16-0.58,1.16-0.58,1.16,0c0,0.58-1.16,1.16-2.31,1.16c-1.16,0-1.16,0.58-0.58,1.16
	s2.31,0.58,1.16,1.16c-1.16,0.58-1.16,1.73-1.73,0c-0.58-1.73-0.58-1.73-1.16-2.31c-0.58-0.58-1.16-0.58-1.16,0s1.16,2.89,0,1.73
	c-1.16-1.16,0.58-1.16-1.73-1.73s-4.63-2.31-4.63-1.16c0,1.16,1.16,2.89,0,2.31c-1.16-0.58-1.73-1.16-1.73,0
	c0,1.16-0.58,1.73-0.58,1.16c0-0.58-1.16-2.31-0.58-2.89c0.58-0.58,1.73-1.16,1.16-1.73s-1.16-1.16-2.31-1.73
	c-1.16-0.58-2.89-2.31-3.47-3.47c-0.58-1.16,1.16-1.16-0.58-1.16c-1.73,0-1.73,0.58-2.31-0.58c-0.58-1.16-0.58-2.31-1.73-0.58
	c-1.16,1.73-1.16,3.47-1.73,3.47s-1.73-0.58-1.16-1.16c0.58-0.58,0.58-2.31,0-1.73c-0.58,0.58-0.58,0.58-1.16,1.73
	c-0.58,1.16,0,2.31-0.58,1.16c-0.58-1.16,0.58-2.89-0.58-2.89c-1.16,0-1.73,0.58-1.73,1.16c0,0.58,1.73,1.73,1.16,2.31
	c-0.58,0.58-1.73,0.58-1.16,1.16s0.58,1.16,0,1.16s-0.58-1.16-1.16-0.58c-0.58,0.58,0,1.16-1.16,1.16c-1.16,0-1.73-0.58-2.89,0
	c-1.16,0.58-1.73,0-0.58,1.73c1.16,1.73,2.31,2.31,1.73,2.89c-0.58,0.58-1.16,0.58-1.73,0c-0.58-0.58,0-1.73-1.16-1.16
	c-1.16,0.58-1.73,1.73-1.73,2.31s1.73,0,1.73,0.58s0.58,0,0.58,1.16c0,1.16-0.58,0.58-1.16,0c-0.58-0.58-1.73-1.73-2.31-1.16
	s0,1.73-0.58,1.73s-1.16-0.58-1.73,0.58c-0.58,1.16,0,2.31,0.58,2.31c0.58,0,2.89-1.16,2.31-0.58c-0.58,0.58-1.73,2.31-1.73,2.89
	c0,0.58,0,1.16-0.58,0.58c-0.58-0.58-0.58-1.16-0.58,0s0,1.73,0,2.31c0,0.58-0.58,0.58-1.73-0.58c-1.16-1.16-3.47-2.31-4.05-1.73
	s0.58,0.58,0,1.73s-1.73,0.58-1.16,1.73c0.58,1.16,1.16,2.31,2.31,2.31c1.16,0,1.73,0,1.16,1.16c-0.58,1.16,0.58,2.89-0.58,2.31
	c-1.16-0.58-1.16-0.58-1.16-0.58s-0.58-0.58-0.58,0.58s0,3.47-0.58,2.31c-0.58-1.16-1.73-3.47-2.31-4.05s-0.58,0-0.58-1.16
	s0-2.31-0.58-2.31c-0.58,0-2.31,0.58-1.73-0.58c0.58-1.16,0-1.73-0.58-1.16c-0.58,0.58-1.16,1.16-1.16,1.73c0,0.58,0,0.58-0.58,1.16
	c-0.58,0.58-0.58,1.73-0.58,1.73s0.58,0-0.58,0.58c-1.16,0.58-1.73,1.73-2.31,2.89c-0.58,1.16,0,4.05,0,4.05
	c0,1.16,0,1.73,0.58,1.73c0.58,0,2.31,0,1.73,0.58c-0.58,0.58-3.47,3.47-4.05,3.47c-0.58,0-1.73,0-1.73,1.16
	c0,1.16,0,1.16-0.58,1.73c-0.58,0.58-0.58,1.73-1.16,2.89c-0.58,1.16-1.16,3.47-3.47,4.63c-2.31,1.16-7.52,3.47-9.25,3.47
	c-1.73,0-1.16,0-1.73,0.58c-0.58,0.58-2.31-0.58-3.47-0.58s-2.31,0.58-2.31,1.73s-0.58,0.58-2.31,1.16
	c-1.73,0.58-3.47-0.58-4.05,0.58c-0.58,1.16-0.58,2.89-2.31,2.89s-2.31,0-2.31,0c-0.58,0.58-0.58,1.16-1.16,0.58
	c-0.58-0.58,0-1.73-1.16-1.16c-1.16,0.58-2.89,2.31-2.89,1.16c0-1.16,0.58-2.31,0-2.31c-0.58,0-2.31,0-1.73,1.16
	c0.39,0.78,0.78,1.3,0.64,1.55c-0.12,0.2-0.53,0.19-0.64,0.18C85.04,304.02,84.12,304.41,82.27,305.2z"/>
<path class="st0" d="M248.25,437.06c-1.16,0.58-1.16,1.16-4.05,1.16c-2.89,0-4.05-0.58-3.47,1.16s1.73,1.73,4.05,1.73
	s2.31,0.58,2.89,0.58s0-0.58,1.16-1.16c1.16-0.58,1.73-0.58,2.89-0.58c1.16,0,2.31-0.58,0.58-1.16c-1.73-0.58-2.31,1.16-2.89,0
	c-0.58-1.16,0.29-1.73-0.43-1.73C248.25,437.06,248.25,437.06,248.25,437.06z"/>
<path class="st0" d="M307.81,483.9c0.61-0.24,0.93-1.03,1.25-0.92c0.12,0.04,0.21,0.18,0.27,0.46c0.22,1.04-0.07,0.34,1.23,0.69
	c1.3,0.35,0.72,0.93,3.04,2.09c2.31,1.16,2.31,1.73,4.63,1.16c2.31-0.58,1.73-0.58,2.31-1.16c0.58-0.58,4.63,0.58,5.78-0.58
	c1.16-1.16,1.73,0.81,3.18-0.46c1.45-1.27,2.02-1.85,2.6-0.69c0.58,1.16,0.29,1.61,0.72,3.12c0.43,1.51,0.72,2.38,0,3.97
	c-0.72,1.59-0.14,4.48-0.72,3.9c-0.58-0.58-2.31,0-1.73,1.73c0.58,1.73,1.16,1.16,0,1.73s-0.58-0.58-0.58,1.16s1.16,4.63,0,4.63
	s-3.18,1.16-2.46,0s1.88-1.16,0.14-1.73c-1.73-0.58-3.47-2.89-2.89-1.16c0.58,1.73,2.02,2.76,0.72,3.41
	c-1.3,0.64-2.46,0.06-2.46,1.22s0.58,1.73-1.16,2.31c-1.73,0.58-2.89,0-2.89,0c-0.58-0.58-1.73-1.16-2.89-0.58
	c-1.16,0.58-1.73,1.16-1.73,0s-0.58-2.89-1.73-3.47c-1.16-0.58-1.73-0.58-2.31-1.73c-0.58-1.16-1.16-2.31-1.73-4.05
	c-0.58-1.73,0.58-2.06,0-3.05c-0.91-1.57-2.31-3.89-2.31-3.89c-0.71-1.08-1.05-2.07-1.73-4.05c-0.4-1.16-0.68-2.2-0.58-3.47
	c0.06-0.77,0.12-1.51,0.58-1.73C305.24,482.31,306.61,484.38,307.81,483.9z"/>
<path class="st1" d="M365.75,643.28c0,0-1.73,1.16-2.89,1.73s-2.31,1.73-3.47,2.31c-1.16,0.58-1.73,2.31-2.89,3.47
	s-1.45-1.16-2.46,0c-1.01,1.16-2.17,0-2.75,2.31c-0.58,2.31,0.58,2.31-1.16,3.47c-1.73,1.16-0.58-0.58-1.73,1.73
	c-1.16,2.31,1.16,0.58-1.16,2.31c-2.31,1.73,0,2.46,0,2.46s1.73-3.04,1.16-0.72c-0.58,2.31,0,2.31,1.16,2.31s1.16-0.58,3.47,0
	c2.31,0.58,2.89-0.58,3.47,1.16c0.58,1.73,0.58,0.58,2.31,1.16c1.73,0.58,1.16-0.58,1.73,1.16c0.58,1.73,0.29-1.16,2.17,0
	c1.88,1.16,2.75,1.14,4.92,0.57c2.17-0.57,6.22-2.88,7.37-4.04c1.16-1.16,4.05-1.16,3.47-2.89c-0.58-1.73-1.16-0.58,0.58-2.31
	s1.16-2.89,1.73-4.05c0.58-1.16,2.89-1.73,2.31-3.47c-0.58-1.73,0.09-3.61,0.09-3.61s2.22-0.43,3.38-1.59s0-1.73,1.16-1.16
	c1.16,0.58,1.73-2.89,3.18-2.31c1.45,0.58,4.05-1.29,4.77-0.07c0.72,1.22,2.75,0.24,0.87-0.42c-1.88-0.67-2.46-1.25-1.88-2.98
	c0.58-1.73,0.58-3.47,1.73-3.47c1.16,0,2.89-1.73,4.05-3.47c1.16-1.73,0.58-2.89,2.31-3.47c1.73-0.58,0-1.16,1.73-2.31
	c1.73-1.16,1.73-2.89,1.73-2.89l-0.58-2.89l1.16-1.73l-2.31-1.16c0,0-2.31-1.16-4.05,0.58s-2.89,1.73-3.47,0.58
	c-0.58-1.16,1.16-3.47-0.58-3.47c-1.73,0-1.16,0-2.89-1.16c-1.73-1.16-2.02-0.58-3.04,1.16c-1.01,1.73-1.01,4.05-1.01,4.05
	s0,0-1.16,1.73s-2.89,4.05-3.47,5.78c-0.58,1.73-0.58,2.31,0.58,2.31s-3.47,6.36-4.63,5.78s-1.73,0-1.73,0s0.58,1.73-1.16,1.73
	c0,0-1.16,0-2.31,0c-1.16,0-3.47-0.58-2.31,0.58c1.16,1.16,1.16,0.58,0,1.16s-2.31,1.16-1.73,1.73c0.58,0.58,0.58,0.58,0.58,0.58
	s-0.29-0.23-1.3,0.17c-1.01,0.4-0.43,0.98-2.17,0.98S365.75,643.28,365.75,643.28z"/>
<path class="st1" d="M409.7,586.61c0.58,1.16,0,2.31,1.16,2.31s2.31-0.58,0.58,0.58c-1.73,1.16-2.31,0-1.73,1.16
	c0.58,1.16,0.14,0.58-0.22,2.02c-0.36,1.45,0.94,3.47,0,5.06s-1.66,1.99-1.66,1.99s-6.22,1.33-5.64,3.07
	c0.58,1.73,3.47,2.31,3.47,2.31c1.16,0.58,1.16,2.89,2.89,2.89c1.73,0,4.05,0,4.63,2.31c0.58,2.31,0.58,6.94-1.16,8.1
	c-1.73,1.16-3.47,1.16-2.31,2.31c1.16,1.16,3.58,0.58,3.82,1.73c0.23,1.16-0.35,1.73,1.97,0.58c2.31-1.16,4.63-4.63,6.36-6.94
	c1.73-2.31,2.31-1.16,3.47-3.47c1.16-2.31,4.05-5.78,2.89-5.78c-1.16,0-2.89,1.21-1.45-1.71c1.45-2.92,0.87-4.65,3.76-4.65
	s4.05,2.89,4.05,1.16s-2.31-3.18,0-3.61c2.31-0.43,1.73-0.43,2.89-2.75c1.16-2.31-1.16-3.47,0.58-4.63
	c1.73-1.16,4.63-1.16,1.73-2.31s-3.47-2.31-5.78-0.58c-2.31,1.73-0.58,4.05-3.47,3.47c-2.89-0.58-8.67-1.16-9.83-2.89
	c-1.16-1.73-1.16-2.89-1.73-4.63c-0.58-1.73,1.73-2.89,0-3.47c-1.73-0.58-4.34-1.73-3.61,0s2.46,5.2,0.72,4.05
	c-1.73-1.16,0.58-2.31-1.73-2.31c-2.31,0-2.31-0.58-2.89,1.16C410.85,584.87,409.7,586.61,409.7,586.61z"/>
<path class="st1" d="M409.59,581.23c0.41-0.53,0.26-0.56,0.68-0.98c1.16-1.16-0.58-0.58,0-2.31c0.58-1.73,0.41-2.02-0.37-2.75
	c-0.78-0.72-0.78-0.43-0.78-1.73c0-1.3,0.58-1.3,0-3.04c-0.88-2.64-1.27-3.98-2.31-4.77c-0.55-0.42-1.14-0.62-2.31-1.01
	c-0.93-0.31-1.74-0.48-2.31-0.58c-1.18-0.78-1.88-0.76-2.31-0.58c-0.82,0.35-0.79,1.38-1.73,1.73c-0.86,0.32-1.5-0.29-1.73,0
	c-0.36,0.45,0.69,2.51,2.31,2.89c0.9,0.21,1.19-0.28,1.73,0c1.42,0.71,0.55,4.63,1.7,4.86c1.77,0.35,1.19-0.81,1.77,0.35
	c0.58,1.16,2.31,2.02,2.89,2.17c0.58,0.14,1.73-1.59,0.58,0.14s-1.16,1.45-0.58,3.04c0.88,2.41,0.86,3.84,1.45,3.9
	C408.54,582.59,408.89,582.14,409.59,581.23z"/>
</svg>
