<?xml version="1.0" encoding="utf-8"?>
<!-- Generator: Adobe Illustrator 26.2.1, SVG Export Plug-In . SVG Version: 6.00 Build 0)  -->
<svg version="1.1" xmlns="http://www.w3.org/2000/svg" xmlns:xlink="http://www.w3.org/1999/xlink" x="0px" y="0px"
	 viewBox="0 0 450 800" style="enable-background:new 0 0 450 800;" xml:space="preserve">
<style type="text/css">
	.st0{display:none;}
	.st1{display:inline;fill:#6DE063;stroke:#448E3C;stroke-width:1.2722;stroke-miterlimit:10;}
	.st2{display:inline;fill:#BCBCBC;stroke:#848484;stroke-width:1.2722;stroke-miterlimit:10;}
	.st3{fill:#BCBCBC;stroke:#848484;stroke-width:0.9825;stroke-miterlimit:10;}
	.st4{fill:#6DE063;stroke:#448E3C;stroke-width:0.9825;stroke-miterlimit:10;}
</style>
<g id="Layer_1" class="st0">
	<path class="st1" d="M82.27,305.2c-1.79,0.76-1.51,1.81-4.33,4.34c-1.17,1.05-1.78,1.52-2.61,2.02c-2.89,1.73-5.2,1.16-5.78,3.47
		c-0.58,2.31-1.73,6.94-2.31,4.63c-0.58-2.31,0.87-7.47-1.01-6.05s-4.19,6.05-3.61,7.2s1.73,2.31,1.73,3.47c0,1.16,0,3.47-1.16,4.63
		c-1.16,1.16-1.73,3.47-2.31,5.78c-0.58,2.31,0,2.89,1.16,4.63c1.16,1.73,0.58,3.47,2.31,6.36c1.73,2.89,4.63,5.78,3.47,7.52
		c-1.16,1.73-2.31,1.16-2.6,0c-0.29-1.16-0.87-3.47-0.87-2.89c0,0.58-1.16,1.73-1.16,0.58s-2.77-6.65-2.54-4.77
		c0.23,1.88,0.23,4.77,1.96,6.51s2.31,2.31,1.16,2.89c-1.16,0.58-0.58,0.58-1.73-1.16c-1.16-1.73-0.48-4.05-1.4-3.47
		s-0.92,1.16-1.49-0.58s-1.16-7.52-1.73-4.63s1.73,6.36,2.31,8.1c0.58,1.73,6.36,7.52,6.36,9.25s-0.58,6.36,1.16,8.1
		c1.73,1.73,2.89,2.31,2.89,3.47s-0.58,1.16,1.16,3.47c1.73,2.31,2.31,3.47,1.73,5.78c-0.58,2.31,0,9.25,2.89,13.88
		s3.47,6.36,3.47,9.25s1.16,4.63,0,4.63s-0.58-1.73-1.16,0.58c-0.58,2.31,1.73,2.31,0.58,4.05s-2.31,5.2-3.47,4.05
		c-1.16-1.16-2.31-1.27-2.02,0.23c0.29,1.5-0.87,4.4,0.87,4.97c1.73,0.58,5.08,0.58,5.72,2.6c0.64,2.02,0.64,3.18,4.69,3.76
		c4.05,0.58,5.78,1.16,8.1,1.16s4.05,1.16,6.36-1.16c2.31-2.31,0.58-1.16,2.31-2.31c1.73-1.16,1.73-2.89,3.47-2.31
		c1.73,0.58,1.73,0.58,3.47-0.58c1.73-1.16-2.31-1.16,0-2.02c2.31-0.87,1.73-3.18,4.05-2.6c2.31,0.58,3.47,0.58,4.05,0
		c0.58-0.58,9.83-0.58,11.57,0c1.73,0.58,6.36-1.73,7.52-0.58c1.16,1.16,2.31,1.73,4.05,1.16c1.73-0.58,3.47-7.52,5.2-8.1
		c1.73-0.58,4.05-1.16,8.1-3.47c4.05-2.31,6.36-3.47,10.41-2.89c4.05,0.58,11.57-2.89,15.61-4.05c4.05-1.16,5.78-3.47,9.83-2.89
		c4.05,0.58,8.1,1.16,8.67,0.58s2.31-2.89,4.63-1.16s4.05,5.78,5.78,4.63c1.73-1.16,4.05-1.16,5.2,0c1.16,1.16,3.47,2.31,3.47,1.16
		s0-2.31,1.16-1.16c1.16,1.16,2.31,3.47,2.31,3.47c2.89,1.16,4.63-0.58,2.89,1.16c-1.73,1.73-2.89,0.58-1.16,2.89
		c1.73,2.31,4.63,1.16,5.49,3.18c0.87,2.02-1.45,3.18,0.87,4.34c2.31,1.16,2.31,1.16,2.89,3.47c0.58,2.31,4.05,4.63,1.73,4.05
		c-2.31-0.58-3.47-0.58-2.31,0.58c1.16,1.16,1.73,0,2.31,1.73s1.73,2.31,2.31,1.16s0-2.31,1.16-2.89c1.16-0.58,1.73-0.58,1.73-1.73
		c0-1.16,5.2-5.78,6.36-6.36c1.16-0.58,1.16,0.58,2.31-2.31c1.16-2.89,1.73-3.47,2.89-4.05c1.16-0.58,1.73-2.89,1.73-2.89
		c0.58,2.31,0.58,2.6,0,3.9c-0.58,1.3,1.45,2.75,0.43,4.05s-2.75,4.77-3.33,6.51s2.31,5.78,0,5.78s-2.31-1.73-3.47,0.58
		c-1.16,2.31-1.73,3.47,0.58,2.31s2.31-1.73,3.47-1.16c1.16,0.58,2.31,0.58,2.31-1.16s1.73-9.83,2.31-7.52
		c0.58,2.31,0.58,3.47,1.73,4.63c1.16,1.16,2.02,4.96,1.01,5.66c-1.01,0.7-3.9,2.44-2.17,3.02c1.73,0.58,2.89-1.16,5.78,0
		s5.78,6.36,6.36,8.67c0.58,2.31-1.2,2.89-0.6,4.63c0.6,1.73,1.18,2.31,2.33,3.47c1.16,1.16,1.73,3.47,4.05,4.63
		c2.31,1.16,2.89-1.16,4.63,1.16c1.73,2.31,3.47,3.47,4.05,2.31c0.58-1.16,2.89-1.16,4.05,0c1.16,1.16,0-0.83,2.6,0.45
		s8.96,4.17,9.54,3.02c0.58-1.16,4.63-5.2,5.78-4.63c0,0,2.31,0,1.73-0.58c-0.58-0.58-1.16-0.58-1.73-0.58
		c-0.58,0-1.73-0.58-0.58-1.16c1.16-0.58,3.47-1.73,4.05-1.16c0.58,0.58,2.31,2.31,1.16,2.89c-1.16,0.58-2.89,0.58-2.31,1.73
		c0.58,1.16,1.16,0.58,2.31,0c1.16-0.58,1.73-2.31,2.31-1.73c0.58,0.58,0,1.59,0,2.24c0,0.65,0.58,2.39,1.73,1.81
		c1.16-0.58,1.73-1.16,1.73,0s0,2.89,1.16,2.31c1.16-0.58,0.58-1.16,2.31-1.73c1.73-0.58,4.05-0.58,5.2-1.16
		c1.16-0.58,5.2-5.78,7.52-6.36c2.31-0.58,12.72-0.58,13.3-1.16c0.58-0.58,0.58-2.31,1.16-2.31c0.58,0,1.73,0.58,1.73,0
		c0-0.58,0-2.53,0-3c0-0.47-1.16,0.69-0.58-2.2s0.58-5.2,1.16-5.2c0.58,0,0.58,0.58,0.58-1.16c0-1.73,0-2.89,0.58-4.05
		c0.58-1.16,2.89-3.47,2.89-4.05c0-0.58,0-1.73,0.58-1.73c0.58,0,1.16-0.58,1.16-1.16c0-0.58-1.16-0.58-0.58-1.16
		c0.58-0.58,1.16-0.58,1.16-1.73s-0.58-0.76,0-2.11c0.58-1.36,2.31-3.67,2.89-4.25c0.58-0.58,1.16-1.16,0.58-2.31
		c-0.58-1.16-1.73-1.73-0.58-1.73s1.73,1.16,2.31-0.58c0.58-1.73-0.58-3.47,1.16-4.05c1.73-0.58,3.47-2.31,4.05-2.89
		c0.58-0.58,1.16-0.58,1.73-1.16c0.58-0.58,1.73,0,1.16-1.73c-0.58-1.73-0.58-3.47,0.58-4.63s4.63-5.2,3.47-7.52
		c-1.16-2.31,0-7.52,0.58-8.67c0.58-1.16,1.73-2.31,1.73-4.63c0-2.31-1.16-1.95,0-3.29s2.89-2.49,2.31-4.81
		c-0.58-2.31-2.31-9.83-3.47-10.41c-1.16-0.58-1.73,0-1.73-1.73s0.76-3.47,0.96-4.92c0.2-1.45-0.38-2.6-0.38-3.76
		s1.73-2.31,0.58-2.89c0,0-1.16,0.58-1.73-1.16c-0.58-1.73,0.58-4.63-1.16-5.2c-1.73-0.58-2.31-1.16-2.31-2.31
		c0-1.16,0-2.89-1.16-2.89c-1.16,0-2.31-0.58-2.31-1.73s-1.16-3.47-2.31-3.47c-1.16,0-2.89,0-3.47-1.16
		c-0.58-1.16-0.58-2.89-1.73-2.89s-1.73,0-1.73-0.58c0-0.58,1.16-0.58,0.58-1.73c-0.58-1.16-1.16-2.89-1.16-4.05s1.16-4.05,0-3.47
		c-1.16,0.58-1.73,0.58-2.31,0c-0.58-0.58-2.89-4.63-3.47-4.05c-0.58,0.58-1.16,0.58-1.16,1.73s1.16,2.31,0.58,1.73
		c-0.58-0.58-1.73-0.58-1.73-0.58s-0.58,1.73-1.16,0.58c-0.58-1.16-0.58-3.47-0.58-4.63s-0.58-1.16-0.58-2.31
		c0-1.16,0.58-1.16,0-1.73c-0.58-0.58-1.16-0.58-1.16-1.16c0-0.58-0.58-0.58-0.58-1.73c0-1.16,1.16-1.73-0.58-2.31
		s-2.89-1.16-3.47-3.47c-0.58-2.31,0-2.31,0.58-1.16c0.58,1.16,1.73,0.58,1.16-0.58c-0.58-1.16-2.31-1.73-2.89-2.31
		s-0.54,1.16-1.43,0s-0.31-1.73-2.04-1.73c-1.73,0-1.73,0-1.73-0.58c0-0.58,0-1.73-0.58-1.16c-0.58,0.58-0.58,1.16-1.16,0
		c-0.58-1.16,0-4.05-1.73-3.47c-1.73,0.58-2.89,0-2.89-0.58s-0.58-1.16-1.16-0.58c-0.58,0.58-4.63-1.16-4.63-2.89
		c0-1.73,1.16-2.89,0-3.47c-1.16-0.58-2.89-2.31-2.31-3.47c0.58-1.16,1.16-3.47,0.58-5.2c-0.58-1.73-2.31-2.89-1.73-4.05
		s0.58-2.31,0-2.31s-1.16,0-2.31-1.73c-1.16-1.73-1.73-1.73-1.16-2.31c0.58-0.58,0.58-2.89,0-4.63c-0.58-1.73-2.31-4.05-1.73-5.2
		c0.58-1.16,2.31-2.31,1.16-3.47c-1.16-1.16-4.05-1.73-4.63-2.89c-0.58-1.16-0.58-4.05-1.73-3.47s-1.16,0.58-1.73,0.58
		s-1.16,0-1.73,0.58c-0.58,0.58-0.58,2.31-1.73,1.16c-1.16-1.16-2.31-3.47-2.31-5.2s0-8.67-0.58-8.67c-0.58,0-1.16,0-1.16-0.58
		c0-0.58,1.16-1.16,0.58-1.73c-0.58-0.58-1.16-1.16-1.16-1.73s0.58-1.16-0.58-1.16s-1.73-0.58-1.16-1.16
		c0.58-0.58,2.89-1.16,1.73-1.73c-1.16-0.58-2.31,0.58-2.89-0.58c-0.58-1.16,0-6.94-0.58-7.52c-0.58-0.58-2.31,0-2.31-0.58
		s1.73-2.31,0.58-2.31s-1.73,0-1.73,0.58c0,0.58,0,1.16-0.58,1.16c-0.58,0-0.58-0.58-1.16,0.58c-0.58,1.16,0,4.63-0.58,5.2
		c-0.58,0.58-1.73,1.73-1.16,2.89c0.58,1.16,2.31,1.16,1.16,1.73c-1.16,0.58-1.16,0.58-1.73,0c-0.58-0.58,0-0.58-0.58,0
		c-0.58,0.58-1.73,4.05-1.16,4.05s1.73-0.58,2.31,0c0.58,0.58,1.16,1.73,0,1.73c-1.16,0-0.58-1.16-1.16,0
		c-0.58,1.16-0.58,0.58-1.16,1.73c-0.58,1.16,0.58,1.73,0.58,2.89c0,1.16,0,2.31-0.58,1.73s-1.16-1.16-1.16,0
		c0,1.16,0.58,4.63,0.58,6.36c0,1.73-0.58,4.63,0,5.78c0.58,1.16,2.31,3.47,1.16,3.47c-1.16,0-1.16-0.58-1.73,1.16
		c-0.58,1.74,0,8.1-1.16,9.83c-1.16,1.73-2.31,3.47-2.89,4.63c-0.58,1.16,0,2.89-1.16,4.05c-1.16,1.16-4.05,3.47-5.2,2.89
		c-1.16-0.58-3.47-2.31-4.63-2.89c-1.16-0.58-2.31,0.58-2.89-1.16c-0.58-1.73-0.58-4.05-1.73-4.05s-5.2,0-6.94-1.73
		s-2.31-4.63-4.05-4.63c-1.73,0-1.73,0-2.89-1.16c-1.16-1.16,0-0.58-1.73-0.58c-1.73,0-2.89-0.58-2.89-1.16s-3.47-5.2-5.2-5.78
		c-1.73-0.58-5.2-1.73-4.63-2.89c0.58-1.16,1.16-1.16,1.73-2.31c0.58-1.16,0.58-1.73,1.16-2.31c0.58-0.58,1.16,0,1.73-1.73
		c0.58-1.73,0-2.31,0.58-2.89c0.58-0.58,0.58-0.58,0-1.16c-0.58-0.58-2.31-1.16-1.16-2.31c1.16-1.16,1.16-2.89,1.73-2.31
		c0.58,0.58,1.16,1.73,1.16,0.58c0-1.16,0-2.89,0.58-1.73c0.58,1.16,1.16,2.31,1.73,1.73s-0.58-1.73,0-1.73s2.31,0,1.16-0.58
		c-1.16-0.58-2.89-1.16-1.73-1.16s1.16,0.58,1.73-0.58c0.58-1.16-0.58-2.89,0.58-2.89c1.16,0,2.31-0.58,1.73-1.16
		c-0.58-0.58-1.16-1.73-1.73-1.16s0.58,1.73-0.58,0.58c-1.16-1.16-0.58-2.89-1.73-2.31c-1.16,0.58-2.31,1.16-1.73,1.73
		c0.58,0.58,2.31,1.16,1.16,1.73c-1.16,0.58-4.05,2.31-3.47,1.16c0.58-1.16,1.73-2.31,1.16-2.31s-1.16-0.58-1.16-0.58
		s-1.16,1.16-1.73,0.58c-0.58-0.58,0.58-1.73-0.58-1.16c-1.16,0.58-1.73,1.73-3.47,1.16c-1.73-0.58-2.89,0-2.89-1.16
		s-1.16-1.16-1.73-0.58c-0.58,0.58,0,1.16-1.16,0.58c-1.16-0.58-0.58-1.73-2.31-1.73s-2.89,0-2.31-0.58s1.73-1.16,0.58-1.16
		c-1.16,0-1.73,1.16-2.89,1.16c-1.16,0-2.31-0.58-2.89-1.16c-0.58-0.58-1.16-2.89-1.73-2.89c-0.58,0-1.16,0.58-1.73,1.73
		c-0.58,1.16-1.73,1.16-1.16,1.73s0.58,1.16,0.58,1.16s0.58,0.58,0,0.58c-0.58,0,0,1.16,0,1.16s0,0-0.58,0s-1.16-0.58-1.16,0.58
		c0,1.16,0,2.89-0.58,1.73c-0.58-1.16,0-2.31-1.16-1.73c-1.16,0.58-1.16,1.16-2.89,1.16s-3.47,0-3.47-0.58
		c0-0.58,1.16-1.16-0.58-1.16c-1.73,0-2.89,0.58-2.31,1.16c0.58,0.58,1.16,1.16,0,1.16c-1.16,0-1.73,0-1.16,0.58s1.16,2.31,0,1.16
		c-1.16-1.16-1.73-2.89-1.73-1.73c0,1.16,0.58,1.73-0.58,2.31c-1.16,0.58-1.73-1.16-1.73,0.58s0.58,1.16-0.58,1.73
		c-1.16,0.58-1.73-0.58-1.16,1.16c0.58,1.73,1.16,1.73,0.58,2.89c-0.58,1.16-1.16,1.16-1.73,1.16s-1.16-0.58-1.16,0.58
		s-1.16,2.89-1.16,3.47c0,0.58,0.58,0,0,0.58c-0.58,0.58-2.31,1.73-2.31,2.89c0,1.16-0.58,1.16,1.16,1.73
		c1.73,0.58,1.73,0,1.73,1.16c0,1.16-0.58,1.73,0.58,1.16c1.16-0.58,1.16-0.58,1.16,0c0,0.58-1.16,1.16-2.31,1.16
		c-1.16,0-1.16,0.58-0.58,1.16s2.31,0.58,1.16,1.16c-1.16,0.58-1.16,1.73-1.73,0c-0.58-1.73-0.58-1.73-1.16-2.31
		c-0.58-0.58-1.16-0.58-1.16,0s1.16,2.89,0,1.73c-1.16-1.16,0.58-1.16-1.73-1.73s-4.63-2.31-4.63-1.16c0,1.16,1.16,2.89,0,2.31
		c-1.16-0.58-1.73-1.16-1.73,0c0,1.16-0.58,1.73-0.58,1.16c0-0.58-1.16-2.31-0.58-2.89c0.58-0.58,1.73-1.16,1.16-1.73
		s-1.16-1.16-2.31-1.73c-1.16-0.58-2.89-2.31-3.47-3.47c-0.58-1.16,1.16-1.16-0.58-1.16c-1.73,0-1.73,0.58-2.31-0.58
		c-0.58-1.16-0.58-2.31-1.73-0.58c-1.16,1.73-1.16,3.47-1.73,3.47s-1.73-0.58-1.16-1.16c0.58-0.58,0.58-2.31,0-1.73
		c-0.58,0.58-0.58,0.58-1.16,1.73c-0.58,1.16,0,2.31-0.58,1.16c-0.58-1.16,0.58-2.89-0.58-2.89c-1.16,0-1.73,0.58-1.73,1.16
		c0,0.58,1.73,1.73,1.16,2.31c-0.58,0.58-1.73,0.58-1.16,1.16s0.58,1.16,0,1.16s-0.58-1.16-1.16-0.58c-0.58,0.58,0,1.16-1.16,1.16
		c-1.16,0-1.73-0.58-2.89,0c-1.16,0.58-1.73,0-0.58,1.73c1.16,1.73,2.31,2.31,1.73,2.89c-0.58,0.58-1.16,0.58-1.73,0
		c-0.58-0.58,0-1.73-1.16-1.16c-1.16,0.58-1.73,1.73-1.73,2.31s1.73,0,1.73,0.58s0.58,0,0.58,1.16c0,1.16-0.58,0.58-1.16,0
		c-0.58-0.58-1.73-1.73-2.31-1.16s0,1.73-0.58,1.73s-1.16-0.58-1.73,0.58c-0.58,1.16,0,2.31,0.58,2.31c0.58,0,2.89-1.16,2.31-0.58
		c-0.58,0.58-1.73,2.31-1.73,2.89c0,0.58,0,1.16-0.58,0.58c-0.58-0.58-0.58-1.16-0.58,0s0,1.73,0,2.31c0,0.58-0.58,0.58-1.73-0.58
		c-1.16-1.16-3.47-2.31-4.05-1.73s0.58,0.58,0,1.73s-1.73,0.58-1.16,1.73c0.58,1.16,1.16,2.31,2.31,2.31c1.16,0,1.73,0,1.16,1.16
		c-0.58,1.16,0.58,2.89-0.58,2.31c-1.16-0.58-1.16-0.58-1.16-0.58s-0.58-0.58-0.58,0.58s0,3.47-0.58,2.31
		c-0.58-1.16-1.73-3.47-2.31-4.05s-0.58,0-0.58-1.16s0-2.31-0.58-2.31c-0.58,0-2.31,0.58-1.73-0.58c0.58-1.16,0-1.73-0.58-1.16
		c-0.58,0.58-1.16,1.16-1.16,1.73c0,0.58,0,0.58-0.58,1.16c-0.58,0.58-0.58,1.73-0.58,1.73s0.58,0-0.58,0.58
		c-1.16,0.58-1.73,1.73-2.31,2.89c-0.58,1.16,0,4.05,0,4.05c0,1.16,0,1.73,0.58,1.73c0.58,0,2.31,0,1.73,0.58
		c-0.58,0.58-3.47,3.47-4.05,3.47c-0.58,0-1.73,0-1.73,1.16c0,1.16,0,1.16-0.58,1.73c-0.58,0.58-0.58,1.73-1.16,2.89
		c-0.58,1.16-1.16,3.47-3.47,4.63c-2.31,1.16-7.52,3.47-9.25,3.47c-1.73,0-1.16,0-1.73,0.58c-0.58,0.58-2.31-0.58-3.47-0.58
		s-2.31,0.58-2.31,1.73s-0.58,0.58-2.31,1.16c-1.73,0.58-3.47-0.58-4.05,0.58c-0.58,1.16-0.58,2.89-2.31,2.89s-2.31,0-2.31,0
		c-0.58,0.58-0.58,1.16-1.16,0.58c-0.58-0.58,0-1.73-1.16-1.16c-1.16,0.58-2.89,2.31-2.89,1.16c0-1.16,0.58-2.31,0-2.31
		c-0.58,0-2.31,0-1.73,1.16c0.39,0.78,0.78,1.3,0.64,1.55c-0.12,0.2-0.53,0.19-0.64,0.18C85.04,304.02,84.12,304.41,82.27,305.2z"/>
	<path class="st1" d="M248.25,437.06c-1.16,0.58-1.16,1.16-4.05,1.16c-2.89,0-4.05-0.58-3.47,1.16s1.73,1.73,4.05,1.73
		s2.31,0.58,2.89,0.58s0-0.58,1.16-1.16c1.16-0.58,1.73-0.58,2.89-0.58c1.16,0,2.31-0.58,0.58-1.16c-1.73-0.58-2.31,1.16-2.89,0
		c-0.58-1.16,0.29-1.73-0.43-1.73C248.25,437.06,248.25,437.06,248.25,437.06z"/>
	<path class="st1" d="M307.81,483.9c0.61-0.24,0.93-1.03,1.25-0.92c0.12,0.04,0.21,0.18,0.27,0.46c0.22,1.04-0.07,0.34,1.23,0.69
		c1.3,0.35,0.72,0.93,3.04,2.09c2.31,1.16,2.31,1.73,4.63,1.16c2.31-0.58,1.73-0.58,2.31-1.16c0.58-0.58,4.63,0.58,5.78-0.58
		c1.16-1.16,1.73,0.81,3.18-0.46c1.45-1.27,2.02-1.85,2.6-0.69c0.58,1.16,0.29,1.61,0.72,3.12c0.43,1.51,0.72,2.38,0,3.97
		c-0.72,1.59-0.14,4.48-0.72,3.9c-0.58-0.58-2.31,0-1.73,1.73c0.58,1.73,1.16,1.16,0,1.73s-0.58-0.58-0.58,1.16s1.16,4.63,0,4.63
		s-3.18,1.16-2.46,0s1.88-1.16,0.14-1.73c-1.73-0.58-3.47-2.89-2.89-1.16c0.58,1.73,2.02,2.76,0.72,3.41
		c-1.3,0.64-2.46,0.06-2.46,1.22s0.58,1.73-1.16,2.31c-1.73,0.58-2.89,0-2.89,0c-0.58-0.58-1.73-1.16-2.89-0.58
		c-1.16,0.58-1.73,1.16-1.73,0s-0.58-2.89-1.73-3.47c-1.16-0.58-1.73-0.58-2.31-1.73c-0.58-1.16-1.16-2.31-1.73-4.05
		c-0.58-1.73,0.58-2.06,0-3.05c-0.91-1.57-2.31-3.89-2.31-3.89c-0.71-1.08-1.05-2.07-1.73-4.05c-0.4-1.16-0.68-2.2-0.58-3.47
		c0.06-0.77,0.12-1.51,0.58-1.73C305.24,482.31,306.61,484.38,307.81,483.9z"/>
	<path class="st2" d="M365.75,643.28c0,0-1.73,1.16-2.89,1.73s-2.31,1.73-3.47,2.31c-1.16,0.58-1.73,2.31-2.89,3.47
		s-1.45-1.16-2.46,0c-1.01,1.16-2.17,0-2.75,2.31c-0.58,2.31,0.58,2.31-1.16,3.47c-1.73,1.16-0.58-0.58-1.73,1.73
		c-1.16,2.31,1.16,0.58-1.16,2.31c-2.31,1.73,0,2.46,0,2.46s1.73-3.04,1.16-0.72c-0.58,2.31,0,2.31,1.16,2.31s1.16-0.58,3.47,0
		c2.31,0.58,2.89-0.58,3.47,1.16c0.58,1.73,0.58,0.58,2.31,1.16c1.73,0.58,1.16-0.58,1.73,1.16c0.58,1.73,0.29-1.16,2.17,0
		c1.88,1.16,2.75,1.14,4.92,0.57c2.17-0.57,6.22-2.88,7.37-4.04c1.16-1.16,4.05-1.16,3.47-2.89c-0.58-1.73-1.16-0.58,0.58-2.31
		s1.16-2.89,1.73-4.05c0.58-1.16,2.89-1.73,2.31-3.47c-0.58-1.73,0.09-3.61,0.09-3.61s2.22-0.43,3.38-1.59s0-1.73,1.16-1.16
		c1.16,0.58,1.73-2.89,3.18-2.31c1.45,0.58,4.05-1.29,4.77-0.07c0.72,1.22,2.75,0.24,0.87-0.42c-1.88-0.67-2.46-1.25-1.88-2.98
		c0.58-1.73,0.58-3.47,1.73-3.47c1.16,0,2.89-1.73,4.05-3.47c1.16-1.73,0.58-2.89,2.31-3.47c1.73-0.58,0-1.16,1.73-2.31
		c1.73-1.16,1.73-2.89,1.73-2.89l-0.58-2.89l1.16-1.73l-2.31-1.16c0,0-2.31-1.16-4.05,0.58s-2.89,1.73-3.47,0.58
		c-0.58-1.16,1.16-3.47-0.58-3.47c-1.73,0-1.16,0-2.89-1.16c-1.73-1.16-2.02-0.58-3.04,1.16c-1.01,1.73-1.01,4.05-1.01,4.05
		s0,0-1.16,1.73s-2.89,4.05-3.47,5.78c-0.58,1.73-0.58,2.31,0.58,2.31s-3.47,6.36-4.63,5.78s-1.73,0-1.73,0s0.58,1.73-1.16,1.73
		c0,0-1.16,0-2.31,0c-1.16,0-3.47-0.58-2.31,0.58c1.16,1.16,1.16,0.58,0,1.16s-2.31,1.16-1.73,1.73c0.58,0.58,0.58,0.58,0.58,0.58
		s-0.29-0.23-1.3,0.17c-1.01,0.4-0.43,0.98-2.17,0.98S365.75,643.28,365.75,643.28z"/>
	<path class="st2" d="M409.7,586.61c0.58,1.16,0,2.31,1.16,2.31s2.31-0.58,0.58,0.58c-1.73,1.16-2.31,0-1.73,1.16
		c0.58,1.16,0.14,0.58-0.22,2.02c-0.36,1.45,0.94,3.47,0,5.06s-1.66,1.99-1.66,1.99s-6.22,1.33-5.64,3.07
		c0.58,1.73,3.47,2.31,3.47,2.31c1.16,0.58,1.16,2.89,2.89,2.89c1.73,0,4.05,0,4.63,2.31c0.58,2.31,0.58,6.94-1.16,8.1
		c-1.73,1.16-3.47,1.16-2.31,2.31c1.16,1.16,3.58,0.58,3.82,1.73c0.23,1.16-0.35,1.73,1.97,0.58c2.31-1.16,4.63-4.63,6.36-6.94
		c1.73-2.31,2.31-1.16,3.47-3.47c1.16-2.31,4.05-5.78,2.89-5.78c-1.16,0-2.89,1.21-1.45-1.71c1.45-2.92,0.87-4.65,3.76-4.65
		s4.05,2.89,4.05,1.16s-2.31-3.18,0-3.61c2.31-0.43,1.73-0.43,2.89-2.75c1.16-2.31-1.16-3.47,0.58-4.63
		c1.73-1.16,4.63-1.16,1.73-2.31s-3.47-2.31-5.78-0.58c-2.31,1.73-0.58,4.05-3.47,3.47c-2.89-0.58-8.67-1.16-9.83-2.89
		c-1.16-1.73-1.16-2.89-1.73-4.63c-0.58-1.73,1.73-2.89,0-3.47c-1.73-0.58-4.34-1.73-3.61,0s2.46,5.2,0.72,4.05
		c-1.73-1.16,0.58-2.31-1.73-2.31c-2.31,0-2.31-0.58-2.89,1.16C410.85,584.87,409.7,586.61,409.7,586.61z"/>
	<path class="st2" d="M409.59,581.23c0.41-0.53,0.26-0.56,0.68-0.98c1.16-1.16-0.58-0.58,0-2.31c0.58-1.73,0.41-2.02-0.37-2.75
		c-0.78-0.72-0.78-0.43-0.78-1.73c0-1.3,0.58-1.3,0-3.04c-0.88-2.64-1.27-3.98-2.31-4.77c-0.55-0.42-1.14-0.62-2.31-1.01
		c-0.93-0.31-1.74-0.48-2.31-0.58c-1.18-0.78-1.88-0.76-2.31-0.58c-0.82,0.35-0.79,1.38-1.73,1.73c-0.86,0.32-1.5-0.29-1.73,0
		c-0.36,0.45,0.69,2.51,2.31,2.89c0.9,0.21,1.19-0.28,1.73,0c1.42,0.71,0.55,4.63,1.7,4.86c1.77,0.35,1.19-0.81,1.77,0.35
		c0.58,1.16,2.31,2.02,2.89,2.17c0.58,0.14,1.73-1.59,0.58,0.14s-1.16,1.45-0.58,3.04c0.88,2.41,0.86,3.84,1.45,3.9
		C408.54,582.59,408.89,582.14,409.59,581.23z"/>
</g>
<g id="Layer_2">
	<path class="st3" d="M181.69,305.02c0.01-0.11,0.06-0.22,0.15-0.22C181.92,304.8,181.85,304.88,181.69,305.02z"/>
	<path class="st3" d="M541.81,509.7c1.48-1.63,1.49-3.57,1.49-4.47c0-1.49-0.99,0-1.98-0.5c-0.99-0.5-0.99-0.99-0.99-1.98
		s-3.47-1.49-4.96-2.48c-1.49-0.99,0-3.47,0-4.47s-0.5-0.99-1.49-1.49c-0.99-0.5-1.49-2.48-1.98-3.47s-3.47-4.47-4.47-6.45
		c-0.99-1.98,0,0,0.99-0.99c0.99-0.99,0.99,0,1.49-1.98c0.5-1.98-1.98-0.99-1.49-2.48s0.5-1.49-0.99-2.48
		c-1.49-0.99-1.49,0-2.61,0.99c-1.12,0.99-2.36,0.99-3.85,0c-1.49-0.99-1.49-0.5-2.48-1.49c-0.99-0.99,0-2.48-0.99-3.97
		s-0.99-1.98-1.98-3.47c-0.99-1.49-1.98-0.5-3.47-0.99c-1.49-0.5-3.97-0.99-5.46-1.98s-1.49-0.99-1.98,0s0,0.99-0.99,1.49
		c-0.99,0.5-2.48,0.99-3.47,1.98c-0.49,0.49-1.83,0.86-3.05,1.11c-0.03,0.25-0.07,0.5-0.12,0.73c-0.98,4.91-4.91,8.84-8.84,10.81
		c-3.93,1.96-2.95,0.98-5.9,0.98c-2.95,0-6.88,3.93-8.84,5.89c-1.97,1.96-6.88,1.96-9.82,1.96c-2.95,0-6.88,0-8.84,0.98
		c-1.96,0.98-1.96,0-3.93-1.96c-1.96-1.96-1.96-0.98-3.93-0.98c-1.96,0-4.91,1.96-5.89,0.98c-0.98-0.98-1.96-1.96-3.93-0.98
		c-1.96,0.98-5.89,1.96-9.82,2.95c-3.93,0.98-7.86,2.95-9.82,5.89c-1.96,2.95-6.88,8.84-7.86,10.81c-0.98,1.96-7.86,1.96-10.81,2.95
		c-2.95,0.98-5.89,0.98-12.77,0.98c-6.88,0-7.86-2.95-8.84-4.91c-0.98-1.96-3.93-3.93-5.9-6.88c-1.96-2.95,0.98-0.98,1.97-3.93
		s0-3.93,0.98-6.88c0.98-2.95,1.97,0,2.95-0.98s0.98-2.95,0-4.91s0-8.84,0-11.79c0-2.95,0-1.96,1.96-1.96c1.96,0,1.96,0,2.95-3.93
		c0.98-3.93,0-2.95-0.98-6.88c-0.98-3.93,1.96-2.95,3.93-5.89c1.97-2.95,1.97-3.93,1.97-6.88c0-2.95,1.96-1.96,4.91-3.93
		c2.39-1.59,4.13,0.69,4.7,1.61c0.14,0.22,0.21,0.35,0.21,0.35s0.98,0.98,3.93,1.96c2.95,0.98,2.95,0,6.88-1.96
		c3.93-1.96,1.96-0.98,4.91,0c2.95,0.98-5.89,5.89-7.86,8.85c-1.96,2.95,0,1.96,1.96,0.98c1.96-0.98,4.91,0.98,7.86,0.98
		c2.95,0,0.98,1.96,0.98,5.89c0,3.93,3.93,1.96,7.86,0c3.93-1.96,0.98-2.95,1.97-4.91s0.98-0.98,2.95-1.96
		c1.96-0.98,1.96-0.98,2.95-3.93c0.98-2.95,0.98,0,2.74-0.49c1.76-0.49,3.15,0.49,4.13-2.46c0.13-0.4,0.34-0.72,0.6-0.98v-2.58
		l0.39-1.35c-2.95,0.98-2.95,0.98-5.89,1.96s-0.98,1.96-4.91,1.96c-3.93,0-2.95-2.95-4.91-3.93c-1.96-0.98-1.96-0.98-0.98-3.93
		c0.98-2.95,2.95-4.91,4.91-6.88c1.96-1.96,3.93-2.95,4.91-3.93c0.98-0.98,5.89-4.91,5.89-4.91s0-2.95,2.95-3.93
		c1-0.33,2.89-1.67,4.85-3.04c1.12-1.33,1.89-2.3,1.73-2.3c-0.5,0-3.47,2.98-4.96,3.47s0-0.99-0.99-3.47
		c-0.99-2.48,0-1.98,0.99-2.98c0.99-0.99,0.99-1.49,1.49-3.47S449.02,405,451,404c1.98-0.99-0.5-6.95-1.98-7.44
		s-2.48-1.98-2.48-2.48c0-0.5-0.5-1.49-1.49-2.48c-0.99-0.99,0.99-2.98,1.98-5.32c0.99-2.34-0.99-1.62-1.98-3.61
		c-0.99-1.98-0.5,0.99-1.98,1.49c-1.49,0.5-9.92-0.99-12.9-1.49s-0.99,0.5-2.98,1.49c-1.98,0.99-2.98-1.98-4.47-3.47
		c-1.49-1.49-4.96,3.47-6.45,4.47c-1.49,0.99-2.98-0.5-4.96,0c-1.98,0.5-2.48,1.49-3.97,0.99s-1.98-3.97-3.97-6.77
		s-2.48-0.67-2.48-0.18s-4.96,0-6.95-1.98c-1.98-1.98,0-2.48,0.5-3.97c0.5-1.49-4.47-3.97-6.95-5.46c-2.48-1.49-4.47,1.98-4.96,2.48
		c-0.5,0.5-2.48,1.49-4.47,0.99s-0.5,1.49-0.99,3.47c-0.5,1.98-1.49,0.5-3.97,0s-2.48-3.47-3.47-5.95
		c-0.99-2.48-1.49-1.49-1.49-4.47c0,0,0.5-1.49,1.98-0.99c1.49,0.5,1.98,0.5,3.47-0.99s0.99-1.98,1.98-4.47
		c0.99-2.48-1.98-1.98-3.47-2.48c-1.49-0.5-4.47,0-4.47-1.49s-0.5-1.98-2.48-1.98s-2.98-0.99-3.97-2.98s-2.48-1.98-3.37-3.6
		c-0.89-1.61-0.6-0.87-0.1-2.85s-0.99-2.98-1.61-5.05c-0.62-2.07-3.35-2.4-4.34-2.89c-0.99-0.5-4.96,1.49-6.2,2.56
		c-1.24,1.07-2.73-0.57-3.1-2.56c-0.37-1.98-3.6,0-6.08,0c-2.48,0-1.49-1.98-3.47-4.96c-1.98-2.98-2.48-2.48-3.47-5.46
		c-0.99-2.98-1.49-3.47-1.98-3.97s-1.49-3.47-1.49-3.47s0.5-2.48,0.12-3.76c-0.37-1.28-1.61-0.21-2.11-2.2
		c-0.04-0.16-0.07-0.29-0.09-0.4c0.39,0.46-0.22-1.08,0,0c-0.04-0.04-0.09-0.11-0.15-0.21c-0.74-1.11-0.74-1.87-1.74-4.84
		c-0.99-2.98,0-1.98,0.5-3.97c0.5-1.98,0.5-2.98,1.98-5.46c1.09-1.82,0.31-1.77-0.57-2.4c-0.33,0.56-0.62,1.08-0.85,1.54
		c-0.98,1.96-8.84,0.98-11.79,0.98c-2.95,0-5.89,0.98-8.84,2.95c-2.95,1.96-4.91,3.93-6.88,5.89c-1.96,1.96-3.93,1.96-6.88,1.96
		s0,1.96,2.95,3.93c2.95,1.96-0.98,0.98-2.95,2.95c-1.96,1.97,0,4.92,0.98,7.86c0.98,2.95,1.96-1.96,2.95-3.93
		c0.98-1.96,2.95-2.95,3.93-3.93c0.98-0.98,1.96-1.96,2.95,0c0.98,1.97,2.95,0,4.61-0.97c1.66-0.97,1.29,1.96,1.29,3.92
		c0,1.96,0,3.93,0.98,7.86c0.98,3.93,0,2.95-1.96,4.91c-1.96,1.96-2.95,0.98-5.89-2.95s-6.88-3.93-8.84-1.96
		c-1.96,1.96-2.95,7.86-3.53,12.64c-0.59,4.77,3.53,11.92,3.53,14.87c0,2.95-2.95,5.89-5.89,6.88c-2.95,0.98-1.96,0.98-0.87,3.38
		c1.09,2.4,0.87,1.53-2.07,4.48s-7.86,0.98-8.05-1.28c-0.18-2.26-4.72-3.63-6.45-2.34c-1.72,1.29-7.12,4.6-9.09,6.41
		c-1.96,1.82-0.98,1.14-1.96,2.12c-0.98,0.98-6.88,2.95-10.81,3.93c-3.93,0.98-2.95,0.98-4.91,0c-1.96-0.98,0-1.96-1.96-5.89
		c-1.96-3.93-1.96-0.98-3.23,0.98c-1.26,1.96-0.7,0.98-3.65,0.98c-2.95,0-1.96,0-3.93,0.98c-1.96,0.98-0.98,0-2.95,1.96
		c-1.96,1.96-1.96,0.98-2.95,1.96c-0.98,0.98-1.96,0.98-2.92-1.88c-0.95-2.85,1.94-2.05,2.49-4.02c0.55-1.96-2.51,0-4.48,0
		c-1.96,0-0.98,0-2.95-0.98c-1.97-0.98-1.97-2.95-2.62-6.03c-0.64-3.09,0.65-0.84,3.6,0.14c2.95,0.98,0.98,1.96,2.95,0.98
		c1.96-0.98,0-0.98-0.38-5.26c-0.36-4.3-3.55-2.6-5.52-3.58c-1.96-0.98,0-0.98,1.97-1.96c1.96-0.98,0.98-0.98,3.93-2.95
		c2.95-1.96,0-2.95-0.98-4.91c-0.98-1.96-0.98-0.98-2.95-2.95c-1.97-1.96,0.98-3.93,0.98-5.89s0.98-1.96,0-4.91
		c-0.98-2.95-0.98-0.98-3.93,0c-2.95,0.98-0.98,3.93-4.26,4.78c-3.29,0.84-4.58,0.13-6.54,1.11c-1.96,0.98-1.96,6.88-1.96,9.82
		s0,8.84,2.95,10.81c2.95,1.96-0.98,2.95-1.96,5.89c-0.98,2.95,0,1.96,2.95,3.93c2.95,1.96,0.98,1.96-0.98,1.96
		c-1.96,0,0.98,2.95,1.96,4.91c0.98,1.96-0.98,1.96-1.96,2.95c-0.98,0.98,0,1.96-0.98,2.95c-0.98,0.98-3.93-0.98-4.91-1.96
		c-0.98-0.98-4.91,0-4.91,1.96c0,1.96-3.93,1.96-5.56,1.47c-1.62-0.49-6.23,1.47-8.2,3.44c-1.96,1.96,0.98,1.96,1.96,4.91
		c0.98,2.95,0,1.96-1.96,3.93c-1.96,1.96-1.96-0.98-0.98-2.95c0.98-1.96-1.96-3.93-1.96-5.89s-2.95,2.95-2.95,6.88
		c0,3.93-1.96,3.93-3.93,6.88c-1.96,2.95-0.98,0.98-2.95,1.96s-1.96,1.96-2.95,3.93c-0.98,1.96-1.96,1.96-2.95,1.96
		s-5.26,3.02-5.26,3.02l-1.61,9.76l20.57,65.29l14.8,18.23c0,0,1.96-0.98,4.91-0.98c2.95,0,2.95-0.98,4.91-2.95
		c1.96-1.96,3.93-3.93,7.86-3.93c3.93,0,0.98,1.96,3.93,2.95c2.95,0.98,6.88,2.95,5.9,6.88c-0.99,3.93,3.93,6.88,5.89,10.81
		c1.96,3.93,0.98,1.96,3.93,2.95c2.95,0.98,2.95,1.97,4.91,4.91s4.91,4.91,6.88,6.88c1.96,1.96,6.88,2.95,9.82,2.95
		c2.95,0,2.95,0.98,4.91,3.93c1.96,2.95,3.93,1.97,5.89,2.95c1.96,0.98,1.96,0.98,1.96,3.93c0,2.95,3.93,1.96,6.88,2.95
		c2.95,0.98,0.98,0.98,2.95,2.95s2.95,4.91,3.93,8.84s0,2.95-1.96,3.93c-1.96,0.98,0,1.96-0.98,2.95c-0.98,0.98-1.96,2.95-3.93,3.93
		c-1.96,0.98-6.88,1.97-8.84,2.95c-1.96,0.98-5.89,0.98-7.86,0.98c-1.96,0-3.93-3.93-4.91-2.95c-0.98,0.98-1.96,1.97-4.91,1.97
		s-1.96,0-2.95,3.93c-0.98,3.93,3.93,2.95,6.88,3.93c2.95,0.98,1.96,1.96,4.26,2.51c2.31,0.54,3.6,2.41,6.54,2.41s0.98,0,1.96,1.97
		c0.98,1.96,3.93,1.96,6.88,1.96s0.98-1.96,2.95-2.95c1.96-0.98-0.98-2.95-1.96-5.9c-0.98-2.95,0.98-2.95,1.96-5.89
		c0.98-2.95,0.98-1.96,1.96-0.98c0.98,0.98,3.93,0.98,4.91-0.98c0.98-1.97,2.95-3.93,3.93-5.89c0.98-1.97,0-1.97,0-4.91
		s2.95-1.96,4.91-1.96c1.96,0,0.98-2.95,0-4.91c-0.98-1.96-2.95-2.95-4.91-2.95s-1.96-1.96-0.98-3.93c0.98-1.97,1.96-6.88,4.91-7.86
		c2.95-0.98,1.96,1.96,4.91,1.96c2.95,0,1.96,0,2.95,1.97c0.98,1.96,1.96,2.95,3.93,3.93c1.96,0.98,1.96-3.93,0.98-6.88
		c-0.98-2.95-7.86-4.91-10.81-5.89c-2.95-0.98-9.82-2.95-12.77-4.91c-2.95-1.96-1.96-1.96-0.98-2.95c0.98-0.98,1.96-1.96,0.98-3.93
		s-6.88,0-9.82,0c-2.95,0-4.91-2.95-8.84-5.89c-3.93-2.95-2.95-5.89-3.93-9.82c-0.98-3.93-3.93-4.91-8.84-7.86
		c-4.91-2.95-3.93-2.95-4.91-5.89c-0.98-2.95,0.98-3.93,1.96-5.89c0.98-1.96-2.95-2.95-2.95-5.89c0-2.95,7.86-3.93,9.82-4.91
		c1.96-0.98,0.98,1.96,0,3.93c-0.98,1.96,2.95,6.88,3.93,8.84c0.98,1.96,2.95-1.96,4.91-4.91c1.96-2.95,0-1.96,1.96-1.96
		c1.96,0,1.96,3.93,2.95,4.91c0.98,0.98,0.98,7.86,1.96,9.82c0.98,1.96,5.89,4.91,7.86,4.91c1.96,0,5.89,3.93,8.84,4.91
		c2.95,0.98,1.96,0.98,3.93,2.95c1.96,1.96,0.98,0.98,3.93,0.98s3.93,1.96,8.84,3.93c4.91,1.96,7.86,3.93,9.82,5.89
		c1.96,1.96,0,14.74,0,16.7c0,1.96,0.98,1.96,3.93,3.93c2.95,1.97,0.98,1.97,3.93,3.93c2.95,1.97,0.98,1.97,1.96,2.95
		c0.98,0.98,2.95,3.93,5.89,4.91c2.95,0.98,1.96,0,0,1.97c-1.96,1.96,0,0.98,1.96,1.96s1.96,1.96,3.93,3.93
		c1.96,1.96,2.95-0.98,4.91-1.96s8.84,0.98,12.77,0.98s0,1.97-0.98,2.95c-0.98,0.98-4.91-0.98-6.88-0.98c-1.96,0-4.91-0.98-5.89,0
		l-3.93,3.93c-1.96,1.96,1.96,2.95,3.93,3.93c1.96,0.98,1.96,3.93,0.98,5.89s2.95,4.91,3.93,3.93c0.98-0.98,2.95-4.91,4.91,0
		c1.96,4.92,1.96,1.96,2.95-0.98c0.98-2.95,2.95,0.98,4.91,2.95c1.96,1.97-2.95-9.82-4.91-12.77c-1.96-2.95,0,0,2.95,1.97
		c2.95,1.96,0.98,0,2.3,0.15c1.32,0.16,1.63-1.13,1.63-2.11s0-1.96-0.98-1.96s-1.96-0.98-2.95-2.95c-0.98-1.96,0,0,0-0.98
		c0-0.98,1.96,0,4.91,0.98c2.95,0.98,1.97,0,2.95,0.98c0.98,0.98,1.96,0,1.96-0.98c0-0.98-0.98-1.96-0.98-3.93
		c0-1.96,1.96,0.98,2.95,0s0.98,0.98,5.89,2.95c4.91,1.97-2.95-2.95-6.88-4.91c-3.93-1.96-0.98-1.96-1.96-3.93
		c-0.98-1.96-3.93-1.96-6.88-1.96c-2.95,0-0.98-1.97-1.96-4.91c-0.98-2.95-1.96-2.95-4.91-4.91c-2.95-1.96-1.96-1.96-3.93-4.91
		c-1.96-2.95-1.96-2.95,0-4.91c1.96-1.96,0.98,0.98,3.93,1.96c2.95,0.98,1.96,2.95,4.91,3.93c2.95,0.98-2.95-2.95-0.98-3.93
		c1.96-0.98,0.98,0.98,4.91,1.96c3.93,0.98-1.96-1.96-2.95-3.93s3.93,0,5.89,0.98c0.19,0.09,0.3,0.14,0.34,0.15
		c-0.36-0.31-5.56-3.25-7.21-4.08c-1.96-0.98,0-0.98,0-0.98s3.93-0.98,4.91-2.95c0.98-1.96,0-0.98,1.97-0.98
		c1.97,0,2.95,0.98,3.93-0.98s5.89-0.98,8.84-0.98c2.95,0,1.97,0.98,1.97,1.96s2.95,0,4.91-0.98s2.95,0.98,4.91-0.98
		c1.96-1.96,1.96-2.95,2.95-4.91c0.98-1.96,2.95-0.98,4.91-1.96c1.96-0.98,2.95-0.98,4.91-0.98s3.93-0.98,4.91-0.98
		s2.95,2.95,0.98,3.93c-1.96,0.98-2.95,1.97-0.98,2.95c1.96,0.98-3.93,1.96-6.88,1.96c-2.95,0-3.93,0.98-4.91,1.96
		c-0.98,0.98-4.91,0-6.88,0.98c-1.96,0.98-3.93,2.95-5.89,5.89s0.98,7.86,1.96,6.88s2.95-1.97,4.91-1.97c1.96,0,0,1.97,0.98,4.91
		s1.97,1.97,1.97,2.95c0,0.98-1.97,1.97-0.98,2.95c0.98,0.98,2.95,2.95,0.98,2.95c-1.97,0-2.95,0.98-3.93,2.95
		c-0.98,1.97,2.95,0,4.91,0c1.96,0,3.93,0.98,3.93,2.95c0,1.96,0.98,4.91,3.93,5.89c2.95,0.98,0,1.96-0.98,3.93
		c-0.98,1.96,5.89-0.98,8.84-0.98s-0.98,1.96-2.95,2.95c-1.96,0.98,2.95,0.98,5.89-1.96c2.95-2.95,1.97,0.98,3.93,0.98
		c1.97,0,2.95,1.96,3.93,2.95c0.98,0.98,6.88,1.97,7.86,0c0.98-1.96,1.97-0.98,4.91-1.96c2.95-0.98,0-3.93,0.98-6.88
		c0.98-2.95,2.95-0.98,6.88-1.96c3.93-0.98,6.88,0.98,8.84,1.96c1.97,0.98,3.93,2.95,6.88,2.95c2.95,0,7.86-4.91,10.81-6.88
		c2.95-1.96,0.98-4.91,4.91-7.86c3.93-2.95,1.96-0.98,3.93,0s3.93,0,6.88-1.96c2.95-1.97,0,0,0.98-2.95c0.98-2.95,0.98-0.98,2.95,0
		c1.97,0.98,0,2.95-1.96,5.89s0,0.98,0.98,1.97c0.98,0.98,0.98,1.96,2.95,2.95c1.97,0.98,1.97-0.98,1.97-1.97
		c0-0.98,0.98-0.98,1.96-2.95c0.98-1.96,0.98-1.96,0-3.93c-0.98-1.97-0.98-0.98-0.95-3.83c0.03-2.86,2.92-1.08,4.88-0.1
		c1.96,0.98,6.88-5.89,8.85-6.88s1.96-0.98,2.95,0c0.98,0.98,9.82-1.96,13.75-3.93c3.93-1.96,2.95-6.88,5.9-8.84
		c2.95-1.96,3.93-0.98,9.82-4.91c5.89-3.93,0.98-0.98,2.95-2.95c1.96-1.96,1.96,0.98,4.91-2.95c2.95-3.93,0.98-0.98,4.91-1.96
		c3.93-0.98,3.93-0.98,4.91-2.95c0.36-0.72,0.72-1.05,1.08-1.07c0.77-0.05,1.07,2.06,1.86,2.05
		C541.29,510.15,541.45,510.1,541.81,509.7z"/>
	<path class="st3" d="M330.92,247.7c-0.5-3.47-7.94-4.96-9.75-5.58c-1.81-0.62-0.67-2.36-0.17-4.84s0-2.48-2.48-3.47
		c-2.48-0.99-1.49-1.49-1.49-2.98c0-1.49-0.99-2.48-3.47-2.61c-2.48-0.12,0-1.36-0.99-2.85c-0.99-1.49,0-7.44-1.49-10.42
		c-1.49-2.98-4.96-7.94-6.95-11.29c-1.98-3.35,0-3.1,0-5.58s-0.5-3.97-1.98-5.95c-1.49-1.98-3.47-1.98-5.46-1.98s-1.49-1.98-1.61-4
		c-0.12-2.02-1.36-4.93-1.36-4.93s0.99-3.47,1.49-4.96s0.99-0.99,1.49-2.98c0.5-1.98,2.98-1.49,4.96-1.98
		c1.98-0.5,0.5-2.98,0.5-2.98l0.09-0.82c-2.64,3.53,0.12-0.24-2.76-0.24c-2.95,0-1.96,0-3.93,0c-1.96,0-0.98-1.96,0.98-2.95
		c1.96-0.98,0.98-0.98,1.96-2.95c0.98-1.96,0-1.96-1.96-3.93c-1.96-1.96-8.84,0-9.82-0.98c-0.98-0.98-0.98-0.98-3.93-0.98
		c-2.95,0-0.98,0.98-0.98,2.95c0,1.96,0,4.91-0.98,5.89s-0.98-3.93-1.96-5.89c-0.98-1.96-1.96,7.86-2.95,10.81s-0.98-8.84,0-11.79
		c0.98-2.95-2.95-0.98-6.88,0.98c-3.93,1.96-0.98,0.98,1.96,2.95c2.95,1.96-3.93,0.98-6.88,1.96c-2.95,0.98-2.95,2.95,0,2.95
		c2.95,0-0.98,2.95-3.93,2.95s-1.96,0.98-1.5,2.7c0.46,1.72-0.46,0.24-2.43,0.24c-1.96,0-3.93-0.98-6.88,0.98
		c-2.95,1.96-0.98,0.98-0.98,2.95c0,1.96-0.98,2.95-3.93,4.92c-2.95,1.96-2.95,5.89-1.96,8.84c0.98,2.95-0.98,0.98-2.95,0
		c-1.96-0.98-0.98-2.95-1.96-4.91c-0.98-1.96-1.96,1.96-3.93,4.91c-1.96,2.95-1.96,0.98-2.95,3.93c-0.98,2.95,3.93,0.98,3.93,1.96
		s-7.86,1.96-10.81,6.88c-2.95,4.91,1.96,0.98,3.93-0.98c1.96-1.96,8.84-3.93,11.79-3.93c2.95,0-1.96,1.96-4.91,3.93
		c-2.95,1.96-0.98,0.98-0.98,3.93s0,2.95-0.98,4.91c-0.98,1.96-2.95,3.93-4.91,5.89c-1.96,1.96-1.96,4.91-1.5,7.59
		c0.46,2.69-1.44,1.25-3.41,0.27c-1.96-0.98,0,0.98,0,2.95c0,1.96,1.96,1.96,0.65,3.93c-1.32,1.96-1.63,0-3.59,0
		c-1.96,0,0,0.98,1.96,1.96c1.96,0.98,0,1.96-0.98,4.91c-0.98,2.95-2.95,2.95-4.91,2.95c-1.96,0-0.98,0,0.98,1.96
		c1.96,1.96,0,0.98-0.98,1.96c-0.98,0.98-0.98,1.96-3.93,1.96c-2.95,0,0,1.96-0.98,3.93c-0.98,1.96,0,2.95-0.92,3.39
		c-0.92,0.44-1.04,0.54-2.02,2.51c-0.98,1.96-1.96,0-4.91-1.96c-2.95-1.96-0.98,1.96-1.96,2.95c-0.98,0.98-0.98,1.96-2.81,1.78
		c-1.83-0.18,0.84,2.15,0.84,3.14s-2.95,0.98-2.95,0.98s-1.96,0.98-1.96,1.96s0,1.96-0.98,1.96c-0.98,0-1.96,0-1.96,0.98
		s-0.98,2.95-0.98,1.96c0-0.98-1.96,0-2.95,0.98c-0.98,0.98,0,1.96-2.02,1.46c-2.02-0.51-1.91,0.5-1.91,2.47
		c0,1.96-0.98,0-2.95,1.96c-1.96,1.96,0.98,2.95,1.96,3.93c0.98,0.98-2.95,1.96-3.52,5.19c-0.57,3.22,0.57,2.67,0.12,5.81
		c-0.46,3.14,0.45,5.71,1.96,7c1.5,1.28,1.44,0.67-0.52,2.64c-0.88,0.89-1.17,1.37-1.06,1.67c0.21,0.54,1.61,0.1,1.86,0.62
		c0.24,0.53-1.02,1.32-1.94,3.4c-0.34,0.75-0.31,0.98-0.28,1.12c0.19,1.17,1.98,1.9,3.88,1.44c2.46-0.6,1.47-1.38,3.41,0
		c1.94,1.36-3.9,3.53-4.88,5.36c-0.98,1.83,1.96,5.05,6.88,8.98c4.91,3.93,5.89,1.96,9.82,0.98c3.93-0.98,4.91-4.91,7.86-8.84
		c2.95-3.93,2.95-0.98,5.89-1.96c2.95-0.99,0.99-6.88,2.05-9.83c1.08-2.95,0.9,4.91,0.9,5.89c0,0.98,2.97,2.43,2.97,2.43l5.87,2.49
		l7.94-2.94l5.81-10.82l3.93-21.61l15.72-29.47l2.95-11.79l18.67-16.7c0,0,3.93,0,6.88,0c2.95,0,2.95,1.96,3.93,3.93
		c0.98,1.96,0.98,2.95-0.98,2.95c-1.96,0-0.98,0.98-0.98,1.96v3.93c0,1.96-3.93,8.84-4.8,11.21c-0.87,2.36-2.07,3.53-3.06,6.48
		s0.98,1.96-2.95,2.95c-3.93,0.98-3.93,0.98-1.96,2.95s0,2.95-0.98,5.89c-0.98,2.95,2.95,2.95,2.95,4.91c0,1.96,0.98,2.95,1.96,5.89
		c0.98,2.95,0.98,10.81,1.96,12.77c0.98,1.96,4.91,2.95,8.84,5.89c3.93,2.95,7.86,0.98,10.81-0.98c2.95-1.96,10.81-6.88,12.77-8.84
		c1.2-1.2,3.13-2.03,5.12-2.72c0.28-2.31,6.88-11.98,9.11-16.88C329.93,259.11,331.42,251.17,330.92,247.7z"/>
	<path class="st3" d="M223.81,353.93c0.58,0.01,0.54-2.2,1.97-2.95c0.59-0.31,1.39-0.35,1.97,0c0.76,0.45,0.9,1.41,0.98,1.97
		c0.1,0.7,0.06,1.44-0.98,4.91c-0.38,1.26-0.43,1.35-0.42,1.66c0.08,1.62,1.56,2.16,1.4,3.25c-0.13,0.89-1.16,0.75-1.97,1.97
		c-1.08,1.62-0.02,3.02-0.98,3.93c-0.98,0.93-2.96,0.3-3.93,0c-1.52-0.48-3.09-1.47-2.95-1.97c0.17-0.57,2.41,0.3,3.93-0.98
		c0.91-0.77,1.46-2.23,0.98-2.95c-0.65-0.97-2.67,0.2-3.93-0.98c-0.33-0.31-0.55-1.19-0.98-2.95c-0.35-1.41-0.65-3.06-0.65-3.07l0,0
		l0,0c0,0,0.65-1.84,1.63-1.84c1.4,0,2-1.89,2.74-1.63C223.4,352.56,223.36,353.92,223.81,353.93z"/>
	<path class="st3" d="M86.18,346.62c0,0-3.17-0.92-4.98-0.25c-1.81,0.68-0.83,1.66-1.81,2.64c-0.98,0.98-0.98,0-1.97,0.98
		c-0.98,0.98-1.97,1.97-0.98,1.97c0.98,0,2.95-0.98,2.95,0s1.6,1.73-0.68,2.34s-2.27,3.56-5.22,1.59c-2.95-1.97-1.97-3.93-4.91-2.95
		c-2.95,0.98-4.91,0-3.93,2.95c0.98,2.95,2.95,1.25,0.98,3.57s-3.93-0.62-2.95,2.32s0,2.36,2.95,3.64c2.95,1.28,2.95,0.29,1.97,3.24
		c-0.98,2.95-2.49,4.18-5.17,6.02c-2.69,1.84-7.6-1.11-6.62,3.81s1.97,8.84,5.9,9.83c3.93,0.98,8.84-0.98,11.79-1.97
		c2.95-0.98,6.88-2.95,8.84-1.97s1.72,1.97,4.3-0.98c2.58-2.95,3.56-7.86,4.54-10.81c0.98-2.95,1.97-10.81,1.97-10.81L86.18,346.62z
		"/>
	<path class="st3" d="M50.89,182.97c0.73-0.63,2.07-0.49,2.95,0c2.27,1.27,2.77,5.61,1.97,8.84c-0.61,2.44-2.06,5.07-1.57,5.7
		c0.1,0.13,0.28,0.2,0.58,0.2c1.97,0,1.04-1.97,2.49,0c1.44,1.97,1.44,1.97,2.43-0.98c0.98-2.95,2.95-6.88,3.93-3.93
		c0.98,2.95-0.98,1.97,1.97,1.97c2.95,0,3.93,0.98,4.91,1.97c0.98,0.98,0.98-0.98,2.95,0.98c1.97,1.97,3.25,2.74,5.56,1.37
		c2.3-1.37,3.29-3.33,4.27-2.35c0.98,0.98-0.98,4.91,1.97,4.91s2.95,1.97,1.97,2.95s-0.98,0,0,2.95c0.98,2.95,3.93,2.95,1.97,5.9
		c-1.97,2.95,0.98,3.93-0.98,4.91c-1.97,0.98-0.98,2.95-2.95,2.95s-1.97-0.98-3.93,0.98c-1.97,1.97-0.98,1.97-3.93,1.97
		s-4.91,0-6.88,0.98s-2.95,0.98-6.88,0.98s-3.68-1.97-4.79,0c-1.11,1.97-1.11,2.95-5.04,0.98c-3.93-1.97-5.9-4.91-6.88-7.86
		c-0.98-2.95,0.98-3.93-2.95-3.93s-7.86-5.9-3.93-4.91s2.95,1.97,2.95-1.97c0-3.93,4.91-6.88,0.98-6.88s-12.77-2.95-1.97-2.95
		s8.84,0,6.88-1.97c-1.97-1.97,0.98-3.93-1.97-3.93c-2.95,0-7.86,0-6.88-1.97c1.95-3.91,4.91-5.9,4.91-5.9
		c1.43-0.81,2.14-1.21,2.95-0.98c2.16,0.61,2.75,4.97,2.95,4.91C51.09,188.81,49.33,184.32,50.89,182.97z"/>
	<path class="st3" d="M40.08,499.34c0,0-3.93,8.84-3.93,14.74c0,5.9-5.9,17.69-7.86,18.67s-7.86,7.86-5.9,9.83
		c1.97,1.97,1.97,0.98,1.97,2.95s4.91,0,3.93,2.95c-0.98,2.95-7.86,14.74-5.9,15.72c1.97,0.98,3.93-0.98,6.88,0.98
		s4.91,1.97,6.88,0.98c1.97-0.98,10.81-3.93,10.81-3.93l16.7-20.63l6.88-27.51l-5.9-12.77l-13.69-1.97H40.08z"/>
	<path class="st3" d="M206.13,514.08c0,0,0,3.93-1.97,3.93c-1.97,0-4.61-1.81-5.74,1.55c-1.14,3.36,0.83,11.22,1.81,12.2
		c0.98,0.98,1.97,3.93,3.93,0c1.97-3.93,3.93-9.83,2.95-11.79C206.13,518.01,206.13,514.08,206.13,514.08z"/>
	<path class="st3" d="M198.08,539.62c-1.91,0.32-3.35-0.93-4.36-0.28c-0.23,0.15-0.36,0.52-0.36,1.27c0,2.95,1.97,3.93,1.97,6.88
		s-1.97,12.77,0,14.74c1.97,1.97,2.95,3.93,4.91,1.97c1.97-1.97,0.98-2.95,2.95-2.95c1.97,0,4.45,2.82,4.19-1.54
		c-0.08-1.34,0.17-5.29,0.72-13.2c0.06-0.82,0.19-2.58,0-4.91c-0.22-2.75-0.67-3.51-0.98-3.93c-0.77-1.03-2.33-2.18-3.93-1.97
		C200.74,536.02,200.66,539.18,198.08,539.62z"/>
	<path class="st3" d="M352.33,592.2c-0.8,0.28-1.35,0.83-1.77,1.46c-1.97,2.95-1.97,3.93,0.98,3.93s9.33-1.97,10.56,0
		c1.23,1.97,2.03,0.98,5.07,0c3.04-0.98,9.92-2.95,9.92-3.93s0.12-2.27-1.9-1.62s-1.04,0.64-3.99,0.64c-1.97,0-3.93,0.01-5.9,0
		c-7.94-0.05-7.91,0.8-9.83,0C354.76,592.38,353.57,591.78,352.33,592.2z"/>
	<path class="st3" d="M114.75,262.55c-0.63,0.05-0.87-1.93-2-2.16c-0.23-0.04-0.5-0.04-0.95,0.19c-1.97,0.98-2.95,0.98-1.97,3.93
		s-0.98,4.91,0,6.88c0.98,1.97,1.97,3.93,2.95,0.98c1.31-3.93,0.78-5.01,1.97-6.88c0.95-1.5,2.18-1.98,1.97-2.95
		c-0.11-0.5-0.59-1.02-0.98-0.98C115.24,261.61,115.18,262.52,114.75,262.55z"/>
	<path class="st4" d="M104.48,502.63c-0.18-0.11-0.36-0.23-0.54-0.34c-1.35-0.86-8.08-5.12-16.7-5.9c-2.64-0.24-4.53-0.06-7.86-0.98
		c-3.26-0.9-3.94-1.75-6.88-2.95c-6.54-2.66-8.62,0.6-15.72-2.95c-1.97-0.98-4.91-4.91-7.86-2.95c-2.95,1.97-10.81,1.97-11.79,3.93
		c-0.98,1.97,0.98,14.74,0.98,14.74s6.14-1.97,6.51,0s3.32,3.93,4.3,3.93c0.98,0,5.9,0,7.86,0.98c1.97,0.98,4.91,4.91,2.95,6.88
		c-1.97,1.97-6.88,3.93-6.88,5.9s0,4.91-0.98,6.88c-0.98,1.97-2.95,7.86-4.91,7.86c-1.97,0-1.97,2.95-1.97,3.93s2.95,1.97,1.97,3.93
		s-4.91,3.93-3.93,5.9c0.98,1.97,2.95,1.97,1.97,3.93s-6.88,4.91-6.88,5.9s0,4.91,0,4.91s4.91,1.97,5.9,2.95
		c0.98,0.98,2.95,10.81,4.91,11.79c1.97,0.98,4.91,4.91,6.88,2.95c1.97-1.97,6.88-2.95,7.86-2.95c0.98,0,5.62-3.44,8.21-2.21
		s16.35,4.18,19.3,1.23c2.95-2.95,4.91-6.88,6.88-6.88c1.97,0,5.9,0,5.9,0s0.98-5.9,3.93-7.86s8.84-2.95,6.88-4.91
		c-1.97-1.97-4.91-3.93-3.93-6.88c0.98-2.95,8.84-13.76,9.83-13.76c0.98,0,3.93-0.98,3.93-1.97c0-0.98,0-3.93,1.97-3.93
		c1.97,0,5.9-0.98,6.88-0.98s3.93-0.98,4.91-1.97c0.98-0.98,5.9-1.97,7.86-3.93c1.97-1.97,3.93-7.86,1.97-7.86
		c-0.26,0-0.53,0.02-0.82,0.04"/>
	<path class="st4" d="M147.34,519.03c-1.9,0.18-4.35,0.81-6.06-0.04c-1.97-0.98-3.93-1.97-6.88-2.95c-2.95-0.98-7.86-3.93-9.83-3.93
		s-2.95,0-5.9-0.98c-1.4-0.47-2.14-0.71-2.84-1.05c-1.59-0.77-2.65-1.59-3.06-1.9c-1.99-1.54-4.81-3.34-8.3-5.55"/>
	<path class="st4" d="M112.8,508.29c0.05,0.04,0.23,0.18,0.49,0.36c0.55,0.4,1.42,0.98,2.57,1.53c0.7,0.34,1.44,0.58,2.84,1.05
		c2.95,0.98,3.93,0.98,5.9,0.98s6.88,2.95,9.83,3.93c0.9,0.3,1.72,0.6,2.46,0.9c2.47,1,3.27,1.62,4.41,2.04
		c1.26,0.46,3.19,0.78,6.04-0.07c0,0-1.15-4.96-0.17-7.9c0.98-2.95,2.95-2.95,5.9-4.91c2.95-1.97,3.93-0.98,7.86-0.98
		s6.88,3.93,10.81,5.9c3.93,1.97,5.9,0,7.86-0.98c1.97-0.98,7.86-6.88,9.83-8.84c1.97-1.97-1.97-1.97-3.93-2.95
		c-1.97-0.98-2.95-2.95-1.97-4.91s0-1.97-0.98-2.95c-0.98-0.98-1.97-3.93,1.23-4.47c3.19-0.54-0.25-4.37-0.25-7.32
		s0.98-0.98,1.97-1.97c0.98-0.98-1.97-1.97-1.97-4.91s-2.95-1.97-5.9,0c-2.95,1.97-0.98-0.98,0-2.95c0.98-1.97,6.88-8.84,7.86-9.83
		c0.98-0.98,3.93-1.97,4.91-3.93c0.98-1.97,1.97-10.81,4.91-13.76c2.95-2.95-3.93-2.95-6.88-3.93c-2.95-0.98-4.91-2.95-6.88-3.93
		c-1.97-0.98-4.91-2.95-6.88-2.95s-7.86-4.91-9.83-5.9c-1.97-0.98-2.95-4.91-6.88-6.88c-3.93-1.97-2.95-3.93-4.91-5.9
		c-1.97-1.97-3.93-0.98-6.88-0.98s-2.95,6.88-2.95,8.84c0,1.97-6.88,2.95-9.83,3.93c-2.95,0.98-2.95,3.93-3.93,5.9
		c-0.98,1.97-7.86-1.97-8.84-3.93c-0.98-1.97-2.95-2.95-4.91-2.95s0,4.91,0.98,8.84c0.98,3.93-2.95,4.91-5.9,3.93
		c-2.95-0.98-4.91-1.97-6.26-3.93c-1.35-1.97-10.44,0-13.39,0c-2.95,0-1.97,3.93,0,4.79c1.97,0.86-0.98,4.05,0,5.04
		c0.98,0.98,12.77,6.88,15.72,10.81c2.95,3.93,0.98,2.95,0.98,3.93s0.98,3.93,2.95,5.9c1.97,1.97,2.95,7.86,2.95,12.77
		s-9.16,27.93-9.16,27.93C109.77,506.12,112,507.67,112.8,508.29z"/>
	<path class="st4" d="M116.72,356.87c0,0-4.91,2.95-3.93,5.9c0.98,2.95,0.85,4.36,1.9,4.15c1.05-0.21,2.03,0.46,2.03,1.11
		c0,0.64-1.97,6.54-2.95,7.52c-0.98,0.98-5.77,0-6.82,0c-1.04,0-1.04-2.95-3.01-1.97c-1.97,0.98-1.97,3.93-0.98,3.93
		c0.98,0,2.95,3.93,1.97,6.88c-0.98,2.95-7.86,4.91-9.83,5.9c-1.97,0.98-1.97,3.93,0,3.93s6.88,0,6.88,0.98
		c0,0.98,1.47,2.89,3.19,3.41s4.73,1.44,6.66,0s2.92-1.44,2.92-1.44s-2.95,4.91-5.9,4.91s-5.9-1.97-7.86-0.98
		c-1.97,0.98-3.93,4.91-5.9,5.9c-1.97,0.98-9.83,3.93-8.84,4.91c0.98,0.98,2.95,2.95,3.93,1.97c0.98-0.98,0.98-3.93,3.93-2.95
		c2.95,0.98,5.9,2.95,7.86,1.97c1.97-0.98,0.98-3.93,2.95-3.93c1.97,0,4.91-0.98,5.9,0c0.98,0.98,0.68,1.47,3.78,1.72
		s2.12-1.72,4.08-0.74c1.97,0.98,2.95,3.93,3.93,2.95c0.98-0.98,0.31-2.46,2.12-2.21s4.76-0.74,6.72,0.25
		c1.97,0.98,4.91,1.97,7.86,0c2.95-1.97,5.9-3.93,3.93-4.91c-1.97-0.98-7.86-0.98-5.9-1.97c1.97-0.98,6.88-4.91,8.84-7.86
		s1.97-6.88,0-8.84s-5.59-2.68-6.72-1.83c-1.14,0.85-2.12,1.83-2.12-0.13c0-1.97,1.97-4.91,0.98-6.88
		c-0.98-1.97-1.97-1.97-1.97-4.91s-0.98-8.84-2.95-9.83c-1.97-0.98-2.95-1.97-3.93-4.91c-0.98-2.95,0-7.86-1.97-10.81
		c-1.97-2.95-9.83-3.93-8.84-4.91c0.98-0.98,2.95-2.95,3.93-3.93c0.98-0.98,2.95-1.97,4.91-4.91c1.97-2.95,1.97-4.91,2.95-5.9
		c0.98-0.98,2.95-3.93,0.98-4.91c-1.97-0.98-9.83-1.97-11.79-0.98c-1.97,0.98-3.52,1.15-2.74-0.41c0.78-1.56,1.76-0.58,1.76-1.56
		c0-0.78,0.67-3.45,1.97-3.93c0.36-0.13,0.52,0,0.98,0c0.61,0,1.78-0.22,3.93-2.95c2.08-2.64,3.17-4.03,2.95-5.9
		c-0.16-1.34-1.01-2.91-1.97-2.95c-0.96-0.03-1.73,1.5-1.97,1.97c-1.12,2.23-0.14,3.54-1.04,4.44c-1.2,1.2-4.3,0.21-5.84-0.51
		c-2.63-1.23-3.68-3.06-4.83-2.63c-0.45,0.17-0.81,0.66-1.06,1.64c-0.98,3.93,0,5.9-1.97,6.88c-1.97,0.98-2.95,0-3.93,1.97
		c-0.98,1.97,0.98,2.95-0.98,1.97c-1.97-0.98-5.9-0.98-5.9,0c0,0.98,2.95,1.97,1.97,3.93c-0.98,1.97-2.95,1.97-1.97,2.95
		c0.98,0.98,3.93-1.97,3.93,0s0.98,0.98-0.98,1.97s-1.97-0.98-3.93,0c-1.97,0.98-4.91,3.93-1.97,2.95c2.95-0.98,4.91,0,3.93,0.98
		c-0.98,0.98-3.93,2.95-0.98,2.95s5.9-0.98,2.95,0.98s-7.86,3.93-6.88,4.91c0.98,0.98,0.98,2.95,2.95,1.97
		c1.97-0.98,2.95-1.97,2.95-0.98c0,0.98-1.97,0.98-1.97,3.93s0.98,1.97,1.97,1.97c0.98,0,1.97-4.91,1.97-2.95
		c0,1.97,0.98,2.95,1.97,0.98c0.98-1.97,3.93-1.97,2.95,0c-0.98,1.97-4.91,4.91-4.91,6.88s-2.95,1.97,0.98,2.95
		c4.17,1.04,6.28-1.5,9.83-0.98C114.41,355.98,115.46,356.21,116.72,356.87z"/>
	<path class="st4" d="M89.21,345.08c-0.43-0.09-1.14-0.17-1.97,0c-0.73,0.15-1.74,0.36-1.97,0.98c-0.38,1.03,1.71,2.01,1.72,3.81
		c0,0.48-0.22,1.01-0.82,1.75c-1.88,2.3-5.81,1.32-4.83,4.27c0.98,2.95,3.77,6.45,4.34,4.21c0.57-2.24,1.55-5.19,2.53-3.22
		c0.98,1.97,0.98,4.05,1.97,4.97c0.98,0.92,3.93,2.89,5.9,0.92c1.97-1.97,3.93-1.97,2.95-4.91c-0.98-2.95,0-7.86-1.97-8.84
		c-1.97-0.98-4.91-0.98-5.9-1.97C91.13,346.96,89.82,345.4,89.21,345.08z"/>
	<path class="st4" d="M106.89,360.8c-0.98-0.56-4.45,2.62-3.93,3.93c0.21,0.52,1.03,0.7,1.52,0.69c1.26-0.03,1.99-1.3,2.16-1.61
		C107.26,362.75,107.46,361.13,106.89,360.8z"/>
	<path class="st4" d="M102.96,308.73c0,0-2.95,0.98-3.93,2.95s-0.98,1.97-1.97,3.93c-0.98,1.97-2.95,0.98-2.95,3.93
		s-2.95,6.88-0.98,5.9c1.97-0.98,0.98-3.93,3.93-5.9s8.84-4.91,8.84-7.86s1.97-3.93,0-3.44S102.96,308.73,102.96,308.73z"/>
	<path class="st4" d="M142.26,288.1c-1.55,1.87-3.16,1.29-3.93,2.95c-0.31,0.67-0.32,1.28-0.26,1.94c0.16,1.58,1.24,2.5,1.24,3.95
		c0,1.66,0.37,2.22,0.64,2.26c0.5,0.08,1.03-2.06,2.31-5.21c1.87-4.63,3.66-7.26,2.95-7.86c-0.25-0.21-0.69-0.08-0.98,0
		C143.24,286.41,142.95,287.26,142.26,288.1z"/>
	<g>
		<path class="st4" d="M266.06,191.81c-4.11-0.64-5.48-6.35-6.88-5.9c-1.54,0.5,1.13,8.84-1.97,8.84c-1.97,0-8.84-2.95-8.84,0
			c0,2.95,1.97,5.9-0.98,5.9c-2.95,0-3.93,0-4.91,2.95c-0.98,2.95-1.97,2.95-0.98,5.9c0.98,2.95,0.98,3.93,0,4.91
			s-3.93,6.88-3.93,7.86c0,0.98-1.97,1.97-2.95,2.95s0.98,5.83,0,9.79c-0.98,3.96-4.91,9.86-2.95,10.84
			c1.97,0.98,2.95,3.93,0.98,4.91c-1.97,0.98-3.75-1.97-5.31,0c-1.57,1.97-4.51,3.93-4.51,11.79s-0.98,17.69,0.98,18.67
			c1.97,0.98,5.77,2.72,4.36,4.8c-1.41,2.08-3.38,2.08-3.38,4.04s2.95,5.9,1.97,8.84c-0.98,2.95-3.44,3.07-4.18,5.47
			c-0.74,2.39,0.25,8.29-0.74,9.27c-0.98,0.98-3.87-0.98-3.9,0c-0.03,0.98,0.95,10.81,5.86,19.65c4.91,8.84,7.86,11.79,6.88,12.77
			c-0.98,0.98-2.95,0-1.97,2.95c0.98,2.95,2.95,1.97,2.95,4.91s0,5.9,1.97,5.9c1.97,0,1.97-0.98,3.93-0.98c1.97,0,4.91,0,3.93-1.97
			s-1.97-3.93,0-4.91c1.97-0.98,0.98-2.95,4.91-2.95c3.93,0,6.88-0.98,6.88-0.98c0-1.97,0-4.91,0.98-4.91s-0.98-5.9,0-7.86
			s0-9.83,0.98-12.77s-1.97-4.91,0.98-5.9c2.95-0.98,4.91,0,3.93-3.93c-0.98-3.93-2.95-2.95-2.95-4.91s0-2.95,1.97-1.97
			c1.97,0.98,0,1.97,2.95,0.98c2.95-0.98,0.98,0,2.95-2.95c1.97-2.95,3.93-2.95,0.98-5.9s-8.84-4.91-9.83-6.88
			c-0.98-1.97-1.97-2.95-1.97-9.83c0-6.88-0.98-11.79,0.98-13.76c1.97-1.97,2.95-4.91,3.93-6.88s7.86-4.91,9.83-9.83
			c1.97-4.91,1.97-4.91,2.95-6.88c0.98-1.97,2.95-2.95,0.98-3.93c-1.97-0.98-2.95,0-1.97-4.91c0.98-4.91,0.98-6.88,3.93-8.84
			c2.95-1.97,8.84-1.97,7.86-3.93c-0.98-1.97-3.93-2.95-3.93-5.9c0-2.95,1.97-5.9,0-7.86c-1.97-1.97-2.95-3.93-2.95-4.91
			c0-0.98,0.98-4.91-0.98-6.88c-1.46-1.46-1.29-2.38-1.92-3.16c-0.35-0.44-0.77-0.64-1.03-0.77
			C270.28,191.92,267.35,192.01,266.06,191.81z"/>
		<path class="st4" d="M258.2,333.29c0,0-1.97,6.88-1.97,8.84s0,5.16,0,5.16"/>
		<path class="st4" d="M265.08,307.75c-0.57-0.61-3.35,0.14-3.93,1.97c-0.39,1.22,0.23,2.82,0.98,2.95c0.69,0.11,1.4-1.04,1.97-1.97
			C264.54,309.98,265.57,308.28,265.08,307.75z"/>
		<path class="st4" d="M271.96,323.47c0,0-3.93,0.98-5.9,2.95s0,6.26,0,8.54s0,3.25,1.97,0.31c1.97-2.95,1.97-4.91,1.97-5.9
			s0.98-2.95,1.97-3.93c0.13-0.13,0.38-0.4,0.43-0.79C272.44,324.16,272.18,323.74,271.96,323.47z"/>
	</g>
</g>
</svg>
