<?xml version="1.0" encoding="utf-8"?>
<!-- Generator: Adobe Illustrator 26.2.1, SVG Export Plug-In . SVG Version: 6.00 Build 0)  -->
<svg version="1.1" xmlns="http://www.w3.org/2000/svg" xmlns:xlink="http://www.w3.org/1999/xlink" x="0px" y="0px"
	 viewBox="0 0 450 800" style="enable-background:new 0 0 450 800;" xml:space="preserve">
<style type="text/css">
	.st0{display:none;}
	.st1{display:inline;fill:#6DE063;stroke:#448E3C;stroke-width:1.2722;stroke-miterlimit:10;}
	.st2{display:inline;fill:#BCBCBC;stroke:#848484;stroke-width:1.2722;stroke-miterlimit:10;}
	.st3{display:inline;fill:#BCBCBC;stroke:#848484;stroke-width:0.9825;stroke-miterlimit:10;}
	.st4{display:inline;fill:#6DE063;stroke:#448E3C;stroke-width:0.9825;stroke-miterlimit:10;}
	.st5{display:inline;}
	.st6{fill:#6DE063;stroke:#448E3C;stroke-width:0.9825;stroke-miterlimit:10;}
	.st7{display:inline;fill:#BCBCBC;stroke:#848484;stroke-width:1.1246;stroke-miterlimit:10;}
	.st8{display:inline;fill:#6DE063;stroke:#448E3C;stroke-width:1.1246;stroke-miterlimit:10;}
	.st9{display:inline;fill:#FF1717;stroke:#BA0202;stroke-width:1.1246;stroke-miterlimit:10;}
	.st10{display:inline;fill:none;stroke:#BA0202;stroke-width:3;stroke-linecap:round;stroke-miterlimit:10;}
	.st11{display:inline;fill:none;stroke:#BA0202;stroke-width:3;stroke-miterlimit:10;}
	.st12{fill:#BCBCBC;stroke:#848484;stroke-width:1.3967;stroke-miterlimit:10;}
	.st13{fill:#6DE063;stroke:#448E3C;stroke-width:1.3967;stroke-miterlimit:10;}
</style>
<g id="Layer_1" class="st0">
	<path class="st1" d="M82.27,305.2c-1.79,0.76-1.51,1.81-4.33,4.34c-1.17,1.05-1.78,1.52-2.61,2.02c-2.89,1.73-5.2,1.16-5.78,3.47
		c-0.58,2.31-1.73,6.94-2.31,4.63c-0.58-2.31,0.87-7.47-1.01-6.05s-4.19,6.05-3.61,7.2s1.73,2.31,1.73,3.47c0,1.16,0,3.47-1.16,4.63
		c-1.16,1.16-1.73,3.47-2.31,5.78c-0.58,2.31,0,2.89,1.16,4.63c1.16,1.73,0.58,3.47,2.31,6.36c1.73,2.89,4.63,5.78,3.47,7.52
		c-1.16,1.73-2.31,1.16-2.6,0c-0.29-1.16-0.87-3.47-0.87-2.89c0,0.58-1.16,1.73-1.16,0.58s-2.77-6.65-2.54-4.77
		c0.23,1.88,0.23,4.77,1.96,6.51s2.31,2.31,1.16,2.89c-1.16,0.58-0.58,0.58-1.73-1.16c-1.16-1.73-0.48-4.05-1.4-3.47
		s-0.92,1.16-1.49-0.58s-1.16-7.52-1.73-4.63s1.73,6.36,2.31,8.1c0.58,1.73,6.36,7.52,6.36,9.25s-0.58,6.36,1.16,8.1
		c1.73,1.73,2.89,2.31,2.89,3.47s-0.58,1.16,1.16,3.47c1.73,2.31,2.31,3.47,1.73,5.78c-0.58,2.31,0,9.25,2.89,13.88
		s3.47,6.36,3.47,9.25s1.16,4.63,0,4.63s-0.58-1.73-1.16,0.58c-0.58,2.31,1.73,2.31,0.58,4.05s-2.31,5.2-3.47,4.05
		c-1.16-1.16-2.31-1.27-2.02,0.23c0.29,1.5-0.87,4.4,0.87,4.97c1.73,0.58,5.08,0.58,5.72,2.6c0.64,2.02,0.64,3.18,4.69,3.76
		c4.05,0.58,5.78,1.16,8.1,1.16s4.05,1.16,6.36-1.16c2.31-2.31,0.58-1.16,2.31-2.31c1.73-1.16,1.73-2.89,3.47-2.31
		c1.73,0.58,1.73,0.58,3.47-0.58c1.73-1.16-2.31-1.16,0-2.02c2.31-0.87,1.73-3.18,4.05-2.6c2.31,0.58,3.47,0.58,4.05,0
		c0.58-0.58,9.83-0.58,11.57,0c1.73,0.58,6.36-1.73,7.52-0.58c1.16,1.16,2.31,1.73,4.05,1.16c1.73-0.58,3.47-7.52,5.2-8.1
		c1.73-0.58,4.05-1.16,8.1-3.47c4.05-2.31,6.36-3.47,10.41-2.89c4.05,0.58,11.57-2.89,15.61-4.05c4.05-1.16,5.78-3.47,9.83-2.89
		c4.05,0.58,8.1,1.16,8.67,0.58s2.31-2.89,4.63-1.16s4.05,5.78,5.78,4.63c1.73-1.16,4.05-1.16,5.2,0c1.16,1.16,3.47,2.31,3.47,1.16
		s0-2.31,1.16-1.16c1.16,1.16,2.31,3.47,2.31,3.47c2.89,1.16,4.63-0.58,2.89,1.16c-1.73,1.73-2.89,0.58-1.16,2.89
		c1.73,2.31,4.63,1.16,5.49,3.18c0.87,2.02-1.45,3.18,0.87,4.34c2.31,1.16,2.31,1.16,2.89,3.47c0.58,2.31,4.05,4.63,1.73,4.05
		c-2.31-0.58-3.47-0.58-2.31,0.58c1.16,1.16,1.73,0,2.31,1.73s1.73,2.31,2.31,1.16s0-2.31,1.16-2.89c1.16-0.58,1.73-0.58,1.73-1.73
		c0-1.16,5.2-5.78,6.36-6.36c1.16-0.58,1.16,0.58,2.31-2.31c1.16-2.89,1.73-3.47,2.89-4.05c1.16-0.58,1.73-2.89,1.73-2.89
		c0.58,2.31,0.58,2.6,0,3.9c-0.58,1.3,1.45,2.75,0.43,4.05s-2.75,4.77-3.33,6.51s2.31,5.78,0,5.78s-2.31-1.73-3.47,0.58
		c-1.16,2.31-1.73,3.47,0.58,2.31s2.31-1.73,3.47-1.16c1.16,0.58,2.31,0.58,2.31-1.16s1.73-9.83,2.31-7.52
		c0.58,2.31,0.58,3.47,1.73,4.63c1.16,1.16,2.02,4.96,1.01,5.66c-1.01,0.7-3.9,2.44-2.17,3.02c1.73,0.58,2.89-1.16,5.78,0
		s5.78,6.36,6.36,8.67c0.58,2.31-1.2,2.89-0.6,4.63c0.6,1.73,1.18,2.31,2.33,3.47c1.16,1.16,1.73,3.47,4.05,4.63
		c2.31,1.16,2.89-1.16,4.63,1.16c1.73,2.31,3.47,3.47,4.05,2.31c0.58-1.16,2.89-1.16,4.05,0c1.16,1.16,0-0.83,2.6,0.45
		s8.96,4.17,9.54,3.02c0.58-1.16,4.63-5.2,5.78-4.63c0,0,2.31,0,1.73-0.58c-0.58-0.58-1.16-0.58-1.73-0.58
		c-0.58,0-1.73-0.58-0.58-1.16c1.16-0.58,3.47-1.73,4.05-1.16c0.58,0.58,2.31,2.31,1.16,2.89c-1.16,0.58-2.89,0.58-2.31,1.73
		c0.58,1.16,1.16,0.58,2.31,0c1.16-0.58,1.73-2.31,2.31-1.73c0.58,0.58,0,1.59,0,2.24c0,0.65,0.58,2.39,1.73,1.81
		c1.16-0.58,1.73-1.16,1.73,0s0,2.89,1.16,2.31c1.16-0.58,0.58-1.16,2.31-1.73c1.73-0.58,4.05-0.58,5.2-1.16
		c1.16-0.58,5.2-5.78,7.52-6.36c2.31-0.58,12.72-0.58,13.3-1.16c0.58-0.58,0.58-2.31,1.16-2.31c0.58,0,1.73,0.58,1.73,0
		c0-0.58,0-2.53,0-3c0-0.47-1.16,0.69-0.58-2.2s0.58-5.2,1.16-5.2c0.58,0,0.58,0.58,0.58-1.16c0-1.73,0-2.89,0.58-4.05
		c0.58-1.16,2.89-3.47,2.89-4.05c0-0.58,0-1.73,0.58-1.73c0.58,0,1.16-0.58,1.16-1.16c0-0.58-1.16-0.58-0.58-1.16
		c0.58-0.58,1.16-0.58,1.16-1.73s-0.58-0.76,0-2.11c0.58-1.36,2.31-3.67,2.89-4.25c0.58-0.58,1.16-1.16,0.58-2.31
		c-0.58-1.16-1.73-1.73-0.58-1.73s1.73,1.16,2.31-0.58c0.58-1.73-0.58-3.47,1.16-4.05c1.73-0.58,3.47-2.31,4.05-2.89
		c0.58-0.58,1.16-0.58,1.73-1.16c0.58-0.58,1.73,0,1.16-1.73c-0.58-1.73-0.58-3.47,0.58-4.63s4.63-5.2,3.47-7.52
		c-1.16-2.31,0-7.52,0.58-8.67c0.58-1.16,1.73-2.31,1.73-4.63c0-2.31-1.16-1.95,0-3.29s2.89-2.49,2.31-4.81
		c-0.58-2.31-2.31-9.83-3.47-10.41c-1.16-0.58-1.73,0-1.73-1.73s0.76-3.47,0.96-4.92c0.2-1.45-0.38-2.6-0.38-3.76
		s1.73-2.31,0.58-2.89c0,0-1.16,0.58-1.73-1.16c-0.58-1.73,0.58-4.63-1.16-5.2c-1.73-0.58-2.31-1.16-2.31-2.31
		c0-1.16,0-2.89-1.16-2.89c-1.16,0-2.31-0.58-2.31-1.73s-1.16-3.47-2.31-3.47c-1.16,0-2.89,0-3.47-1.16
		c-0.58-1.16-0.58-2.89-1.73-2.89s-1.73,0-1.73-0.58c0-0.58,1.16-0.58,0.58-1.73c-0.58-1.16-1.16-2.89-1.16-4.05s1.16-4.05,0-3.47
		c-1.16,0.58-1.73,0.58-2.31,0c-0.58-0.58-2.89-4.63-3.47-4.05c-0.58,0.58-1.16,0.58-1.16,1.73s1.16,2.31,0.58,1.73
		c-0.58-0.58-1.73-0.58-1.73-0.58s-0.58,1.73-1.16,0.58c-0.58-1.16-0.58-3.47-0.58-4.63s-0.58-1.16-0.58-2.31
		c0-1.16,0.58-1.16,0-1.73c-0.58-0.58-1.16-0.58-1.16-1.16c0-0.58-0.58-0.58-0.58-1.73c0-1.16,1.16-1.73-0.58-2.31
		s-2.89-1.16-3.47-3.47c-0.58-2.31,0-2.31,0.58-1.16c0.58,1.16,1.73,0.58,1.16-0.58c-0.58-1.16-2.31-1.73-2.89-2.31
		s-0.54,1.16-1.43,0s-0.31-1.73-2.04-1.73c-1.73,0-1.73,0-1.73-0.58c0-0.58,0-1.73-0.58-1.16c-0.58,0.58-0.58,1.16-1.16,0
		c-0.58-1.16,0-4.05-1.73-3.47c-1.73,0.58-2.89,0-2.89-0.58s-0.58-1.16-1.16-0.58c-0.58,0.58-4.63-1.16-4.63-2.89
		c0-1.73,1.16-2.89,0-3.47c-1.16-0.58-2.89-2.31-2.31-3.47c0.58-1.16,1.16-3.47,0.58-5.2c-0.58-1.73-2.31-2.89-1.73-4.05
		s0.58-2.31,0-2.31s-1.16,0-2.31-1.73c-1.16-1.73-1.73-1.73-1.16-2.31c0.58-0.58,0.58-2.89,0-4.63c-0.58-1.73-2.31-4.05-1.73-5.2
		c0.58-1.16,2.31-2.31,1.16-3.47c-1.16-1.16-4.05-1.73-4.63-2.89c-0.58-1.16-0.58-4.05-1.73-3.47s-1.16,0.58-1.73,0.58
		s-1.16,0-1.73,0.58c-0.58,0.58-0.58,2.31-1.73,1.16c-1.16-1.16-2.31-3.47-2.31-5.2s0-8.67-0.58-8.67c-0.58,0-1.16,0-1.16-0.58
		c0-0.58,1.16-1.16,0.58-1.73c-0.58-0.58-1.16-1.16-1.16-1.73s0.58-1.16-0.58-1.16s-1.73-0.58-1.16-1.16
		c0.58-0.58,2.89-1.16,1.73-1.73c-1.16-0.58-2.31,0.58-2.89-0.58c-0.58-1.16,0-6.94-0.58-7.52c-0.58-0.58-2.31,0-2.31-0.58
		s1.73-2.31,0.58-2.31s-1.73,0-1.73,0.58c0,0.58,0,1.16-0.58,1.16c-0.58,0-0.58-0.58-1.16,0.58c-0.58,1.16,0,4.63-0.58,5.2
		c-0.58,0.58-1.73,1.73-1.16,2.89c0.58,1.16,2.31,1.16,1.16,1.73c-1.16,0.58-1.16,0.58-1.73,0c-0.58-0.58,0-0.58-0.58,0
		c-0.58,0.58-1.73,4.05-1.16,4.05s1.73-0.58,2.31,0c0.58,0.58,1.16,1.73,0,1.73c-1.16,0-0.58-1.16-1.16,0
		c-0.58,1.16-0.58,0.58-1.16,1.73c-0.58,1.16,0.58,1.73,0.58,2.89c0,1.16,0,2.31-0.58,1.73s-1.16-1.16-1.16,0
		c0,1.16,0.58,4.63,0.58,6.36c0,1.73-0.58,4.63,0,5.78c0.58,1.16,2.31,3.47,1.16,3.47c-1.16,0-1.16-0.58-1.73,1.16
		c-0.58,1.74,0,8.1-1.16,9.83c-1.16,1.73-2.31,3.47-2.89,4.63c-0.58,1.16,0,2.89-1.16,4.05c-1.16,1.16-4.05,3.47-5.2,2.89
		c-1.16-0.58-3.47-2.31-4.63-2.89c-1.16-0.58-2.31,0.58-2.89-1.16c-0.58-1.73-0.58-4.05-1.73-4.05s-5.2,0-6.94-1.73
		s-2.31-4.63-4.05-4.63c-1.73,0-1.73,0-2.89-1.16c-1.16-1.16,0-0.58-1.73-0.58c-1.73,0-2.89-0.58-2.89-1.16s-3.47-5.2-5.2-5.78
		c-1.73-0.58-5.2-1.73-4.63-2.89c0.58-1.16,1.16-1.16,1.73-2.31c0.58-1.16,0.58-1.73,1.16-2.31c0.58-0.58,1.16,0,1.73-1.73
		c0.58-1.73,0-2.31,0.58-2.89c0.58-0.58,0.58-0.58,0-1.16c-0.58-0.58-2.31-1.16-1.16-2.31c1.16-1.16,1.16-2.89,1.73-2.31
		c0.58,0.58,1.16,1.73,1.16,0.58c0-1.16,0-2.89,0.58-1.73c0.58,1.16,1.16,2.31,1.73,1.73s-0.58-1.73,0-1.73s2.31,0,1.16-0.58
		c-1.16-0.58-2.89-1.16-1.73-1.16s1.16,0.58,1.73-0.58c0.58-1.16-0.58-2.89,0.58-2.89c1.16,0,2.31-0.58,1.73-1.16
		c-0.58-0.58-1.16-1.73-1.73-1.16s0.58,1.73-0.58,0.58c-1.16-1.16-0.58-2.89-1.73-2.31c-1.16,0.58-2.31,1.16-1.73,1.73
		c0.58,0.58,2.31,1.16,1.16,1.73c-1.16,0.58-4.05,2.31-3.47,1.16c0.58-1.16,1.73-2.31,1.16-2.31s-1.16-0.58-1.16-0.58
		s-1.16,1.16-1.73,0.58c-0.58-0.58,0.58-1.73-0.58-1.16c-1.16,0.58-1.73,1.73-3.47,1.16c-1.73-0.58-2.89,0-2.89-1.16
		s-1.16-1.16-1.73-0.58c-0.58,0.58,0,1.16-1.16,0.58c-1.16-0.58-0.58-1.73-2.31-1.73s-2.89,0-2.31-0.58s1.73-1.16,0.58-1.16
		c-1.16,0-1.73,1.16-2.89,1.16c-1.16,0-2.31-0.58-2.89-1.16c-0.58-0.58-1.16-2.89-1.73-2.89c-0.58,0-1.16,0.58-1.73,1.73
		c-0.58,1.16-1.73,1.16-1.16,1.73s0.58,1.16,0.58,1.16s0.58,0.58,0,0.58c-0.58,0,0,1.16,0,1.16s0,0-0.58,0s-1.16-0.58-1.16,0.58
		c0,1.16,0,2.89-0.58,1.73c-0.58-1.16,0-2.31-1.16-1.73c-1.16,0.58-1.16,1.16-2.89,1.16s-3.47,0-3.47-0.58
		c0-0.58,1.16-1.16-0.58-1.16c-1.73,0-2.89,0.58-2.31,1.16c0.58,0.58,1.16,1.16,0,1.16c-1.16,0-1.73,0-1.16,0.58s1.16,2.31,0,1.16
		c-1.16-1.16-1.73-2.89-1.73-1.73c0,1.16,0.58,1.73-0.58,2.31c-1.16,0.58-1.73-1.16-1.73,0.58s0.58,1.16-0.58,1.73
		c-1.16,0.58-1.73-0.58-1.16,1.16c0.58,1.73,1.16,1.73,0.58,2.89c-0.58,1.16-1.16,1.16-1.73,1.16s-1.16-0.58-1.16,0.58
		s-1.16,2.89-1.16,3.47c0,0.58,0.58,0,0,0.58c-0.58,0.58-2.31,1.73-2.31,2.89c0,1.16-0.58,1.16,1.16,1.73
		c1.73,0.58,1.73,0,1.73,1.16c0,1.16-0.58,1.73,0.58,1.16c1.16-0.58,1.16-0.58,1.16,0c0,0.58-1.16,1.16-2.31,1.16
		c-1.16,0-1.16,0.58-0.58,1.16s2.31,0.58,1.16,1.16c-1.16,0.58-1.16,1.73-1.73,0c-0.58-1.73-0.58-1.73-1.16-2.31
		c-0.58-0.58-1.16-0.58-1.16,0s1.16,2.89,0,1.73c-1.16-1.16,0.58-1.16-1.73-1.73s-4.63-2.31-4.63-1.16c0,1.16,1.16,2.89,0,2.31
		c-1.16-0.58-1.73-1.16-1.73,0c0,1.16-0.58,1.73-0.58,1.16c0-0.58-1.16-2.31-0.58-2.89c0.58-0.58,1.73-1.16,1.16-1.73
		s-1.16-1.16-2.31-1.73c-1.16-0.58-2.89-2.31-3.47-3.47c-0.58-1.16,1.16-1.16-0.58-1.16c-1.73,0-1.73,0.58-2.31-0.58
		c-0.58-1.16-0.58-2.31-1.73-0.58c-1.16,1.73-1.16,3.47-1.73,3.47s-1.73-0.58-1.16-1.16c0.58-0.58,0.58-2.31,0-1.73
		c-0.58,0.58-0.58,0.58-1.16,1.73c-0.58,1.16,0,2.31-0.58,1.16c-0.58-1.16,0.58-2.89-0.58-2.89c-1.16,0-1.73,0.58-1.73,1.16
		c0,0.58,1.73,1.73,1.16,2.31c-0.58,0.58-1.73,0.58-1.16,1.16s0.58,1.16,0,1.16s-0.58-1.16-1.16-0.58c-0.58,0.58,0,1.16-1.16,1.16
		c-1.16,0-1.73-0.58-2.89,0c-1.16,0.58-1.73,0-0.58,1.73c1.16,1.73,2.31,2.31,1.73,2.89c-0.58,0.58-1.16,0.58-1.73,0
		c-0.58-0.58,0-1.73-1.16-1.16c-1.16,0.58-1.73,1.73-1.73,2.31s1.73,0,1.73,0.58s0.58,0,0.58,1.16c0,1.16-0.58,0.58-1.16,0
		c-0.58-0.58-1.73-1.73-2.31-1.16s0,1.73-0.58,1.73s-1.16-0.58-1.73,0.58c-0.58,1.16,0,2.31,0.58,2.31c0.58,0,2.89-1.16,2.31-0.58
		c-0.58,0.58-1.73,2.31-1.73,2.89c0,0.58,0,1.16-0.58,0.58c-0.58-0.58-0.58-1.16-0.58,0s0,1.73,0,2.31c0,0.58-0.58,0.58-1.73-0.58
		c-1.16-1.16-3.47-2.31-4.05-1.73s0.58,0.58,0,1.73s-1.73,0.58-1.16,1.73c0.58,1.16,1.16,2.31,2.31,2.31c1.16,0,1.73,0,1.16,1.16
		c-0.58,1.16,0.58,2.89-0.58,2.31c-1.16-0.58-1.16-0.58-1.16-0.58s-0.58-0.58-0.58,0.58s0,3.47-0.58,2.31
		c-0.58-1.16-1.73-3.47-2.31-4.05s-0.58,0-0.58-1.16s0-2.31-0.58-2.31c-0.58,0-2.31,0.58-1.73-0.58c0.58-1.16,0-1.73-0.58-1.16
		c-0.58,0.58-1.16,1.16-1.16,1.73c0,0.58,0,0.58-0.58,1.16c-0.58,0.58-0.58,1.73-0.58,1.73s0.58,0-0.58,0.58
		c-1.16,0.58-1.73,1.73-2.31,2.89c-0.58,1.16,0,4.05,0,4.05c0,1.16,0,1.73,0.58,1.73c0.58,0,2.31,0,1.73,0.58
		c-0.58,0.58-3.47,3.47-4.05,3.47c-0.58,0-1.73,0-1.73,1.16c0,1.16,0,1.16-0.58,1.73c-0.58,0.58-0.58,1.73-1.16,2.89
		c-0.58,1.16-1.16,3.47-3.47,4.63c-2.31,1.16-7.52,3.47-9.25,3.47c-1.73,0-1.16,0-1.73,0.58c-0.58,0.58-2.31-0.58-3.47-0.58
		s-2.31,0.58-2.31,1.73s-0.58,0.58-2.31,1.16c-1.73,0.58-3.47-0.58-4.05,0.58c-0.58,1.16-0.58,2.89-2.31,2.89s-2.31,0-2.31,0
		c-0.58,0.58-0.58,1.16-1.16,0.58c-0.58-0.58,0-1.73-1.16-1.16c-1.16,0.58-2.89,2.31-2.89,1.16c0-1.16,0.58-2.31,0-2.31
		c-0.58,0-2.31,0-1.73,1.16c0.39,0.78,0.78,1.3,0.64,1.55c-0.12,0.2-0.53,0.19-0.64,0.18C85.04,304.02,84.12,304.41,82.27,305.2z"/>
	<path class="st1" d="M248.25,437.06c-1.16,0.58-1.16,1.16-4.05,1.16c-2.89,0-4.05-0.58-3.47,1.16s1.73,1.73,4.05,1.73
		s2.31,0.58,2.89,0.58s0-0.58,1.16-1.16c1.16-0.58,1.73-0.58,2.89-0.58c1.16,0,2.31-0.58,0.58-1.16c-1.73-0.58-2.31,1.16-2.89,0
		c-0.58-1.16,0.29-1.73-0.43-1.73C248.25,437.06,248.25,437.06,248.25,437.06z"/>
	<path class="st1" d="M307.81,483.9c0.61-0.24,0.93-1.03,1.25-0.92c0.12,0.04,0.21,0.18,0.27,0.46c0.22,1.04-0.07,0.34,1.23,0.69
		c1.3,0.35,0.72,0.93,3.04,2.09c2.31,1.16,2.31,1.73,4.63,1.16c2.31-0.58,1.73-0.58,2.31-1.16c0.58-0.58,4.63,0.58,5.78-0.58
		c1.16-1.16,1.73,0.81,3.18-0.46c1.45-1.27,2.02-1.85,2.6-0.69c0.58,1.16,0.29,1.61,0.72,3.12c0.43,1.51,0.72,2.38,0,3.97
		c-0.72,1.59-0.14,4.48-0.72,3.9c-0.58-0.58-2.31,0-1.73,1.73c0.58,1.73,1.16,1.16,0,1.73s-0.58-0.58-0.58,1.16s1.16,4.63,0,4.63
		s-3.18,1.16-2.46,0s1.88-1.16,0.14-1.73c-1.73-0.58-3.47-2.89-2.89-1.16c0.58,1.73,2.02,2.76,0.72,3.41
		c-1.3,0.64-2.46,0.06-2.46,1.22s0.58,1.73-1.16,2.31c-1.73,0.58-2.89,0-2.89,0c-0.58-0.58-1.73-1.16-2.89-0.58
		c-1.16,0.58-1.73,1.16-1.73,0s-0.58-2.89-1.73-3.47c-1.16-0.58-1.73-0.58-2.31-1.73c-0.58-1.16-1.16-2.31-1.73-4.05
		c-0.58-1.73,0.58-2.06,0-3.05c-0.91-1.57-2.31-3.89-2.31-3.89c-0.71-1.08-1.05-2.07-1.73-4.05c-0.4-1.16-0.68-2.2-0.58-3.47
		c0.06-0.77,0.12-1.51,0.58-1.73C305.24,482.31,306.61,484.38,307.81,483.9z"/>
	<path class="st2" d="M365.75,643.28c0,0-1.73,1.16-2.89,1.73s-2.31,1.73-3.47,2.31c-1.16,0.58-1.73,2.31-2.89,3.47
		s-1.45-1.16-2.46,0c-1.01,1.16-2.17,0-2.75,2.31c-0.58,2.31,0.58,2.31-1.16,3.47c-1.73,1.16-0.58-0.58-1.73,1.73
		c-1.16,2.31,1.16,0.58-1.16,2.31c-2.31,1.73,0,2.46,0,2.46s1.73-3.04,1.16-0.72c-0.58,2.31,0,2.31,1.16,2.31s1.16-0.58,3.47,0
		c2.31,0.58,2.89-0.58,3.47,1.16c0.58,1.73,0.58,0.58,2.31,1.16c1.73,0.58,1.16-0.58,1.73,1.16c0.58,1.73,0.29-1.16,2.17,0
		c1.88,1.16,2.75,1.14,4.92,0.57c2.17-0.57,6.22-2.88,7.37-4.04c1.16-1.16,4.05-1.16,3.47-2.89c-0.58-1.73-1.16-0.58,0.58-2.31
		s1.16-2.89,1.73-4.05c0.58-1.16,2.89-1.73,2.31-3.47c-0.58-1.73,0.09-3.61,0.09-3.61s2.22-0.43,3.38-1.59s0-1.73,1.16-1.16
		c1.16,0.58,1.73-2.89,3.18-2.31c1.45,0.58,4.05-1.29,4.77-0.07c0.72,1.22,2.75,0.24,0.87-0.42c-1.88-0.67-2.46-1.25-1.88-2.98
		c0.58-1.73,0.58-3.47,1.73-3.47c1.16,0,2.89-1.73,4.05-3.47c1.16-1.73,0.58-2.89,2.31-3.47c1.73-0.58,0-1.16,1.73-2.31
		c1.73-1.16,1.73-2.89,1.73-2.89l-0.58-2.89l1.16-1.73l-2.31-1.16c0,0-2.31-1.16-4.05,0.58s-2.89,1.73-3.47,0.58
		c-0.58-1.16,1.16-3.47-0.58-3.47c-1.73,0-1.16,0-2.89-1.16c-1.73-1.16-2.02-0.58-3.04,1.16c-1.01,1.73-1.01,4.05-1.01,4.05
		s0,0-1.16,1.73s-2.89,4.05-3.47,5.78c-0.58,1.73-0.58,2.31,0.58,2.31s-3.47,6.36-4.63,5.78s-1.73,0-1.73,0s0.58,1.73-1.16,1.73
		c0,0-1.16,0-2.31,0c-1.16,0-3.47-0.58-2.31,0.58c1.16,1.16,1.16,0.58,0,1.16s-2.31,1.16-1.73,1.73c0.58,0.58,0.58,0.58,0.58,0.58
		s-0.29-0.23-1.3,0.17c-1.01,0.4-0.43,0.98-2.17,0.98S365.75,643.28,365.75,643.28z"/>
	<path class="st2" d="M409.7,586.61c0.58,1.16,0,2.31,1.16,2.31s2.31-0.58,0.58,0.58c-1.73,1.16-2.31,0-1.73,1.16
		c0.58,1.16,0.14,0.58-0.22,2.02c-0.36,1.45,0.94,3.47,0,5.06s-1.66,1.99-1.66,1.99s-6.22,1.33-5.64,3.07
		c0.58,1.73,3.47,2.31,3.47,2.31c1.16,0.58,1.16,2.89,2.89,2.89c1.73,0,4.05,0,4.63,2.31c0.58,2.31,0.58,6.94-1.16,8.1
		c-1.73,1.16-3.47,1.16-2.31,2.31c1.16,1.16,3.58,0.58,3.82,1.73c0.23,1.16-0.35,1.73,1.97,0.58c2.31-1.16,4.63-4.63,6.36-6.94
		c1.73-2.31,2.31-1.16,3.47-3.47c1.16-2.31,4.05-5.78,2.89-5.78c-1.16,0-2.89,1.21-1.45-1.71c1.45-2.92,0.87-4.65,3.76-4.65
		s4.05,2.89,4.05,1.16s-2.31-3.18,0-3.61c2.31-0.43,1.73-0.43,2.89-2.75c1.16-2.31-1.16-3.47,0.58-4.63
		c1.73-1.16,4.63-1.16,1.73-2.31s-3.47-2.31-5.78-0.58c-2.31,1.73-0.58,4.05-3.47,3.47c-2.89-0.58-8.67-1.16-9.83-2.89
		c-1.16-1.73-1.16-2.89-1.73-4.63c-0.58-1.73,1.73-2.89,0-3.47c-1.73-0.58-4.34-1.73-3.61,0s2.46,5.2,0.72,4.05
		c-1.73-1.16,0.58-2.31-1.73-2.31c-2.31,0-2.31-0.58-2.89,1.16C410.85,584.87,409.7,586.61,409.7,586.61z"/>
	<path class="st2" d="M409.59,581.23c0.41-0.53,0.26-0.56,0.68-0.98c1.16-1.16-0.58-0.58,0-2.31c0.58-1.73,0.41-2.02-0.37-2.75
		c-0.78-0.72-0.78-0.43-0.78-1.73c0-1.3,0.58-1.3,0-3.04c-0.88-2.64-1.27-3.98-2.31-4.77c-0.55-0.42-1.14-0.62-2.31-1.01
		c-0.93-0.31-1.74-0.48-2.31-0.58c-1.18-0.78-1.88-0.76-2.31-0.58c-0.82,0.35-0.79,1.38-1.73,1.73c-0.86,0.32-1.5-0.29-1.73,0
		c-0.36,0.45,0.69,2.51,2.31,2.89c0.9,0.21,1.19-0.28,1.73,0c1.42,0.71,0.55,4.63,1.7,4.86c1.77,0.35,1.19-0.81,1.77,0.35
		c0.58,1.16,2.31,2.02,2.89,2.17c0.58,0.14,1.73-1.59,0.58,0.14s-1.16,1.45-0.58,3.04c0.88,2.41,0.86,3.84,1.45,3.9
		C408.54,582.59,408.89,582.14,409.59,581.23z"/>
</g>
<g id="Layer_2" class="st0">
	<path class="st3" d="M181.69,305.02c0.01-0.11,0.06-0.22,0.15-0.22C181.92,304.8,181.85,304.88,181.69,305.02z"/>
	<path class="st3" d="M541.81,509.7c1.48-1.63,1.49-3.57,1.49-4.47c0-1.49-0.99,0-1.98-0.5c-0.99-0.5-0.99-0.99-0.99-1.98
		s-3.47-1.49-4.96-2.48c-1.49-0.99,0-3.47,0-4.47s-0.5-0.99-1.49-1.49c-0.99-0.5-1.49-2.48-1.98-3.47s-3.47-4.47-4.47-6.45
		c-0.99-1.98,0,0,0.99-0.99c0.99-0.99,0.99,0,1.49-1.98c0.5-1.98-1.98-0.99-1.49-2.48s0.5-1.49-0.99-2.48
		c-1.49-0.99-1.49,0-2.61,0.99c-1.12,0.99-2.36,0.99-3.85,0c-1.49-0.99-1.49-0.5-2.48-1.49c-0.99-0.99,0-2.48-0.99-3.97
		s-0.99-1.98-1.98-3.47c-0.99-1.49-1.98-0.5-3.47-0.99c-1.49-0.5-3.97-0.99-5.46-1.98s-1.49-0.99-1.98,0s0,0.99-0.99,1.49
		c-0.99,0.5-2.48,0.99-3.47,1.98c-0.49,0.49-1.83,0.86-3.05,1.11c-0.03,0.25-0.07,0.5-0.12,0.73c-0.98,4.91-4.91,8.84-8.84,10.81
		c-3.93,1.96-2.95,0.98-5.9,0.98c-2.95,0-6.88,3.93-8.84,5.89c-1.97,1.96-6.88,1.96-9.82,1.96c-2.95,0-6.88,0-8.84,0.98
		c-1.96,0.98-1.96,0-3.93-1.96c-1.96-1.96-1.96-0.98-3.93-0.98c-1.96,0-4.91,1.96-5.89,0.98c-0.98-0.98-1.96-1.96-3.93-0.98
		c-1.96,0.98-5.89,1.96-9.82,2.95c-3.93,0.98-7.86,2.95-9.82,5.89c-1.96,2.95-6.88,8.84-7.86,10.81c-0.98,1.96-7.86,1.96-10.81,2.95
		c-2.95,0.98-5.89,0.98-12.77,0.98c-6.88,0-7.86-2.95-8.84-4.91c-0.98-1.96-3.93-3.93-5.9-6.88c-1.96-2.95,0.98-0.98,1.97-3.93
		s0-3.93,0.98-6.88c0.98-2.95,1.97,0,2.95-0.98s0.98-2.95,0-4.91s0-8.84,0-11.79c0-2.95,0-1.96,1.96-1.96c1.96,0,1.96,0,2.95-3.93
		c0.98-3.93,0-2.95-0.98-6.88c-0.98-3.93,1.96-2.95,3.93-5.89c1.97-2.95,1.97-3.93,1.97-6.88c0-2.95,1.96-1.96,4.91-3.93
		c2.39-1.59,4.13,0.69,4.7,1.61c0.14,0.22,0.21,0.35,0.21,0.35s0.98,0.98,3.93,1.96c2.95,0.98,2.95,0,6.88-1.96
		c3.93-1.96,1.96-0.98,4.91,0c2.95,0.98-5.89,5.89-7.86,8.85c-1.96,2.95,0,1.96,1.96,0.98c1.96-0.98,4.91,0.98,7.86,0.98
		c2.95,0,0.98,1.96,0.98,5.89c0,3.93,3.93,1.96,7.86,0c3.93-1.96,0.98-2.95,1.97-4.91s0.98-0.98,2.95-1.96
		c1.96-0.98,1.96-0.98,2.95-3.93c0.98-2.95,0.98,0,2.74-0.49c1.76-0.49,3.15,0.49,4.13-2.46c0.13-0.4,0.34-0.72,0.6-0.98v-2.58
		l0.39-1.35c-2.95,0.98-2.95,0.98-5.89,1.96s-0.98,1.96-4.91,1.96c-3.93,0-2.95-2.95-4.91-3.93c-1.96-0.98-1.96-0.98-0.98-3.93
		c0.98-2.95,2.95-4.91,4.91-6.88c1.96-1.96,3.93-2.95,4.91-3.93c0.98-0.98,5.89-4.91,5.89-4.91s0-2.95,2.95-3.93
		c1-0.33,2.89-1.67,4.85-3.04c1.12-1.33,1.89-2.3,1.73-2.3c-0.5,0-3.47,2.98-4.96,3.47s0-0.99-0.99-3.47
		c-0.99-2.48,0-1.98,0.99-2.98c0.99-0.99,0.99-1.49,1.49-3.47S449.02,405,451,404c1.98-0.99-0.5-6.95-1.98-7.44
		s-2.48-1.98-2.48-2.48c0-0.5-0.5-1.49-1.49-2.48c-0.99-0.99,0.99-2.98,1.98-5.32c0.99-2.34-0.99-1.62-1.98-3.61
		c-0.99-1.98-0.5,0.99-1.98,1.49c-1.49,0.5-9.92-0.99-12.9-1.49s-0.99,0.5-2.98,1.49c-1.98,0.99-2.98-1.98-4.47-3.47
		c-1.49-1.49-4.96,3.47-6.45,4.47c-1.49,0.99-2.98-0.5-4.96,0c-1.98,0.5-2.48,1.49-3.97,0.99s-1.98-3.97-3.97-6.77
		s-2.48-0.67-2.48-0.18s-4.96,0-6.95-1.98c-1.98-1.98,0-2.48,0.5-3.97c0.5-1.49-4.47-3.97-6.95-5.46c-2.48-1.49-4.47,1.98-4.96,2.48
		c-0.5,0.5-2.48,1.49-4.47,0.99s-0.5,1.49-0.99,3.47c-0.5,1.98-1.49,0.5-3.97,0s-2.48-3.47-3.47-5.95
		c-0.99-2.48-1.49-1.49-1.49-4.47c0,0,0.5-1.49,1.98-0.99c1.49,0.5,1.98,0.5,3.47-0.99s0.99-1.98,1.98-4.47
		c0.99-2.48-1.98-1.98-3.47-2.48c-1.49-0.5-4.47,0-4.47-1.49s-0.5-1.98-2.48-1.98s-2.98-0.99-3.97-2.98s-2.48-1.98-3.37-3.6
		c-0.89-1.61-0.6-0.87-0.1-2.85s-0.99-2.98-1.61-5.05c-0.62-2.07-3.35-2.4-4.34-2.89c-0.99-0.5-4.96,1.49-6.2,2.56
		c-1.24,1.07-2.73-0.57-3.1-2.56c-0.37-1.98-3.6,0-6.08,0c-2.48,0-1.49-1.98-3.47-4.96c-1.98-2.98-2.48-2.48-3.47-5.46
		c-0.99-2.98-1.49-3.47-1.98-3.97s-1.49-3.47-1.49-3.47s0.5-2.48,0.12-3.76c-0.37-1.28-1.61-0.21-2.11-2.2
		c-0.04-0.16-0.07-0.29-0.09-0.4c0.39,0.46-0.22-1.08,0,0c-0.04-0.04-0.09-0.11-0.15-0.21c-0.74-1.11-0.74-1.87-1.74-4.84
		c-0.99-2.98,0-1.98,0.5-3.97c0.5-1.98,0.5-2.98,1.98-5.46c1.09-1.82,0.31-1.77-0.57-2.4c-0.33,0.56-0.62,1.08-0.85,1.54
		c-0.98,1.96-8.84,0.98-11.79,0.98c-2.95,0-5.89,0.98-8.84,2.95c-2.95,1.96-4.91,3.93-6.88,5.89c-1.96,1.96-3.93,1.96-6.88,1.96
		s0,1.96,2.95,3.93c2.95,1.96-0.98,0.98-2.95,2.95c-1.96,1.97,0,4.92,0.98,7.86c0.98,2.95,1.96-1.96,2.95-3.93
		c0.98-1.96,2.95-2.95,3.93-3.93c0.98-0.98,1.96-1.96,2.95,0c0.98,1.97,2.95,0,4.61-0.97c1.66-0.97,1.29,1.96,1.29,3.92
		c0,1.96,0,3.93,0.98,7.86c0.98,3.93,0,2.95-1.96,4.91c-1.96,1.96-2.95,0.98-5.89-2.95s-6.88-3.93-8.84-1.96
		c-1.96,1.96-2.95,7.86-3.53,12.64c-0.59,4.77,3.53,11.92,3.53,14.87c0,2.95-2.95,5.89-5.89,6.88c-2.95,0.98-1.96,0.98-0.87,3.38
		c1.09,2.4,0.87,1.53-2.07,4.48s-7.86,0.98-8.05-1.28c-0.18-2.26-4.72-3.63-6.45-2.34c-1.72,1.29-7.12,4.6-9.09,6.41
		c-1.96,1.82-0.98,1.14-1.96,2.12c-0.98,0.98-6.88,2.95-10.81,3.93c-3.93,0.98-2.95,0.98-4.91,0c-1.96-0.98,0-1.96-1.96-5.89
		c-1.96-3.93-1.96-0.98-3.23,0.98c-1.26,1.96-0.7,0.98-3.65,0.98c-2.95,0-1.96,0-3.93,0.98c-1.96,0.98-0.98,0-2.95,1.96
		c-1.96,1.96-1.96,0.98-2.95,1.96c-0.98,0.98-1.96,0.98-2.92-1.88c-0.95-2.85,1.94-2.05,2.49-4.02c0.55-1.96-2.51,0-4.48,0
		c-1.96,0-0.98,0-2.95-0.98c-1.97-0.98-1.97-2.95-2.62-6.03c-0.64-3.09,0.65-0.84,3.6,0.14c2.95,0.98,0.98,1.96,2.95,0.98
		c1.96-0.98,0-0.98-0.38-5.26c-0.36-4.3-3.55-2.6-5.52-3.58c-1.96-0.98,0-0.98,1.97-1.96c1.96-0.98,0.98-0.98,3.93-2.95
		c2.95-1.96,0-2.95-0.98-4.91c-0.98-1.96-0.98-0.98-2.95-2.95c-1.97-1.96,0.98-3.93,0.98-5.89s0.98-1.96,0-4.91
		c-0.98-2.95-0.98-0.98-3.93,0c-2.95,0.98-0.98,3.93-4.26,4.78c-3.29,0.84-4.58,0.13-6.54,1.11c-1.96,0.98-1.96,6.88-1.96,9.82
		s0,8.84,2.95,10.81c2.95,1.96-0.98,2.95-1.96,5.89c-0.98,2.95,0,1.96,2.95,3.93c2.95,1.96,0.98,1.96-0.98,1.96
		c-1.96,0,0.98,2.95,1.96,4.91c0.98,1.96-0.98,1.96-1.96,2.95c-0.98,0.98,0,1.96-0.98,2.95c-0.98,0.98-3.93-0.98-4.91-1.96
		c-0.98-0.98-4.91,0-4.91,1.96c0,1.96-3.93,1.96-5.56,1.47c-1.62-0.49-6.23,1.47-8.2,3.44c-1.96,1.96,0.98,1.96,1.96,4.91
		c0.98,2.95,0,1.96-1.96,3.93c-1.96,1.96-1.96-0.98-0.98-2.95c0.98-1.96-1.96-3.93-1.96-5.89s-2.95,2.95-2.95,6.88
		c0,3.93-1.96,3.93-3.93,6.88c-1.96,2.95-0.98,0.98-2.95,1.96s-1.96,1.96-2.95,3.93c-0.98,1.96-1.96,1.96-2.95,1.96
		s-5.26,3.02-5.26,3.02l-1.61,9.76l20.57,65.29l14.8,18.23c0,0,1.96-0.98,4.91-0.98c2.95,0,2.95-0.98,4.91-2.95
		c1.96-1.96,3.93-3.93,7.86-3.93c3.93,0,0.98,1.96,3.93,2.95c2.95,0.98,6.88,2.95,5.9,6.88c-0.99,3.93,3.93,6.88,5.89,10.81
		c1.96,3.93,0.98,1.96,3.93,2.95c2.95,0.98,2.95,1.97,4.91,4.91s4.91,4.91,6.88,6.88c1.96,1.96,6.88,2.95,9.82,2.95
		c2.95,0,2.95,0.98,4.91,3.93c1.96,2.95,3.93,1.97,5.89,2.95c1.96,0.98,1.96,0.98,1.96,3.93c0,2.95,3.93,1.96,6.88,2.95
		c2.95,0.98,0.98,0.98,2.95,2.95s2.95,4.91,3.93,8.84s0,2.95-1.96,3.93c-1.96,0.98,0,1.96-0.98,2.95c-0.98,0.98-1.96,2.95-3.93,3.93
		c-1.96,0.98-6.88,1.97-8.84,2.95c-1.96,0.98-5.89,0.98-7.86,0.98c-1.96,0-3.93-3.93-4.91-2.95c-0.98,0.98-1.96,1.97-4.91,1.97
		s-1.96,0-2.95,3.93c-0.98,3.93,3.93,2.95,6.88,3.93c2.95,0.98,1.96,1.96,4.26,2.51c2.31,0.54,3.6,2.41,6.54,2.41s0.98,0,1.96,1.97
		c0.98,1.96,3.93,1.96,6.88,1.96s0.98-1.96,2.95-2.95c1.96-0.98-0.98-2.95-1.96-5.9c-0.98-2.95,0.98-2.95,1.96-5.89
		c0.98-2.95,0.98-1.96,1.96-0.98c0.98,0.98,3.93,0.98,4.91-0.98c0.98-1.97,2.95-3.93,3.93-5.89c0.98-1.97,0-1.97,0-4.91
		s2.95-1.96,4.91-1.96c1.96,0,0.98-2.95,0-4.91c-0.98-1.96-2.95-2.95-4.91-2.95s-1.96-1.96-0.98-3.93c0.98-1.97,1.96-6.88,4.91-7.86
		c2.95-0.98,1.96,1.96,4.91,1.96c2.95,0,1.96,0,2.95,1.97c0.98,1.96,1.96,2.95,3.93,3.93c1.96,0.98,1.96-3.93,0.98-6.88
		c-0.98-2.95-7.86-4.91-10.81-5.89c-2.95-0.98-9.82-2.95-12.77-4.91c-2.95-1.96-1.96-1.96-0.98-2.95c0.98-0.98,1.96-1.96,0.98-3.93
		s-6.88,0-9.82,0c-2.95,0-4.91-2.95-8.84-5.89c-3.93-2.95-2.95-5.89-3.93-9.82c-0.98-3.93-3.93-4.91-8.84-7.86
		c-4.91-2.95-3.93-2.95-4.91-5.89c-0.98-2.95,0.98-3.93,1.96-5.89c0.98-1.96-2.95-2.95-2.95-5.89c0-2.95,7.86-3.93,9.82-4.91
		c1.96-0.98,0.98,1.96,0,3.93c-0.98,1.96,2.95,6.88,3.93,8.84c0.98,1.96,2.95-1.96,4.91-4.91c1.96-2.95,0-1.96,1.96-1.96
		c1.96,0,1.96,3.93,2.95,4.91c0.98,0.98,0.98,7.86,1.96,9.82c0.98,1.96,5.89,4.91,7.86,4.91c1.96,0,5.89,3.93,8.84,4.91
		c2.95,0.98,1.96,0.98,3.93,2.95c1.96,1.96,0.98,0.98,3.93,0.98s3.93,1.96,8.84,3.93c4.91,1.96,7.86,3.93,9.82,5.89
		c1.96,1.96,0,14.74,0,16.7c0,1.96,0.98,1.96,3.93,3.93c2.95,1.97,0.98,1.97,3.93,3.93c2.95,1.97,0.98,1.97,1.96,2.95
		c0.98,0.98,2.95,3.93,5.89,4.91c2.95,0.98,1.96,0,0,1.97c-1.96,1.96,0,0.98,1.96,1.96s1.96,1.96,3.93,3.93
		c1.96,1.96,2.95-0.98,4.91-1.96s8.84,0.98,12.77,0.98s0,1.97-0.98,2.95c-0.98,0.98-4.91-0.98-6.88-0.98c-1.96,0-4.91-0.98-5.89,0
		l-3.93,3.93c-1.96,1.96,1.96,2.95,3.93,3.93c1.96,0.98,1.96,3.93,0.98,5.89s2.95,4.91,3.93,3.93c0.98-0.98,2.95-4.91,4.91,0
		c1.96,4.92,1.96,1.96,2.95-0.98c0.98-2.95,2.95,0.98,4.91,2.95c1.96,1.97-2.95-9.82-4.91-12.77c-1.96-2.95,0,0,2.95,1.97
		c2.95,1.96,0.98,0,2.3,0.15c1.32,0.16,1.63-1.13,1.63-2.11s0-1.96-0.98-1.96s-1.96-0.98-2.95-2.95c-0.98-1.96,0,0,0-0.98
		c0-0.98,1.96,0,4.91,0.98c2.95,0.98,1.97,0,2.95,0.98c0.98,0.98,1.96,0,1.96-0.98c0-0.98-0.98-1.96-0.98-3.93
		c0-1.96,1.96,0.98,2.95,0s0.98,0.98,5.89,2.95c4.91,1.97-2.95-2.95-6.88-4.91c-3.93-1.96-0.98-1.96-1.96-3.93
		c-0.98-1.96-3.93-1.96-6.88-1.96c-2.95,0-0.98-1.97-1.96-4.91c-0.98-2.95-1.96-2.95-4.91-4.91c-2.95-1.96-1.96-1.96-3.93-4.91
		c-1.96-2.95-1.96-2.95,0-4.91c1.96-1.96,0.98,0.98,3.93,1.96c2.95,0.98,1.96,2.95,4.91,3.93c2.95,0.98-2.95-2.95-0.98-3.93
		c1.96-0.98,0.98,0.98,4.91,1.96c3.93,0.98-1.96-1.96-2.95-3.93s3.93,0,5.89,0.98c0.19,0.09,0.3,0.14,0.34,0.15
		c-0.36-0.31-5.56-3.25-7.21-4.08c-1.96-0.98,0-0.98,0-0.98s3.93-0.98,4.91-2.95c0.98-1.96,0-0.98,1.97-0.98
		c1.97,0,2.95,0.98,3.93-0.98s5.89-0.98,8.84-0.98c2.95,0,1.97,0.98,1.97,1.96s2.95,0,4.91-0.98s2.95,0.98,4.91-0.98
		c1.96-1.96,1.96-2.95,2.95-4.91c0.98-1.96,2.95-0.98,4.91-1.96c1.96-0.98,2.95-0.98,4.91-0.98s3.93-0.98,4.91-0.98
		s2.95,2.95,0.98,3.93c-1.96,0.98-2.95,1.97-0.98,2.95c1.96,0.98-3.93,1.96-6.88,1.96c-2.95,0-3.93,0.98-4.91,1.96
		c-0.98,0.98-4.91,0-6.88,0.98c-1.96,0.98-3.93,2.95-5.89,5.89s0.98,7.86,1.96,6.88s2.95-1.97,4.91-1.97c1.96,0,0,1.97,0.98,4.91
		s1.97,1.97,1.97,2.95c0,0.98-1.97,1.97-0.98,2.95c0.98,0.98,2.95,2.95,0.98,2.95c-1.97,0-2.95,0.98-3.93,2.95
		c-0.98,1.97,2.95,0,4.91,0c1.96,0,3.93,0.98,3.93,2.95c0,1.96,0.98,4.91,3.93,5.89c2.95,0.98,0,1.96-0.98,3.93
		c-0.98,1.96,5.89-0.98,8.84-0.98s-0.98,1.96-2.95,2.95c-1.96,0.98,2.95,0.98,5.89-1.96c2.95-2.95,1.97,0.98,3.93,0.98
		c1.97,0,2.95,1.96,3.93,2.95c0.98,0.98,6.88,1.97,7.86,0c0.98-1.96,1.97-0.98,4.91-1.96c2.95-0.98,0-3.93,0.98-6.88
		c0.98-2.95,2.95-0.98,6.88-1.96c3.93-0.98,6.88,0.98,8.84,1.96c1.97,0.98,3.93,2.95,6.88,2.95c2.95,0,7.86-4.91,10.81-6.88
		c2.95-1.96,0.98-4.91,4.91-7.86c3.93-2.95,1.96-0.98,3.93,0s3.93,0,6.88-1.96c2.95-1.97,0,0,0.98-2.95c0.98-2.95,0.98-0.98,2.95,0
		c1.97,0.98,0,2.95-1.96,5.89s0,0.98,0.98,1.97c0.98,0.98,0.98,1.96,2.95,2.95c1.97,0.98,1.97-0.98,1.97-1.97
		c0-0.98,0.98-0.98,1.96-2.95c0.98-1.96,0.98-1.96,0-3.93c-0.98-1.97-0.98-0.98-0.95-3.83c0.03-2.86,2.92-1.08,4.88-0.1
		c1.96,0.98,6.88-5.89,8.85-6.88s1.96-0.98,2.95,0c0.98,0.98,9.82-1.96,13.75-3.93c3.93-1.96,2.95-6.88,5.9-8.84
		c2.95-1.96,3.93-0.98,9.82-4.91c5.89-3.93,0.98-0.98,2.95-2.95c1.96-1.96,1.96,0.98,4.91-2.95c2.95-3.93,0.98-0.98,4.91-1.96
		c3.93-0.98,3.93-0.98,4.91-2.95c0.36-0.72,0.72-1.05,1.08-1.07c0.77-0.05,1.07,2.06,1.86,2.05
		C541.29,510.15,541.45,510.1,541.81,509.7z"/>
	<path class="st3" d="M330.92,247.7c-0.5-3.47-7.94-4.96-9.75-5.58c-1.81-0.62-0.67-2.36-0.17-4.84s0-2.48-2.48-3.47
		c-2.48-0.99-1.49-1.49-1.49-2.98c0-1.49-0.99-2.48-3.47-2.61c-2.48-0.12,0-1.36-0.99-2.85c-0.99-1.49,0-7.44-1.49-10.42
		c-1.49-2.98-4.96-7.94-6.95-11.29c-1.98-3.35,0-3.1,0-5.58s-0.5-3.97-1.98-5.95c-1.49-1.98-3.47-1.98-5.46-1.98s-1.49-1.98-1.61-4
		c-0.12-2.02-1.36-4.93-1.36-4.93s0.99-3.47,1.49-4.96s0.99-0.99,1.49-2.98c0.5-1.98,2.98-1.49,4.96-1.98
		c1.98-0.5,0.5-2.98,0.5-2.98l0.09-0.82c-2.64,3.53,0.12-0.24-2.76-0.24c-2.95,0-1.96,0-3.93,0c-1.96,0-0.98-1.96,0.98-2.95
		c1.96-0.98,0.98-0.98,1.96-2.95c0.98-1.96,0-1.96-1.96-3.93c-1.96-1.96-8.84,0-9.82-0.98c-0.98-0.98-0.98-0.98-3.93-0.98
		c-2.95,0-0.98,0.98-0.98,2.95c0,1.96,0,4.91-0.98,5.89s-0.98-3.93-1.96-5.89c-0.98-1.96-1.96,7.86-2.95,10.81s-0.98-8.84,0-11.79
		c0.98-2.95-2.95-0.98-6.88,0.98c-3.93,1.96-0.98,0.98,1.96,2.95c2.95,1.96-3.93,0.98-6.88,1.96c-2.95,0.98-2.95,2.95,0,2.95
		c2.95,0-0.98,2.95-3.93,2.95s-1.96,0.98-1.5,2.7c0.46,1.72-0.46,0.24-2.43,0.24c-1.96,0-3.93-0.98-6.88,0.98
		c-2.95,1.96-0.98,0.98-0.98,2.95c0,1.96-0.98,2.95-3.93,4.92c-2.95,1.96-2.95,5.89-1.96,8.84c0.98,2.95-0.98,0.98-2.95,0
		c-1.96-0.98-0.98-2.95-1.96-4.91c-0.98-1.96-1.96,1.96-3.93,4.91c-1.96,2.95-1.96,0.98-2.95,3.93c-0.98,2.95,3.93,0.98,3.93,1.96
		s-7.86,1.96-10.81,6.88c-2.95,4.91,1.96,0.98,3.93-0.98c1.96-1.96,8.84-3.93,11.79-3.93c2.95,0-1.96,1.96-4.91,3.93
		c-2.95,1.96-0.98,0.98-0.98,3.93s0,2.95-0.98,4.91c-0.98,1.96-2.95,3.93-4.91,5.89c-1.96,1.96-1.96,4.91-1.5,7.59
		c0.46,2.69-1.44,1.25-3.41,0.27c-1.96-0.98,0,0.98,0,2.95c0,1.96,1.96,1.96,0.65,3.93c-1.32,1.96-1.63,0-3.59,0
		c-1.96,0,0,0.98,1.96,1.96c1.96,0.98,0,1.96-0.98,4.91c-0.98,2.95-2.95,2.95-4.91,2.95c-1.96,0-0.98,0,0.98,1.96
		c1.96,1.96,0,0.98-0.98,1.96c-0.98,0.98-0.98,1.96-3.93,1.96c-2.95,0,0,1.96-0.98,3.93c-0.98,1.96,0,2.95-0.92,3.39
		c-0.92,0.44-1.04,0.54-2.02,2.51c-0.98,1.96-1.96,0-4.91-1.96c-2.95-1.96-0.98,1.96-1.96,2.95c-0.98,0.98-0.98,1.96-2.81,1.78
		c-1.83-0.18,0.84,2.15,0.84,3.14s-2.95,0.98-2.95,0.98s-1.96,0.98-1.96,1.96s0,1.96-0.98,1.96c-0.98,0-1.96,0-1.96,0.98
		s-0.98,2.95-0.98,1.96c0-0.98-1.96,0-2.95,0.98c-0.98,0.98,0,1.96-2.02,1.46c-2.02-0.51-1.91,0.5-1.91,2.47
		c0,1.96-0.98,0-2.95,1.96c-1.96,1.96,0.98,2.95,1.96,3.93c0.98,0.98-2.95,1.96-3.52,5.19c-0.57,3.22,0.57,2.67,0.12,5.81
		c-0.46,3.14,0.45,5.71,1.96,7c1.5,1.28,1.44,0.67-0.52,2.64c-0.88,0.89-1.17,1.37-1.06,1.67c0.21,0.54,1.61,0.1,1.86,0.62
		c0.24,0.53-1.02,1.32-1.94,3.4c-0.34,0.75-0.31,0.98-0.28,1.12c0.19,1.17,1.98,1.9,3.88,1.44c2.46-0.6,1.47-1.38,3.41,0
		c1.94,1.36-3.9,3.53-4.88,5.36c-0.98,1.83,1.96,5.05,6.88,8.98c4.91,3.93,5.89,1.96,9.82,0.98c3.93-0.98,4.91-4.91,7.86-8.84
		c2.95-3.93,2.95-0.98,5.89-1.96c2.95-0.99,0.99-6.88,2.05-9.83c1.08-2.95,0.9,4.91,0.9,5.89c0,0.98,2.97,2.43,2.97,2.43l5.87,2.49
		l7.94-2.94l5.81-10.82l3.93-21.61l15.72-29.47l2.95-11.79l18.67-16.7c0,0,3.93,0,6.88,0c2.95,0,2.95,1.96,3.93,3.93
		c0.98,1.96,0.98,2.95-0.98,2.95c-1.96,0-0.98,0.98-0.98,1.96v3.93c0,1.96-3.93,8.84-4.8,11.21c-0.87,2.36-2.07,3.53-3.06,6.48
		s0.98,1.96-2.95,2.95c-3.93,0.98-3.93,0.98-1.96,2.95s0,2.95-0.98,5.89c-0.98,2.95,2.95,2.95,2.95,4.91c0,1.96,0.98,2.95,1.96,5.89
		c0.98,2.95,0.98,10.81,1.96,12.77c0.98,1.96,4.91,2.95,8.84,5.89c3.93,2.95,7.86,0.98,10.81-0.98c2.95-1.96,10.81-6.88,12.77-8.84
		c1.2-1.2,3.13-2.03,5.12-2.72c0.28-2.31,6.88-11.98,9.11-16.88C329.93,259.11,331.42,251.17,330.92,247.7z"/>
	<path class="st3" d="M223.81,353.93c0.58,0.01,0.54-2.2,1.97-2.95c0.59-0.31,1.39-0.35,1.97,0c0.76,0.45,0.9,1.41,0.98,1.97
		c0.1,0.7,0.06,1.44-0.98,4.91c-0.38,1.26-0.43,1.35-0.42,1.66c0.08,1.62,1.56,2.16,1.4,3.25c-0.13,0.89-1.16,0.75-1.97,1.97
		c-1.08,1.62-0.02,3.02-0.98,3.93c-0.98,0.93-2.96,0.3-3.93,0c-1.52-0.48-3.09-1.47-2.95-1.97c0.17-0.57,2.41,0.3,3.93-0.98
		c0.91-0.77,1.46-2.23,0.98-2.95c-0.65-0.97-2.67,0.2-3.93-0.98c-0.33-0.31-0.55-1.19-0.98-2.95c-0.35-1.41-0.65-3.06-0.65-3.07l0,0
		l0,0c0,0,0.65-1.84,1.63-1.84c1.4,0,2-1.89,2.74-1.63C223.4,352.56,223.36,353.92,223.81,353.93z"/>
	<path class="st3" d="M86.18,346.62c0,0-3.17-0.92-4.98-0.25c-1.81,0.68-0.83,1.66-1.81,2.64c-0.98,0.98-0.98,0-1.97,0.98
		c-0.98,0.98-1.97,1.97-0.98,1.97c0.98,0,2.95-0.98,2.95,0s1.6,1.73-0.68,2.34s-2.27,3.56-5.22,1.59c-2.95-1.97-1.97-3.93-4.91-2.95
		c-2.95,0.98-4.91,0-3.93,2.95c0.98,2.95,2.95,1.25,0.98,3.57s-3.93-0.62-2.95,2.32s0,2.36,2.95,3.64c2.95,1.28,2.95,0.29,1.97,3.24
		c-0.98,2.95-2.49,4.18-5.17,6.02c-2.69,1.84-7.6-1.11-6.62,3.81s1.97,8.84,5.9,9.83c3.93,0.98,8.84-0.98,11.79-1.97
		c2.95-0.98,6.88-2.95,8.84-1.97s1.72,1.97,4.3-0.98c2.58-2.95,3.56-7.86,4.54-10.81c0.98-2.95,1.97-10.81,1.97-10.81L86.18,346.62z
		"/>
	<path class="st3" d="M50.89,182.97c0.73-0.63,2.07-0.49,2.95,0c2.27,1.27,2.77,5.61,1.97,8.84c-0.61,2.44-2.06,5.07-1.57,5.7
		c0.1,0.13,0.28,0.2,0.58,0.2c1.97,0,1.04-1.97,2.49,0c1.44,1.97,1.44,1.97,2.43-0.98c0.98-2.95,2.95-6.88,3.93-3.93
		c0.98,2.95-0.98,1.97,1.97,1.97c2.95,0,3.93,0.98,4.91,1.97c0.98,0.98,0.98-0.98,2.95,0.98c1.97,1.97,3.25,2.74,5.56,1.37
		c2.3-1.37,3.29-3.33,4.27-2.35c0.98,0.98-0.98,4.91,1.97,4.91s2.95,1.97,1.97,2.95s-0.98,0,0,2.95c0.98,2.95,3.93,2.95,1.97,5.9
		c-1.97,2.95,0.98,3.93-0.98,4.91c-1.97,0.98-0.98,2.95-2.95,2.95s-1.97-0.98-3.93,0.98c-1.97,1.97-0.98,1.97-3.93,1.97
		s-4.91,0-6.88,0.98s-2.95,0.98-6.88,0.98s-3.68-1.97-4.79,0c-1.11,1.97-1.11,2.95-5.04,0.98c-3.93-1.97-5.9-4.91-6.88-7.86
		c-0.98-2.95,0.98-3.93-2.95-3.93s-7.86-5.9-3.93-4.91s2.95,1.97,2.95-1.97c0-3.93,4.91-6.88,0.98-6.88s-12.77-2.95-1.97-2.95
		s8.84,0,6.88-1.97c-1.97-1.97,0.98-3.93-1.97-3.93c-2.95,0-7.86,0-6.88-1.97c1.95-3.91,4.91-5.9,4.91-5.9
		c1.43-0.81,2.14-1.21,2.95-0.98c2.16,0.61,2.75,4.97,2.95,4.91C51.09,188.81,49.33,184.32,50.89,182.97z"/>
	<path class="st3" d="M40.08,499.34c0,0-3.93,8.84-3.93,14.74c0,5.9-5.9,17.69-7.86,18.67s-7.86,7.86-5.9,9.83
		c1.97,1.97,1.97,0.98,1.97,2.95s4.91,0,3.93,2.95c-0.98,2.95-7.86,14.74-5.9,15.72c1.97,0.98,3.93-0.98,6.88,0.98
		s4.91,1.97,6.88,0.98c1.97-0.98,10.81-3.93,10.81-3.93l16.7-20.63l6.88-27.51l-5.9-12.77l-13.69-1.97H40.08z"/>
	<path class="st3" d="M206.13,514.08c0,0,0,3.93-1.97,3.93c-1.97,0-4.61-1.81-5.74,1.55c-1.14,3.36,0.83,11.22,1.81,12.2
		c0.98,0.98,1.97,3.93,3.93,0c1.97-3.93,3.93-9.83,2.95-11.79C206.13,518.01,206.13,514.08,206.13,514.08z"/>
	<path class="st3" d="M198.08,539.62c-1.91,0.32-3.35-0.93-4.36-0.28c-0.23,0.15-0.36,0.52-0.36,1.27c0,2.95,1.97,3.93,1.97,6.88
		s-1.97,12.77,0,14.74c1.97,1.97,2.95,3.93,4.91,1.97c1.97-1.97,0.98-2.95,2.95-2.95c1.97,0,4.45,2.82,4.19-1.54
		c-0.08-1.34,0.17-5.29,0.72-13.2c0.06-0.82,0.19-2.58,0-4.91c-0.22-2.75-0.67-3.51-0.98-3.93c-0.77-1.03-2.33-2.18-3.93-1.97
		C200.74,536.02,200.66,539.18,198.08,539.62z"/>
	<path class="st3" d="M352.33,592.2c-0.8,0.28-1.35,0.83-1.77,1.46c-1.97,2.95-1.97,3.93,0.98,3.93s9.33-1.97,10.56,0
		c1.23,1.97,2.03,0.98,5.07,0c3.04-0.98,9.92-2.95,9.92-3.93s0.12-2.27-1.9-1.62s-1.04,0.64-3.99,0.64c-1.97,0-3.93,0.01-5.9,0
		c-7.94-0.05-7.91,0.8-9.83,0C354.76,592.38,353.57,591.78,352.33,592.2z"/>
	<path class="st3" d="M114.75,262.55c-0.63,0.05-0.87-1.93-2-2.16c-0.23-0.04-0.5-0.04-0.95,0.19c-1.97,0.98-2.95,0.98-1.97,3.93
		s-0.98,4.91,0,6.88c0.98,1.97,1.97,3.93,2.95,0.98c1.31-3.93,0.78-5.01,1.97-6.88c0.95-1.5,2.18-1.98,1.97-2.95
		c-0.11-0.5-0.59-1.02-0.98-0.98C115.24,261.61,115.18,262.52,114.75,262.55z"/>
	<path class="st4" d="M104.48,502.63c-0.18-0.11-0.36-0.23-0.54-0.34c-1.35-0.86-8.08-5.12-16.7-5.9c-2.64-0.24-4.53-0.06-7.86-0.98
		c-3.26-0.9-3.94-1.75-6.88-2.95c-6.54-2.66-8.62,0.6-15.72-2.95c-1.97-0.98-4.91-4.91-7.86-2.95c-2.95,1.97-10.81,1.97-11.79,3.93
		c-0.98,1.97,0.98,14.74,0.98,14.74s6.14-1.97,6.51,0s3.32,3.93,4.3,3.93c0.98,0,5.9,0,7.86,0.98c1.97,0.98,4.91,4.91,2.95,6.88
		c-1.97,1.97-6.88,3.93-6.88,5.9s0,4.91-0.98,6.88c-0.98,1.97-2.95,7.86-4.91,7.86c-1.97,0-1.97,2.95-1.97,3.93s2.95,1.97,1.97,3.93
		s-4.91,3.93-3.93,5.9c0.98,1.97,2.95,1.97,1.97,3.93s-6.88,4.91-6.88,5.9s0,4.91,0,4.91s4.91,1.97,5.9,2.95
		c0.98,0.98,2.95,10.81,4.91,11.79c1.97,0.98,4.91,4.91,6.88,2.95c1.97-1.97,6.88-2.95,7.86-2.95c0.98,0,5.62-3.44,8.21-2.21
		s16.35,4.18,19.3,1.23c2.95-2.95,4.91-6.88,6.88-6.88c1.97,0,5.9,0,5.9,0s0.98-5.9,3.93-7.86s8.84-2.95,6.88-4.91
		c-1.97-1.97-4.91-3.93-3.93-6.88c0.98-2.95,8.84-13.76,9.83-13.76c0.98,0,3.93-0.98,3.93-1.97c0-0.98,0-3.93,1.97-3.93
		c1.97,0,5.9-0.98,6.88-0.98s3.93-0.98,4.91-1.97c0.98-0.98,5.9-1.97,7.86-3.93c1.97-1.97,3.93-7.86,1.97-7.86
		c-0.26,0-0.53,0.02-0.82,0.04"/>
	<path class="st4" d="M147.34,519.03c-1.9,0.18-4.35,0.81-6.06-0.04c-1.97-0.98-3.93-1.97-6.88-2.95c-2.95-0.98-7.86-3.93-9.83-3.93
		s-2.95,0-5.9-0.98c-1.4-0.47-2.14-0.71-2.84-1.05c-1.59-0.77-2.65-1.59-3.06-1.9c-1.99-1.54-4.81-3.34-8.3-5.55"/>
	<path class="st4" d="M112.8,508.29c0.05,0.04,0.23,0.18,0.49,0.36c0.55,0.4,1.42,0.98,2.57,1.53c0.7,0.34,1.44,0.58,2.84,1.05
		c2.95,0.98,3.93,0.98,5.9,0.98s6.88,2.95,9.83,3.93c0.9,0.3,1.72,0.6,2.46,0.9c2.47,1,3.27,1.62,4.41,2.04
		c1.26,0.46,3.19,0.78,6.04-0.07c0,0-1.15-4.96-0.17-7.9c0.98-2.95,2.95-2.95,5.9-4.91c2.95-1.97,3.93-0.98,7.86-0.98
		s6.88,3.93,10.81,5.9c3.93,1.97,5.9,0,7.86-0.98c1.97-0.98,7.86-6.88,9.83-8.84c1.97-1.97-1.97-1.97-3.93-2.95
		c-1.97-0.98-2.95-2.95-1.97-4.91s0-1.97-0.98-2.95c-0.98-0.98-1.97-3.93,1.23-4.47c3.19-0.54-0.25-4.37-0.25-7.32
		s0.98-0.98,1.97-1.97c0.98-0.98-1.97-1.97-1.97-4.91s-2.95-1.97-5.9,0c-2.95,1.97-0.98-0.98,0-2.95c0.98-1.97,6.88-8.84,7.86-9.83
		c0.98-0.98,3.93-1.97,4.91-3.93c0.98-1.97,1.97-10.81,4.91-13.76c2.95-2.95-3.93-2.95-6.88-3.93c-2.95-0.98-4.91-2.95-6.88-3.93
		c-1.97-0.98-4.91-2.95-6.88-2.95s-7.86-4.91-9.83-5.9c-1.97-0.98-2.95-4.91-6.88-6.88c-3.93-1.97-2.95-3.93-4.91-5.9
		c-1.97-1.97-3.93-0.98-6.88-0.98s-2.95,6.88-2.95,8.84c0,1.97-6.88,2.95-9.83,3.93c-2.95,0.98-2.95,3.93-3.93,5.9
		c-0.98,1.97-7.86-1.97-8.84-3.93c-0.98-1.97-2.95-2.95-4.91-2.95s0,4.91,0.98,8.84c0.98,3.93-2.95,4.91-5.9,3.93
		c-2.95-0.98-4.91-1.97-6.26-3.93c-1.35-1.97-10.44,0-13.39,0c-2.95,0-1.97,3.93,0,4.79c1.97,0.86-0.98,4.05,0,5.04
		c0.98,0.98,12.77,6.88,15.72,10.81c2.95,3.93,0.98,2.95,0.98,3.93s0.98,3.93,2.95,5.9c1.97,1.97,2.95,7.86,2.95,12.77
		s-9.16,27.93-9.16,27.93C109.77,506.12,112,507.67,112.8,508.29z"/>
	<path class="st4" d="M116.72,356.87c0,0-4.91,2.95-3.93,5.9c0.98,2.95,0.85,4.36,1.9,4.15c1.05-0.21,2.03,0.46,2.03,1.11
		c0,0.64-1.97,6.54-2.95,7.52c-0.98,0.98-5.77,0-6.82,0c-1.04,0-1.04-2.95-3.01-1.97c-1.97,0.98-1.97,3.93-0.98,3.93
		c0.98,0,2.95,3.93,1.97,6.88c-0.98,2.95-7.86,4.91-9.83,5.9c-1.97,0.98-1.97,3.93,0,3.93s6.88,0,6.88,0.98
		c0,0.98,1.47,2.89,3.19,3.41s4.73,1.44,6.66,0s2.92-1.44,2.92-1.44s-2.95,4.91-5.9,4.91s-5.9-1.97-7.86-0.98
		c-1.97,0.98-3.93,4.91-5.9,5.9c-1.97,0.98-9.83,3.93-8.84,4.91c0.98,0.98,2.95,2.95,3.93,1.97c0.98-0.98,0.98-3.93,3.93-2.95
		c2.95,0.98,5.9,2.95,7.86,1.97c1.97-0.98,0.98-3.93,2.95-3.93c1.97,0,4.91-0.98,5.9,0c0.98,0.98,0.68,1.47,3.78,1.72
		s2.12-1.72,4.08-0.74c1.97,0.98,2.95,3.93,3.93,2.95c0.98-0.98,0.31-2.46,2.12-2.21s4.76-0.74,6.72,0.25
		c1.97,0.98,4.91,1.97,7.86,0c2.95-1.97,5.9-3.93,3.93-4.91c-1.97-0.98-7.86-0.98-5.9-1.97c1.97-0.98,6.88-4.91,8.84-7.86
		s1.97-6.88,0-8.84s-5.59-2.68-6.72-1.83c-1.14,0.85-2.12,1.83-2.12-0.13c0-1.97,1.97-4.91,0.98-6.88
		c-0.98-1.97-1.97-1.97-1.97-4.91s-0.98-8.84-2.95-9.83c-1.97-0.98-2.95-1.97-3.93-4.91c-0.98-2.95,0-7.86-1.97-10.81
		c-1.97-2.95-9.83-3.93-8.84-4.91c0.98-0.98,2.95-2.95,3.93-3.93c0.98-0.98,2.95-1.97,4.91-4.91c1.97-2.95,1.97-4.91,2.95-5.9
		c0.98-0.98,2.95-3.93,0.98-4.91c-1.97-0.98-9.83-1.97-11.79-0.98c-1.97,0.98-3.52,1.15-2.74-0.41c0.78-1.56,1.76-0.58,1.76-1.56
		c0-0.78,0.67-3.45,1.97-3.93c0.36-0.13,0.52,0,0.98,0c0.61,0,1.78-0.22,3.93-2.95c2.08-2.64,3.17-4.03,2.95-5.9
		c-0.16-1.34-1.01-2.91-1.97-2.95c-0.96-0.03-1.73,1.5-1.97,1.97c-1.12,2.23-0.14,3.54-1.04,4.44c-1.2,1.2-4.3,0.21-5.84-0.51
		c-2.63-1.23-3.68-3.06-4.83-2.63c-0.45,0.17-0.81,0.66-1.06,1.64c-0.98,3.93,0,5.9-1.97,6.88c-1.97,0.98-2.95,0-3.93,1.97
		c-0.98,1.97,0.98,2.95-0.98,1.97c-1.97-0.98-5.9-0.98-5.9,0c0,0.98,2.95,1.97,1.97,3.93c-0.98,1.97-2.95,1.97-1.97,2.95
		c0.98,0.98,3.93-1.97,3.93,0s0.98,0.98-0.98,1.97s-1.97-0.98-3.93,0c-1.97,0.98-4.91,3.93-1.97,2.95c2.95-0.98,4.91,0,3.93,0.98
		c-0.98,0.98-3.93,2.95-0.98,2.95s5.9-0.98,2.95,0.98s-7.86,3.93-6.88,4.91c0.98,0.98,0.98,2.95,2.95,1.97
		c1.97-0.98,2.95-1.97,2.95-0.98c0,0.98-1.97,0.98-1.97,3.93s0.98,1.97,1.97,1.97c0.98,0,1.97-4.91,1.97-2.95
		c0,1.97,0.98,2.95,1.97,0.98c0.98-1.97,3.93-1.97,2.95,0c-0.98,1.97-4.91,4.91-4.91,6.88s-2.95,1.97,0.98,2.95
		c4.17,1.04,6.28-1.5,9.83-0.98C114.41,355.98,115.46,356.21,116.72,356.87z"/>
	<path class="st4" d="M89.21,345.08c-0.43-0.09-1.14-0.17-1.97,0c-0.73,0.15-1.74,0.36-1.97,0.98c-0.38,1.03,1.71,2.01,1.72,3.81
		c0,0.48-0.22,1.01-0.82,1.75c-1.88,2.3-5.81,1.32-4.83,4.27c0.98,2.95,3.77,6.45,4.34,4.21c0.57-2.24,1.55-5.19,2.53-3.22
		c0.98,1.97,0.98,4.05,1.97,4.97c0.98,0.92,3.93,2.89,5.9,0.92c1.97-1.97,3.93-1.97,2.95-4.91c-0.98-2.95,0-7.86-1.97-8.84
		c-1.97-0.98-4.91-0.98-5.9-1.97C91.13,346.96,89.82,345.4,89.21,345.08z"/>
	<path class="st4" d="M106.89,360.8c-0.98-0.56-4.45,2.62-3.93,3.93c0.21,0.52,1.03,0.7,1.52,0.69c1.26-0.03,1.99-1.3,2.16-1.61
		C107.26,362.75,107.46,361.13,106.89,360.8z"/>
	<path class="st4" d="M102.96,308.73c0,0-2.95,0.98-3.93,2.95s-0.98,1.97-1.97,3.93c-0.98,1.97-2.95,0.98-2.95,3.93
		s-2.95,6.88-0.98,5.9c1.97-0.98,0.98-3.93,3.93-5.9s8.84-4.91,8.84-7.86s1.97-3.93,0-3.44S102.96,308.73,102.96,308.73z"/>
	<path class="st4" d="M142.26,288.1c-1.55,1.87-3.16,1.29-3.93,2.95c-0.31,0.67-0.32,1.28-0.26,1.94c0.16,1.58,1.24,2.5,1.24,3.95
		c0,1.66,0.37,2.22,0.64,2.26c0.5,0.08,1.03-2.06,2.31-5.21c1.87-4.63,3.66-7.26,2.95-7.86c-0.25-0.21-0.69-0.08-0.98,0
		C143.24,286.41,142.95,287.26,142.26,288.1z"/>
	<g class="st5">
		<path class="st6" d="M266.06,191.81c-4.11-0.64-5.48-6.35-6.88-5.9c-1.54,0.5,1.13,8.84-1.97,8.84c-1.97,0-8.84-2.95-8.84,0
			c0,2.95,1.97,5.9-0.98,5.9c-2.95,0-3.93,0-4.91,2.95c-0.98,2.95-1.97,2.95-0.98,5.9c0.98,2.95,0.98,3.93,0,4.91
			s-3.93,6.88-3.93,7.86c0,0.98-1.97,1.97-2.95,2.95s0.98,5.83,0,9.79c-0.98,3.96-4.91,9.86-2.95,10.84
			c1.97,0.98,2.95,3.93,0.98,4.91c-1.97,0.98-3.75-1.97-5.31,0c-1.57,1.97-4.51,3.93-4.51,11.79s-0.98,17.69,0.98,18.67
			c1.97,0.98,5.77,2.72,4.36,4.8c-1.41,2.08-3.38,2.08-3.38,4.04s2.95,5.9,1.97,8.84c-0.98,2.95-3.44,3.07-4.18,5.47
			c-0.74,2.39,0.25,8.29-0.74,9.27c-0.98,0.98-3.87-0.98-3.9,0c-0.03,0.98,0.95,10.81,5.86,19.65c4.91,8.84,7.86,11.79,6.88,12.77
			c-0.98,0.98-2.95,0-1.97,2.95c0.98,2.95,2.95,1.97,2.95,4.91s0,5.9,1.97,5.9c1.97,0,1.97-0.98,3.93-0.98c1.97,0,4.91,0,3.93-1.97
			s-1.97-3.93,0-4.91c1.97-0.98,0.98-2.95,4.91-2.95c3.93,0,6.88-0.98,6.88-0.98c0-1.97,0-4.91,0.98-4.91s-0.98-5.9,0-7.86
			s0-9.83,0.98-12.77s-1.97-4.91,0.98-5.9c2.95-0.98,4.91,0,3.93-3.93c-0.98-3.93-2.95-2.95-2.95-4.91s0-2.95,1.97-1.97
			c1.97,0.98,0,1.97,2.95,0.98c2.95-0.98,0.98,0,2.95-2.95c1.97-2.95,3.93-2.95,0.98-5.9s-8.84-4.91-9.83-6.88
			c-0.98-1.97-1.97-2.95-1.97-9.83c0-6.88-0.98-11.79,0.98-13.76c1.97-1.97,2.95-4.91,3.93-6.88s7.86-4.91,9.83-9.83
			c1.97-4.91,1.97-4.91,2.95-6.88c0.98-1.97,2.95-2.95,0.98-3.93c-1.97-0.98-2.95,0-1.97-4.91c0.98-4.91,0.98-6.88,3.93-8.84
			c2.95-1.97,8.84-1.97,7.86-3.93c-0.98-1.97-3.93-2.95-3.93-5.9c0-2.95,1.97-5.9,0-7.86c-1.97-1.97-2.95-3.93-2.95-4.91
			c0-0.98,0.98-4.91-0.98-6.88c-1.46-1.46-1.29-2.38-1.92-3.16c-0.35-0.44-0.77-0.64-1.03-0.77
			C270.28,191.92,267.35,192.01,266.06,191.81z"/>
		<path class="st6" d="M258.2,333.29c0,0-1.97,6.88-1.97,8.84s0,5.16,0,5.16"/>
		<path class="st6" d="M265.08,307.75c-0.57-0.61-3.35,0.14-3.93,1.97c-0.39,1.22,0.23,2.82,0.98,2.95c0.69,0.11,1.4-1.04,1.97-1.97
			C264.54,309.98,265.57,308.28,265.08,307.75z"/>
		<path class="st6" d="M271.96,323.47c0,0-3.93,0.98-5.9,2.95s0,6.26,0,8.54s0,3.25,1.97,0.31c1.97-2.95,1.97-4.91,1.97-5.9
			s0.98-2.95,1.97-3.93c0.13-0.13,0.38-0.4,0.43-0.79C272.44,324.16,272.18,323.74,271.96,323.47z"/>
	</g>
</g>
<g id="Layer_3" class="st0">
	<path class="st7" d="M236.15,499.67c0,0,2.84,4.54,5.11,5.11c2.27,0.57,4.54-0.57,6.82,0.57c2.27,1.14,3.98,2.84,6.25,2.27
		c2.27-0.57,1.7-1.14,3.41-0.57c1.7,0.57,9.66,1.7,11.93-1.14c2.27-2.84,4.54-3.98,4.54-5.11s1.14-2.84,2.27-2.84
		s3.41-3.98,4.54-6.25c1.14-2.27,1.7-1.7,2.27-3.41s-0.57-2.27,1.14-3.98c1.7-1.7,1.7-3.41,2.84-3.98s2.27-1.14,2.27-3.98
		c0-2.84,1.14-6.25,1.7-4.54s0.57,3.41,1.7,2.84s2.84-1.7,1.14,0.57c-1.7,2.27-5.68,6.25-3.98,6.82c1.7,0.57,3.98-1.7,5.11-2.84
		c1.14-1.14,3.98-9.66,5.68-11.36c1.7-1.7,9.09-9.66,9.66-11.36s0.57-7.95-0.57-9.66c-1.14-1.7-1.14-1.7-0.57-3.41
		s0.57-5.11,2.27-6.25c1.7-1.14,15.05-11.93,17.75-11.93c2.7,0,8.38-1.14,9.52-2.84c1.14-1.7-1.14-2.84,1.7-2.84
		c2.84,0,4.54,2.27,6.82,1.14c2.27-1.14,1.7-3.98,2.84-2.84s2.84,2.27,4.54,2.27s3.41,0,3.98-1.7s0.57-3.98,2.27-4.54
		s6.82,0,6.25-2.84s-1.05-4.69,0.04-5.75c1.09-1.06,5.07-4.47,5.07-6.18c0-1.7-0.57-2.27,1.14-3.41s3.98-2.27,2.84-5.68
		c-1.14-3.41-1.7-4.54,0-6.25c1.7-1.7,4.54-1.7,3.98-3.41s1.14-8.52,1.14-10.79c0-2.27,0.57-5.82,0-7.17s-1.14-1.92-0.57-3.62
		s1.7-3.41,0.57-5.68c-1.14-2.27-0.57-2.27,0-4.54c0.57-2.27,2.27-5.68,2.84-4.54s0.57,2.27,1.7,1.14c1.14-1.14,6.82-7.95,6.82-9.09
		s-1.7-1.14,0.57-3.41c2.27-2.27,3.98-3.98,5.11-4.54s10.79-11.93,11.93-14.77c1.14-2.84,2.27-9.66,1.14-13.63
		c-1.14-3.98-0.57-8.52-2.84-10.22c-2.27-1.7-6.25-3.41-9.09-3.41c-2.84,0-4.54,0.57-6.25-1.14c-1.7-1.7-7.38-7.38-8.52-8.52
		s-6.25-3.98-9.09-5.11c-2.84-1.14-4.54-2.27-6.82-1.7s-4.54,1.7-5.68,1.14c-1.14-0.57-0.57-2.27-2.84-1.7s-2.27,2.27-4.54,0.57
		c-2.27-1.7-4.54-3.98-6.82-2.84c-2.27,1.14-5.11,1.7-6.25,2.84s-5.11,5.11-4.54,1.14c0.57-3.98,3.41-7.38,1.7-8.52
		c-1.7-1.14-2.84-1.7-3.98-1.14s-2.7,0.69-3.05-0.22c-0.35-0.91-5.47-5.46-9.44-6.02c-3.98-0.57-10.22-1.14-11.36,1.14
		c-1.14,2.27-2.84,4.54-3.98,5.11s-9.66,4.54-11.36,3.41c-1.7-1.14-4.54-7.38-6.25-6.25s-3.41,3.41-5.11,3.41s-5.11-0.57-2.84-2.27
		c2.27-1.7,7.95-3.41,7.95-4.54c0-1.14-2.84-3.41-0.57-3.98c2.27-0.57,3.41,0.57,3.98-1.7s6.25-5.11,6.25-6.82
		c0-1.7,1.14-2.27-0.57-3.98c-1.7-1.7-5.68-2.84-6.25-5.68c-0.57-2.84-0.57-11.93-2.84-13.06c-2.27-1.14-9.09-7.95-11.93-9.09
		c-2.84-1.14-9.09-3.98-11.36-3.98c-2.27,0-4.4-1.14-4.76,0c-0.35,1.14-2.06,1.7-2.63,0.57s-0.99-2.15-2.77-1.07
		s-0.64,1.64-2.34,1.64s-1.7-1.14-3.41-1.14c-1.7,0-2.84,1.14-4.54,0.57s0-2.84-1.14-2.84c-1.14,0-4.54-5.68-5.68-5.11
		s-3.41,1.62-3.41-0.04s-1.7-7.34-3.41-7.91c-1.7-0.57-3.98-2.84-6.25-3.41c-2.27-0.57-0.57-1.14-3.98-1.14s-2.84,1.14-5.11,1.14
		c-2.27,0-4.54-0.57-3.41-1.14c1.14-0.57,1.7-1.14,2.84-1.7s3.98-3.41,1.7-5.11c-2.27-1.7-2.27-2.41-3.98-2.06
		c-1.7,0.35-0.57,2.06-2.27,0.35c-1.7-1.7-1.14-3.41-2.84-2.27c-1.7,1.14-2.27,3.41-2.84,1.14c-0.57-2.27-0.57-0.57-1.14-2.27
		c-0.57-1.7,1.14-2.27-1.7-2.84c-2.84-0.57-10.22-1.14-10.51,0c-0.28,1.14-0.85,1.7-2.56,2.27c-1.7,0.57-0.57,2.27-2.84,1.7
		c-2.27-0.57-3.98-2.84-5.68-2.27s-1.7-2.45-3.41-2.36c-1.7,0.09-10.22,0.66-10.79,1.22s-3.41,0.57-3.98-0.57
		c-0.57-1.14-0.57-5.11-3.41-6.25s-10.22,0-11.93,0.57c-1.7,0.57-7.95,2.27-8.52,3.98c-0.57,1.7,1.14,4.54,1.7,5.68
		c0.57,1.14,1.7,3.98,0.57,5.11c-1.14,1.14-3.41,3.41-3.98,1.7c-0.57-1.7-1.7-1.7-2.27-2.84c-0.57-1.14-2.84-1.7-1.14-3.41
		c1.7-1.7,3.98-2.27,3.41-4.54c-0.57-2.27,0.57-2.27-1.14-3.98c-1.7-1.7-3.12-2.11-1.56-2.76s6.67-1.22,6.67-3.49
		c0-2.27,1.14-3.41-1.7-3.41s-5.22-0.43-6.3,1.49c-1.08,1.92-6.76,6.46-7.9,6.46c-1.14,0-6.25-0.57-6.82,0.57s0,3.98-1.7,3.41
		s-3.98-2.84-6.82,0c-2.84,2.84-2.84,3.98-2.84,5.68c0,1.7,1.7,2.98,0,4.33s-2.27,0.21-2.84,0.78c-0.57,0.57-0.57,2.27-1.7,2.84
		c-1.14,0.57-2.84,0-3.41,1.7c-0.57,1.7,0.57,1.7,0.57,3.41c0,1.7-1.14,4.54-1.7,2.27c-0.57-2.27-2.27-5.11-2.84-4.54
		c-0.57,0.57,0.57,3.83,0,5.04c-0.57,1.21-1.14,2.91-2.27,2.91c-1.14,0-2.84,0.57-1.7,2.27c1.14,1.7,2.84,2.84,3.41,3.98
		c0.57,1.14,0.57,1.7,0,2.27s-0.57,0.57,0,2.27c0.57,1.7,1.14,1.7,0.57,2.27c-0.57,0.57-1.7,0-1.14,1.7c0.57,1.7,2.27,1.14,1.7,2.84
		c-0.57,1.7-1.14,2.27-0.57,2.84c0.57,0.57,1.14,1.14,0.57,2.27c-0.57,1.14-0.57,2.84,0,3.41c0.57,0.57,1.14,0.57,0.57,1.7
		s-0.57,0.57-0.57,0.57s-3.41,6.25-4.54,7.38c-1.14,1.14-1.7,0-3.41,1.14c-1.7,1.14-2.27,2.84-2.84,3.98
		c-0.57,1.14-3.41,1.7-2.84,2.84c0.57,1.14,2.84,1.14,1.14,2.27c-1.7,1.14-7.38,2.27-7.95,3.41c-0.57,1.14,0.57,1.85,0,3.76
		s-4.54,4.19-3.98,4.76s0.57,1.14,0,2.27c-0.57,1.14-2.27,0.57-2.27,2.27c0,1.7-0.57,7.38,0.57,9.09s1.7,3.98,3.41,2.84
		s3.41-3.98,3.98-2.27s0.57,3.98-0.57,5.68c-1.14,1.7-7.1,3.12-7.53,4.12c-0.43,0.99-0.99,2.7-2.13,3.83
		c-1.14,1.14-2.27,2.84-1.14,4.54c1.14,1.7,1.14,1.14,1.14,2.27c0,1.14,3.41,1.7,2.27,3.41c-1.14,1.7-3.98,1.7-2.27,3.41
		c1.7,1.7,8.52,3.98,9.66,5.68c1.14,1.7,9.09,17.04,10.22,18.74c1.14,1.7,6.82,14.77,7.95,16.47c1.14,1.7,10.79,14.77,9.09,15.9
		s-2.27,3.41,0,5.11c2.27,1.7,4.54,6.82,7.38,7.95c2.84,1.14,9.09,3.98,10.22,5.11c1.14,1.14,2.27,0,3.41,1.7
		c1.14,1.7,6.82,1.14,7.38,2.27s2.27,4.54,3.98,4.54c1.7,0,3.41,0,3.41,1.14s1.14,3.41,2.27,3.41c1.14,0,5.11,3.41,5.11,3.41
		l4.54,3.41c0,0,11.93,31.81,11.36,33.51c-0.57,1.7-0.57,1.14-0.57,1.14l23.29,15.9l42.03,56.23L236.15,499.67z"/>
	<path class="st7" d="M306.01,250.9c-2.84,0-1.7-2.27-5.11-2.27c-3.41,0-8.52,4.54-7.38,6.25c1.14,1.7,2.27,6.25,3.98,6.82
		c1.7,0.57,9.09-1.14,10.22-2.84s6.82-9.66,3.41-8.52C307.72,251.47,306.01,250.9,306.01,250.9z"/>
	<path class="st8" d="M162.06,438.4C161.9,438.41,161.93,438.24,162.06,438.4L162.06,438.4z"/>
	<path class="st8" d="M271.94,449.12c-1.14,1.7-15.33,9.66-17.61,11.93c-2.27,2.27-11.93,11.36-12.5,14.2
		c-0.57,2.84-1.7,4.54-2.27,7.38c-0.57,2.84-0.57,3.98-0.57,6.25c0,2.27-0.57,4.54-1.14,5.11c-0.57,0.57,0,2.84-0.57,4.54
		c-0.57,1.7-1.14,2.84-0.57,5.11c0.57,2.27,1.7,2.27,3.41,2.84c1.7,0.57,6.25,2.27,5.68,5.68c-0.57,3.41-1.7,5.68,0.57,6.25
		c2.27,0.57,3.98-1.14,3.41,2.27s-2.27,6.25-3.98,7.95c-1.7,1.7,0,1.7-3.41,3.41c-3.41,1.7-8.52,4.54-15.33,5.11
		c-6.82,0.57-14.77,1.14-15.9,0.57c-1.14-0.57-1.14-2.84-2.27-1.14c-1.14,1.7-0.57,3.98,0,4.54c0.57,0.57,1.7,0.57,0.57,2.27
		c-1.14,1.7-2.84,3.41-2.27,4.54c0.57,1.14,2.84,2.27,1.7,3.41s-7.38,4.54-10.22,3.41s-6.82-3.41-9.09-2.84
		c-2.27,0.57-3.12,2.16-2.41,3.07c0.71,0.91,1.28,2.04,1.28,3.75c0,1.7,0,2.27,1.14,2.84c1.14,0.57,2.84-0.57,1.7,1.14
		c-1.14,1.7-3.41,1.7-2.27,2.84c1.14,1.14,5.68,3.41,3.41,3.41c-2.27,0-6.25,2.27-6.25,3.98c0,1.7,0.57,5.11,0,5.68
		c-0.57,0.57-2.84,1.7-2.84,2.84s-7.38,0-11.36,5.4s-1.14,7.1,0.57,8.24c1.7,1.14,2.27,2.27,3.98,2.27c1.7,0,5.11-1.14,5.68,1.14
		c0.57,2.27,0,6.25-1.14,7.38c-1.14,1.14-9.09,3.41-10.22,5.11c-1.14,1.7-2.27,6.82-3.41,7.95s-1.7,1.14-2.84,1.14
		s-0.57-1.7-2.27-1.7c-1.7,0-1.7,1.14-1.14,2.27s1.59,0.99-0.34,1.64c-1.93,0.64-3.63,2.91-3.07,4.04s0.57,2.27,1.14,3.98
		c0.57,1.7-1.14,1.14,0.57,2.84c1.7,1.7,6.25,4.54,2.27,3.98c-3.98-0.57-7.45-0.61-7.45-0.61c0.12-0.08,0.24-0.16,0.35-0.24
		c2.27-1.7-0.57-2.27-6.82-2.27c-6.25,0-10.79-1.14-10.79-1.14c-3.98-1.7-2.27-3.41-2.84-6.82c-0.57-3.41-3.98-1.7-6.25-1.14
		c-2.27,0.57-2.84-5.68-2.84-8.52c0-2.84,3.98-2.84,6.82-4.54c2.84-1.7,2.84-5.68,2.27-7.38s0-1.14,0.99-2.77
		c0.99-1.63,1.28-2.91,1.85-5.75s0.57-3.41,1.7-6.25c1.14-2.84-0.57-1.7,1.7-3.41c2.27-1.7,0.57-2.84-2.27-3.41
		c-2.84-0.57,0.57-2.27,3.98-2.27s-1.14-2.27-4.54-4.54s0,0,0.57-3.98c0.57-3.98-0.57-2.27-2.27-3.98c-1.7-1.7,0-2.84,1.59-5.82
		c1.59-2.98,0.68-3.27,0.11-7.24s1.14-7.38,1.7-10.79c0.57-3.41,2.27-5.68,5.11-7.95c2.84-2.27,0.57-4.54-0.57-8.09
		c-1.14-3.55-2.27-4.4,0-7.24c2.27-2.84,5.11-5.11,4.54-7.38s-0.57-4.54,1.7-7.95c2.27-3.41,2.84-9.09,1.14-9.66
		c-1.7-0.57,0-3.98-0.57-6.25c-0.57-2.27-3.41-5.68-3.07-8.38c0.35-2.7,2.5-4.69,3.63-6.96c1.14-2.27,1.14-2.84,0-6.82
		c-1.14-3.98,0,0,1.14-1.7c1.14-1.7,0,0,0-2.84c0-2.84,3.41-3.98,5.11-5.68c1.7-1.7,1.7-5.11,4.54-7.38
		c2.84-2.27,1.14-0.57,0.57-2.84c-0.57-2.27-1.14-0.57-0.57-2.27c0.57-1.7,1.14-1.14,0.57-4.54c-0.22-1.28-0.43-1.76-0.55-1.92
		c0.1-0.01,0.27-0.08,0.55-0.35c1.14-1.14,1.14-2.27-0.57-3.98c-1.7-1.7,6.82-5.11,9.09-6.25c2.27-1.14,2.27-5.68,1.7-7.95
		c-0.12-0.48-0.29-0.76-0.51-0.9c0.28-1.14,0.73-2.48,1.36-2.79c1.14-0.57,2.84-1.7,3.98-2.84c1.14-1.14,2.27-3.41,3.41-2.27
		c1.14,1.14,3.98,1.14,5.68,1.7s2.27-1.14,3.98,1.7c1.7,2.84,2.84,5.11,3.98,2.27c1.14-2.84-1.14-3.41,2.27-3.41
		s7.95-1.14,8.52,0.57c0.57,1.7,3.41,0.57,3.98,2.84c0.57,2.27,0,3.41,2.27,4.54c2.27,1.14,5.11,1.14,5.68,3.41
		c0.57,2.27,7.38,0.57,9.09,2.27c1.7,1.7,6.82,4.54,9.66,6.25s2.84,1.7,4.54,2.27c1.7,0.57,2.84,0,1.7,2.27
		c-1.14,2.27-3.98,4.54-3.98,6.25c0,1.7-0.57,2.84-1.7,4.54c-1.14,1.7-2.84,2.84,1.14,2.84c3.98,0,7.67,0.26,9.51,0.98
		s3.55,1.86,4.69,0.72c1.14-1.14,1.99-1.44,2.98-0.72c0.99,0.72,2.13,0.15,3.27-1.55c1.14-1.7,5.11-2.27,5.68-4.54
		c0.57-2.27,0-8.52,1.7-7.95c1.7,0.57,1.7-1.14,2.84,0c0,0,2.84,0.57,2.84,2.27S273.07,447.41,271.94,449.12z"/>
	<path class="st8" d="M186.17,656.42c-4.54,1.7-6.25-0.57-7.38,0c-1.14,0.57-3.36,0.72-4.24,0.65c-0.87-0.08-1.58-1.59-2.36,0.02
		c-0.78,1.61-3.62,2.74-4.76,1.61s0-1.7-0.57-2.84s-2.38-1.84-4.88-1.77l-0.51-14.07c0,0,3.11,0.51,3.11,2.21
		c0,1.7-0.57,1.14,2.27,3.41c2.84,2.27,13.06,8.52,14.77,8.52C183.33,654.15,190.72,654.72,186.17,656.42z"/>
	<path class="st8" d="M171.12,427.82c-2.27,1.14-10.79,4.54-9.09,6.25c1.7,1.7,1.7,2.84,0.57,3.98c-0.27,0.27-0.45,0.35-0.55,0.35
		c-0.13-0.16-0.16,0.01,0,0c0.12,0.16,0.33,0.64,0.55,1.92c0.57,3.41,0,2.84-0.57,4.54c-0.57,1.7,0,0,0.57,2.27
		c0.57,2.27,2.27,0.57-0.57,2.84c-2.84,2.27-2.84,5.68-4.54,7.38c-1.7,1.7-5.11,2.84-5.11,5.68c0,2.84,1.14,1.14,0,2.84
		c-1.14,1.7-2.27-2.27-1.14,1.7c1.14,3.98,1.14,4.54,0,6.82c-1.14,2.27-3.29,4.26-3.63,6.96c-0.34,2.7,2.5,6.11,3.07,8.38
		c0.57,2.27-1.14,5.68,0.57,6.25c1.7,0.57,1.14,6.25-1.14,9.66c-2.27,3.41-2.27,5.68-1.7,7.95s-2.27,4.54-4.54,7.38
		c-2.27,2.84-1.14,3.69,0,7.24c1.14,3.55,3.41,5.82,0.57,8.09c-2.84,2.27-4.54,4.54-5.11,7.95c-0.57,3.41-2.27,6.82-1.7,10.79
		s1.48,4.26-0.11,7.24c-1.59,2.98-3.29,4.12-1.59,5.82c1.7,1.7,2.84,0,2.27,3.98c-0.57,3.98-3.98,1.7-0.57,3.98s7.95,4.54,4.54,4.54
		s-6.82,1.7-3.98,2.27c2.84,0.57,4.54,1.7,2.27,3.41c-2.27,1.7-0.57,0.57-1.7,3.41c-1.14,2.84-1.14,3.41-1.7,6.25
		s-0.85,4.12-1.85,5.75c-0.99,1.64-1.56,1.07-0.99,2.77s0.57,5.68-2.27,7.38c-2.84,1.7-6.82,1.7-6.82,4.54
		c0,2.84,0.57,9.09,2.84,8.52c2.27-0.57,5.68-2.27,6.25,1.14c0.57,3.41-1.14,5.11,2.84,6.82c0,0,4.54,1.14,10.79,1.14
		c6.25,0,9.09,0.57,6.82,2.27c-0.11,0.08-0.23,0.16-0.35,0.24h-0.01c-2.41,1.52-7.09,2.09-8.17,3.17c-1.14,1.14,0.57,5.68-1.7,6.82
		c-2.27,1.14-7.38,1.7-6.25-0.57s5.11-2.84,4.54-3.98c-0.57-1.14,0.57-1.7-1.7-1.14c-2.27,0.57-7.95,5.11-9.66,3.41
		c-1.7-1.7,2.27-6.82,0.57-5.11c-1.7,1.7-3.41,4.54-5.11,3.98c-1.7-0.57-2.84-0.99-1.7-1.92c1.14-0.92,5.11-4.9,2.27-3.76
		c-2.84,1.14-6.25,2.84-6.82,1.14c-0.57-1.7,7.38-3.41,5.11-3.98c-2.27-0.57-2.84-0.57-4.54,0c-1.7,0.57-3.98,2.27-5.11,1.7
		c-1.14-0.57-4.54-3.98-2.84-3.98s2.27-1.14,3.98-0.57c1.7,0.57,2.84,0.57,3.41-0.57s2.27-2.27,0-2.27s-7.38-2.27-6.25-3.41
		c1.14-1.14,1.7-2.84,2.84-2.27c1.14,0.57,3.98,1.14,3.41,0s-3.41-2.27-2.27-2.84c1.14-0.57,2.27-0.57,2.27-1.7
		c0-1.14-0.57-1.14,0.57-1.7c1.14-0.57,3.41-1.14,1.7-2.27s0.57-3.41-1.14-2.27c-1.7,1.14-2.27,0.57-2.84,2.84s-1.7,3.41-2.27,3.41
		s-1.7-1.14-2.84-0.57c-1.14,0.57-1.7,1.7-2.27,0.57c-0.57-1.14-2.27-3.41-0.57-3.98c1.7-0.57,4.54-2.27,4.54-2.84
		s0.57-2.27,1.7-1.7c1.14,0.57,1.14,1.14,2.27,0.57c1.14-0.57,2.27-1.7,1.7-2.27c-0.57-0.57-1.7-1.7-0.57-2.27
		c1.14-0.57,1.7,0,2.84,0c1.14,0,3.41-0.57,2.84-1.14c-0.57-0.57,0-2.27-1.7-2.27s-2.27,1.14-2.84,1.7c-0.57,0.57-3.98,1.7-4.54,0
		s-2.27-3.98-0.57-3.41c1.7,0.57,3.98,1.7,3.41,0c-0.57-1.7-1.14-2.84-0.57-3.41c0.57-0.57-1.14,0-2.27-1.14
		c-1.14-1.14-6.25-0.57-5.68-2.84s3.41-3.98,3.98-4.54c0.57-0.57,3.41,0,3.98-0.57c0.57-0.57,1.14-2.27,1.14-3.41
		s-0.57-1.7-1.7-3.41c-1.14-1.7-2.27-3.98-0.57-3.98s3.41-2.27,4.54-1.7c1.14,0.57,0.57,2.84,0.57,4.54c0,1.7,0.57,3.98,0,5.11
		c-0.57,1.14-4.54,3.98-3.41,5.68c1.14,1.7,2.27,1.7,2.84,2.27c0.57,0.57,2.27,0.57,2.27-1.7s-1.14-3.98,0-5.11
		c1.14-1.14,3.41-0.57,2.84-1.7c-0.57-1.14-1.7-2.27-0.57-2.84c1.14-0.57,6.82-2.27,3.98-3.98c-2.84-1.7-3.98-3.41-3.41-3.98
		c0.57-0.57,0-3.98,1.14-5.68c1.14-1.7-1.14-2.84,1.14-4.54c2.27-1.7,3.98-1.14,2.27-3.41c-1.7-2.27-0.57-4.54-2.27-3.41
		s-3.41,3.41-6.25-0.57c-2.84-3.98-3.41-5.11-2.27-6.25c1.14-1.14,2.27-3.98,2.27-4.54c0-0.57,0-1.7,1.14-2.27
		c1.14-0.57,3.98-2.84,2.27-5.11s-3.41-2.27-2.84-4.54c0.57-2.27,2.84-3.41,1.14-4.54s-2.27-2.27-0.57-3.98
		c1.7-1.7,2.84-1.14,2.84-3.98c0-2.84,2.27-5.11,2.84-6.25s0.57-2.27,0.57-2.84c0-0.57,3.41-2.27,3.98-5.11
		c0.57-2.84,0-5.11,1.14-6.25c1.14-1.14,2.84-2.84,2.27-3.41s-1.14,0-0.57-1.7c0.57-1.7,1.14-1.7,1.14-3.41s0-2.27,0.57-2.84
		c0.57-0.57-1.14-4.54-1.14-6.82s-1.14-4.54-0.57-6.82s4.54-2.27,3.41-5.11c-1.14-2.84-2.27-3.98-1.7-6.25
		c0.57-2.27,3.41-5.11,3.98-7.95c0.57-2.84,1.7-15.9,2.27-17.04s2.84-1.7,1.7-3.98c-1.14-2.27-2.27-3.98-1.7-6.25
		s2.27-2.27,1.14-5.11c-1.14-2.84-1.7-3.41-0.57-5.11c1.14-1.7,3.98-5.11,3.41-8.52c-0.57-3.41,1.14-15.9,0-16.47
		c-1.14-0.57-2.27-6.82-2.27-6.82s-1.14-3.41,1.7-3.41s2.84-1.14,3.41-2.84c0.57-1.7,3.41-0.57,4.54,2.27
		c1.14,2.84,0,7.38,2.27,8.52c2.27,1.14,3.41,3.98,2.27,5.68c-1.14,1.7-0.24,1.85,0.44,4.61c0.69,2.77,2.96,7.88,3.53,10.16
		c0.57,2.27,0,5.11,2.27,6.25c1.79,0.9,3.23-0.33,4.04,0.23c0.22,0.15,0.39,0.42,0.51,0.9C173.4,422.14,173.4,426.68,171.12,427.82z
		"/>
	<path class="st8" d="M162.06,438.4C161.9,438.41,161.93,438.24,162.06,438.4L162.06,438.4z"/>
	<path class="st8" d="M164.31,661.47c-3.98-0.78-5.68-2.49-6.25-2.49c-0.57,0-0.57,1.7-2.27,1.14c-1.7-0.57-5.11-1.14-3.98-2.27
		c1.14-1.14,5.68-2.84,3.41-2.84c-2.27,0-5.68-0.57-6.82,0c-1.14,0.57-7.95,0-8.52-0.57c-0.57-0.57-1.7-2.27,0-1.99
		c1.7,0.28,9.09,2.56,7.95,0.28c-1.14-2.27-2.84-1.7-2.27-3.41c0.57-1.7,1.14-3.41,1.7-1.7c0.57,1.7,2.84,3.98,4.54,4.54
		c1.7,0.57,8.52,0,5.11-0.57c-3.41-0.57-4.54,0-5.68-1.7c-1.14-1.7-1.7-2.84,0-2.84c1.7,0,6.82-2.84,4.54-2.84
		c-2.27,0-5.68,1.7-6.25,1.14c-0.57-0.57-3.98-2.27-1.7-3.41c2.27-1.14,6.25-0.57,6.82-1.7c0.57-1.14,1.7-1.14,2.84-1.14
		c1.14,0,3.98,0.57,3.98,0.57l0.01,0.35l0.51,14.07l0.05,1.49c0,0,1.7,1.7,2.27,2.84S168.28,662.25,164.31,661.47z"/>
	<circle class="st9" cx="85.5" cy="481.5" r="11"/>
	<path class="st10" d="M100.42,488.56c12.69,5.31,25.38,10.63,38.08,15.94"/>
	<path class="st11" d="M95.5,486.5c1.64,0.69,3.28,1.37,4.92,2.06"/>
</g>
<g id="Layer_4">
	<g>
		<path class="st12" d="M114.42,331.59c0.04,0.7,0.88,2.77-1.8,5.06c-2.68,2.29-8.71,7.61-5.94,6.73c2.77-0.88,10.96-5.63,9.02-2.68
			s-7.19,8.14-4.76,8.03s7.31-1.12,3.22,1.26c-4.09,2.38-8.01,7.57-3.74,8.01c4.27,0.44,7.66-1.89,7.83,0.92s0.31,4.93,2.51,6.2
			c2.2,1.28,1.41-0.09,2.29,2.68c0.88,2.77,3.83,4.71,3.83,4.71l150.35-3.04l12.19-2.88c0,0,12.55-6.99,12.94-7.09
			c0.39-0.1,5.41,1,6.11,0.95c0.7-0.04,1.58,2.73,1.63,3.43c0.04,0.7,3.52-0.22,3.65,1.89s0.48,7.74,2.68,9.02
			c2.2,1.28,14.87,0.48,15.71,2.55c0.84,2.07,3.88,5.59,0.47,7.48c-3.42,1.89-3.59-0.92-5-0.84c-1.41,0.09-2.07,0.84-4,3.78
			c-1.94,2.95-3.21,5.15-4.49,7.35c-1.28,2.2-5.24,6.69-5.9,7.44c-0.66,0.75,1.72,2.01,4.66-0.29s3.56-3.76,5.68-3.89
			c2.11-0.13,3.56,0.48,5.59-1.06s2.64-2.99,2.6-3.7c-0.04-0.7,4.66-4.53,6.78-4.66c2.11-0.13,13.83-2.37,13.83-2.37l29.6-3.88
			l18.08-4.66c0,0,7.7-1.19,11.13-2.82c3.43-1.63,6.03-5.32,6.16-3.21c0.13,2.11-1.19,3.61-0.48,3.56c0.7-0.04,3.55,0.22,0.76,0.88
			s-5.65,0.13-7.63,2.38c-1.98,2.24-6.73,5.37-5.19,7.39c1.54,2.02,2.24,1.98,5.63-0.35c3.39-2.33,3.26-4.44,7.44-5.41
			c4.18-0.97,16.68-4.58,14.43-6.56c-2.24-1.98-5.68-0.35-8.58-1.58c-2.9-1.23-3.65-1.89-5.15-3.21c-1.5-1.32-3.12-4.75-1.8-6.25
			c1.32-1.5,4.75-3.12,1.19-3.61s-9.28-1.54-7.17-1.67s5.68,0.35,9.11-1.28c3.43-1.63,6.64-6.78,1.72-6.47
			c-4.93,0.31-15.9,4.23-19.02,5.99c-3.11,1.76-12.57,8.71-13.23,9.46c-0.66,0.75-6.2,2.51-2.2-1.28c4-3.78,12.76-10.69,15.49-12.28
			s5.59-1.06,6.91-2.55c1.32-1.5,2.46-5.81,5.28-5.98c2.82-0.18,31.73-1.28,33.79-2.11c2.07-0.84,6.64-6.78,8.76-6.91
			c2.11-0.13,11.84-2.86,13.86-4.4c2.02-1.54,4.05-3.08,2.6-3.7c-1.45-0.62,0.48-3.56,1.14-4.31s4.14-1.67,1.23-2.9
			s-2.86-0.53-4.97-0.4s-2.07,0.84-1.45-0.62c0.62-1.45,4-3.78,0.53-2.86s-15.09,7.3-15.18,5.9c-0.09-1.41,2.51-5.1,5.98-6.03
			s10.52-1.36,9.77-2.02c-0.75-0.66-5.15-3.21-8.01-3.74c-2.86-0.53-5.68-0.35-4.36-1.85c1.32-1.5,2.73-1.58-0.18-2.82
			s-6.64-4.53-4.53-4.66s5.59-1.06,4.09-2.38c-1.5-1.32-4.36-1.85-2.29-2.68c2.07-0.84,4.88-1.01,1.94-2.95
			c-2.95-1.94-5.15-3.21-3.74-3.3c1.41-0.09,4.18-0.97,1.28-2.2s-1.41,0.09-1.63-3.43c-0.22-3.52-1.19-7.7-4.44-3.26
			c-3.26,4.44-7.66,13.2-8.49,11.13c-0.84-2.07-0.97-4.18-2.29-2.68c-1.32,1.5-5.98,6.03-6.73,5.37c-0.75-0.66-6.25,1.8-4.93,0.31
			c1.32-1.5,4.66-4.53,2.51-5.1s-6.29,1.1-4.31-1.14c1.98-2.24,0.48-3.56,1.8-5.06c1.32-1.5,5.32-5.28,3.12-6.56
			c-2.2-1.28-6.25,1.8-7.13-0.97s-2.6-7.61-5.41-7.44c-2.82,0.18-4.8,2.42-7.66,1.89c-2.86-0.53-8.62-2.29-10.69-1.45
			c-2.07,0.84-4,3.78-3.87,5.9c0.13,2.11-1.23,2.9-1.89,3.65s0.92,3.48-0.35,5.68c-1.28,2.2-10.87,7.04-10.03,9.11
			c0.84,2.07,5.94,4.58,3.43,9.68c-2.51,5.1-7.83,10.38-12.63,12.8c-4.8,2.42-9.77,2.02-10.34,4.18
			c-0.57,2.16-1.13,14.48-3.16,16.59c-2.03,2.11-2.56,4.97-3.97,5.06c-1.41,0.09-0.92-3.48-2.9-1.23c-1.98,2.24-4,3.78-4.8,2.42
			s1.38-4.76-1.27-5.44c-2.65-0.68-3.35-0.63-2.82-3.49c0.53-2.86,3.12-6.56,2.99-8.67c-0.13-2.11-0.26-4.22,1.1-5.02
			c1.36-0.79,1.89-3.65-0.22-3.52c-2.11,0.13-9.02,2.68-11.26,0.7c-2.24-1.98-0.92-3.48-3.74-3.3c-2.82,0.18-5.9-3.87-6.64-4.53
			c-0.75-0.66-5.85-3.17-9.33-2.24c-3.48,0.92-10.43,2.77-9.15,0.57c1.28-2.2,1.76-5.76,2.38-7.22c0.62-1.45,3.17-5.85-0.26-4.22
			c-3.43,1.63-6.95,1.85-5.68-0.35s5.85-8.14,9.24-10.47s18.88-14.61,20.28-14.7c1.41-0.09,11.26-0.7,8.32-2.64
			c-2.95-1.94-13.68-4.09-8.01-3.74c5.68,0.35,11.4,1.41,12.76,0.62s1.17-1,2.99-1.71c1.81-0.71,4.72,0.52,7.44-1.06
			s12.23-7.83,8.71-7.61c-3.52,0.22-12.06-0.66-10.74-2.16c1.32-1.5,6.38-1.11,8.84-0.55c2.46,0.55,3.92,1.17,6.64-0.42
			c2.73-1.58,0.44-4.27,2.55-4.4c2.11-0.13,7-1.14,7.79,0.22s4.4,2.55,4.27,0.44c-0.13-2.11-3.83-4.71-1.67-4.14
			c2.16,0.57,3.08,4.05,7.17,1.67s10.38-3.48,10.3-4.88c-0.09-1.41-1.85-6.95,0.31-6.38s5.54-1.76,5.5-2.46s0.53-2.86-3.08-4.05
			c-3.61-1.19-8.62-2.29-10.65-0.75c-2.02,1.54,0.97,4.18-1.1,5.02c-2.07,0.84-5.37,4.58-7.44,5.41c-2.07,0.84-9.37,8.36-10.21,6.29
			s-2.42-4.8-0.4-6.34s4.66-4.53,2.51-5.1c-2.16-0.57-4.88,1.01-6.2,2.51c-1.32,1.5-3.92,5.19-3.39,2.33
			c0.53-2.86,2.55-4.4-0.35-5.63c-2.9-1.23-6.37-1.48-2.98-3.23c3.38-1.75,5.36-3.99,4.57-5.35c-0.79-1.36,1.98-2.24,0.48-3.56
			c-1.5-1.32-8.1-0.91-9.28,0.58c-1.19,1.49-4.14-0.45-6.07,2.5s-0.57,2.16-1.89,3.65c-1.32,1.5-3.3,3.74-0.44,4.27
			c2.86,0.53,7.74-0.48,5.76,1.76s-1.32,1.5-4,3.78c-2.68,2.29-10.3,4.88-10.91,6.34c-0.62,1.45-3.12,6.56-3.96,4.49
			c-0.84-2.07,0.48-3.56-0.35-5.63s-0.92-3.48-2.99-2.64c-2.07,0.84-5.54,1.76-3.39,2.33c2.16,0.57,4.36,1.85,2.99,2.64
			c-1.36,0.79-1.41,0.09-4.97-0.4c-3.56-0.48-16.9,1.06-18.35,0.44c-1.45-0.62-5.72-1.06-7.88-1.63c-2.16-0.57-9.2-0.13-11.22,1.41
			s-3.34,3.04-4.62,5.24c-1.28,2.2-3.83,6.6-4.71,3.83c-0.88-2.77,0.35-5.68-2.51-6.2c-2.86-0.53-11.88,2.16-16.15,1.72
			s-9.94-0.79-5.1-2.51c4.84-1.72,8.89-4.8,1.85-4.36s-12.76-0.62-17.12-2.46c-4.36-1.85-9.2-0.13-11.97,0.75
			c-2.77,0.88-11.13,2.82-11.92,1.45s2.33-7.92-3.12-4.75c-5.46,3.17-4.05,3.08-6.86,3.26c-2.82,0.18-7,1.14-8.36,1.94
			s-7,1.14-4.27-0.44c2.73-1.58,0.53-2.86-3.56-0.48c-4.09,2.38-5.5,2.46-8.27,3.34c-2.77,0.88-1.85,4.36-5.41,3.87
			c-3.56-0.48-4.97-0.4-9.99-1.5c-5.02-1.1-2.29-2.68-6.56-3.12c-4.27-0.44-7.67-1-7.67-1l-18.38,13.94L98.4,278.88l-6.86,14.56
			l2.55,6.91l4.36,1.85l3.08,4.05l4.4,2.55l5.41,7.44L114.42,331.59z"/>
		<path class="st12" d="M278.35,209.43c-1.98,0.01-2.56-0.44-4.82-0.87c-0.69-0.13-11.06-1.99-13.99,2.29
			c-0.64,0.94-0.72,1.86-1.94,2.95c-1.35,1.21-2.86,1.52-3.44,1.65c-5.67,1.29-14.46,6.69-14,8.27c0.04,0.15,0.18,0.28,0.42,0.38
			c2.91,1.23,0.36,5.63,3.13,4.75c2.77-0.88,8.18-4.77,10.33-4.2c2.16,0.57,2.82-0.18,4.13-1.68c1.32-1.5,10.42-5.54,13.17-5.4
			c2.75,0.14,9.65-2.43,13.13-3.36c2.43-0.65,5.79-2.34,5.63-3.64c-0.14-1.16-3.12-1.92-5.28-2.01
			C282.1,208.44,281.27,209.42,278.35,209.43z"/>
		<path class="st12" d="M292.18,213.05c0,0-17.34,5.32-22.13,7.75c-2.66,1.34-4.24,2.51-4.04,3.24c0.22,0.81,2.72,0.81,4.3,0.8
			c4.45-0.01,7.68-1.12,7.71-1.01c0.03,0.11-3.21,1.45-8.32,2.64c-4.87,1.13-8.37,1.41-8.36,1.91c0.01,0.31,1.41,0.54,2.15,0.6
			c4.97,0.4,18.96-1.89,20.46-0.57c1.5,1.32,3.65,1.89-1.28,2.2c-4.93,0.31-23.28,0.75-23.14,2.86s0.18,2.82,4.44,3.26
			s9.77-2.02,7.79,0.22c-1.98,2.24-4.66,4.53-1.85,4.36c2.82-0.18,27.19-5.94,29.96-6.82c2.77-0.88,3.56,0.48,6.42,1.01
			c2.86,0.53,12.67-0.79,14.04-1.58c1.36-0.79,2-1.89-0.12-1.94s-4.32-1.32-1.51-1.5c2.82-0.18,5.63-0.35,7.74-0.48
			c2.11-0.13,4.88-1.01,1.28-2.2c-3.61-1.19-8.4-1.59-7.88-3.04c0.53-1.45,6.95-9.01,5.87-10.66c-1.08-1.65-5.12-4.23-6.97-2.7
			c-1.85,1.53-3.39,7.99-6.58,9.25s-3.23,0.56-2.66-1.6s1.53-6.55-2.8-3.76c-4.33,2.79-9.92,3.85-7.9,2.31
			c2.02-1.54,2.46-5.81-0.92-3.48c-2.77,1.91-7.62,4.06-7.94,3.49c-0.05-0.09,0.09-0.28,0.53-0.82c2.02-2.44,3.28-3.47,3.09-3.82
			C293.52,212.83,293.24,212.75,292.18,213.05z"/>
		<path class="st12" d="M374.42,251.02c-3.24,4.33-6.32,7.17-8.62,9.02c-1.57,1.26-4.48,3.41-4.22,3.83
			c0.07,0.11,0.35,0.1,0.92-0.09c2.77-0.88,5.5-2.46,4.88-1.01c-0.62,1.45-2.64,2.99,0.18,2.82s8.71-7.61,11.62-6.38
			c2.9,1.23,3.08,4.05,7.3,3.78c4.22-0.26,8.32-2.64,4.75-3.12c-3.56-0.48-5.02-1.1-4.36-1.85c0.66-0.75,2.68-2.29-0.18-2.82
			c-5.07-0.94-7.08-0.27-8.58-1.58c-1.42-1.24-1.22-3.29-2.33-3.39C375.25,250.17,374.76,250.62,374.42,251.02z"/>
		<path class="st12" d="M431.19,243.23c-1.07,0.24-3,0.66-3.45,1.76c-0.13,0.32-0.11,0.73,0.1,1.27c0.84,2.07,0.88,2.77-1.23,2.9
			c-2.11,0.13-10.52,1.36-11.92,1.45c-1.41,0.09-2.42-1.97-4.31,0.27c-1.89,2.24-4.05,1.67-4.66,3.12s-1.28,2.2,1.58,2.73
			c2.86,0.53,10.43-2.77,12.54-2.9c2.11-0.13,6.29-1.1,6.42,1.01c0.13,2.11,1.63,3.43,3.08,4.05c1.45,0.62,4.27,0.44,2.2,1.28
			c-2.07,0.84-4.18,0.97-1.28,2.2s6.6,3.83,9.46,4.36c2.86,0.53,4.88-1.01,6.38,0.31s5.72,1.06,2.68-2.29
			c-3.04-3.34-9.02-8.62-4.71-7.48s10.21,5.02,12.32,4.88c2.11-0.13,1.94-2.95,3.3-3.74s2.9,1.23,1.98-2.24
			c-0.92-3.48-4.62-6.07-5.46-8.14s-3.74-3.3-3.08-4.05c0.66-0.75,0.66-0.75,2.11-0.13c1.45,0.62,0.66-0.75,2.02-1.54
			s1.55-3.81,3.61-1.73c2.06,2.08,10.33-1.26,9.72,0.19s-5.46,3.17-4.66,4.53s3.92,6.12,5.85,3.17c1.94-2.95,1.67-4.37,2.82-4.43
			c1.14-0.06,2.55-0.15,3.87-1.64c1.32-1.5,0.66-0.75,2.73-1.58c2.07-0.84,5.32-5.28,1.85-4.36c-3.48,0.92-6.29,1.1-5.63,0.35
			c0.66-0.75-0.13-2.11-1.54-2.02s-3.52,0.22-2.16-0.57c1.36-0.79,1.98-2.24-0.13-2.11c-2.11,0.13-15.18-5.41-13.77-5.5
			c1.41-0.09,4.97,0.4,5.59-1.06c0.62-1.45,1.36-0.79,2.77-0.88s2.68-2.29-0.84-2.07c-3.52,0.22-2.16-0.57-0.09-1.41
			c2.07-0.84,6.16-3.21,1.98-2.24c-4.18,0.97-6.95,1.85-4.93,0.31s6.82-3.96-0.18-2.82c-7,1.14-2.97,0.61-4.67,0.15
			c-1.71-0.46-0.83,2.31-2.98,1.74c-2.16-0.57-4.82-0.79-1.46-2.22c3.36-1.43,7.54-2.4,4.68-2.93c-2.86-0.53-6.34,0.4-7.7,1.19
			s-0.92-0.53-2.61-0.84c-1.7-0.31-2,0.54-3.61,0.23c-1.61-0.31-4.47-0.84-1.7-1.72s5.54-1.76,4.8-2.42s-0.84-2.07-2.95-1.94
			c-2.11,0.13-2.86-0.53-1.5-1.32s2.6-3.7-0.97-4.18c-3.56-0.48-11.97,0.75-12.63,1.5c-0.66,0.75-1.98,2.24,0.88,2.77
			c2.86,0.53,9.15-0.57,6.42,1.01c-2.73,1.58-4,3.78-5.46,3.17c-1.45-0.62-0.88-2.77-2.9-1.23s-8.84,5.5-6.91,2.55
			s6.12-3.92,5.32-5.28c-0.79-1.36,1.14-4.31-3.78-4c-4.93,0.31-5.37,1.69-7.2,2.19s-5.34,0.72-3.89,1.33
			c1.45,0.62,2.86,0.53,0.79,1.36c-2.07,0.84-3.56-0.48-5.59,1.06c-2.02,1.54-1.32,1.5,0.13,2.11c1.45,0.62,1.5,1.32,0.09,1.41
			c-1.41,0.09-5.59,1.06-4.84,1.72s2.86,0.53,1.54,2.02c-1.32,1.5-4.66,4.53-4.09,2.38s1.89-3.65,0.15-3.19
			c-1.74,0.46-3.15,0.55-1.21-2.4c1.94-2.95,4.62-5.24,7.35-6.82c2.73-1.58,6.91-2.55,3.74-2.35c-3.17,0.2-6.74-0.34-12.57,2.52
			c-5.82,2.87-18.06,10.7-15.2,11.23c2.86,0.53,9.24,0.84,7.88,1.63c-1.36,0.79-8.82,0.17-8.55,1.76c0.28,1.59,2.48,2.86,4.59,2.73
			c2.11-0.13,12.06,0.66,14.17,0.53c2.11-0.13,13.33-1.54,15.49-0.97c2.16,0.57,7.79,0.22,6.29-1.1c-1.5-1.32-2.29-2.68-0.13-2.11
			c4.05,1.07,11.2,7.23,11.79,7.74c3.77,3.31,4.82,4.11,5.32,6.03c0.16,0.62,0.77,2.95-0.4,4.97
			C438.21,241.66,432.46,242.94,431.19,243.23z"/>
		<path class="st12" d="M443.68,239.62c-0.2,0.19-0.72,0.69-1.32,1.5c-0.09,0.12-2.16,2.92-1.58,3.5c0.08,0.08,0.21,0.12,0.39,0.11
			c1.41-0.09,2.07-0.84,3.48-0.92c1.41-0.09,7.7-1.19,5.5-2.46c-3.19-1.85-3.17-3.4-4.31-3.26
			C445.25,238.14,444.73,238.63,443.68,239.62z"/>
		<path class="st12" d="M430.53,232.66c0,0-4.97-0.4-7,1.14s-6.16,3.21-3.26,4.44c2.9,1.23,7.7-1.19,9.02-2.68
			c1.32-1.5,4.05-3.08,2.64-2.99S430.53,232.66,430.53,232.66z"/>
		<path class="st12" d="M338.56,231.35c-0.62,0.49-1.53,1.1-2.73,1.58c-2.18,0.89-4.19,0.91-4.2,1.26c0,0.11,0.23,0.23,0.76,0.37
			c6.8,1.8,8.32,2.4,10.69,1.45c0.79-0.31,2.23-0.91,2.68-2.29c0.33-1.01-0.04-1.91-0.13-2.11c-0.76-1.7-3.05-2.38-4.36-1.85
			c-0.08,0.03-0.05,0.03-1.36,0.79C339.35,230.89,338.88,231.17,338.56,231.35z"/>
		<path class="st12" d="M503.96,163.76c4.31-1.61,14.97-4.75,22.22-6.34c9.66-2.11,17.86-2.45,17.82-3.35
			c-0.01-0.18-0.35-0.36-1.1-0.52c-5.02-1.1-27.59-0.39-35.33,0.09c-7.74,0.48-32.3,3.43-35.77,4.36c-3.48,0.92-6.95,1.85-8.4,1.23
			c-1.45-0.62-4.22,0.26-6.29,1.1c-11.04,4.46-20.15-0.51-21.08,2.02c-0.53,1.46,1.6,4.11,3.83,4.71c1.11,0.3,2.02,0.03,2.82-0.18
			c1.08-0.28,4.46-0.66,11.22-1.41c1.66-0.18,4.07-0.39,7.04-0.44c4.91-0.54,9.83-1.09,14.74-1.63c1.01,0.17,2.25,0.45,2.27,0.85
			c0.02,0.51-1.9,1.24-3.54,1.35c-4.93,0.31-18.26,1.85-15.36,3.08c2.9,1.23,5.94,4.58,1.58,2.73c-4.36-1.85-5.9-3.87-9.37-2.95
			c-3.48,0.92-9.2-0.13-7.66,1.89c1.54,2.02,10.16,4.31,8.1,5.15c-2.07,0.84-5.68-0.35-7.08-0.26c-1.41,0.09-7.66,1.89-7.04,0.44
			c0.62-1.45,4.09-2.38,1.94-2.95c-2.16-0.57-3.48,0.92-2.9-1.23s-0.18-2.82-2.33-3.39c-2.16-0.57-4.44-3.26-7.22-2.38
			s-11.18,2.11-13.9,3.7c-2.73,1.58,0.13,2.02,0.13,2.02s0.09,1.5-2.06,0.92c-2.16-0.57-7.74,0.48-4.88,1.01
			c2.86,0.53,7.83,0.92,10.65,0.75s9.9,0.09,6.42,1.01c-3.48,0.92-13.38,0.84-14.04,1.58c-0.66,0.75,1.58,2.73,3.74,3.3
			c2.16,0.57,9.06,0.85,11.53-0.72c2.46-1.57,5.19-3.15,7.3-3.28c2.11-0.13,4.88-1.01,2.16,0.57c-2.73,1.58-6.89,2.77-2.28,3.08
			c4.61,0.31,8.85-2.56,7.13-0.45c-1.72,2.12-5.24,2.34-3.09,2.91s5.68,0.35,2.9,1.23c-2.77,0.88-7.09,1.15-7.79,0.49
			c-0.7-0.66-1.58-3.43-4.35-2.55c-2.77,0.88-4.22,0.26-2.73,1.58c1.5,1.32,1.5,1.32-0.57,2.16c-2.07,0.84-20.24,4.09-9.64,4.14
			s16.15-1.72,18.96-1.89c2.82-0.18,9.88-0.22,11.32,0.2c1.44,0.42,4.46,0.63,6.78-0.42c2.32-1.05,9.32-2.19,5.75-2.68
			c-3.56-0.48-16.28-0.4-11.4-1.41s14.08-0.88,15.4-2.38c1.32-1.5-0.13-2.11,2.68-2.29c2.82-0.18,4.27,0.44,7.7-1.19
			c3.43-1.63,11.09-3.52,5.46-3.17s-11.28-0.18-8.19-1.34c3.09-1.16,4.45-1.93,9.4-1.9c4.95,0.03,9.79-1.69,7.63-2.26
			c-2.16-0.57,2.07-0.84,4.93-0.31s7.74-0.48,6.29-1.1c-1.03-0.44-2.42-0.85-2.38-1.1c0.03-0.18,0.87-0.22,0.88-0.22c0,0,0,0,0,0
			C499.42,165.45,503.96,163.76,503.96,163.76z"/>
		<path class="st12" d="M418.91,193.81c-8.71,1.1-17.31-0.5-17.32-1.47c0-0.08,0.06-0.18,0.25-0.29c2.73-1.58,5.41-3.87,1.19-3.61
			c-4.22,0.26-7.04,0.44-9.2-0.13c-2.16-0.57-12.01,0.04-8.36,1.94c3.65,1.89,11.46-0.43,11.14,1.57c-0.32,2-6.52,4.51-4.28,6.49
			s25.48,0.53,29,0.31c3.52-0.22,6.95-1.85,7.7-1.19s6.18,0.85,8.66-0.98c2.48-1.83,7.27-4.25,3-4.69
			c-7.5-0.77-12.36,0.21-12.36,0.21C422.22,193.17,419.16,193.78,418.91,193.81z"/>
		<path class="st12" d="M313.42,205.15c4.51-1.45,6.76-2.17,7.8-2.4c8.04-1.78,11.43,3.07,16.37-1.02c1.85-1.53,9.76-5.56,6.02-5.68
			c-3.74-0.12-6.2,3.15-7.08,1.64c-0.88-1.5,3.17-4.58,1.71-5.2s-4.27-0.44-6.29,1.1s-0.83,5-3.05,5.49s-6.41,1.46-7.9,0.14
			c-1.5-1.32-0.88-2.77-3.7-2.6s-2.86-0.53-3.61-1.19c-0.75-0.66-1.45-0.62-3.52,0.22c-2.07,0.84-17.25,6.73-15.09,7.3
			s7.74-0.48,11.22-1.41c3.48-0.92,13.38-0.84,9.9,0.09c-3.14,0.84-13.83,3.3-13.68,4.15c0.02,0.13,0.36,0.2,0.44,0.21
			C307.85,206.93,313.42,205.15,313.42,205.15z"/>
		<path class="st12" d="M311.94,189.9c-2.07,0.84-5.59,1.06-7.7,1.19c-2.11,0.13-5.59,1.06-7.61,2.6s-20.2,4.8-18,6.07
			c2.2,1.28,13.46,0.57,15.49-0.97c2.02-1.54,4.71-3.83,6.16-3.21c1.45,0.62,3.52-0.22,5.63-0.35c2.11-0.13,6.16-3.21,7.57-3.3
			s3.61-1.64,1.36-2.21C313.46,189.37,311.94,189.9,311.94,189.9L311.94,189.9z"/>
		<path class="st12" d="M346.57,212.47c-1.75,0.38-2.26-0.36-4.66-0.42c-1.78-0.04-4.21,0.29-4.33,1.16
			c-0.05,0.34,0.13,0.74,0.64,1.19c2.24,1.98,3.73,1.09,4.79,2.13c1.06,1.04,0.02,3.89,3.09,3.72c3.07-0.17,2.15-3.65,3.6-3.03
			c1.45,0.62,4.27,0.44,7-1.14c2.73-1.58,5.41-3.87,3.26-4.44c-2.16-0.57-5.02-1.1-2.24-1.98s8.98-3.39,6.12-3.92
			c-2.86-0.53-4.22,0.26-6.34,0.4c-2.11,0.13-7.67-0.45-7.99,1.1c-0.26,1.25,0.64,2.24-0.19,3.66
			C348.63,212.03,347.17,212.34,346.57,212.47z"/>
		<path class="st12" d="M367.6,209.74c0.98-1.41,2.8-4.02,4.71-3.83c0.41,0.04,0.95,0.22,1.41-0.09c0.53-0.36,0.49-1.05,0.62-1.45
			c0.63-2.03,6.71-1.25,14.74-1.63c1.25-0.06,2.62-0.15,2.79,0.34c0.16,0.45-0.74,1.39-3.98,3.27c-6.82,3.96-6.16,3.21-9.64,4.14
			c-3.48,0.92-4.93,0.31-5.59,1.06s-2.6,3.7-4.71,3.83c-1.28,0.08-2.03,0.39-2.29,0.13c-0.31-0.3-0.08-0.91,0.09-1.41
			C366.56,211.8,366.97,210.66,367.6,209.74z"/>
		<path class="st12" d="M373.5,191c-2.82,0.18-6.66-1.7-6.78,0.42c-0.13,2.13,3.27,2.91,0.16,2.61c-3.1-0.3-1.2-2.15-3.93-1.47
			c-2.73,0.68-1.9,2.75-3.35,2.14c-1.45-0.62-0.18-2.82-2.99-2.64c-2.82,0.18-6.64,3.53-3.14,4.58c3.49,1.05,5.84-1.18,6.8,0.16
			c0.96,1.34-0.17,2.66,2.91,2.55c3.07-0.11,5.98,1.12,7.96-1.12s2.93-3.01,4.17-3.44c1.24-0.43,6.04-2.85,2.47-3.34
			S373.5,191,373.5,191z"/>
		<path class="st12" d="M456.62,344.82c-5.18,5.62-10.32,11.87-9.02,13.51c0.33,0.42,0.99,0.42,1.41,0.4
			c6.34-0.4,20.94-4.14,20.37-1.98s1.58,2.73,2.9,1.23s4.09-2.38,2.77-0.88c-1.32,1.5-3.12,3.73,0.04,4.94s6.64,0.29,5.76-2.48
			c-0.88-2.77,0.6-2.33-1.28-3.9c-1.88-1.56-3.16,0.64-1.88-1.56c1.28-2.2,1.19-3.61,0.4-4.97s-0.7,0.04-0.09-1.41
			c0.62-1.45,1.94-2.95-1.54-2.02c-3.48,0.92-5.46,3.17-6.29,1.1c-0.84-2.07,3.17-5.85-0.31-4.93c-2.63,0.7-5.69,1.02-5.84,0.45
			c-0.07-0.25,0.74-0.77,0.87-0.85c3.96-2.51,9.1-9.1,8.58-9.72c-0.28-0.33-2.27,0.9-3.43,1.63
			C466.64,335.51,461.85,339.03,456.62,344.82z"/>
		<path class="st12" d="M114.16,361.29c0,0-4.88,1.01-6.38-0.31s-5.65-2.83-3.38,1.09s7.6,9.95,9.8,11.23
			c2.2,1.28,5.81,2.46,4.88-1.01c-0.92-3.48-2.29-2.68-2.42-4.8s0.31-6.38-1.1-6.29C114.16,361.29,114.16,361.29,114.16,361.29z"/>
		<path class="st12" d="M224.7,591.86c0,0,3.7,2.6,9.46,4.36s9.42,3.65,12.25,3.83c2.84,0.18,5.52-2.11,6.69-0.42
			c1.17,1.69-2.44,0.51-0.86,3.23c1.58,2.73,7.74,10.82,9.02,8.62c1.28-2.2-0.74-5.96,1.32-4.15s4.31,3.79,1.62,6.08
			s-3.87,5.9-1.67,7.17c2.2,1.28,1.1-3.6,3.39-1.63c2.29,1.98,3.08,3.34,6.03,5.28c2.95,1.94,2.29,2.68,3.83,4.71
			c1.54,2.02,7.08,0.26,9.33,2.24c2.24,1.98,4.93-0.31,5.1,2.51c0.18,2.82-1.89,3.65,1.58,2.73c3.48-0.92,4.71-3.83,2.6-3.7
			s-2.95-1.94-0.88-2.77c2.07-0.84,1.19-3.61,3.96-4.49s7.04-0.44,7.17,1.67c0.13,2.11,3.52-0.22,2.24,1.98s-0.36,6.19,0.74,6.57
			s-0.44-1.64,1.63-2.48c2.07-0.84,2.64-2.99,1.8-5.06c-0.84-2.07-6.2-8.8-11.04-7.08c-4.84,1.72-8.76,6.91-11.62,6.38
			c-2.86-0.53-12.41-6.29-13.33-9.77s-0.79-12.67-0.31-16.24c0.48-3.56,3.96-15.8-0.4-17.64c-4.36-1.85-6.56-3.12-12.85-2.02
			s-17.45,3.55-16.2,0.83s3-8.49,3.53-11.35s2.2-10.03,2.2-10.03l-10.77,3.04l-8.6,3.83l-7.39,6.12l-2.29,8.62L224.7,591.86z"/>
		<path class="st12" d="M313.23,538.26c0,0-13.29-9.06-20.28-7.92c-7,1.14-12.63,1.5-15.31,3.78c-2.68,2.29-7.48,10.36-2.24,6.5
			s9.24-7.65,12.85-6.46c3.61,1.19-1.89,3.65,1.63,3.43c3.52-0.22,10.03,2.2,13.64,3.39c3.61,1.19,4.53,4.66,6.69,5.24
			c2.16,0.57,5.63-0.44,3.65,1.85c-1.98,2.29-6.91,4.19,0.86,3.26c7.77-0.93,21.19-1.06,16.79-3.61
			C327.09,545.17,313.23,538.26,313.23,538.26z"/>
		<path class="st12" d="M313.93,560.83c0,0-8.73-1.22-6.72,1.3c2.01,2.52,16.31,5.16,11.87,1.91S313.93,560.83,313.93,560.83z"/>
		<path class="st12" d="M341.41,557.94c0,0-3.1-2.88-2.48-4.33s-6.27-2.82-1.86-3.61c4.41-0.79,5.95,1.23,8.72,0.35
			c2.77-0.88,8.45-0.53,11.4,1.41c2.95,1.94,12.36,5.59,6.07,6.69c-6.29,1.1-4.93,0.31-7.7,1.19c-2.77,0.88-2.46-1.26-4.7,0.29
			c-2.25,1.55-4.84,5.25-5.68,3.18s2.34-2.06-2.77-1.85c-5.11,0.22-15.76-0.53-10.87-1.54c4.88-1.01,11.35,0.7,10.56-0.66
			S341.41,557.94,341.41,557.94z"/>
		<path class="st12" d="M371.32,559.47c0,0-1.53-2.57,2.2-2.94s9.51,0.19,6.77,2.38c-2.73,2.19-5.55,2.37-7,1.75
			C371.84,560.04,371.32,559.47,371.32,559.47z"/>
	</g>
	<path class="st13" d="M400.7,371.64c-0.53,2.86,0.44,7.04,0.53,8.45c0.09,1.41-14.43,6.56-18.61,7.52
		c-4.18,0.97-5.81,8.84-5.59,12.36c0.22,3.52-5.41,3.87-10.96,5.63s-8.36,1.94-10.34,4.18c-1.98,2.24-4.44,8.05-6.38,11
		s-2.82,0.18-3.65-1.89c-0.84-2.07-0.31,6.38-1.93,9.84c-1.61,3.46-2.03-5.35-0.8-8.25s-2.73,1.58-4,3.78
		c-1.28,2.2,0.18,2.82-2.82,0.18c-2.99-2.64-1.32,1.5,0.35,5.63c1.67,4.14,0.84,2.07-1.98,2.24c-2.82,0.18-1.23,2.9,2.69,5.49
		c3.92,2.58-0.09,2.13-2.21,2.26c-2.11,0.13-1.32,1.5,1.58,2.73c2.9,1.23-1.23,2.9-4.1,2.55c-2.88-0.35-2.06,0.66-0.56,1.98
		s0.88,2.77-2.6,3.7s-19.54,15.36-23.01,16.28c-3.48,0.92-7.74,11.79-8.23,15.36c-0.48,3.56,3.08,15.36,4.09,20.24
		s-2.07,12.14-4.75,14.43c-2.68,2.29-2.99-2.64-4.49-3.96c-1.5-1.32-1.1-6.29-3.26-6.86c-2.16-0.57-0.92-3.48-0.31-4.93
		c0.62-1.45-0.09-1.41-0.92-3.48c-0.84-2.07,1.23-2.9,1.85-4.36c0.62-1.45-4.62-6.07-6.16-8.1s-2.77,0.88-6.25,1.8
		c-3.48,0.92-2.95-1.94-3.74-3.3s-12.06-0.66-14.12,0.18c-2.07,0.84-4.14,1.67-7,1.14c-2.86-0.53-3.48,0.92-1.98,2.24
		c1.5,1.32-0.57,2.16,0.92,3.48c1.5,1.32-0.57,2.16-2.77,0.88c-2.2-1.28,0,0-2.77,0.88s-4.97-0.4-6.86-2.4
		c-1.89-2-1.67,1.52-4.49,1.69c-2.82,0.18-3.65-1.89-5.06-1.8c-1.41,0.09-2.07,0.84-4.18,0.97s-4.14,1.67-4.8,2.42
		c-0.66,0.75-7.39,6.12-9.55,5.54s-7.96,8.27-8.54,10.43c-0.38,1.42-0.01,4.96-0.34,6.83c-0.17,0.96-0.54,1.48-1.28,1.05
		c-2.2-1.28-7.92-2.33-8.76-4.4c-0.84-2.07,0.4-4.97-0.35-5.63c-0.75-0.66-1.58-2.73-3.34-8.27c-1.76-5.54-4.58-5.37-7.44-5.9
		c-2.86-0.53-5.5,2.46-7.44,5.41c-1.94,2.95-4.36-1.85-5.85-3.17c-1.5-1.32-1.72-4.84-1.8-6.25c-0.09-1.41-4.53-4.66-6.07-6.69
		c-1.54-2.02-8.49-0.18-10.6-0.04c-2.11,0.13,0.09,1.41-1.58,2.93c-1.67,1.52-13.68,1.56-15.84,0.99
		c-2.16-0.57-15.27-6.82-17.78-7.37l-10.91,0.68c0,0-0.01-0.03-0.03-0.08c-0.13-0.52-0.97-3.58-1.73-5.47
		c-0.84-2.07-8.8-5.1-11.79-7.74c-2.99-2.64-1.58-2.73-3.92-6.12c-2.33-3.39,0.35-5.68,0.97-7.13c0.62-1.45-0.09-1.41-0.84-2.07
		c-0.75-0.66-2.29-2.68-0.22-3.52c0.65-0.27,1.41-0.09,1.98-2.24c0.57-2.16-1.5-1.32-3.66-2.07c-2.17-0.75-1-4.71-0.43-6.86
		s-1.1-6.29,1.54-9.28c2.64-2.99,5.02-10.21,5.5-13.77c0.48-3.56,15.58-22.18,16.81-25.08c1.23-2.9,2.16-10.74,4.18-12.28
		c2.02-1.54,1.41-0.09,5.87,0.57c4.46,0.65-0.72,2.65-2.74,4.19s4.36,1.85,6.25-1.8s3.74-8.01,3.74-8.01s141.42-10.26,142.56-8.92
		c1.14,1.34,2.55,1.25,4,1.87c1.45,0.62,3.39-2.33,4.8-2.42c1.41-0.09,3.08,4.05,5.9,3.87c2.82-0.18,7.13,0.97,7.13,0.97
		s-9.55,5.54-12.56,8.21s9.53-0.24,11.55-1.78s6.25-1.8,8.45-0.53c2.2,1.28,5.81,2.46,9.28,1.54s6.42,1.01,7.92,2.33
		c1.5,1.32-10.47,2.07-12.54,2.9c-2.07,0.84-6.16,3.21-8.18,4.75c-2.02,1.54-1.19,3.61-1.14,4.31c0.04,0.7-6.2,13.82-6.6,18.79
		s6.25-1.8,8.18-4.75s0.44-4.27,1.67-7.17c1.23-2.9,5.81-8.84,7.17-9.64s3.39-2.33,6.03-5.32c2.64-2.99,4.18-0.97,6.51,2.42
		c2.33,3.39-2.51,5.1-5.1,8.8s3.61,1.19,4.93-0.31s0.88,2.77,0.4,6.34c-0.48,3.56-3.34,3.04-6.03,5.32
		c-2.68,2.29-1.94,2.95,0.31,4.93c2.24,1.98,9.81-1.32,14.61-3.74c4.8-2.42,9.5-6.25,10.74-9.15c1.23-2.9,7.7-1.19,12.58-2.2
		c4.88-1.01,3.96-4.49,3.92-5.19c-0.04-0.7,8.14-5.46,9.5-6.25s13.42-0.13,17.64-0.4c4.22-0.26,10.56-11.97,13.24-14.26
		c2.68-2.29,4.05-3.08,4.05-3.08s1.5,1.32,4.28,0.62C403.01,363.37,401.23,368.78,400.7,371.64z"/>
	<path class="st13" d="M96.54,299.85l59.93-58.88c0,0-5.81-2.46-7.88-1.63c-2.07,0.84-8.73,1.73-12.5,0.67
		c-3.78-1.06-13.68-1.15-15.79-1.02c-2.11,0.13,1.32-1.5-5.72-1.06c-7.04,0.44-0.84-2.07-9.28-1.54s-21.52,6.29-23.63,6.43
		c-2.11,0.13-7.23-0.61-10.92,1.57c-3.69,2.17-10.47,6.84-12.58,6.97c-2.11,0.13-2.11,0.13-2.11,0.13s-14.7,2.33-16.02,3.83
		c-1.32,1.5,3.08,4.05,3.08,4.05s-1.89,3.65,0.92,3.48c2.82-0.18,11.31,0,6.51,2.42c-4.8,2.42-19.45,5.46-17.47,3.21
		c1.98-2.24-0.88-2.77-5.02-1.1c-4.14,1.67-16.54,6.69-17.27,6.38s4.25,0.09,3.63,1.54c-0.62,1.45-3.39,3.39-3.39,3.39
		s-1.36-0.27,0.8,0.3c2.16,0.57,7.83,0.92,13.42-0.13c5.59-1.06,11.79-3.56,10.47-2.07c-1.32,1.5-5.94,6.73-9.42,7.66
		s-15.31,3.78-20.15,5.5s-9.02,2.68-11.7,4.97s-9.68,3.43-7.44,5.41s5.68,0.35,3.65,1.89s-6.56,2.53-6.6,4.65
		c-0.04,2.12,2.68,0.54,4.84,1.11s6.78-4.66,3.56,0.48c-3.21,5.15-9.33,9.06-3.78,7.3c5.54-1.76,7.7-1.19,8.54,0.88
		c0.84,2.07,1.89,2,4.4-0.28s6.6-4.65,4.66-1.71c-1.94,2.95-5.9,7.44-10.74,9.15s-14.39,7.26-19.23,8.98s-12.5,3.61-15.22,5.19
		c-2.73,1.58-6.25,1.8-10.38,3.48s-10.34,4.18-7.48,4.71c2.86,0.53,21.56-5.59,21.56-5.59c2.73-1.58,11.79-3.56,15.22-5.19
		c3.43-1.63,6.69-6.07,12.28-7.13c5.59-1.06,12.41-5.02,13.07-5.76c0.66-0.75,6.95-1.85,11.09-3.52s10.34-4.18,10.96-5.63
		c0.62-1.45-0.09-1.41-0.84-2.07s-4.88,1.01-0.75-0.66s11.04-4.22,15.84-6.64c4.8-2.42,6.07-4.62,9.55-5.54s8.4-1.23,4.27,0.44
		c-4.14,1.67-8.32,2.64-11,4.93s-10.12,7.7-3.87,5.9c6.25-1.8,11-4.93,13.82-5.1c2.82-0.18,5.54-1.76,7.57-3.3
		c2.02-1.54,5.98-6.03,9.64-4.14c3.65,1.89,4.53,4.66,7.39,5.19c2.86,0.53,13.51,1.28,14.92,1.19c1.41-0.09,4.88-1.01,3.61,1.19
		c-1.28,2.2,1.5,1.32,2.33,3.39c0.84,2.07,7.17,1.67,4.49,3.96c-2.68,2.29-4.58,5.94-2.51,5.1s4.18-0.97,2.82-0.18
		c-1.36,0.79-4.14,1.67-4,3.78c0.13,2.11,1.67,4.14,2.95,1.94c1.28-2.2,1.72-6.47,2.51-5.1c0.79,1.36-4.22,11.57-2.68,13.6
		c1.54,2.02,3.61,1.19,4.14-1.67s1.67-7.17,2.55-4.4c0.88,2.77,1.67,4.14,2.51,6.2c0.84,2.07,4.27,0.44,6.16-3.21
		c1.89-3.65,1.72-6.47-0.44-7.04c-2.16-0.57,1.1-5.02,0.13-9.2c-0.97-4.18,2.16-10.74-2.02-9.77c-4.18,0.97-8.23,4.05-8.89,4.8
		c-0.66,0.75-3.43,1.63-3.61-1.19c-0.18-2.82,1.67-7.17-1.8-6.25C98.69,300.42,96.54,299.85,96.54,299.85z"/>
	<path class="st13" d="M256.73,550.27c-2.02,1.54-2.55,4.4-2.33,7.92c0.22,3.52-1.85,4.36-3.92,5.19s-2.68,2.29-5.72,4.6
		s-7.26,2.57-10.12,2.05c-2.86-0.53-1.98,2.24-3.3,3.74c-1.32,1.5,2.38,4.09,4.66,6.78c2.29,2.68-5.59,1.06-8.36,1.94
		c-2.77,0.88-2.29,8.62-2.95,9.37c-0.66,0.75-5.28-5.32-7.57-8.01c-2.29-2.68-5.72-1.06-9.2-0.13c-3.48,0.92-7.57,3.3-9.72,2.73
		c-2.16-0.57-22.53-9.9-26.97-13.16s-7.92-2.33-11.62-4.93c-3.7-2.6-8.98-7.92-6.34-10.91c2.64-2.99,0.04-10.6-0.18-14.12
		c-0.22-3.52-10.03-13.51-14.57-18.17c-4.53-4.66-3.83-4.71-2.55-6.91s-8.45-10.78-10.82-14.87c-2.38-4.09-3.7-13.9-3.78-15.31
		c-0.09-1.41-7.22-2.38-8.76-4.4c-1.54-2.02-2.29,8.62-1.36,12.1c0.92,3.48,1.63,3.43,3.17,5.46c1.54,2.02,5.94,15.88,6.78,17.95
		c0.84,2.07,1.76,5.54,3.22,9.16c1.46,3.6,1.93,5.36,4.85,6.95c2.93,1.58,1.65,3.78,0.33,5.28c-1.32,1.5-2.2-1.28-2.29-2.68
		c-0.09-1.41-5.9-3.87-8.18-6.56c-2.29-2.68,0.4-4.97,0.26-7.08s-4.62-6.07-6.73-5.94s-7.44-5.9-6.78-6.64
		c0.66-0.75,4.49,3.96,5.54-1.76c1.06-5.72-5.54-9.55-6.71-11.24c-1.08-1.57-1.18-16.51-1.19-18.73c0.02,0.05,0.03,0.08,0.03,0.08
		l10.91-0.68c2.51,0.55,15.62,6.8,17.78,7.37c2.16,0.57,14.17,0.53,15.84-0.99c1.67-1.52-0.53-2.79,1.58-2.93
		c2.11-0.13,9.06-1.98,10.6,0.04c1.54,2.02,5.98,5.28,6.07,6.69c0.09,1.41,0.31,4.93,1.8,6.25c1.5,1.32,3.92,6.12,5.85,3.17
		c1.94-2.95,4.58-5.94,7.44-5.41c2.86,0.53,5.68,0.35,7.44,5.9c1.76,5.54,2.6,7.61,3.34,8.27c0.75,0.66-0.48,3.56,0.35,5.63
		c0.84,2.07,6.56,3.12,8.76,4.4c0.75,0.43,1.11-0.08,1.28-1.05c0.59,0.68,1.22,1.57,1.27,2.3c0.09,1.41-4.31,10.16-5.54,13.07
		c-1.23,2.9-0.48,14.87,1.32,21.12c1.8,6.25,5.68,11.66,7.08,11.57c1.41-0.09,3.56,0.48,4.49,3.96s7.04-0.44,12.58-2.2
		c1.78-0.56,2.48-0.92,2.71-1.12c0.15,0.06,0.39,0.12,0.77,0.19c2.86,0.53,2.2,1.28,4.84-1.72c2.64-2.99,3.92-5.19,6.56-8.18
		c2.64-2.99,0.92-7.83,1.63-7.88s13.99-2.29,16.76-3.17C259.86,543.72,258.76,548.73,256.73,550.27z"/>
</g>
</svg>
