<?xml version="1.0" encoding="utf-8"?>
<!-- Generator: Adobe Illustrator 24.3.2, SVG Export Plug-In . SVG Version: 6.00 Build 0)  -->
<svg version="1.1" id="Layer_1" xmlns="http://www.w3.org/2000/svg" xmlns:xlink="http://www.w3.org/1999/xlink" x="0px" y="0px"
	 viewBox="0 0 1920 1080" style="enable-background:new 0 0 1920 1080;" xml:space="preserve">
<style type="text/css">
	.st0{fill:#BCBCBC;stroke:#848484;stroke-width:2.3345;stroke-miterlimit:10;}
	.st1{fill:#425664;stroke:#000000;stroke-width:1.1881;stroke-miterlimit:10;}
	.st2{fill:#6DE063;stroke:#448E3C;stroke-width:2.3345;stroke-miterlimit:10;}
	.st3{fill:#425664;stroke:#FFFFFF;stroke-width:1.1881;stroke-miterlimit:10;}
	.st4{fill:#425664;stroke:#000000;stroke-width:2.3761;stroke-miterlimit:10;}
	.st5{fill:none;}
	.st6{fill:#EAEAEA;}
	.st7{font-family:'MyriadPro-Regular';}
	.st8{font-size:23.7611px;}
</style>
<g id="Layer_2_1_">
	<path class="st0" d="M721,368.3c0-0.3,0.1-0.5,0.4-0.5C721.6,367.8,721.4,368,721,368.3z"/>
	<path class="st0" d="M1576.7,854.7c3.5-3.9,3.5-8.5,3.5-10.6c0-3.5-2.4,0-4.7-1.2s-2.4-2.4-2.4-4.7c0-2.4-8.2-3.5-11.8-5.9
		s0-8.2,0-10.6s-1.2-2.4-3.5-3.5s-3.5-5.9-4.7-8.2c-1.2-2.4-8.2-10.6-10.6-15.3c-2.4-4.7,0,0,2.4-2.4c2.4-2.4,2.4,0,3.5-4.7
		c1.2-4.7-4.7-2.4-3.5-5.9c1.2-3.5,1.2-3.5-2.4-5.9c-3.5-2.4-3.5,0-6.2,2.4c-2.7,2.4-5.6,2.4-9.1,0c-3.5-2.4-3.5-1.2-5.9-3.5
		c-2.4-2.4,0-5.9-2.4-9.4c-2.4-3.5-2.4-4.7-4.7-8.2c-2.4-3.5-4.7-1.2-8.2-2.4c-3.5-1.2-9.4-2.4-13-4.7c-3.5-2.4-3.5-2.4-4.7,0
		c-1.2,2.4,0,2.4-2.4,3.5c-2.4,1.2-5.9,2.4-8.2,4.7c-1.2,1.2-4.3,2-7.2,2.6c-0.1,0.6-0.2,1.2-0.3,1.7c-2.3,11.7-11.7,21-21,25.7
		c-9.3,4.7-7,2.3-14,2.3s-16.3,9.3-21,14c-4.7,4.7-16.3,4.7-23.3,4.7c-7,0-16.3,0-21,2.3c-4.7,2.3-4.7,0-9.3-4.7
		c-4.7-4.7-4.7-2.3-9.3-2.3c-4.7,0-11.7,4.7-14,2.3c-2.3-2.3-4.7-4.7-9.3-2.3c-4.7,2.3-14,4.7-23.3,7c-9.3,2.3-18.7,7-23.3,14
		c-4.7,7-16.3,21-18.7,25.7c-2.3,4.7-18.7,4.7-25.7,7c-7,2.3-14,2.3-30.3,2.3c-16.3,0-18.7-7-21-11.7c-2.3-4.7-9.3-9.3-14-16.3
		c-4.7-7,2.3-2.3,4.7-9.3s0-9.3,2.3-16.3c2.3-7,4.7,0,7-2.3s2.3-7,0-11.7s0-21,0-28c0-7,0-4.7,4.7-4.7c4.7,0,4.7,0,7-9.3
		c2.3-9.3,0-7-2.3-16.3s4.7-7,9.3-14c4.7-7,4.7-9.3,4.7-16.3c0-7,4.7-4.7,11.7-9.3c5.7-3.8,9.8,1.6,11.2,3.8
		c0.3,0.5,0.5,0.8,0.5,0.8s2.3,2.3,9.3,4.7c7,2.3,7,0,16.3-4.7c9.3-4.7,4.7-2.3,11.7,0c7,2.3-14,14-18.7,21c-4.7,7,0,4.7,4.7,2.3
		c4.7-2.3,11.7,2.3,18.7,2.3s2.3,4.7,2.3,14c0,9.3,9.3,4.7,18.7,0c9.3-4.7,2.3-7,4.7-11.7s2.3-2.3,7-4.7c4.7-2.3,4.7-2.3,7-9.3
		c2.3-7,2.3,0,6.5-1.2c4.2-1.2,7.5,1.2,9.8-5.8c0.3-1,0.8-1.7,1.4-2.3v-6.1l0.9-3.2c-7,2.3-7,2.3-14,4.7c-7,2.3-2.3,4.7-11.7,4.7
		c-9.3,0-7-7-11.7-9.3c-4.7-2.3-4.7-2.3-2.3-9.3c2.3-7,7-11.7,11.7-16.3c4.7-4.7,9.3-7,11.7-9.3c2.3-2.3,14-11.7,14-11.7s0-7,7-9.3
		c2.4-0.8,6.9-4,11.5-7.2c2.7-3.2,4.5-5.5,4.1-5.5c-1.2,0-8.2,7.1-11.8,8.2c-3.5,1.2,0-2.4-2.4-8.2s0-4.7,2.4-7.1
		c2.4-2.4,2.4-3.5,3.5-8.2c1.2-4.7,11.6-4.7,16.3-7.1c4.7-2.4-1.2-16.5-4.7-17.7c-3.5-1.2-5.9-4.7-5.9-5.9s-1.2-3.5-3.5-5.9
		c-2.4-2.4,2.4-7.1,4.7-12.6c2.4-5.6-2.4-3.8-4.7-8.6c-2.4-4.7-1.2,2.4-4.7,3.5c-3.5,1.2-23.6-2.4-30.7-3.5
		c-7.1-1.2-2.4,1.2-7.1,3.5c-4.7,2.4-7.1-4.7-10.6-8.2c-3.5-3.5-11.8,8.2-15.3,10.6c-3.5,2.4-7.1-1.2-11.8,0
		c-4.7,1.2-5.9,3.5-9.4,2.4c-3.5-1.2-4.7-9.4-9.4-16.1s-5.9-1.6-5.9-0.4c0,1.2-11.8,0-16.5-4.7c-4.7-4.7,0-5.9,1.2-9.4
		c1.2-3.5-10.6-9.4-16.5-13c-5.9-3.5-10.6,4.7-11.8,5.9c-1.2,1.2-5.9,3.5-10.6,2.4c-4.7-1.2-1.2,3.5-2.4,8.2c-1.2,4.7-3.5,1.2-9.4,0
		c-5.9-1.2-5.9-8.2-8.2-14.1c-2.4-5.9-3.5-3.5-3.5-10.6c0,0,1.2-3.5,4.7-2.4c3.5,1.2,4.7,1.2,8.2-2.4c3.5-3.5,2.4-4.7,4.7-10.6
		c2.4-5.9-4.7-4.7-8.2-5.9s-10.6,0-10.6-3.5s-1.2-4.7-5.9-4.7s-7.1-2.4-9.4-7.1c-2.4-4.7-5.9-4.7-8-8.6c-2.1-3.8-1.4-2.1-0.2-6.8
		c1.2-4.7-2.4-7.1-3.8-12c-1.5-4.9-8-5.7-10.3-6.9c-2.4-1.2-11.8,3.5-14.7,6.1c-2.9,2.5-6.5-1.4-7.4-6.1c-0.9-4.7-8.6,0-14.4,0
		c-5.9,0-3.5-4.7-8.2-11.8c-4.7-7.1-5.9-5.9-8.2-13c-2.4-7.1-3.5-8.2-4.7-9.4c-1.2-1.2-3.5-8.2-3.5-8.2s1.2-5.9,0.3-8.9
		c-0.9-3-3.8-0.5-5-5.2c-0.1-0.4-0.2-0.7-0.2-1c0.9,1.1-0.5-2.6,0,0c-0.1-0.1-0.2-0.3-0.4-0.5c-1.8-2.6-1.8-4.4-4.1-11.5
		c-2.4-7.1,0-4.7,1.2-9.4c1.2-4.7,1.2-7.1,4.7-13c2.6-4.3,0.7-4.2-1.4-5.7c-0.8,1.3-1.5,2.6-2,3.7c-2.3,4.7-21,2.3-28,2.3
		c-7,0-14,2.3-21,7c-7,4.7-11.7,9.3-16.3,14c-4.7,4.7-9.3,4.7-16.3,4.7s0,4.7,7,9.3c7,4.7-2.3,2.3-7,7c-4.7,4.7,0,11.7,2.3,18.7
		c2.3,7,4.7-4.7,7-9.3c2.3-4.7,7-7,9.3-9.3c2.3-2.3,4.7-4.7,7,0c2.3,4.7,7,0,11-2.3c3.9-2.3,3.1,4.7,3.1,9.3c0,4.7,0,9.3,2.3,18.7
		s0,7-4.7,11.7c-4.7,4.7-7,2.3-14-7c-7-9.3-16.3-9.3-21-4.7c-4.7,4.7-7,18.7-8.4,30c-1.4,11.3,8.4,28.3,8.4,35.3c0,7-7,14-14,16.3
		c-7,2.3-4.7,2.3-2.1,8c2.6,5.7,2.1,3.6-4.9,10.6c-7,7-18.7,2.3-19.1-3c-0.4-5.4-11.2-8.6-15.3-5.6c-4.1,3.1-16.9,10.9-21.6,15.2
		c-4.7,4.3-2.3,2.7-4.7,5c-2.3,2.3-16.3,7-25.7,9.3c-9.3,2.3-7,2.3-11.7,0c-4.7-2.3,0-4.7-4.7-14c-4.7-9.3-4.7-2.3-7.7,2.3
		c-3,4.7-1.7,2.3-8.7,2.3c-7,0-4.7,0-9.3,2.3c-4.7,2.3-2.3,0-7,4.7c-4.7,4.7-4.7,2.3-7,4.7c-2.3,2.3-4.7,2.3-6.9-4.5
		c-2.3-6.8,4.6-4.9,5.9-9.6c1.3-4.7-6,0-10.6,0c-4.7,0-2.3,0-7-2.3c-4.7-2.3-4.7-7-6.2-14.3c-1.5-7.3,1.5-2,8.6,0.3
		c7,2.3,2.3,4.7,7,2.3c4.7-2.3,0-2.3-0.9-12.5c-0.9-10.2-8.4-6.2-13.1-8.5c-4.7-2.3,0-2.3,4.7-4.7c4.7-2.3,2.3-2.3,9.3-7
		c7-4.7,0-7-2.3-11.7c-2.3-4.7-2.3-2.3-7-7c-4.7-4.7,2.3-9.3,2.3-14c0-4.7,2.3-4.7,0-11.7c-2.3-7-2.3-2.3-9.3,0
		c-7,2.3-2.3,9.3-10.1,11.4c-7.8,2-10.9,0.3-15.5,2.6c-4.7,2.3-4.7,16.3-4.7,23.3s0,21,7,25.7c7,4.7-2.3,7-4.7,14
		c-2.3,7,0,4.7,7,9.3c7,4.7,2.3,4.7-2.3,4.7c-4.7,0,2.3,7,4.7,11.7c2.3,4.7-2.3,4.7-4.7,7c-2.3,2.3,0,4.7-2.3,7
		c-2.3,2.3-9.3-2.3-11.7-4.7c-2.3-2.3-11.7,0-11.7,4.7s-9.3,4.7-13.2,3.5c-3.8-1.2-14.8,3.5-19.5,8.2c-4.7,4.7,2.3,4.7,4.7,11.7
		s0,4.7-4.7,9.3c-4.7,4.7-4.7-2.3-2.3-7c2.3-4.7-4.7-9.3-4.7-14s-7,7-7,16.3s-4.7,9.3-9.3,16.3c-4.7,7-2.3,2.3-7,4.7
		c-4.7,2.3-4.7,4.7-7,9.3c-2.3,4.7-4.7,4.7-7,4.7c-2.4,0-12.5,7.2-12.5,7.2l-3.8,23.2l48.9,155.1l35.2,43.3c0,0,4.7-2.3,11.7-2.3
		s7-2.3,11.7-7c4.7-4.7,9.3-9.3,18.7-9.3c9.3,0,2.3,4.7,9.3,7c7,2.3,16.3,7,14,16.3c-2.4,9.3,9.3,16.3,14,25.7
		c4.7,9.3,2.3,4.7,9.3,7c7,2.3,7,4.7,11.7,11.7c4.7,7,11.7,11.7,16.3,16.3c4.7,4.7,16.3,7,23.3,7c7,0,7,2.3,11.7,9.3
		c4.7,7,9.3,4.7,14,7c4.7,2.3,4.7,2.3,4.7,9.3c0,7,9.3,4.7,16.3,7c7,2.3,2.3,2.3,7,7c4.7,4.7,7,11.7,9.3,21c2.3,9.3,0,7-4.7,9.3
		c-4.7,2.3,0,4.7-2.3,7c-2.3,2.3-4.7,7-9.3,9.3c-4.7,2.3-16.3,4.7-21,7c-4.7,2.3-14,2.3-18.7,2.3c-4.7,0-9.3-9.3-11.7-7
		c-2.3,2.3-4.7,4.7-11.7,4.7c-7,0-4.7,0-7,9.3c-2.3,9.3,9.3,7,16.3,9.3c7,2.3,4.7,4.7,10.1,6c5.5,1.3,8.6,5.7,15.5,5.7
		s2.3,0,4.7,4.7c2.3,4.7,9.3,4.7,16.3,4.7s2.3-4.7,7-7c4.7-2.3-2.3-7-4.7-14c-2.3-7,2.3-7,4.7-14c2.3-7,2.3-4.7,4.7-2.3
		c2.3,2.3,9.3,2.3,11.7-2.3c2.3-4.7,7-9.3,9.3-14c2.3-4.7,0-4.7,0-11.7c0-7,7-4.7,11.7-4.7c4.7,0,2.3-7,0-11.7c-2.3-4.7-7-7-11.7-7
		c-4.7,0-4.7-4.7-2.3-9.3c2.3-4.7,4.7-16.3,11.7-18.7c7-2.3,4.7,4.7,11.7,4.7c7,0,4.7,0,7,4.7c2.3,4.7,4.7,7,9.3,9.3
		c4.7,2.3,4.7-9.3,2.3-16.3c-2.3-7-18.7-11.7-25.7-14c-7-2.3-23.3-7-30.3-11.7c-7-4.7-4.7-4.7-2.3-7c2.3-2.3,4.7-4.7,2.3-9.3
		s-16.3,0-23.3,0c-7,0-11.7-7-21-14c-9.3-7-7-14-9.3-23.3c-2.3-9.3-9.3-11.7-21-18.7c-11.7-7-9.3-7-11.7-14c-2.3-7,2.3-9.3,4.7-14
		c2.3-4.7-7-7-7-14c0-7,18.7-9.3,23.3-11.7s2.3,4.7,0,9.3c-2.3,4.7,7,16.3,9.3,21c2.3,4.7,7-4.7,11.7-11.7c4.7-7,0-4.7,4.7-4.7
		c4.7,0,4.7,9.3,7,11.7c2.3,2.3,2.3,18.7,4.7,23.3c2.3,4.7,14,11.7,18.7,11.7c4.7,0,14,9.3,21,11.7c7,2.3,4.7,2.3,9.3,7
		c4.7,4.7,2.3,2.3,9.3,2.3c7,0,9.3,4.7,21,9.3c11.7,4.7,18.7,9.3,23.3,14c4.7,4.7,0,35,0,39.7s2.3,4.7,9.3,9.3
		c7,4.7,2.3,4.7,9.3,9.3c7,4.7,2.3,4.7,4.7,7c2.3,2.3,7,9.3,14,11.7c7,2.3,4.7,0,0,4.7c-4.7,4.7,0,2.3,4.7,4.7
		c4.7,2.3,4.7,4.7,9.3,9.3c4.7,4.7,7-2.3,11.7-4.7c4.7-2.3,21,2.3,30.3,2.3c9.3,0,0,4.7-2.3,7c-2.3,2.3-11.7-2.3-16.3-2.3
		c-4.7,0-11.7-2.3-14,0l-9.3,9.3c-4.7,4.7,4.7,7,9.3,9.3c4.7,2.3,4.7,9.3,2.3,14s7,11.7,9.3,9.3c2.3-2.3,7-11.7,11.7,0
		c4.7,11.7,4.7,4.7,7-2.3c2.3-7,7,2.3,11.7,7c4.7,4.7-7-23.3-11.7-30.3c-4.7-7,0,0,7,4.7c7,4.7,2.3,0,5.5,0.4c3.1,0.4,3.9-2.7,3.9-5
		s0-4.7-2.3-4.7s-4.7-2.3-7-7c-2.3-4.7,0,0,0-2.3s4.7,0,11.7,2.3c7,2.3,4.7,0,7,2.3c2.3,2.3,4.7,0,4.7-2.3c0-2.3-2.3-4.7-2.3-9.3
		c0-4.7,4.7,2.3,7,0c2.4-2.3,2.3,2.3,14,7c11.7,4.7-7-7-16.3-11.7c-9.3-4.7-2.3-4.7-4.7-9.3c-2.3-4.7-9.3-4.7-16.3-4.7
		s-2.3-4.7-4.7-11.7c-2.3-7-4.7-7-11.7-11.7c-7-4.7-4.7-4.7-9.3-11.7c-4.7-7-4.7-7,0-11.7c4.7-4.7,2.3,2.3,9.3,4.7
		c7,2.3,4.7,7,11.7,9.3c7,2.3-7-7-2.3-9.3c4.7-2.3,2.3,2.3,11.7,4.7c9.3,2.3-4.7-4.7-7-9.3s9.3,0,14,2.3c0.5,0.2,0.7,0.3,0.8,0.4
		c-0.9-0.7-13.2-7.7-17.1-9.7c-4.7-2.3,0-2.3,0-2.3s9.3-2.3,11.7-7c2.3-4.7,0-2.3,4.7-2.3s7,2.3,9.3-2.3c2.3-4.7,14-2.3,21-2.3
		s4.7,2.3,4.7,4.7c0,2.3,7,0,11.7-2.3c4.7-2.3,7,2.3,11.7-2.3c4.7-4.7,4.7-7,7-11.7c2.3-4.7,7-2.3,11.7-4.7c4.7-2.3,7-2.3,11.7-2.3
		c4.7,0,9.3-2.3,11.7-2.3s7,7,2.3,9.3c-4.7,2.3-7,4.7-2.3,7c4.7,2.3-9.3,4.7-16.3,4.7s-9.3,2.3-11.7,4.7c-2.3,2.3-11.7,0-16.3,2.3
		c-4.7,2.3-9.3,7-14,14c-4.7,7,2.3,18.7,4.7,16.3c2.3-2.3,7-4.7,11.7-4.7s0,4.7,2.3,11.7c2.3,7,4.7,4.7,4.7,7c0,2.3-4.7,4.7-2.3,7
		c2.3,2.3,7,7,2.3,7c-4.7,0-7,2.3-9.3,7c-2.3,4.7,7,0,11.7,0c4.7,0,9.3,2.3,9.3,7c0,4.7,2.3,11.7,9.3,14c7,2.3,0,4.7-2.3,9.3
		c-2.3,4.7,14-2.3,21-2.3c7,0-2.3,4.7-7,7c-4.7,2.3,7,2.3,14-4.7c7-7,4.7,2.3,9.3,2.3c4.7,0,7,4.7,9.3,7c2.3,2.3,16.3,4.7,18.7,0
		c2.3-4.7,4.7-2.3,11.7-4.7c7-2.3,0-9.3,2.3-16.3s7-2.3,16.3-4.7c9.3-2.3,16.3,2.3,21,4.7c4.7,2.3,9.3,7,16.3,7s18.7-11.7,25.7-16.3
		c7-4.7,2.3-11.7,11.7-18.7c9.3-7,4.7-2.3,9.3,0c4.7,2.3,9.3,0,16.3-4.7c7-4.7,0,0,2.3-7c2.3-7,2.3-2.3,7,0c4.7,2.3,0,7-4.7,14
		c-4.7,7,0,2.3,2.3,4.7c2.3,2.3,2.3,4.7,7,7c4.7,2.3,4.7-2.3,4.7-4.7c0-2.3,2.3-2.3,4.7-7c2.3-4.7,2.3-4.7,0-9.3s-2.3-2.3-2.3-9.1
		c0.1-6.8,6.9-2.6,11.6-0.2c4.7,2.3,16.3-14,21-16.3c4.7-2.4,4.7-2.3,7,0c2.3,2.3,23.3-4.7,32.7-9.3c9.3-4.7,7-16.3,14-21
		c7-4.7,9.3-2.3,23.3-11.7c14-9.3,2.3-2.3,7-7c4.7-4.7,4.7,2.3,11.7-7c7-9.3,2.3-2.3,11.7-4.7c9.3-2.3,9.3-2.3,11.7-7
		c0.9-1.7,1.7-2.5,2.6-2.5c1.8-0.1,2.5,4.9,4.4,4.9C1575.5,855.8,1575.9,855.6,1576.7,854.7z"/>
	<path class="st0" d="M1075.6,232.1c-1.2-8.2-18.9-11.8-23.2-13.3s-1.6-5.6-0.4-11.5c1.2-5.9,0-5.9-5.9-8.2
		c-5.9-2.4-3.5-3.5-3.5-7.1c0-3.5-2.4-5.9-8.2-6.2c-5.9-0.3,0-3.2-2.4-6.8c-2.4-3.5,0-17.7-3.5-24.8c-3.5-7.1-11.8-18.9-16.5-26.8
		c-4.7-8,0-7.4,0-13.3s-1.2-9.4-4.7-14.1c-3.5-4.7-8.2-4.7-13-4.7c-4.7,0-3.5-4.7-3.8-9.5c-0.3-4.8-3.2-11.7-3.2-11.7
		s2.4-8.2,3.5-11.8s2.4-2.4,3.5-7.1c1.2-4.7,7.1-3.5,11.8-4.7c4.7-1.2,1.2-7.1,1.2-7.1l0.2-1.9c-6.3,8.4,0.3-0.6-6.6-0.6
		c-7,0-4.7,0-9.3,0c-4.7,0-2.3-4.7,2.3-7c4.7-2.3,2.3-2.3,4.7-7c2.3-4.7,0-4.7-4.7-9.3c-4.7-4.7-21,0-23.3-2.3s-2.3-2.3-9.3-2.3
		c-7,0-2.3,2.3-2.3,7c0,4.7,0,11.7-2.3,14c-2.3,2.3-2.3-9.3-4.7-14c-2.3-4.7-4.7,18.7-7,25.7s-2.3-21,0-28s-7-2.3-16.3,2.3
		c-9.3,4.7-2.3,2.3,4.7,7c7,4.7-9.3,2.3-16.3,4.7c-7,2.3-7,7,0,7s-2.3,7-9.3,7s-4.7,2.3-3.6,6.4c1.1,4.1-1.1,0.6-5.8,0.6
		c-4.7,0-9.3-2.3-16.3,2.3c-7,4.7-2.3,2.3-2.3,7c0,4.7-2.3,7-9.3,11.7c-7,4.7-7,14-4.7,21c2.3,7-2.3,2.3-7,0
		c-4.7-2.3-2.3-7-4.7-11.7c-2.3-4.7-4.7,4.7-9.3,11.7c-4.7,7-4.7,2.3-7,9.3c-2.3,7,9.3,2.3,9.3,4.7c0,2.3-18.7,4.7-25.7,16.3
		c-7,11.7,4.7,2.3,9.3-2.3c4.7-4.7,21-9.3,28-9.3c7,0-4.7,4.7-11.7,9.3c-7,4.7-2.3,2.3-2.3,9.3s0,7-2.3,11.7c-2.3,4.7-7,9.3-11.7,14
		c-4.7,4.7-4.7,11.7-3.6,18c1.1,6.4-3.4,3-8.1,0.6c-4.7-2.3,0,2.3,0,7c0,4.7,4.7,4.7,1.5,9.3c-3.1,4.7-3.9,0-8.5,0s0,2.3,4.7,4.7
		c4.7,2.3,0,4.7-2.3,11.7c-2.3,7-7,7-11.7,7s-2.3,0,2.3,4.7s0,2.3-2.3,4.7c-2.3,2.3-2.3,4.7-9.3,4.7c-7,0,0,4.7-2.3,9.3
		c-2.3,4.7,0,7-2.2,8.1c-2.2,1-2.5,1.3-4.8,6c-2.3,4.7-4.7,0-11.7-4.7c-7-4.7-2.3,4.7-4.7,7c-2.3,2.3-2.3,4.7-6.7,4.2
		c-4.3-0.4,2,5.1,2,7.5c0,2.4-7,2.3-7,2.3s-4.7,2.3-4.7,4.7c0,2.3,0,4.7-2.3,4.7c-2.3,0-4.7,0-4.7,2.3s-2.3,7-2.3,4.7
		c0-2.3-4.7,0-7,2.3c-2.3,2.3,0,4.7-4.8,3.5c-4.8-1.2-4.5,1.2-4.5,5.9c0,4.7-2.3,0-7,4.7c-4.7,4.7,2.3,7,4.7,9.3
		c2.3,2.3-7,4.7-8.4,12.3c-1.4,7.7,1.4,6.3,0.3,13.8c-1.1,7.5,1.1,13.6,4.7,16.6c3.6,3,3.4,1.6-1.2,6.3c-2.1,2.1-2.8,3.3-2.5,4
		c0.5,1.3,3.8,0.2,4.4,1.5c0.6,1.3-2.4,3.1-4.6,8.1c-0.8,1.8-0.7,2.3-0.7,2.7c0.5,2.8,4.7,4.5,9.2,3.4c5.8-1.4,3.5-3.3,8.1,0
		c4.6,3.2-9.3,8.4-11.6,12.7c-2.3,4.3,4.7,12,16.3,21.3c11.7,9.3,14,4.7,23.3,2.3c9.3-2.3,11.7-11.7,18.7-21c7-9.3,7-2.3,14-4.7
		c7-2.4,2.4-16.3,4.9-23.4c2.6-7,2.1,11.7,2.1,14c0,2.3,7.1,5.8,7.1,5.8l13.9,5.9l18.9-7l13.8-25.7l9.3-51.3l37.4-70l7-28l44.4-39.7
		c0,0,9.3,0,16.3,0c7,0,7,4.7,9.3,9.3c2.3,4.7,2.3,7-2.3,7c-4.7,0-2.3,2.3-2.3,4.7v9.3c0,4.7-9.3,21-11.4,26.6
		c-2.1,5.6-4.9,8.4-7.3,15.4c-2.4,7,2.3,4.7-7,7c-9.3,2.3-9.3,2.3-4.7,7c4.7,4.7,0,7-2.3,14c-2.3,7,7,7,7,11.7c0,4.7,2.3,7,4.7,14
		c2.3,7,2.3,25.7,4.7,30.3c2.3,4.7,11.7,7,21,14c9.3,7,18.7,2.3,25.7-2.3c7-4.7,25.7-16.3,30.3-21c2.9-2.9,7.4-4.8,12.2-6.5
		c0.7-5.5,16.3-28.5,21.6-40.1C1073.3,259.3,1076.8,240.4,1075.6,232.1z"/>
	<path class="st0" d="M821.1,484.6c1.4,0,1.3-5.2,4.7-7c1.4-0.7,3.3-0.8,4.7,0c1.8,1.1,2.1,3.4,2.3,4.7c0.2,1.7,0.1,3.4-2.3,11.7
		c-0.9,3-1,3.2-1,3.9c0.2,3.8,3.7,5.1,3.3,7.7c-0.3,2.1-2.8,1.8-4.7,4.7c-2.6,3.8,0,7.2-2.3,9.3c-2.3,2.2-7,0.7-9.3,0
		c-3.6-1.1-7.3-3.5-7-4.7c0.4-1.4,5.7,0.7,9.3-2.3c2.2-1.8,3.5-5.3,2.3-7c-1.5-2.3-6.3,0.5-9.3-2.3c-0.8-0.7-1.3-2.8-2.3-7
		c-0.8-3.4-1.5-7.3-1.5-7.3l0,0l0,0c0,0,1.5-4.4,3.9-4.4c3.3,0,4.8-4.5,6.5-3.9C820.1,481.3,820,484.5,821.1,484.6z"/>
	<path class="st0" d="M494.1,467.2c0,0-7.5-2.2-11.8-0.6c-4.3,1.6-2,3.9-4.3,6.3c-2.3,2.3-2.3,0-4.7,2.3c-2.3,2.3-4.7,4.7-2.3,4.7
		c2.3,0,7-2.3,7,0s3.8,4.1-1.6,5.6c-5.4,1.4-5.4,8.5-12.4,3.8c-7-4.7-4.7-9.3-11.7-7c-7,2.3-11.7,0-9.3,7c2.3,7,7,3,2.3,8.5
		c-4.7,5.5-9.3-1.5-7,5.5c2.3,7,0,5.6,7,8.6c7,3,7,0.7,4.7,7.7c-2.3,7-5.9,9.9-12.3,14.3c-6.4,4.4-18.1-2.6-15.7,9.1
		c2.3,11.7,4.7,21,14,23.4c9.3,2.3,21-2.3,28-4.7c7-2.3,16.3-7,21-4.7s4.1,4.7,10.2-2.3c6.1-7,8.5-18.7,10.8-25.7
		c2.3-7,4.7-25.7,4.7-25.7L494.1,467.2z"/>
	<path class="st0" d="M410.2,78.3c1.7-1.5,4.9-1.2,7,0c5.4,3,6.6,13.3,4.7,21c-1.4,5.8-4.9,12-3.7,13.5c0.2,0.3,0.7,0.5,1.4,0.5
		c4.7,0,2.5-4.7,5.9,0c3.4,4.7,3.4,4.7,5.8-2.3c2.3-7,7-16.3,9.3-9.3c2.3,7-2.3,4.7,4.7,4.7c7,0,9.3,2.3,11.7,4.7
		c2.3,2.3,2.3-2.3,7,2.3c4.7,4.7,7.7,6.5,13.2,3.3c5.5-3.3,7.8-7.9,10.1-5.6c2.3,2.3-2.3,11.7,4.7,11.7s7,4.7,4.7,7
		c-2.3,2.3-2.3,0,0,7s9.3,7,4.7,14c-4.7,7,2.3,9.3-2.3,11.7c-4.7,2.3-2.3,7-7,7s-4.7-2.3-9.3,2.3c-4.7,4.7-2.3,4.7-9.3,4.7
		c-7,0-11.7,0-16.3,2.3c-4.7,2.3-7,2.3-16.3,2.3s-8.7-4.7-11.4,0c-2.6,4.7-2.6,7-12,2.3c-9.3-4.7-14-11.7-16.3-18.7s2.3-9.3-7-9.3
		s-18.7-14-9.3-11.7c9.3,2.4,7,4.7,7-4.7c0-9.3,11.7-16.3,2.3-16.3s-30.3-7-4.7-7c25.7,0,21,0,16.3-4.7c-4.7-4.7,2.3-9.3-4.7-9.3
		s-18.7,0-16.3-4.7c4.6-9.3,11.7-14,11.7-14c3.4-1.9,5.1-2.9,7-2.3c5.1,1.4,6.5,11.8,7,11.7C410.7,92.2,406.5,81.6,410.2,78.3z"/>
	<path class="st0" d="M384.6,830.1c0,0-9.3,21-9.3,35c0,14-14,42-18.7,44.4c-4.7,2.3-18.7,18.7-14,23.4c4.7,4.7,4.7,2.3,4.7,7
		c0,4.7,11.7,0,9.3,7c-2.3,7-18.7,35-14,37.4c4.7,2.3,9.3-2.3,16.3,2.3c7,4.7,11.7,4.7,16.3,2.3c4.7-2.3,25.7-9.3,25.7-9.3l39.7-49
		l16.3-65.4l-14-30.3l-32.5-4.7L384.6,830.1L384.6,830.1z"/>
	<path class="st0" d="M779.1,865.1c0,0,0,9.3-4.7,9.3c-4.7,0-11-4.3-13.6,3.7c-2.7,8,2,26.7,4.3,29c2.3,2.3,4.7,9.3,9.3,0
		c4.7-9.3,9.3-23.4,7-28C779.1,874.4,779.1,865.1,779.1,865.1z"/>
	<path class="st0" d="M760,925.8c-4.5,0.8-8-2.2-10.4-0.7c-0.5,0.4-0.9,1.2-0.9,3c0,7,4.7,9.3,4.7,16.3s-4.7,30.3,0,35
		c4.7,4.7,7,9.3,11.7,4.7c4.7-4.7,2.3-7,7-7c4.7,0,10.6,6.7,10-3.7c-0.2-3.2,0.4-12.6,1.7-31.4c0.1-1.9,0.5-6.1,0-11.7
		c-0.5-6.5-1.6-8.3-2.3-9.3c-1.8-2.4-5.5-5.2-9.3-4.7C766.3,917.2,766.1,924.7,760,925.8z"/>
	<path class="st0" d="M1126.5,1050.7c-1.9,0.7-3.2,2-4.2,3.5c-4.7,7-4.7,9.3,2.3,9.3s22.2-4.7,25.1,0c2.9,4.7,4.8,2.3,12,0
		c7.2-2.3,23.6-7,23.6-9.3c0-2.3,0.3-5.4-4.5-3.8c-4.8,1.5-2.5,1.5-9.5,1.5c-4.7,0-9.3,0-14,0c-18.9-0.1-18.8,1.9-23.4,0
		C1132.3,1051.1,1129.4,1049.7,1126.5,1050.7z"/>
	<path class="st0" d="M562,267.4c-1.5,0.1-2.1-4.6-4.8-5.1c-0.5-0.1-1.2-0.1-2.3,0.5c-4.7,2.3-7,2.3-4.7,9.3c2.3,7-2.3,11.7,0,16.3
		c2.3,4.7,4.7,9.3,7,2.3c3.1-9.3,1.9-11.9,4.7-16.3c2.3-3.6,5.2-4.7,4.7-7c-0.3-1.2-1.4-2.4-2.3-2.3
		C563.1,265.2,563,267.4,562,267.4z"/>
	<path class="st1" d="M537.6,837.9c-0.4-0.3-0.9-0.5-1.3-0.8c-3.2-2-19.2-12.2-39.7-14c-6.3-0.6-10.8-0.1-18.7-2.3
		c-7.7-2.1-9.4-4.2-16.3-7c-15.5-6.3-20.5,1.4-37.4-7c-4.7-2.3-11.7-11.7-18.7-7c-7,4.7-25.7,4.7-28,9.3c-2.3,4.7,2.3,35,2.3,35
		s14.6-4.7,15.5,0c0.9,4.7,7.9,9.3,10.2,9.3s14,0,18.7,2.3c4.7,2.3,11.7,11.7,7,16.3c-4.7,4.7-16.3,9.3-16.3,14
		c0,4.7,0,11.7-2.3,16.3c-2.3,4.7-7,18.7-11.7,18.7c-4.7,0-4.7,7-4.7,9.3s7,4.7,4.7,9.3s-11.7,9.3-9.3,14c2.3,4.7,7,4.7,4.7,9.3
		s-16.3,11.7-16.3,14s0,11.7,0,11.7s11.7,4.7,14,7c2.3,2.3,7,25.7,11.7,28c4.7,2.3,11.7,11.7,16.3,7c4.7-4.7,16.3-7,18.7-7
		s13.4-8.2,19.5-5.3c6.2,2.9,38.8,9.9,45.9,2.9c7-7,11.7-16.3,16.3-16.3s14,0,14,0s2.3-14,9.3-18.7c7-4.7,21-7,16.3-11.7
		c-4.7-4.7-11.7-9.3-9.3-16.3c2.3-7,21-32.7,23.4-32.7c2.3,0,9.3-2.3,9.3-4.7c0-2.3,0-9.3,4.7-9.3c4.7,0,14-2.3,16.3-2.3
		s9.3-2.3,11.7-4.7c2.3-2.3,14-4.7,18.7-9.3c4.7-4.7,9.3-18.7,4.7-18.7c-0.6,0-1.3,0-1.9,0.1"/>
	<path class="st2" d="M639.4,876.9c-4.5,0.4-10.3,1.9-14.4-0.1c-4.7-2.3-9.3-4.7-16.3-7c-7-2.3-18.7-9.3-23.4-9.3c-4.7,0-7,0-14-2.3
		c-3.3-1.1-5.1-1.7-6.7-2.5c-3.8-1.8-6.3-3.8-7.3-4.5c-4.7-3.7-11.4-7.9-19.7-13.2"/>
	<path class="st1" d="M557.3,851.3c0.1,0.1,0.5,0.4,1.2,0.9c1.3,1,3.4,2.3,6.1,3.6c1.7,0.8,3.4,1.4,6.7,2.5c7,2.3,9.3,2.3,14,2.3
		s16.3,7,23.4,9.3c2.1,0.7,4.1,1.4,5.8,2.1c5.9,2.4,7.8,3.8,10.5,4.8c3,1.1,7.6,1.9,14.4-0.2c0,0-2.7-11.8-0.4-18.8
		c2.3-7,7-7,14-11.7c7-4.7,9.3-2.3,18.7-2.3s16.3,9.3,25.7,14c9.3,4.7,14,0,18.7-2.3c4.7-2.3,18.7-16.3,23.4-21
		c4.7-4.7-4.7-4.7-9.3-7c-4.7-2.3-7-7-4.7-11.7s0-4.7-2.3-7c-2.3-2.3-4.7-9.3,2.9-10.6c7.6-1.3-0.6-10.4-0.6-17.4s2.3-2.3,4.7-4.7
		c2.3-2.3-4.7-4.7-4.7-11.7c0-7-7-4.7-14,0c-7,4.7-2.3-2.3,0-7c2.3-4.7,16.3-21,18.7-23.4c2.3-2.3,9.3-4.7,11.7-9.3
		c2.3-4.7,4.7-25.7,11.7-32.7c7-7-9.3-7-16.3-9.3c-7-2.3-11.7-7-16.3-9.3c-4.7-2.3-11.7-7-16.3-7s-18.7-11.7-23.4-14
		c-4.7-2.3-7-11.7-16.3-16.3c-9.3-4.7-7-9.3-11.7-14c-4.7-4.7-9.3-2.3-16.3-2.3s-7,16.3-7,21c0,4.7-16.3,7-23.4,9.3
		c-7,2.3-7,9.3-9.3,14c-2.3,4.7-18.7-4.7-21-9.3c-2.3-4.7-7-7-11.7-7s0,11.7,2.3,21c2.3,9.3-7,11.7-14,9.3c-7-2.3-11.7-4.7-14.9-9.3
		c-3.2-4.7-24.8,0-31.8,0s-4.7,9.3,0,11.4c4.7,2-2.3,9.6,0,12c2.3,2.3,30.3,16.3,37.4,25.7s2.3,7,2.3,9.3s2.3,9.3,7,14
		c4.7,4.7,7,18.7,7,30.3S537.8,838,537.8,838C550.1,846.2,555.4,849.9,557.3,851.3z"/>
	<path class="st3" d="M566.7,491.5c0,0-11.7,7-9.3,14c2.3,7,2,10.4,4.5,9.9c2.5-0.5,4.8,1.1,4.8,2.6c0,1.5-4.7,15.5-7,17.9
		c-2.3,2.3-13.7,0-16.2,0c-2.5,0-2.5-7-7.2-4.7c-4.7,2.3-4.7,9.3-2.3,9.3c2.3,0,7,9.3,4.7,16.3c-2.3,7-18.7,11.7-23.4,14
		c-4.7,2.3-4.7,9.3,0,9.3c4.7,0,16.3,0,16.3,2.3c0,2.3,3.5,6.9,7.6,8.1c4.1,1.2,11.2,3.4,15.8,0c4.6-3.4,6.9-3.4,6.9-3.4
		s-7,11.7-14,11.7s-14-4.7-18.7-2.3c-4.7,2.3-9.3,11.7-14,14c-4.7,2.3-23.4,9.3-21,11.7c2.3,2.3,7,7,9.3,4.7c2.3-2.3,2.3-9.3,9.3-7
		c7,2.3,14,7,18.7,4.7c4.7-2.3,2.3-9.3,7-9.3c4.7,0,11.7-2.3,14,0c2.3,2.3,1.6,3.5,9,4.1c7.4,0.6,5-4.1,9.7-1.8c4.7,2.3,7,9.3,9.3,7
		c2.3-2.3,0.7-5.8,5-5.3c4.3,0.6,11.3-1.8,16,0.6c4.7,2.3,11.7,4.7,18.7,0c7-4.7,14-9.3,9.3-11.7s-18.7-2.3-14-4.7
		c4.7-2.3,16.3-11.7,21-18.7c4.7-7,4.7-16.3,0-21c-4.7-4.7-13.3-6.4-16-4.3c-2.7,2-5,4.3-5-0.3c0-4.7,4.7-11.7,2.3-16.3
		c-2.3-4.7-4.7-4.7-4.7-11.7c0-7-2.3-21-7-23.4c-4.7-2.3-7-4.7-9.3-11.7c-2.3-7,0-18.7-4.7-25.7c-4.7-7-23.4-9.3-21-11.7
		c2.3-2.3,7-7,9.3-9.3c2.3-2.3,7-4.7,11.7-11.7c4.7-7,4.7-11.7,7-14c2.3-2.3,7-9.3,2.3-11.7c-4.7-2.3-23.4-4.7-28-2.3
		c-4.7,2.3-8.4,2.7-6.5-1c1.9-3.7,4.2-1.4,4.2-3.7c0-1.9,1.6-8.2,4.7-9.3c0.9-0.3,1.2,0,2.3,0c1.4,0,4.2-0.5,9.3-7
		c4.9-6.3,7.5-9.6,7-14c-0.4-3.2-2.4-6.9-4.7-7c-2.3-0.1-4.1,3.6-4.7,4.7c-2.7,5.3-0.3,8.4-2.5,10.5c-2.9,2.9-10.2,0.5-13.9-1.2
		c-6.2-2.9-8.7-7.3-11.5-6.2c-1.1,0.4-1.9,1.6-2.5,3.9c-2.3,9.3,0,14-4.7,16.3c-4.7,2.3-7,0-9.3,4.7s2.3,7-2.3,4.7
		c-4.7-2.3-14-2.3-14,0s7,4.7,4.7,9.3c-2.3,4.7-7,4.7-4.7,7c2.3,2.3,9.3-4.7,9.3,0c0,4.7,2.3,2.3-2.3,4.7c-4.7,2.4-4.7-2.3-9.3,0
		c-4.7,2.3-11.7,9.3-4.7,7c7-2.3,11.7,0,9.3,2.3s-9.3,7-2.3,7c7,0,14-2.3,7,2.3c-7,4.7-18.7,9.3-16.3,11.7s2.3,7,7,4.7
		c4.7-2.3,7-4.7,7-2.3c0,2.3-4.7,2.3-4.7,9.3c0,7,2.3,4.7,4.7,4.7c2.3,0,4.7-11.7,4.7-7c0,4.7,2.3,7,4.7,2.3c2.3-4.7,9.3-4.7,7,0
		c-2.3,4.7-11.7,11.7-11.7,16.3c0,4.7-7,4.7,2.3,7c9.9,2.5,14.9-3.6,23.4-2.3C561.2,489.4,563.7,490,566.7,491.5z"/>
	<path class="st1" d="M501.3,463.5c-1-0.2-2.7-0.4-4.7,0c-1.7,0.4-4.1,0.9-4.7,2.3c-0.9,2.4,4.1,4.8,4.1,9.1c0,1.1-0.5,2.4-1.9,4.2
		c-4.5,5.5-13.8,3.1-11.5,10.1c2.3,7,9,15.3,10.3,10c1.4-5.3,3.7-12.3,6-7.7c2.3,4.7,2.3,9.6,4.7,11.8c2.3,2.2,9.3,6.9,14,2.2
		c4.7-4.7,9.3-4.7,7-11.7c-2.3-7,0-18.7-4.7-21c-4.7-2.3-11.7-2.3-14-4.7C505.9,468,502.7,464.3,501.3,463.5z"/>
	<path class="st4" d="M543.3,500.9c-2.3-1.3-10.6,6.2-9.3,9.3c0.5,1.2,2.4,1.7,3.6,1.6c3-0.1,4.7-3.1,5.1-3.8
		C544.2,505.5,544.7,501.7,543.3,500.9z"/>
	<path class="st1" d="M534,377.2c0,0-7,2.3-9.3,7c-2.3,4.7-2.3,4.7-4.7,9.3c-2.3,4.7-7,2.3-7,9.3c0,7-7,16.3-2.3,14
		c4.7-2.3,2.3-9.3,9.3-14c7-4.7,21-11.7,21-18.7c0-7,4.7-9.3,0-8.2C536.3,377.2,534,377.2,534,377.2z"/>
	<path class="st1" d="M627.3,328.1c-3.7,4.4-7.5,3.1-9.3,7c-0.7,1.6-0.8,3-0.6,4.6c0.4,3.8,2.9,5.9,2.9,9.4c0,3.9,0.9,5.3,1.5,5.4
		c1.2,0.2,2.4-4.9,5.5-12.4c4.4-11,8.7-17.3,7-18.7c-0.6-0.5-1.6-0.2-2.3,0C629.7,324.1,629,326.1,627.3,328.1z"/>
	<g>
		<path class="st1" d="M921.5,99.3c-9.8-1.5-13-15.1-16.3-14c-3.7,1.2,2.7,21-4.7,21c-4.7,0-21-7-21,0s4.7,14-2.3,14
			c-7,0-9.3,0-11.7,7c-2.3,7-4.7,7-2.3,14c2.3,7,2.3,9.3,0,11.7s-9.3,16.3-9.3,18.7c0,2.3-4.7,4.7-7,7c-2.3,2.3,2.3,13.9,0,23.3
			c-2.3,9.4-11.7,23.4-7,25.8c4.7,2.3,7,9.3,2.3,11.7c-4.7,2.3-8.9-4.7-12.6,0c-3.7,4.7-10.7,9.3-10.7,28s-2.3,42,2.3,44.4
			c4.7,2.3,13.7,6.5,10.4,11.4s-8,4.9-8,9.6s7,14,4.7,21c-2.3,7-8.2,7.3-9.9,13c-1.8,5.7,0.6,19.7-1.8,22c-2.3,2.3-9.2-2.3-9.3,0
			s2.3,25.7,13.9,46.7c11.7,21,18.7,28,16.3,30.3c-2.3,2.3-7,0-4.7,7c2.3,7,7,4.7,7,11.7c0,7,0,14,4.7,14c4.7,0,4.7-2.3,9.3-2.3
			c4.7,0,11.7,0,9.3-4.7s-4.7-9.3,0-11.7s2.3-7,11.7-7c9.3,0,16.3-2.3,16.3-2.3c0-4.7,0-11.7,2.3-11.7c2.3,0-2.3-14,0-18.7
			c2.3-4.7,0-23.4,2.3-30.3c2.3-7-4.7-11.7,2.3-14c7-2.3,11.7,0,9.3-9.3c-2.3-9.3-7-7-7-11.7c0-4.7,0-7,4.7-4.7c4.7,2.3,0,4.7,7,2.3
			c7-2.3,2.3,0,7-7c4.7-7,9.3-7,2.3-14s-21-11.7-23.4-16.3c-2.3-4.7-4.7-7-4.7-23.4c0-16.3-2.3-28,2.3-32.7c4.7-4.7,7-11.7,9.3-16.3
			c2.3-4.7,18.7-11.7,23.4-23.4c4.7-11.7,4.7-11.7,7-16.3c2.3-4.7,7-7,2.3-9.3c-4.7-2.3-7,0-4.7-11.7s2.3-16.3,9.3-21
			c7-4.7,21-4.7,18.7-9.3c-2.3-4.7-9.3-7-9.3-14s4.7-14,0-18.7c-4.7-4.7-7-9.3-7-11.7c0-2.3,2.3-11.7-2.3-16.3
			c-3.5-3.5-3.1-5.7-4.6-7.5c-0.8-1-1.8-1.5-2.4-1.8C931.5,99.6,924.6,99.8,921.5,99.3z"/>
		<path class="st1" d="M902.8,435.5c0,0-4.7,16.3-4.7,21c0,4.7,0,12.3,0,12.3"/>
		<path class="st1" d="M919.2,374.8c-1.4-1.4-8,0.3-9.3,4.7c-0.9,2.9,0.5,6.7,2.3,7c1.6,0.3,3.3-2.5,4.7-4.7
			C917.9,380.1,920.3,376.1,919.2,374.8z"/>
		<path class="st1" d="M935.5,412.2c0,0-9.3,2.3-14,7c-4.7,4.7,0,14.9,0,20.3c0,5.4,0,7.7,4.7,0.7c4.7-7,4.7-11.7,4.7-14
			s2.3-7,4.7-9.3c0.3-0.3,0.9-1,1-1.9C936.7,413.8,936,412.8,935.5,412.2z"/>
	</g>
</g>
<rect x="832.9" y="347.3" class="st5" width="79.3" height="25.2"/>
<text transform="matrix(1 0 0 1 832.8955 364.1436)" class="st6 st7 st8">Sverige</text>
<rect x="594.6" y="736.1" class="st5" width="97.5" height="25.2"/>
<text transform="matrix(1 0 0 1 594.6152 752.9463)" class="st6 st7 st8">Frankrike</text>
<rect x="445.3" y="911.8" class="st5" width="97.5" height="25.2"/>
<text transform="matrix(1 0 0 1 445.3066 928.6934)" class="st6 st7 st8">Spanien</text>
<rect x="565.1" y="554.3" class="st5" width="62.6" height="25.2"/>
<text transform="matrix(1 0 0 1 565.1309 571.1768)" class="st6 st7 st8">UK</text>
</svg>
