<?xml version="1.0" encoding="utf-8"?>
<!-- Generator: Adobe Illustrator 24.3.2, SVG Export Plug-In . SVG Version: 6.00 Build 0)  -->
<svg version="1.1" id="Layer_1" xmlns="http://www.w3.org/2000/svg" xmlns:xlink="http://www.w3.org/1999/xlink" x="0px" y="0px"
	 viewBox="0 0 1920 1080" style="enable-background:new 0 0 1920 1080;" xml:space="preserve">
<style type="text/css">
	.st0{fill:#BCBCBC;stroke:#425664;stroke-width:1.3213;stroke-miterlimit:10;}
	.st1{fill:#425664;stroke:#425664;stroke-width:1.0426;stroke-miterlimit:10;}
	.st2{fill:#BCBCBC;stroke:#425664;stroke-width:1.0426;stroke-miterlimit:10;}
	.st3{fill:#6DE063;stroke:#425664;stroke-width:1.0426;stroke-miterlimit:10;}
	.st4{fill:#425664;stroke:#425664;stroke-width:1.3213;stroke-miterlimit:10;}
	.st5{fill:#BCBCBC;stroke:#425664;stroke-width:0.5087;stroke-miterlimit:10;}
	.st6{fill:#425664;stroke:#425664;stroke-width:1.3209;stroke-miterlimit:10;}
	.st7{fill:#425664;stroke:#425664;stroke-width:1.6408;stroke-miterlimit:10;}
	.st8{fill:#6DE063;stroke:#425664;stroke-width:1.3213;stroke-miterlimit:10;}
	.st9{fill:#6DE063;stroke:#425664;stroke-width:0.5087;stroke-miterlimit:10;}
	.st10{fill:#425664;stroke:#425664;stroke-width:0.9256;stroke-miterlimit:10;}
</style>
<g id="Layer_5">
	<path class="st0" d="M1614.3,98.2c-5.7-1.5,4.4-3,8.7-3c4.4,0,4.4,0,3-3s-11.6-4.4-15.9-5.7c-4.4-1.5-11.6,0-7.2-3
		c4.4-3-8.7-5.7-15.9-7.2c-7.2-1.5-32,0-37.7,0c-5.7,0,0,1.5,5.7,4.4c5.7,3-24.6-1.5-27.6,0c-3,1.5-8.7,0-8.7,3s-5.7-1.5-11.6-3
		s-32-3-37.7-1.5c-5.7,1.5-15.9-1.5-18.9-4.4c-3-3-8.7,0-17.4,1.5c-8.7,1.5-15.9,0-21.8,1.5c-5.9,1.5,1.5,3,4.4,4.4
		c3,1.5-20.3,1.5-21.8,1.5c-1.5,0-5.7,1.5-7.2,4.4c-1.5,3-7.2,0-10.2-1.5c-3-1.5-23.3-7.2-27.6-8.7c-4.4-1.5-8.7,3-10.2,5.7
		c-1.5,3-14.6-1.5-21.8-3c-7.2-1.5-14.6,3-18.9,1.5s-8.7,3-14.6,4.4c-5.9,1.5-7.2,1.5-3-1.5c4.4-3,7.2-10.2,5.7-11.6
		c-1.5-1.5-21.8-3-26.1-1.5c-4.4,1.5-18.9-1.5-24.1-3.6s-4.9,3.6-2,5.1c3,1.5,3,1.5-1.5,1.5s-7.2,4.4-10.2,4.4
		c-3,0-23.3,5.7-26.3,7.2c-3,1.5-1.3,1.5,1.5,4.4c2.8,3,1.5,1.5,0.7,4.4s-10.8,0-16.6,0c-5.7,0-3,3-3,3s8.7,3,13.3,4.8
		c4.6,1.8,4.1,2.5,10,5.4c5.7,3-3,4.4-5.7,1.5c-2.8-3-13.1-5.7-15.6-6.6s-6.2,0.8-10,0.2c-3.9-0.7,1,3.6,6.7,5.1
		c5.7,1.5-3,1.5-5.7,0c-2.8-1.5-8.7-3-14.6-3c-5.9,0,7.2,10.2,10.2,13.1c3,3,14.6,1.5,20.3,1.5c5.7,0,3,3,1.5,5.7
		c-1.5,3-10.2-4.4-13.1-3c-3,1.5,0,3,1.5,5.7s-5.7,5.7-9.5,4.1c-3.8-1.6-2.1-1.1,2.3-4.1c4.4-3-1.5-5.7-4.4-7.2
		c-3-1.5-5.7-7.2-7.2-7.2c-1.5,0-5.7-5.7-8.4-8.7c-2.6-3-13.5-3-14.9,0s-1.5,5.7,0,10.2c1.5,4.4,10.2,4.4,14.6,6.4
		c4.4,2,1.5,3.8,0,5.3c-1.5,1.5-30.5-5.7-33.5-5.1c-3,0.7,0,2.3,0,5.1c0,3-13.1,1.5-15.9,3c-3,1.5-20.3,3-23.3,4.4
		c-3,1.5-8.7,5.7-10.2,7.2c-1.5,1.5-4.4,1.5-8.4-2.3c-3.9-3.8,1.1-0.7,3.3-1.8c2.1-1.3-3.6-1.6-9.5-1.6c-5.9,0,0,3,1.5,7.2
		c1.5,4.4,4.4,1.5,3.6,3.3c-0.8,1.8-3.6,1.1-6.6,1.6c-3,0.5-4.4,1-7.2,3.9c-3,3,0,3,3,4.4c3,1.5-5.7,1.5-10.2,0
		c-4.4-1.5-1.5,3-3.6,5.1s-6.6,0.8-8-2.1c-1.5-3-8.7-5.7-14.1-9.7c-5.4-3.9,2.6-0.5,10,0c7.5,0.5,21.5-3.3,21.5-4.8
		c0-1.5-15.9-7.2-20.3-6.7c-4.4,0.7-13-2.1-17.2-0.3c-4.1,1.6-6.7-2.5-9.7-2.5s-5.7-1.5-5.7-1.5l-5.3,2.8l7.4,18.4l1.5,14.6
		c0,0,1.5,15.9,3,17.4c1.5,1.5,0.7,14.1,0.7,14.1l6.2,5.4l10.5,31.3c17.2,7.5,34.3,14.9,51.5,22.5c0.8-0.3,10.5-4.3,13.8-0.7
		c0.3,0.3,0.8,0.8,0.8,1.5c0,2-4.4,3.6-8,7.2c-4.4,4.4,17.4,10.2,21.8,11.6c4.4,1.5,7.2,7.2,7.2,7.2l-10.3,22.3l-8.2,11l-0.2,11.5
		c0,0,2.8,0.3,2.5,3.9c-0.2,3.6,0.2,2.3-2.8,5.1s1.5,7.2-2,12.3c-3.3,5.1-1,3.6-6.7,5.1s-10.2-1.5-13.1,0s-11.6,3-15.9,3
		c-4.3,0-33.5-5.7-40.7-5.7c-7.2,0-1.5,8.7-1.5,14.6s-23.3-4.4-32-8.7c-8.7-4.4-17.4-10.2-20.5-15.4c-3.1-5.3-15.8-6.4-18.7-7.9
		c-3-1.5-32,1.5-34.8,3c-3,1.5-10.2,10.2-11.8,12.3c-1.8,2.1-12.8,0.7-15.9,0c-3.1-0.7-1.3-8.9-1.3-8.9l-2.8-3.6
		c0,0-1.5,11.6-2,16.1c-0.7,4.4-9.5,8.7-13.9,15.9s-1.5,11.6,0,14.6c1.5,3-10.2,10.2-13.1,13.1c-3,3-8.7,10.2-10.2,17.4
		c-1.5,7.2-13.1,20.3-14.4,26.1c-1.3,5.7,7.2,14.6,7.2,21.8c0,7.2-3,18.9-3,24.6c0,5.7,5.7,11.6,10.2,15.9s20.3,21.8,24.6,26.4
		c4.3,4.6,11.6,11.3,14.6,15.8c3,4.4,8.7-3,14.6-7.2c5.7-4.4,17.4,0,21.8,1.5c4.4,1.5,13.1-7.2,18.9-10.2c5.7-3,10.2-3,18.9-3.6
		c8.7-0.7,1.5,4.9,5.7,9.4c4.3,4.4,14.6,0,18.9-1.5c4.4-1.5,3,5.7,5.7,11.6c3,5.7-1.5,21.8,1.5,26.1c3,4.4,14.6,14.6,17.4,20.3
		c3,5.7,5.7,21.8,7.2,26.1c1.5,4.3,5.7,14.6,4.4,15.9c-1.5,1.5-7.2,29-8.7,36.3c-1.5,7.2,14.6,20.3,18.9,23.3c4.4,3,3,20.3,5.7,29
		c3,8.7,4.4,11.6,8.7,13.1c4.4,1.5,5.7,11.6,8.7,17.4c3,5.7,0,10.2,3,15.9c3,5.7,7.2,1.5,11.6,1.5c4.4,0,14.6-4.4,18.9-3
		c4.4,1.5,11.6-4.4,15.9-7.2c4.3-2.8,14.6-17.4,17.4-21.8c3-4.4,3-5.7,7.2-10.2c4.4-4.4,3-11.6,3-17.4c0-5.7,10.2-5.7,13.1-10.2
		c3-4.4-4.4-26.1-3-29c1.5-3,23.3-24.6,27.6-27.6c4.3-3,0-20.3,0-27.6s-1.5-5.7-4.4-7.2c-3-1.5-3-8.7-3-17.4c0-8.7-3-8.7-3-14.6
		s4.4-14.6,11.6-24.6c7.2-10.2,21.8-29,27.6-37.7s13.1-27.6,14.6-40.7c1.5-13.1-4.4-8.7-5.7-7.2c-1.5,1.5-36.3,13.1-37.7,8.7
		c-1.5-4.4-4.4-11.6-5.7-14.6c-1.5-3-11.6-7.2-17.4-11.6s-5.7-10.2-5.7-14.6c0-4.4-5.7-3-10.2-7.2s-4.4-8.7-4.4-14.6
		c0-5.9-5.7-7.2-8.7-8.7c-3-1.5-8.7-14.6-11.6-18.9c-3-4.3-4.4-10.2-3-10.2c1.5,0,3-1.5,5.7-1.5s5.7,7.2,8.7,10.2
		c3,3,7.2,8.7,10.2,10.2c3,1.5,4.4,5.7,7.2,13.1s8.7,11.6,11.6,13.1s11.6,15.9,15.9,17.4c4.4,1.5,5.7,23.3,7.2,26.1
		c1.5,2.8,8.7-4.4,11.6-5.7c3-1.5,13.1-5.7,17.4-8.7c4.4-3,7.2-4.4,13.1-7.2c5.9-2.8,3-7.2,7.2-8.7s11.6-7.2,14.6-10.2
		c3-3,5.7-5.7,7.2-10.2c1.5-4.4-1.5-4.4,1.5-7.2c3-3,4.4-8.7,5.7-11.6c1.3-3-18.9-13.1-20.3-15.9c-1.5-2.8-4.4-1.5-5.7,1.5
		s-11.6,7.2-18.9,8.7s-13.1-15.9-15.9-21.8c-2.8-5.9-13.1-7.2-14.6-11.6c-1.5-4.4,7.2-1.5,13.1-1.5c5.9,0,18.9,14.6,23.3,15.9
		c4.4,1.3,10.2,0,15.9-1.5c5.7-1.5,1.5,4.4,5.7,5.7s32,1.5,42.2,0c10.2-1.5,7.2,0,10.2,4.4s13.1,5.7,18.9,5.7c5.7,0-1.5,3-3,5.7
		s3,4.4,7.2,7.2c4.3,2.8,5.7,0,7.2-3s0-5.7,3-7.2c3-1.5,11.6,34.8,15.9,40.7c4.3,5.9,21.8,40.7,26.1,43.6c4.3,3,8.7-8.7,11.6-14.6
		s-3-24.6-3-29s7.2-10.2,8.7-13.1c1.5-3,7.2-5.7,11.6-13.1c4.4-7.2,0-3,3-5.7c3-3,7.2-8.7,8.7-13.1s5.7-1.5,11.6-4.4
		c5.7-3,1.5-1.5,4.4-4.4s3,3,7.2,4.4s4.4,8.7,11.6,13.1c7.2,4.4,4.4,4.4,5.7,7.2c1.3,2.8,3,14.6,7.2,15.9c4.4,1.5,4.4-5.7,8.7-8.7
		c4.4-3,4.4,5.7,5.7,10.2s5.7,8.7,8.7,15.9c3,7.2,1.5,14.6,1.5,18.9s8.7,13.1,14.6,18.9c5.9,5.7,0,4.4,4.4,13.1
		c4.4,8.7,14.6,13.1,20.3,15.9c5.7,2.8,0-4.4-3-8.7c-3-4.4-3-11.6-5.7-17.4c-3-5.7-7.2-4.4-11.6-7.2c-4.4-3-3-4.4-5.9-9.8
		c-3-5.4-4.3-3.3-5.7-7.7c-1.5-4.4,0-5.7,0-10.2s-1.5-7.2,0-11.6c1.5-4.4,1.5,0,4.4,3c3,3,5.7,1.5,10.2,1.5s1.5,7.2,4.4,11.6
		s5.7,1.5,8.7,1.5c3,0,1.5,8.7,3,11.6c1.5,3,11.6-11.6,14.4-15.9c3-4.4,5.7-5.7,5.7-11.6c0-5.7-7.2-15.9-11.6-21.8
		c-4.4-5.7-11.6-11.6-15.9-15.9s-3-3,0-5.7c3-3,1.5-5.7,4.4-10.2c3-4.4,5.7,0,9.7,0s6.2,3,7.7,0c1.5-3,5.7-3,8.7-5.7
		c3-2.8,8.7-3,14.4-7.2c5.7-4.3,13.1-14.6,15.9-18.9c2.8-4.3,0-8.7,0-11.6c0-3,3-4.4,4.4-10.2c1.5-5.7-3-4.4-7.2-4.4
		c-4.3,0-1.5-4.4,0-7.2c1.5-2.8-1.5-7.2-5.7-10.2c-4.4-3-11.6-10.2-13.9-13.1c-2.3-3-2-8.7-2-8.7s3-3,7.2-5.7c4.4-3-4.4-3-8.7-3
		c-4.4,0-1.5,1.5-3,3s-4.4,0-5.7-1.5c-1.5-1.5-5.7,0-11.6-3c-5.9-3,0-5.7,4.4-5.7s3-5.7,3-5.7v-3c0-1.5,3-4.4,7.2-4.4
		c4.3,0,1.5,5.7,3,8.7c1.5,3,11.6-3,15.9-4.4c4.3-1.5,3,7.2,5.7,10.2c3,3,10.2,0,13.1,4.4c0,0,4.4,13.1,5.7,17.4
		c1.5,4.4,10.2-4.4,13.1-7.2c3-2.8-7.2-10.2-10.2-13.1c-3-3-11.6-7.2-14.4-10.2s1.5-4.4,4.4-7.2c3-3-1.5-5.7-3-8.7s4.4-5.7,6.6-8.7
		c2.1-3,7.9,1.5,9.4,0c1.5-1.5,3-10.2,4.4-13.1c1.5-3,0-23.3-4.4-26.1c-4.4-3-5.7-7.2-7.2-11.6c-1.5-4.4-14.4-10.2-18.9-13.1
		s-3,1.5-7.2,4.4s-7.2-3-8.7-5.7c-1.5-3-7.2,3-11.6,1.5c-4.4-1.5,1.5-7.2,3-8.7c1.5-1.5,3-17.4,3-20.3c0-3,26.1-3,27.6-5.7
		c1.5-3,3-1.5,8.7,1.5c5.7,3,8.7,1.5,13.1,0s-3-7.2-2.3-11.6c0.5-4.4,0.8-3,5.3-3c4.4,0,7.2-1.5,11.6,0c4.4,1.5,4.4,4.4,6.9,3
		c2.5-1.5,0.5-3,0.5-3s0,0-1.5,0s0-5.7,5.7-7.2c5.7-1.5,3,3,5.7,7.2c2.8,4.3-1.5,4.4-3,7.2c-1.5,3,1.5,7.2-1.5,10.2
		c-3,3,1.5,7.2,4.4,11.6c3,4.4,30.5,23.3,36.3,27.6c5.7,4.3,0-4.4-1.5-8.7c-1.5-4.4,0-7.2,0-10.2c0,0-11.6-15.9-13.1-20.3
		c-1.5-4.4-4.4,0-8.7-3c-4.4-3-3-5.7-3-8.7c0-3,14.4-5.7,20.3-4.4s7.2-5.7,11.6-10.2c4.4-4.4,7.2-4.4,15.9-5.7
		C1657.9,104.1,1620,99.6,1614.3,98.2z M1158.1,310.3c-3,0-14.6-1.5-17.4-4.4c-2.8-3,3-10.2,1.5-14.6c-1.5-4.4-10.2-8.7-11.6-11.6
		c-1.5-3-1.5-5.7-4.6-7.7c-3.1-2-5.6-3.9-4.1-8.2c1.5-4.4,14.6-11.6,14.6-11.6s4.4,0,8.9-2.1c4.6-2.1-0.2,5.1,2.6,8
		c2.8,3-5.7,3-10.2,7.2c-4.4,4.3,5.7,5.7,8.7,11.6c3,5.9,5.7,3,10.2,0c4.4-3,4.4,4.4,8.7,8.7c4.4,4.4-3,1.5-7.2,4.4s3,1.5,5.7,3
		c2.8,1.5,1.5,8.7,5.7,11.6C1174.2,307.4,1161.1,310.3,1158.1,310.3z"/>
	<path class="st1" d="M634.4,814.9c0,0,3,4.1,5.1,4.4s4.1-0.8,6.4,0.2c2.3,1,3.8,2.5,5.9,1.8c2.1-0.7,1.5-1.1,3.1-0.7
		c1.6,0.5,9,1,11-1.8c2-2.8,3.9-3.9,3.9-4.9s0.8-2.6,2-2.8c1,0,3-3.9,3.8-6.1c0.8-2.1,1.5-1.6,2-3.3s-0.7-2.1,0.8-3.8
		c1.5-1.6,1.3-3.3,2.5-3.8c1-0.7,2-1.1,1.8-3.8c-0.2-2.6,0.7-5.9,1.3-4.3s0.7,3.1,1.8,2.5c1-0.7,2.5-1.8,1.1,0.5
		c-1.3,2.3-4.9,6.1-3.3,6.6s3.6-1.8,4.6-3c1-1.1,3.1-9.2,4.6-10.8s7.9-9.5,8.2-11.2c0.5-1.6,0-7.4-1.1-8.9c-1.1-1.5-1.1-1.5-0.7-3.1
		s0.2-4.8,1.8-5.9c1.5-1.1,13.3-12,15.8-12c2.5-0.2,7.7-1.5,8.7-3.1s-1.1-2.6,1.5-2.8s4.3,1.8,6.4,0.7s1.3-3.8,2.5-2.8
		c1.1,1,2.8,2,4.3,1.8s3.1-0.2,3.6-1.8c0.5-1.6,0.3-3.8,1.8-4.3c1.5-0.5,6.2-0.3,5.6-3c-0.7-2.6-1.3-4.3-0.3-5.3
		c1-1,4.4-4.4,4.3-6.1c-0.2-1.6-0.7-2.1,0.8-3.3c1.5-1.1,3.6-2.3,2.3-5.4c-1.3-3.1-1.8-4.1-0.3-5.7s4.1-1.8,3.4-3.4
		c-0.7-1.6,0.5-7.9,0.5-10c-0.2-2.1,0.2-5.4-0.3-6.6c-0.7-1.1-1.1-1.6-0.7-3.3c0.5-1.6,1.3-3.3,0.2-5.3s-0.7-2.1-0.3-4.3
		c0.3-2.1,1.8-5.4,2.3-4.4s0.7,2.1,1.6,1c1-1.1,5.9-7.7,5.7-8.9c0-1-1.6-1,0.3-3.1c2-2.3,3.4-3.9,4.4-4.4s9.4-11.6,10.2-14.4
		c0.8-2.8,1.5-9,0.3-12.6s-1-7.9-3.3-9.4c-2.3-1.5-5.9-2.8-8.5-2.6c-2.6,0.2-4.1,0.8-5.9-0.7c-1.6-1.5-7.2-6.4-8.4-7.4
		s-6.1-3.3-8.7-4.3c-2.6-0.8-4.3-1.8-6.4-1.1s-4.1,1.8-5.3,1.3c-1.1-0.5-0.7-2.1-2.8-1.5s-2,2.3-4.1,0.8c-2.1-1.5-4.4-3.4-6.4-2.3
		c-2,1.1-4.6,1.8-5.6,3c-1,1.1-4.4,5.1-4.1,1.3c0.3-3.8,2.8-7.1,1.1-8s-2.8-1.5-3.8-0.8s-2.5,0.8-2.8,0c-0.3-0.8-5.4-4.8-9-5.1
		c-3.8-0.3-9.5-0.5-10.5,1.6c-1,2.1-2.3,4.4-3.4,4.9c-1,0.7-8.7,4.8-10.3,3.8c-1.6-1-4.6-6.6-6.1-5.4c-1.5,1.1-3,3.3-4.6,3.4
		c-1.6,0.2-4.8-0.2-2.8-2c2-1.6,7.2-3.6,7.1-4.6c0-1-2.8-3-0.8-3.6c2-0.7,3.1,0.3,3.6-1.8c0.5-2.1,5.4-5.1,5.4-6.7s1-2.1-0.8-3.6
		c-1.8-1.5-5.4-2.3-6.1-4.9c-0.7-2.6-1.1-11-3.4-12c-2.3-1-8.9-6.9-11.6-7.7c-2.8-0.8-8.7-3.1-10.8-3c-2.1,0.2-4.1-0.8-4.4,0.3
		c-0.3,1-1.8,1.6-2.5,0.7s-1-2-2.6-0.8c-1.6,1.1-0.5,1.6-2.1,1.6s-1.6-1-3.3-0.8c-1.6,0.2-2.6,1.1-4.1,0.8c-1.6-0.5-0.2-2.6-1.1-2.6
		s-4.6-4.9-5.6-4.4c-1,0.7-3.1,1.6-3.1,0.2c0-1.5-2-6.7-3.6-7.1c-1.6-0.5-3.8-2.5-5.9-2.8s-0.7-1-3.8-0.8c-3.1,0.2-2.6,1.1-4.6,1.3
		c-2,0.2-4.3-0.3-3.3-0.8c1-0.5,1.5-1.1,2.5-1.8s3.4-3.4,1.3-4.8s-2.3-2.1-3.8-1.6c-1.6,0.5-0.3,2-2.1,0.5c-1.8-1.5-1.3-3.1-2.8-2
		s-2,3.3-2.6,1.1c-0.7-2.1-0.5-0.5-1.1-2c-0.7-1.5,1-2.1-1.8-2.5s-9.5-0.5-9.7,0.7c-0.2,1-0.7,1.6-2.3,2.3c-1.5,0.7-0.3,2.1-2.5,1.8
		s-3.8-2.5-5.4-1.8s-1.6-2.1-3.3-2s-9.4,1.1-9.8,1.8c-0.5,0.5-3.1,0.7-3.8-0.3s-0.8-4.8-3.4-5.6s-9.5,0.7-11,1.1
		c-1.5,0.7-7.2,2.6-7.7,4.1c-0.5,1.5,1.3,4.1,2,5.1s1.8,3.6,0.8,4.8c-1,1.1-3,3.3-3.6,1.8c-0.7-1.5-1.6-1.5-2.3-2.5
		c-0.7-1-2.8-1.5-1.3-3.1c1.5-1.6,3.6-2.3,3-4.4c-0.7-2.1,0.3-2.1-1.3-3.6c-1.6-1.5-3-1.8-1.6-2.5c1.5-0.7,6.1-1.5,5.9-3.6
		c-0.2-2.1,0.8-3.3-1.8-3.1s-4.9-0.2-5.7,1.8c-0.8,2-5.9,6.4-6.9,6.4c-1,0-5.7-0.2-6.2,1c-0.5,1.1,0.2,3.6-1.3,3.3
		c-1.6-0.5-3.8-2.5-6.2,0.3c-2.5,2.8-2.5,3.8-2.3,5.4c0.2,1.6,1.8,2.6,0.3,3.9c-1.5,1.3-2.1,0.3-2.6,0.8c-0.5,0.5-0.3,2.1-1.5,2.8
		c-1,0.7-2.6,0.2-3.1,1.8s0.7,1.5,0.7,3.1c0.2,1.6-0.8,4.3-1.5,2.1c-0.7-2.1-2.5-4.6-3-4.1s0.8,3.4,0.3,4.6c-0.5,1.1-0.8,2.8-2,2.8
		c-1.1,0-2.6,0.7-1.5,2.1c1.1,1.5,2.8,2.5,3.4,3.4c0.7,1,0.7,1.5,0.2,2.1c-0.5,0.5-0.5,0.5,0.2,2.1c0.7,1.5,1.1,1.5,0.7,2.1
		c-0.5,0.5-1.6,0.2-1,1.6c0.7,1.5,2.1,1,1.8,2.5c-0.3,1.5-1,2.1-0.3,2.6c0.7,0.5,1.1,1,0.7,2.1c-0.5,1.1-0.3,2.6,0.2,3.1
		c0.5,0.5,1.1,0.5,0.7,1.5c-0.5,1.1-0.5,0.5-0.5,0.5s-2.8,5.9-3.8,7.1c-1,1.1-1.6,0.2-3.1,1.3c-1.5,1.1-2,2.8-2.5,3.8
		s-3.1,1.8-2.5,2.8c0.7,1,2.6,0.8,1.1,2c-1.5,1.1-6.7,2.5-7.2,3.6c-0.5,1.1,0.7,1.6,0.2,3.4c-0.3,1.8-3.9,4.1-3.4,4.6s0.7,1,0.2,2.1
		c-0.5,1.1-2.1,0.7-2,2.3c0.2,1.6-0.2,6.9,1,8.4c1.1,1.5,1.8,3.6,3.3,2.5c1.5-1.1,3-3.9,3.6-2.3c0.7,1.5,0.8,3.6-0.2,5.3
		c-1,1.6-6.4,3.3-6.7,4.3s-0.8,2.6-1.8,3.6c-1,1-2,2.8-0.8,4.3c1.1,1.5,1.1,1,1.1,2s3.3,1.3,2.3,3c-1,1.6-3.6,1.8-2,3.3
		c1.6,1.5,8,3.1,9.2,4.8s9.4,15.3,10.5,16.7c1.1,1.5,7.2,13.3,8.4,14.8c1.1,1.5,10.8,13,9.4,14.1c-1.5,1.1-2,3.3,0.3,4.8
		c2.1,1.5,4.6,6.1,7.2,6.9c2.6,0.8,8.7,3.1,9.7,4.1c1,1,2.1-0.2,3.3,1.3s6.4,0.7,6.9,1.6c0.5,1,2.3,4.1,3.9,3.9s3.1-0.2,3.3,0.8
		c0.2,1,1.3,3.1,2.3,3c1-0.2,4.9,2.8,4.9,2.8l4.4,3c0,0,12.8,28.7,12.5,30.4s-0.5,1.1-0.5,1.1l22.5,13.5l42.2,49.6L634.4,814.9z"/>
	<path class="st2" d="M684.6,580.7c-2.6,0.2-1.6-2-4.9-1.8c-3.3,0.2-7.5,4.8-6.4,6.2c1.1,1.5,2.5,5.6,4.1,6.1s8.4-1.6,9.4-3.3
		s5.7-9.4,2.6-8C686.2,581.2,684.6,580.7,684.6,580.7z"/>
	<path class="st3" d="M562.4,762.4C562.2,762.5,562.2,762.4,562.4,762.4L562.4,762.4z"/>
	<path class="st1" d="M664.6,766c-1,1.6-13.6,9.8-15.6,12c-2,2.1-10.3,11.2-10.7,13.9c-0.3,2.8-1.3,4.3-1.6,6.9
		c-0.3,2.6-0.3,3.8-0.2,5.7c0.2,2.1-0.3,4.3-0.8,4.8c-0.5,0.5,0.2,2.6-0.3,4.3s-0.8,2.6-0.2,4.8s1.6,2,3.3,2.5
		c1.6,0.5,5.9,1.8,5.6,4.9c-0.3,3.1-1.3,5.4,0.8,5.7s3.6-1.3,3.3,2c-0.3,3.3-1.8,5.9-3.3,7.5c-1.5,1.6,0.2,1.6-3,3.3
		c-3.1,1.6-7.5,4.8-13.9,5.6c-6.4,0.8-13.6,2-14.6,1.5c-1-0.5-1.1-2.6-2.1-1s-0.3,3.8,0.3,4.3c0.7,0.5,1.6,0.5,0.7,2.1
		c-1,1.6-2.5,3.3-1.8,4.3s2.8,2,1.8,3.1c-1,1.1-6.6,4.6-9.2,3.8c-2.6-0.8-6.6-2.8-8.5-2.1c-2.1,0.7-2.8,2.1-2,3
		c0.7,0.8,1.3,1.8,1.5,3.4s0.2,2.1,1.1,2.6c1,0.5,2.6-0.7,1.6,1s-3.1,1.8-2,2.8c1.1,1,5.4,2.8,3.3,3c-2.1,0.2-5.6,2.5-5.6,4.1
		c0.2,1.6,0.8,4.8,0.3,5.3c-0.5,0.5-2.5,1.8-2.5,2.8s-6.9,0.5-10.2,5.6c-3.3,5.1-0.7,6.6,1,7.5s2.3,2,3.8,1.8
		c1.5-0.2,4.6-1.3,5.3,0.7s0.3,5.7-0.7,6.9c-1,1.1-8.2,3.6-9.2,5.3s-1.6,6.4-2.6,7.5s-1.5,1.1-2.6,1.1c-1,0-0.7-1.5-2.1-1.5
		c-1.5,0-1.5,1.1-1,2.1c0.7,1,1.5,0.8-0.2,1.5c-1.8,0.7-3.3,3-2.6,3.9c0.7,1,0.7,2.1,1.3,3.6s-1,1.1,0.7,2.6s6.1,3.8,2.3,3.6
		c-3.8-0.2-6.9-0.2-6.9-0.2c0.2,0,0.2-0.2,0.3-0.3c2-1.6-0.7-2.1-6.4-1.6c-5.7,0.3-10-0.5-10-0.5c-3.8-1.3-2.3-3-3-6.1
		c-0.7-3.1-3.8-1.3-5.9-0.7c-2.1,0.7-3-5.1-3.1-7.7c-0.2-2.6,3.4-2.8,6.1-4.6c2.6-1.8,2.3-5.4,1.6-6.9c-0.7-1.5,0-1,0.8-2.6
		c0.8-1.6,1-2.8,1.3-5.4c0.3-2.6,0.3-3.1,1.1-5.9c0.8-2.8-0.7-1.5,1.3-3.3c2-1.8,0.3-2.6-2.3-3c-2.6-0.3,0.3-2.1,3.6-2.3
		c3.3-0.2-1.1-2-4.4-3.9s0,0,0.3-3.8c0.3-3.8-0.7-2.1-2.3-3.6s-0.2-2.6,1.1-5.4c1.3-2.8,0.5-3.1-0.3-6.7c-0.8-3.6,0.7-6.9,1-10
		c0.3-3.1,1.8-5.4,4.3-7.7c2.5-2.3,0.3-4.3-1-7.4c-1.3-3.1-2.3-3.9-0.5-6.7c1.8-2.8,4.4-5.1,3.8-7.1s-0.8-4.1,1.1-7.4s2.1-8.5,0.5-9
		c-1.6-0.5-0.2-3.6-0.8-5.7c-0.7-2.1-3.4-5.1-3.3-7.5c0.2-2.5,2-4.4,3-6.6c1-2.1,0.8-2.6-0.3-6.2c-1.3-3.6,0,0,1-1.6s0,0-0.2-2.6
		c-0.2-2.6,3-3.9,4.4-5.6c1.5-1.6,1.3-4.8,3.8-7.1c2.5-2.3,1-0.7,0.3-2.6s-1.1-0.5-0.7-2.1s1-1.1,0.3-4.3c-0.3-1.1-0.5-1.6-0.7-1.8
		c0,0,0.3,0,0.5-0.3c1-1.1,1-2.1-0.8-3.6c-1.6-1.5,6.1-5.1,8-6.2c2-1.1,1.8-5.4,1.1-7.4c-0.2-0.5-0.3-0.7-0.5-0.8
		c0.2-1.1,0.5-2.3,1.1-2.6c1-0.7,2.5-1.8,3.4-2.8c1-1,2-3.3,3-2.3s3.8,0.8,5.4,1.3c1.6,0.5,2-1.1,3.8,1.3c1.8,2.5,3,4.6,3.8,1.8
		c0.8-2.8-1.3-3.1,2-3.3c3.3-0.2,7.2-1.5,7.9,0c0.7,1.5,3.1,0.3,3.8,2.5c0.7,2.1,0.2,3.1,2.3,4.1c2.1,1,4.8,0.8,5.4,2.8
		c0.7,2.1,6.9,0.2,8.5,1.6c1.6,1.5,6.6,3.8,9.4,5.3c2.8,1.5,2.8,1.5,4.3,1.8c1.5,0.3,2.6-0.2,1.6,2c-1,2.1-3.4,4.4-3.3,6.1
		c0.2,1.6-0.3,2.6-1.3,4.3c-1,1.6-2.5,2.8,1.1,2.6c3.6-0.2,7.1-0.2,8.9,0.3c1.8,0.5,3.4,1.5,4.4,0.3c1-1.1,1.8-1.5,2.8-0.8
		s2,0,3-1.6c1-1.6,4.6-2.5,4.9-4.6c0.3-2.1-0.5-7.9,1.1-7.4c1.6,0.5,1.5-1.1,2.6-0.2c0,0,2.6,0.3,2.8,2
		C663.6,759.7,665.6,764.3,664.6,766z"/>
	<path class="st1" d="M597.3,962.7c-4.1,1.8-5.7-0.2-6.9,0.5s-3.1,0.8-3.9,0.8c-0.8,0-1.6-1.3-2.1,0.2c-0.7,1.5-3.3,2.8-4.3,1.8
		s-0.2-1.6-0.7-2.6c-0.7-1-2.3-1.6-4.6-1.3l-1.3-13c0,0,3,0.3,3,1.8s-0.5,1.1,2.3,3c2.8,2,12.6,7.1,14.1,7.1
		C594.5,960.9,601.4,960.9,597.3,962.7z"/>
	<path class="st1" d="M570.1,752.2c-2,1.1-9.7,4.8-8,6.2c1.6,1.5,1.8,2.5,0.8,3.6c-0.2,0.3-0.3,0.3-0.5,0.3c-0.2-0.2-0.2,0,0,0
		c0.2,0.2,0.3,0.5,0.7,1.8c0.7,3.1,0.2,2.6-0.3,4.3s0,0,0.7,2.1c0.7,2.1,2.1,0.3-0.3,2.6c-2.5,2.3-2.3,5.4-3.8,7.1s-4.6,3-4.4,5.6
		c0.2,2.6,1.1,1,0.2,2.6s-2.3-2-1,1.6c1.3,3.6,1.3,4.1,0.3,6.2c-1,2.1-2.8,4.1-3,6.6c-0.2,2.5,2.6,5.4,3.3,7.5
		c0.7,2.1-0.7,5.3,0.8,5.7c1.5,0.5,1.5,5.7-0.5,9s-1.8,5.4-1.1,7.4s-1.8,4.3-3.8,7.1c-2,2.8-0.8,3.4,0.5,6.7c1.3,3.3,3.4,5.3,1,7.4
		c-2.5,2.1-3.9,4.4-4.3,7.7c-0.3,3.3-1.6,6.4-1,10c0.8,3.6,1.6,3.8,0.3,6.7c-1.3,3-2.8,3.9-1.1,5.4c1.6,1.5,2.6-0.2,2.3,3.6
		c-0.3,3.8-3.6,1.8-0.3,3.8s7.5,3.8,4.4,3.9c-3.1,0.2-6.2,2-3.6,2.3s4.3,1.3,2.3,3s-0.5,0.5-1.3,3.3c-0.8,2.6-0.8,3.3-1.1,5.9
		c-0.3,2.6-0.5,3.8-1.3,5.4c-0.8,1.6-1.3,1.1-0.8,2.6c0.5,1.5,0.8,5.3-1.6,6.9c-2.5,1.6-6.2,2-6.1,4.6c0.2,2.6,1,8.4,3.1,7.7
		c2.1-0.7,5.1-2.5,5.9,0.7c0.8,3.1-0.8,4.8,3,6.1c0,0,4.3,0.8,10,0.5c5.7-0.3,8.4,0,6.4,1.6c-0.2,0-0.2,0.2-0.3,0.3l0,0
		c-2.1,1.5-6.4,2.3-7.4,3.4c-1,1.1,0.8,5.3-1.1,6.4c-2,1.1-6.7,2-5.7-0.2c1-2.1,4.6-3,3.9-3.9c-0.7-1,0.5-1.6-1.6-1
		s-7.1,5.3-8.7,3.8s1.6-6.4,0.2-4.8c-1.5,1.6-3,4.4-4.4,3.9c-1.6-0.5-2.6-0.8-1.6-1.6c1-0.8,4.4-4.8,2-3.6c-2.5,1.1-5.6,3-6.2,1.5
		c-0.7-1.5,6.6-3.6,4.4-3.9s-2.6-0.3-4.3,0.3c-1.5,0.7-3.6,2.3-4.6,1.8c-1.1-0.5-4.4-3.4-2.8-3.4s2-1.1,3.6-0.8
		c1.6,0.5,2.6,0.3,3.1-0.7c0.5-1,2-2.3-0.2-2.1c-2.1,0.2-6.9-1.6-5.9-2.8c1-1.1,1.5-2.8,2.5-2.3c1.1,0.5,3.8,0.8,3.1-0.2
		c-0.7-1-3.3-2-2.3-2.5c1-0.7,2.1-0.7,2-1.6c0-1-0.7-1,0.5-1.6s3.1-1.3,1.5-2.1c-1.6-0.8,0.3-3.1-1.1-2c-1.5,1.1-2.1,0.7-2.5,2.8
		c-0.3,2.1-1.3,3.3-2,3.3c-0.5,0-1.6-1-2.6-0.3c-1,0.7-1.5,1.6-2.1,0.7c-0.7-1-2.3-3-0.8-3.6s4.1-2.3,4.1-3c0-0.5,0.3-2.1,1.5-1.6
		c1.1,0.5,1.1,1,2.1,0.3c1-0.7,2-1.6,1.5-2.1c-0.5-0.5-1.6-1.5-0.7-2.1c1-0.7,1.6-0.2,2.6-0.2s3.1-0.7,2.6-1.1
		c-0.5-0.5-0.2-2.1-1.6-2c-1.6,0.2-2,1.1-2.5,1.8c-0.5,0.7-3.6,1.8-4.3,0.3s-2.3-3.6-0.7-3.1c1.6,0.5,3.8,1.3,3.1-0.2
		c-0.7-1.5-1.1-2.6-0.7-3.1c0.5-0.5-1,0-2.1-1c-1.1-1-5.7-0.2-5.4-2.3c0.3-2.1,3-3.9,3.4-4.4c0.5-0.5,3.1-0.2,3.6-0.8
		c0.5-0.7,1-2.1,0.8-3.3c-0.2-1.1-0.7-1.5-1.8-3.1c-1.1-1.5-2.3-3.6-0.8-3.6s3-2.3,4.1-1.8c1.1,0.5,0.7,2.6,0.8,4.1
		c0.2,1.6,0.8,3.6,0.3,4.8c-0.5,1.1-3.9,3.9-2.8,5.4c1.1,1.5,2.1,1.5,2.8,2c0.7,0.5,2.1,0.3,2-1.6c-0.2-2.1-1.3-3.6-0.3-4.8
		c1-1.1,3.1-0.7,2.5-1.8s-1.6-2-0.7-2.6c1-0.7,6.2-2.5,3.4-3.9s-3.9-3-3.4-3.4c0.5-0.5-0.2-3.6,0.7-5.3c0.8-1.6-1.1-2.6,0.8-4.3
		c2-1.6,3.6-1.3,2-3.3s-0.8-4.1-2.3-3c-1.5,1.1-3,3.3-5.7-0.2c-2.8-3.4-3.4-4.6-2.5-5.6c1-1,1.8-3.8,1.8-4.3c0-0.5-0.2-1.6,1-2.1
		c1-0.7,3.4-2.8,1.8-4.9c-1.6-2.1-3.3-2-3-4.1c0.3-2.1,2.5-3.3,0.8-4.3s-2.3-2-0.8-3.6s2.6-1.1,2.5-3.8c-0.2-2.6,1.8-4.9,2.3-5.9
		s0.3-2.1,0.3-2.6c0-0.5,3-2.3,3.4-4.9c0.5-2.6-0.3-4.8,0.7-5.9c1-1.1,2.5-2.8,2-3.3c-0.5-0.5-1,0-0.7-1.5c0.3-1.5,1-1.6,0.8-3.3
		c-0.2-1.6-0.2-2.1,0.3-2.6c0.5-0.5-1.3-4.1-1.5-6.2c-0.2-2.1-1.3-4.1-1-6.2c0.3-2.1,4.1-2.3,2.8-4.9s-2.3-3.6-2-5.7
		c0.3-2.1,2.8-4.9,3.3-7.5c0.3-2.6,0.7-14.8,1.1-15.9c0.5-1.1,2.5-1.8,1.3-3.8s-2.3-3.6-2-5.7c0.3-2.1,2-2.3,0.8-4.8
		c-1.1-2.5-1.8-3.1-0.8-4.8s3.4-4.9,2.6-8c-0.7-3.1,0.2-14.8-1-15.3c-1.1-0.5-2.5-6.2-2.5-6.2s-1.3-3.1,1.3-3.3
		c2.6-0.2,2.6-1.1,3-2.8c0.3-1.6,3.1-0.7,4.3,1.8c1.1,2.5,0.5,6.9,2.6,7.7c2.1,1,3.4,3.4,2.5,5.1c-1,1.6-0.2,1.6,0.7,4.3
		c0.8,2.5,3.3,7.1,3.8,9.2c0.7,2.1,0.3,4.8,2.5,5.6c1.6,0.7,3-0.5,3.8,0c0.2,0.2,0.3,0.3,0.5,0.8
		C571.9,746.8,572.2,750.9,570.1,752.2z"/>
	<path class="st3" d="M562.4,762.4C562.2,762.5,562.2,762.4,562.4,762.4L562.4,762.4z"/>
	<path class="st1" d="M577.3,968.8c-3.8-0.5-5.4-2-5.9-2s-0.5,1.6-2,1.1c-1.5-0.5-4.8-0.8-3.8-1.8c1-1.1,5.1-3,3-2.8
		c-2.1,0.2-5.3-0.2-6.2,0.3c-1,0.5-7.4,0.5-7.9,0c-0.5-0.5-1.6-2-0.2-1.8c1.5,0.2,8.5,1.8,7.4-0.2c-1.1-2-2.8-1.5-2.3-3
		c0.5-1.6,0.8-3.3,1.5-1.6s2.8,3.4,4.4,3.9s7.9-0.5,4.8-0.8s-4.3,0.3-5.4-1.3c-1.1-1.5-1.8-2.5-0.2-2.6s6.1-3,4.1-3
		c-2.1,0.2-5.1,2-5.7,1.5c-0.7-0.5-3.8-1.8-1.8-3.1c2-1.1,5.7-0.8,6.2-2s1.5-1.1,2.6-1.1s3.8,0.3,3.8,0.3v0.3l1.3,13l0.2,1.3
		c0,0,1.6,1.5,2.3,2.5C578.1,967,581.1,969.3,577.3,968.8z"/>
	<path class="st4" d="M302,253.7c0,0.7,0.8,2.6-1.6,4.8c-2.6,2.1-8.2,7.2-5.6,6.4s10.3-5.3,8.5-2.5c-1.8,2.8-6.7,7.7-4.4,7.5
		s6.9-1,3.1,1.1s-7.5,7.2-3.6,7.5s7.2-1.8,7.4,0.8s0.3,4.6,2.3,5.9c2,1.3,1.3,0,2.1,2.5c0.8,2.6,3.6,4.4,3.6,4.4l142.3-3l11.5-2.8
		c0,0,11.8-6.6,12.3-6.7c0.3-0.2,5.1,1,5.7,0.8c0.7,0,1.5,2.6,1.5,3.3s3.3-0.2,3.4,1.8c0.2,2,0.5,7.4,2.6,8.5s14.1,0.5,14.9,2.5
		s3.6,5.3,0.5,7.1c-3.1,1.8-3.4-0.8-4.8-0.8s-2,0.8-3.8,3.6s-3,4.9-4.3,6.9c-1.3,2-4.9,6.4-5.6,7.1c-0.7,0.7,1.6,2,4.4-0.3
		s3.4-3.6,5.4-3.6c2-0.2,3.4,0.5,5.3-1c2-1.5,2.5-2.8,2.5-3.4s4.4-4.3,6.4-4.4c2-0.2,13.1-2.3,13.1-2.3l28.1-3.6l16.9-4.1
		c0,0,7.2-1.1,10.5-2.6s5.7-5.1,5.7-3.1c0.2,2-1.1,3.4-0.5,3.3s3.3,0.2,0.7,0.8s-5.4,0.2-7.2,2.3c-1.8,2.1-6.4,5.1-4.9,7.1
		c1.5,2,2.1,1.8,5.3-0.3c3.3-2.1,3.1-4.3,7.1-5.1c3.9-0.8,15.8-4.3,13.6-6.2c-2.1-2-5.4-0.3-8.2-1.5c-2.8-1.1-3.4-1.8-4.9-3.1
		s-3-4.4-1.6-5.9c1.3-1.5,4.4-3,1.1-3.4c-3.3-0.5-8.7-1.5-6.7-1.6s5.4,0.3,8.5-1.1s6.2-6.4,1.6-6.1c-4.6,0.3-15.1,3.9-18,5.7
		c-3,1.6-11.8,8.2-12.5,9c-0.7,0.7-5.9,2.5-2.1-1.1s12.1-10.2,14.6-11.6c2.5-1.5,5.3-1,6.6-2.5c1.3-1.5,2.3-5.6,4.9-5.7
		c2.6-0.2,30-1.1,32-2c2-0.8,6.2-6.4,8.4-6.6s11.2-2.6,13.1-4.1c2-1.5,3.8-3,2.5-3.4c-1.3-0.7,0.5-3.4,1.1-4.1s3.9-1.6,1.1-2.8
		s-2.6-0.5-4.8-0.3c-2.1,0.2-2,0.8-1.3-0.7c0.7-1.5,3.8-3.6,0.5-2.6c-3.3,1-14.3,6.9-14.4,5.6s2.3-4.8,5.6-5.7c3.3-1,10-1.3,9.2-2
		c-0.8-0.7-4.9-3.1-7.5-3.6c-2.6-0.5-5.4-0.3-4.1-1.8c1.3-1.5,2.6-1.5-0.2-2.6c-2.8-1.1-6.2-4.3-4.3-4.4c2-0.2,5.3-1,3.9-2.3
		c-1.3-1.3-4.1-1.8-2.1-2.6c2-0.8,4.6-1,1.8-2.8c-2.8-1.8-4.9-3.1-3.6-3.1c1.3,0,3.9-1,1.1-2.1s-1.3,0.2-1.5-3.3
		c-0.2-3.3-1.1-7.2-4.3-3.1c-3.1,4.3-7.2,12.5-8,10.5c-0.8-2-1-3.9-2.1-2.6c-1.1,1.3-5.7,5.7-6.4,5.1s-5.9,1.6-4.6,0.3
		c1.3-1.3,4.4-4.3,2.5-4.8c-2-0.5-5.9,1-4.1-1.1c1.8-2.1,0.5-3.4,1.6-4.8c1.1-1.3,5.1-4.9,3-6.2s-5.9,1.6-6.7-1
		c-0.8-2.6-2.5-7.2-5.1-7.1s-4.6,2.3-7.2,1.8c-2.6-0.5-8.2-2.1-10.2-1.3s-3.8,3.6-3.6,5.6c0.2,2-1.1,2.8-1.8,3.4
		c-0.7,0.7,0.8,3.3-0.3,5.4c-1.1,2.1-10.3,6.7-9.5,8.5c0.8,2,5.6,4.3,3.3,9.2c-2.5,4.8-7.4,9.8-12,12.1c-4.6,2.3-9.2,2-9.8,3.9
		c-0.7,2-1.1,13.8-3,15.8c-2,2-2.5,4.8-3.8,4.8c-1.3,0-0.8-3.3-2.8-1.1s-3.8,3.6-4.6,2.3c-0.8-1.3,1.3-4.6-1.1-5.1
		c-2.5-0.7-3.1-0.7-2.6-3.3s3-6.2,2.8-8.2c-0.2-2-0.3-3.9,1-4.8c1.3-0.8,1.8-3.4-0.2-3.3c-2,0.2-8.5,2.6-10.7,0.7
		c-2.1-2-0.8-3.3-3.6-3.1c-2.6,0.2-5.6-3.6-6.2-4.3c-0.7-0.7-5.6-3-8.9-2.1s-9.8,2.6-8.7,0.5s1.6-5.4,2.3-6.9c0.7-1.5,3-5.6-0.3-3.9
		c-3.3,1.5-6.6,1.8-5.4-0.3s5.6-7.7,8.7-9.8c3.1-2.1,17.9-13.8,19.2-13.9s10.7-0.7,7.9-2.5s-13-3.9-7.5-3.6
		c5.4,0.3,10.8,1.3,12.1,0.7c1.3-0.8,1.1-1,2.8-1.6s4.4,0.5,7.1-1s11.5-7.4,8.2-7.2c-3.3,0.2-11.3-0.7-10.2-2c1.3-1.5,6.1-1,8.4-0.5
		s3.8,1.1,6.2-0.3c2.6-1.5,0.3-4.1,2.5-4.1c2-0.2,6.6-1.1,7.4,0.2c0.8,1.3,4.1,2.5,4.1,0.3s-3.6-4.4-1.6-3.9c2,0.5,3,3.8,6.7,1.6
		s9.8-3.3,9.7-4.6c0-1.3-1.8-6.6,0.3-6.1c2,0.5,5.3-1.6,5.3-2.3c0-0.7,0.5-2.6-3-3.8c-3.4-1.1-8.2-2.1-10-0.7c-2,1.5,1,3.9-1,4.8
		c-2,0.8-5.1,4.3-7.1,5.1c-2,0.8-8.9,7.9-9.7,5.9c-0.8-2-2.3-4.6-0.3-5.9c2-1.5,4.4-4.3,2.5-4.8c-2-0.5-4.6,1-5.9,2.3
		c-1.3,1.5-3.8,4.9-3.1,2.1c0.5-2.6,2.5-4.1-0.3-5.3c-2.8-1.1-6.1-1.5-2.8-3.1s5.1-3.8,4.3-5.1c-0.8-1.3,1.8-2.1,0.5-3.4
		c-1.3-1.3-7.7-0.8-8.9,0.5c-1.1,1.5-3.9-0.5-5.7,2.3s-0.5,2-1.8,3.4c-1.3,1.5-3.1,3.6-0.3,4.1s7.4-0.5,5.4,1.6
		c-1.8,2.1-1.3,1.5-3.8,3.6c-2.6,2.1-9.7,4.6-10.3,5.9s-3,6.2-3.8,4.3s0.5-3.4-0.3-5.3c-0.8-2-0.8-3.3-2.8-2.5s-5.3,1.6-3.1,2.1
		c2,0.5,4.1,1.8,2.8,2.5c-1.3,0.8-1.3,0.2-4.8-0.3c-3.4-0.5-15.9,1-17.4,0.3c-1.3-0.7-5.4-1-7.4-1.5c-2-0.5-8.7-0.2-10.7,1.3
		c-2,1.5-3.1,3-4.4,4.9c-1.1,2.1-3.6,6.2-4.4,3.6s0.3-5.4-2.3-5.9c-2.6-0.5-11.2,2-15.3,1.6s-9.4-0.8-4.8-2.3
		c4.6-1.6,8.4-4.6,1.8-4.1c-6.7,0.3-12.1-0.7-16.2-2.3c-4.1-1.8-8.7-0.2-11.3,0.7s-10.5,2.6-11.3,1.3s2.1-7.5-3-4.4s-3.8,3-6.6,3.1
		c-2.6,0.2-6.6,1.1-7.9,1.8c-1.3,0.8-6.6,1.1-4.1-0.3c2.6-1.5,0.5-2.6-3.4-0.5c-3.9,2.3-5.3,2.3-7.9,3.1s-1.8,4.1-5.1,3.6
		c-3.4-0.5-4.8-0.3-9.5-1.5s-2.1-2.6-6.2-3s-7.2-1-7.2-1l-17.4,13.1l-36.8,23l-6.6,13.8l2.5,6.6l4.1,1.8l3,3.8l4.1,2.5l5.1,7.1
		L302,253.7z"/>
	<path class="st4" d="M457,138.2c-1.8,0-2.5-0.5-4.6-0.8c-0.7-0.2-10.5-1.8-13.3,2.1c-0.7,0.8-0.7,1.8-1.8,2.8
		c-1.3,1.1-2.8,1.5-3.3,1.5c-5.4,1.1-13.6,6.4-13.3,7.9c0,0.2,0.2,0.3,0.3,0.3c2.8,1.1,0.3,5.3,3,4.4s7.7-4.6,9.8-3.9
		c2,0.5,2.6-0.2,3.9-1.6c1.3-1.5,9.8-5.3,12.5-5.1c2.6,0.2,9.2-2.3,12.5-3.1c2.3-0.7,5.4-2.3,5.3-3.4c-0.2-1.1-3-1.8-4.9-2
		C460.5,137.2,459.8,138.2,457,138.2z"/>
	<path class="st4" d="M470.2,141.6c0,0-16.4,5.1-21,7.4c-2.5,1.3-3.9,2.3-3.8,3.1c0.2,0.8,2.6,0.8,4.1,0.8c4.3,0,7.2-1,7.2-1
		c0,0.2-3,1.3-7.9,2.5c-4.6,1-7.9,1.3-7.9,1.8c0,0.3,1.3,0.5,2,0.7c4.8,0.3,17.9-1.8,19.4-0.5c1.5,1.3,3.4,1.8-1.1,2.1
		c-4.6,0.3-22,0.7-21.8,2.6c0.2,2,0.2,2.6,4.3,3.1c4.1,0.5,9.2-2,7.4,0.2s-4.4,4.3-1.8,4.1c2.6-0.2,25.8-5.6,28.4-6.4
		c2.6-0.8,3.4,0.5,6.1,1s12-0.8,13.3-1.5c1.3-0.8,2-1.8-0.2-1.8c-2.1,0-4.1-1.3-1.5-1.5c2.6-0.2,5.3-0.3,7.4-0.5s4.6-1,1.1-2.1
		c-3.4-1.1-7.9-1.5-7.4-3c0.5-1.3,6.6-8.5,5.6-10c-1-1.5-4.8-3.9-6.6-2.6c-1.8,1.5-3.1,7.5-6.2,8.7c-3.1,1.1-3.1,0.5-2.5-1.5
		c0.7-2,1.5-6.2-2.6-3.6c-4.1,2.6-9.4,3.6-7.5,2.1c1.8-1.5,2.3-5.6-0.8-3.3c-2.6,1.8-7.2,3.8-7.5,3.3c0-0.2,0.2-0.3,0.5-0.8
		c2-2.3,3.1-3.3,3-3.6C471.3,141.5,471.1,141.3,470.2,141.6z"/>
	<path class="st4" d="M547.9,177.6c-3.1,4.1-5.9,6.7-8.2,8.5c-1.5,1.1-4.3,3.3-3.9,3.6c0,0.2,0.3,0.2,0.8-0.2c2.6-0.8,5.3-2.3,4.6-1
		c-0.7,1.3-2.5,2.8,0.2,2.6c2.6-0.2,8.2-7.2,11-6.1c2.8,1.1,3,3.8,6.9,3.6c3.9-0.2,7.9-2.5,4.4-3s-4.8-1-4.1-1.8
		c0.7-0.8,2.5-2.1-0.2-2.6c-4.8-0.8-6.7-0.3-8.2-1.5c-1.3-1.1-1.1-3.1-2.1-3.1C548.7,176.8,548.3,177.3,547.9,177.6z"/>
	<path class="st4" d="M601.6,170.2c-1,0.2-2.8,0.7-3.3,1.6c-0.2,0.3-0.2,0.7,0.2,1.1c0.8,2,0.8,2.6-1.1,2.8c-2,0.2-10,1.3-11.3,1.3
		c-1.3,0-2.3-1.8-4.1,0.3c-1.8,2.1-3.8,1.6-4.4,3c-0.7,1.3-1.1,2.1,1.5,2.6s9.8-2.6,11.8-2.8c2-0.2,5.9-1,6.1,1c0.2,2,1.5,3.3,3,3.8
		c1.3,0.7,4.1,0.3,2.1,1.1c-2,0.8-3.9,1-1.1,2.1s6.2,3.6,9,4.1s4.6-1,6.1,0.3s5.4,1,2.5-2.1c-3-3.1-8.5-8.2-4.4-7.1
		c4.1,1.1,9.7,4.8,11.6,4.6s1.8-2.8,3.1-3.6c1.3-0.8,2.8,1.1,1.8-2.1s-4.4-5.7-5.3-7.7c-0.8-2-3.6-3.1-3-3.8s0.7-0.7,2-0.2
		c1.3,0.7,0.7-0.7,2-1.5c1.3-0.8,1.5-3.6,3.4-1.6c2,2,9.8-1.1,9.2,0.2c-0.7,1.3-5.3,3-4.4,4.3c0.8,1.3,3.8,5.7,5.6,3
		c1.8-2.8,1.6-4.1,2.6-4.3c1.1,0,2.5-0.2,3.6-1.5c1.1-1.3,0.7-0.7,2.6-1.5c2-0.8,5.1-4.9,1.8-4.1s-5.9,1-5.3,0.3
		c0.7-0.7-0.2-2-1.5-2c-1.3,0-3.3,0.2-2-0.5c1.3-0.7,1.8-2.1-0.2-2s-14.4-5.1-13-5.3c1.5-0.2,4.8,0.3,5.3-1c0.7-1.3,1.3-0.8,2.6-0.8
		c1.3,0,2.5-2.1-0.8-2c-3.3,0.2-2-0.5-0.2-1.3c1.8-0.8,5.7-3.1,1.8-2.1c-3.9,1-6.6,1.8-4.6,0.3c2-1.5,6.4-3.8-0.2-2.6
		c-6.6,1.1-2.8,0.7-4.4,0.2c-1.6-0.5-0.8,2.1-2.8,1.6c-2-0.5-4.6-0.7-1.3-2.1c3.3-1.5,7.1-2.3,4.4-2.8s-5.9,0.3-7.2,1.1
		c-1.3,0.8-0.8-0.5-2.5-0.8s-1.8,0.5-3.4,0.2c-1.6-0.3-4.3-0.8-1.6-1.6c2.6-0.8,5.3-1.6,4.6-2.3s-0.8-2-2.8-1.8
		c-2,0.2-2.6-0.5-1.5-1.3c1.3-0.8,2.5-3.4-1-3.9c-3.3-0.5-11.3,0.7-12,1.5c-0.7,0.7-1.8,2.1,0.8,2.6s8.7-0.5,6.1,1
		c-2.6,1.5-3.8,3.6-5.1,3c-1.3-0.7-0.8-2.6-2.8-1.1c-2,1.5-8.4,5.3-6.6,2.5c1.8-2.8,5.7-3.8,5.1-4.9c-0.8-1.3,1.1-4.1-3.6-3.8
		c-4.6,0.3-5.1,1.6-6.7,2.1s-5.1,0.7-3.6,1.3c1.3,0.7,2.8,0.5,0.8,1.3c-2,0.8-3.3-0.5-5.3,1c-2,1.5-1.3,1.5,0.2,2s1.5,1.3,0,1.3
		s-5.3,1-4.6,1.6c0.7,0.7,2.8,0.5,1.5,2c-1.3,1.5-4.4,4.3-3.9,2.3s1.8-3.4,0.2-3s-3,0.5-1.1-2.3c1.8-2.8,4.4-4.9,6.9-6.4
		c2.6-1.5,6.6-2.5,3.6-2.3c-3,0.2-6.4-0.3-11.8,2.3s-17.1,10.2-14.4,10.7s8.7,0.8,7.4,1.5c-1.3,0.7-8.4,0.2-8,1.6s2.3,2.6,4.4,2.6
		c2-0.2,11.5,0.7,13.5,0.5c2-0.2,12.6-1.5,14.6-1c2,0.5,7.4,0.2,5.9-1c-1.5-1.3-2.1-2.6-0.2-2c3.8,1,10.7,6.9,11.2,7.4
		c3.6,3.1,4.6,3.9,5.1,5.7c0.2,0.7,0.8,2.8-0.3,4.8C608.3,168.7,602.7,169.9,601.6,170.2z"/>
	<path class="st4" d="M613.4,166.8c-0.2,0.2-0.7,0.7-1.3,1.5c0,0.2-2,2.8-1.5,3.3c0,0.2,0.2,0.2,0.3,0.2c1.3-0.2,2-0.8,3.3-0.8
		c1.3,0,7.2-1.1,5.3-2.3c-3-1.8-3-3.3-4.1-3.1C614.9,165.4,614.4,165.8,613.4,166.8z"/>
	<path class="st4" d="M600.9,160.2c0,0-4.8-0.3-6.6,1.1c-2,1.5-5.9,3.1-3.1,4.3c2.8,1.1,7.2-1.1,8.5-2.6c1.3-1.5,3.8-3,2.5-2.8
		S600.9,160.2,600.9,160.2z"/>
	<path class="st4" d="M514,158.9c-0.7,0.5-1.5,1-2.6,1.5c-2,0.8-3.9,0.8-3.9,1.1c0,0.2,0.2,0.2,0.7,0.3c6.4,1.6,7.9,2.3,10.2,1.3
		c0.7-0.3,2.1-0.8,2.6-2.1c0.3-1,0-1.8-0.2-2c-0.7-1.6-3-2.3-4.1-1.8c0,0,0,0-1.3,0.8C514.8,158.5,514.3,158.7,514,158.9z"/>
	<path class="st4" d="M670.5,95.1c4.1-1.5,14.1-4.4,21-5.9c9.2-2,16.9-2.3,16.9-3.1c0-0.2-0.3-0.3-1-0.5c-4.8-1-26.1-0.3-33.5,0.2
		c-7.4,0.5-30.5,3.3-33.8,4.1s-6.6,1.8-8,1.1c-1.5-0.7-3.9,0.2-5.9,1c-10.5,4.3-19-0.5-20,2c-0.5,1.3,1.5,3.9,3.6,4.4
		c1,0.3,2,0,2.6-0.2c1-0.3,4.3-0.7,10.7-1.3c1.6-0.2,3.9-0.3,6.7-0.3c4.6-0.5,9.4-1,13.9-1.5c1,0.2,2.1,0.5,2.1,0.8
		c0,0.5-1.8,1.1-3.3,1.3c-4.6,0.3-17.2,1.8-14.6,3c2.6,1.1,5.6,4.3,1.5,2.6c-4.1-1.8-5.6-3.6-8.9-2.8s-8.7-0.2-7.2,1.8
		c1.5,2,9.7,4.1,7.7,4.9s-5.4-0.3-6.7-0.2c-1.3,0.2-7.2,1.8-6.7,0.3c0.7-1.3,3.9-2.3,1.8-2.8c-2.1-0.5-3.3,0.8-2.8-1.1
		s-0.2-2.6-2.1-3.1c-2-0.5-4.3-3.1-6.9-2.3s-10.5,2-13.1,3.4c-2.6,1.5,0.2,2,0.2,2s0,1.5-2,0.8c-2-0.5-7.4,0.5-4.6,1s7.4,0.8,10,0.7
		c2.6-0.2,9.4,0.2,6.1,1s-12.6,0.8-13.3,1.5c-0.7,0.7,1.5,2.6,3.6,3.1c2,0.5,8.5,0.8,10.8-0.7c2.3-1.5,4.9-3,6.9-3.1
		c2-0.2,4.6-1,2,0.5c-2.6,1.5-6.6,2.6-2.1,3c4.4,0.3,8.4-2.5,6.7-0.5c-1.6,2-4.9,2.3-3,2.8s5.4,0.3,2.8,1.1
		c-2.6,0.8-6.7,1.1-7.4,0.5c-0.7-0.7-1.5-3.3-4.1-2.5s-3.9,0.2-2.6,1.5c1.5,1.3,1.5,1.3-0.5,2c-2,0.8-19.2,3.9-9.2,3.9
		c10,0,15.3-1.6,17.9-1.8c2.6-0.2,9.4-0.2,10.7,0.2c1.3,0.3,4.3,0.7,6.4-0.3c2.1-1,8.9-2.1,5.4-2.5c-3.4-0.3-15.4-0.3-10.8-1.3
		c4.6-1,13.3-0.8,14.6-2.3c1.3-1.5-0.2-2,2.6-2.1c2.6-0.2,4.1,0.3,7.2-1.1c3.1-1.5,10.5-3.3,5.3-3c-5.3,0.3-10.7-0.2-7.7-1.3
		c3-1.1,4.3-1.8,8.9-1.8c4.6,0,9.2-1.6,7.2-2.1s2-0.8,4.6-0.3c2.6,0.5,7.4-0.5,5.9-1c-1-0.3-2.3-0.8-2.3-1s0.8-0.2,0.8-0.2l0,0
		C666.1,96.5,670.5,95.1,670.5,95.1z"/>
	<path class="st4" d="M589.9,123.4c-8.2,1-16.4-0.5-16.4-1.5c0,0,0-0.2,0.2-0.3c2.6-1.5,5.1-3.6,1.1-3.4c-3.9,0.2-6.7,0.3-8.7-0.2
		c-2-0.5-11.3,0-7.9,1.8s10.8-0.3,10.5,1.5c-0.3,1.8-6.2,4.3-4.1,6.1c2.1,1.8,24.1,0.5,27.4,0.3s6.6-1.8,7.2-1.1
		c0.7,0.7,5.9,0.8,8.2-1s6.9-3.9,2.8-4.4c-7.1-0.7-11.6,0.2-11.6,0.2C593,122.8,590.3,123.4,589.9,123.4z"/>
	<path class="st4" d="M490.2,134.1c4.3-1.3,6.4-2,7.4-2.3c7.5-1.6,10.8,3,15.4-1c1.8-1.5,9.2-5.3,5.7-5.4c-3.6-0.2-5.9,3-6.7,1.5
		c-0.8-1.5,3-4.3,1.6-4.9c-1.3-0.7-4.1-0.3-5.9,1c-2,1.5-0.8,4.8-3,5.3s-6.1,1.3-7.5,0.2c-1.5-1.3-0.8-2.6-3.4-2.5
		c-2.6,0.2-2.8-0.5-3.4-1.1c-0.7-0.7-1.3-0.7-3.3,0.2s-16.2,6.4-14.3,6.9s7.4-0.5,10.7-1.3s12.6-0.8,9.4,0.2c-3,0.8-13.1,3.1-13,3.9
		c0,0.2,0.3,0.2,0.3,0.2C484.9,135.9,490.2,134.1,490.2,134.1z"/>
	<path class="st4" d="M488.9,119.7c-2,0.8-5.3,1-7.2,1.1c-2,0.2-5.3,1-7.2,2.5c-2,1.5-19,4.6-17.1,5.7c2.1,1.1,12.8,0.5,14.6-1
		c1.8-1.5,4.4-3.6,5.9-3.1c1.3,0.7,3.3-0.2,5.3-0.3c2-0.2,5.9-3.1,7.2-3.1c1.3-0.2,3.4-1.5,1.3-2.1
		C490.2,119.2,488.9,119.7,488.9,119.7L488.9,119.7z"/>
	<path class="st4" d="M521.5,141.2c-1.6,0.3-2.1-0.3-4.4-0.3c-1.6,0-3.9,0.3-4.1,1.1c0,0.3,0.2,0.7,0.7,1.1c2.1,1.8,3.6,1,4.6,2
		c1,1,0,3.6,3,3.4c3-0.2,2-3.4,3.4-3c1.3,0.7,4.1,0.3,6.6-1.1c2.5-1.5,5.1-3.6,3.1-4.3c-2-0.5-4.8-1-2.1-1.8s8.5-3.1,5.7-3.8
		c-2.8-0.7-3.9,0.2-6.1,0.3c-2.1,0.2-7.2-0.5-7.5,1c-0.3,1.1,0.7,2.1-0.2,3.4C523.5,140.7,522.2,141,521.5,141.2z"/>
	<path class="st4" d="M541.4,138.5c1-1.3,2.6-3.8,4.4-3.6c0.3,0,0.8,0.2,1.3-0.2c0.5-0.3,0.5-1,0.7-1.3c0.7-2,6.4-1.1,13.9-1.5
		c1.1,0,2.5-0.2,2.6,0.3s-0.7,1.3-3.8,3.1c-6.4,3.8-5.7,3.1-9.2,3.9c-3.3,0.8-4.6,0.3-5.3,1c-0.7,0.7-2.5,3.4-4.4,3.6
		c-1.1,0.2-2,0.3-2.1,0.2c-0.3-0.3-0.2-0.8,0.2-1.3C540.5,140.5,540.9,139.4,541.4,138.5z"/>
	<path class="st4" d="M546.9,120.8c-2.6,0.2-6.2-1.6-6.4,0.3c-0.2,2,3.1,2.8,0.2,2.5c-3-0.3-1.1-2-3.8-1.5c-2.6,0.5-1.8,2.6-3.1,2
		c-1.3-0.7-0.2-2.6-2.8-2.5c-2.6,0.2-6.2,3.3-3,4.3c3.3,1,5.6-1.1,6.4,0.2c0.8,1.3-0.2,2.5,2.8,2.5c3-0.2,5.7,1,7.5-1
		c1.8-2.1,2.8-2.8,3.9-3.3c1.1-0.3,5.7-2.6,2.3-3.1C547.6,120.6,546.9,120.8,546.9,120.8z"/>
	<path class="st4" d="M625.7,266.4c-4.9,5.3-9.8,11.2-8.5,12.8c0.3,0.3,1,0.3,1.3,0.3c5.9-0.3,19.9-3.9,19.4-1.8
		c-0.5,2,1.5,2.6,2.8,1.1c1.3-1.5,3.9-2.3,2.6-0.8c-1.3,1.5-3,3.4,0,4.8c3,1.3,6.2,0.3,5.4-2.3c-0.8-2.6,0.7-2.3-1.1-3.6
		c-1.8-1.3-3,0.7-1.8-1.5c1.1-2.1,1.1-3.4,0.3-4.8c-0.8-1.3-0.7,0,0-1.3s1.8-2.8-1.5-2s-5.3,3-5.9,1c-0.8-2,3-5.6-0.3-4.6
		c-2.5,0.7-5.4,1-5.6,0.5c0-0.2,0.7-0.7,0.8-0.8c3.8-2.5,8.5-8.5,8-9.2c-0.3-0.3-2.1,0.8-3.3,1.5
		C635.1,257.5,630.6,260.8,625.7,266.4z"/>
	<path class="st4" d="M301.6,281.9c0,0-4.6,1-6.1-0.3c-1.5-1.3-5.4-2.6-3.1,1s7.2,9.4,9.2,10.7c2.1,1.1,5.6,2.3,4.6-1
		s-2.1-2.5-2.3-4.6c-0.2-2,0.3-6.1-1-5.9C301.6,281.9,301.6,281.9,301.6,281.9z"/>
	<g>
		<path class="st0" d="M406.3,500c0,0,3.4,2.5,8.9,4.1c5.4,1.6,8.9,3.4,11.6,3.6c2.6,0.2,5.3-2,6.4-0.3c1.1,1.6-2.3,0.5-0.8,3.1
			c1.5,2.6,7.4,10.2,8.5,8.2s-0.7-5.6,1.3-3.9c2,1.6,4.1,3.6,1.5,5.7c-2.6,2.1-3.6,5.6-1.6,6.7s1-3.4,3.1-1.5c2.1,1.8,3,3.1,5.7,4.9
			c2.8,1.8,2.1,2.5,3.6,4.4c1.5,2,6.7,0.2,8.9,2.1c2.1,2,4.6-0.3,4.8,2.5c0.2,2.6-1.8,3.4,1.5,2.6c3.3-0.8,4.4-3.6,2.5-3.4
			c-2,0.2-2.8-1.8-0.8-2.6c2-0.8,1.1-3.4,3.8-4.3c2.6-0.8,6.7-0.3,6.7,1.6c0.2,2,3.3-0.2,2.1,1.8c-1.1,2.1-0.3,5.9,0.7,6.2
			c1,0.3-0.3-1.6,1.5-2.3c2-0.8,2.5-2.8,1.6-4.8c-0.8-2-5.9-8.4-10.5-6.7s-8.4,6.6-11,6.1c-2.8-0.5-11.8-5.9-12.6-9.2
			c-0.8-3.3-0.8-12-0.3-15.4c0.5-3.4,3.8-14.9-0.3-16.7s-6.2-3-12.1-2c-5.9,1-16.6,3.3-15.3,0.8c1.1-2.6,2.8-8,3.3-10.7
			s2.1-9.5,2.1-9.5l-10.2,3l-8.2,3.6l-7.1,5.7l-2.1,8.2L406.3,500z"/>
		<path class="st0" d="M490,449.3c0,0-12.6-8.5-19.2-7.5c-6.6,1-12,1.5-14.4,3.6c-2.5,2.1-7.1,9.8-2.1,6.2c4.9-3.6,8.7-7.2,12.1-6.1
			c3.4,1.1-1.8,3.4,1.5,3.3s9.5,2.1,13,3.3c3.4,1.1,4.3,4.4,6.4,4.9c2,0.5,5.3-0.3,3.4,1.8s-6.6,3.9,0.8,3.1s20-1,15.9-3.4
			C503.1,455.9,490,449.3,490,449.3z"/>
		<path class="st0" d="M490.7,470.6c0,0-8.2-1.1-6.4,1.3c2,2.5,15.4,4.9,11.2,1.8C491.3,470.6,490.7,470.6,490.7,470.6z"/>
		<path class="st0" d="M516.6,467.8c0,0-3-2.8-2.3-4.1s-5.9-2.6-1.8-3.4c4.1-0.8,5.6,1.1,8.2,0.3s8-0.5,10.8,1.3s11.6,5.3,5.7,6.4
			c-5.9,1-4.6,0.3-7.2,1.1s-2.3-1.1-4.4,0.3c-2.1,1.5-4.6,4.9-5.4,3c-0.8-2,2.1-2-2.6-1.8s-14.9-0.5-10.3-1.5s10.8,0.7,10-0.7
			C516.4,467.5,516.6,467.8,516.6,467.8z"/>
		<path class="st0" d="M545,469.3c0,0-1.5-2.5,2.1-2.8c3.6-0.3,9,0.2,6.4,2.3c-2.6,2.1-5.3,2.3-6.6,1.6
			C545.5,470,545,469.3,545,469.3z"/>
	</g>
	<path class="st4" d="M572.7,291.6c-0.5,2.6,0.3,6.7,0.5,8c0.2,1.3-13.6,6.2-17.6,7.1s-5.4,8.4-5.3,11.6c0.2,3.3-5.1,3.6-10.3,5.3
		c-5.3,1.6-7.9,1.8-9.8,3.9c-2,2.1-4.3,7.5-6.1,10.3c-1.8,2.8-2.6,0.2-3.4-1.8c-0.8-2-0.3,6.1-1.8,9.4c-1.5,3.3-2-5.1-0.8-7.9
		c1.1-2.8-2.6,1.5-3.8,3.6c-1.1,2.1,0.2,2.6-2.6,0.2s-1.3,1.5,0.3,5.3c1.6,3.9,0.8,2-1.8,2.1c-2.6,0.2-1.1,2.8,2.6,5.3
		c3.8,2.5-0.2,2-2.1,2.1c-2,0.2-1.3,1.5,1.5,2.6c2.8,1.1-1.1,2.8-3.9,2.5c-2.8-0.3-2,0.7-0.5,1.8c1.5,1.3,0.8,2.6-2.5,3.4
		s-18.5,14.6-21.8,15.4c-3.3,0.8-7.4,11.2-7.7,14.6s3,14.6,3.9,19.2c1,4.6-2,11.5-4.4,13.6c-2.6,2.1-2.8-2.5-4.3-3.8
		c-1.5-1.3-1-5.9-3.1-6.6c-2.1-0.7-0.8-3.3-0.3-4.6s-0.2-1.3-0.8-3.3c-0.8-2,1.1-2.8,1.8-4.1c0.7-1.3-4.4-5.7-5.9-7.7
		c-1.5-2-2.6,0.8-5.9,1.6c-3.3,0.8-2.8-1.8-3.6-3.1s-11.3-0.7-13.3,0.2c-2,0.8-3.9,1.6-6.6,1.1c-2.6-0.5-3.3,0.8-1.8,2.1
		s-0.5,2,0.8,3.3s-0.5,2-2.6,0.8s0,0-2.6,0.8s-4.8-0.3-6.6-2.3c-1.8-1.8-1.6,1.5-4.3,1.6s-3.4-1.8-4.8-1.6s-2,0.8-3.9,1
		s-3.9,1.6-4.6,2.3c-0.7,0.7-7.1,5.7-9,5.3s-7.5,7.9-8,9.8c-0.3,1.3,0,4.8-0.3,6.4c-0.2,1-0.5,1.5-1.1,1c-2.1-1.1-7.5-2.1-8.4-4.1
		s0.3-4.8-0.3-5.3s-1.5-2.6-3.1-7.9c-1.6-5.3-4.3-5.1-7.1-5.6c-2.6-0.5-5.3,2.3-7.1,5.1s-4.1-1.8-5.6-3c-1.5-1.3-1.6-4.6-1.6-5.9
		c-0.2-1.3-4.3-4.4-5.7-6.4c-1.5-2-8-0.2-10,0c-2,0.2,0.2,1.3-1.5,2.8s-13,1.5-14.9,1s-14.4-6.4-16.7-6.9l-10.3,0.7l0,0
		c-0.2-0.5-1-3.4-1.6-5.1c-0.8-2-8.4-4.8-11.2-7.4s-1.5-2.6-3.8-5.7c-2.1-3.3,0.3-5.4,1-6.7c0.7-1.3-0.2-1.3-0.8-2
		c-0.7-0.7-2.1-2.5-0.2-3.3c0.7-0.2,1.3,0,1.8-2.1c0.5-2-1.5-1.3-3.4-2c-2-0.7-1-4.4-0.3-6.6c0.5-2-1-5.9,1.5-8.9
		c2.5-2.8,4.8-9.7,5.3-13s14.8-21,15.9-23.8s2-10.2,3.9-11.6c2-1.5,1.3,0,5.6,0.5c4.3,0.7-0.7,2.5-2.6,3.9c-2,1.5,4.1,1.8,5.9-1.6
		s3.6-7.5,3.6-7.5s133.7-9.7,134.9-8.4s2.5,1.1,3.8,1.8s3.1-2.1,4.6-2.3c1.5-0.2,3,3.8,5.6,3.6c2.6-0.2,6.7,1,6.7,1s-9,5.3-11.8,7.7
		s9-0.2,11-1.6s5.9-1.6,8-0.5s5.4,2.3,8.7,1.5s6.1,1,7.5,2.1c1.5,1.3-9.8,2-11.8,2.8s-5.9,3.1-7.7,4.4c-2,1.5-1.1,3.4-1.1,4.1
		s-5.9,13.1-6.2,17.7c-0.3,4.8,5.9-1.6,7.7-4.4c1.8-2.8,0.3-4.1,1.6-6.7c1.1-2.8,5.4-8.4,6.7-9.2s3.1-2.1,5.7-5.1
		c2.5-2.8,3.9-1,6.2,2.3c2.1,3.3-2.3,4.8-4.8,8.4c-2.5,3.4,3.4,1.1,4.6-0.3c1.3-1.5,0.8,2.6,0.3,5.9s-3.1,3-5.7,5.1
		c-2.6,2.1-1.8,2.8,0.3,4.6c2.1,1.8,9.4-1.3,13.8-3.6c4.4-2.3,9-5.9,10.2-8.7c1.1-2.8,7.2-1.1,12-2.1s3.8-4.3,3.8-4.9s7.7-5.1,9-5.9
		c1.3-0.8,12.6-0.2,16.7-0.3c4.1-0.2,10-11.3,12.5-13.5c2.5-2.1,3.8-3,3.8-3s1.5,1.3,4.1,0.7C575,283.9,573.2,289,572.7,291.6z"/>
	<path class="st4" d="M285.1,223.7l56.8-55.6c0,0-5.6-2.3-7.4-1.5c-2,0.8-8.2,1.6-11.8,0.7s-13-1.1-14.9-1c-2,0.2,1.3-1.5-5.4-1
		c-6.7,0.5-0.8-2-8.9-1.5s-20.3,5.9-22.3,6.1c-2,0.2-6.9-0.7-10.3,1.5c-3.4,2-9.8,6.4-11.8,6.6c-2,0.2-2,0.2-2,0.2
		s-13.9,2.1-15.1,3.6c-1.3,1.5,3,3.8,3,3.8s-1.8,3.4,0.8,3.3c2.6-0.2,10.7,0,6.2,2.3c-4.4,2.3-18.4,5.1-16.6,3.1
		c1.8-2.1-0.8-2.6-4.8-1c-3.9,1.6-15.6,6.4-16.4,6.1c-0.7-0.3,4.1,0.2,3.4,1.5c-0.7,1.3-3.3,3.3-3.3,3.3s-1.3-0.2,0.8,0.3
		c2,0.5,7.4,0.8,12.6-0.2c5.3-1,11.2-3.4,9.8-2s-5.6,6.4-8.9,7.2s-14.4,3.6-19,5.3s-8.5,2.6-11.2,4.8c-2.5,2.1-9.2,3.3-7.1,5.1
		s5.4,0.3,3.4,1.8c-2,1.5-6.2,2.5-6.2,4.4s2.5,0.5,4.6,1c2,0.5,6.4-4.4,3.3,0.5c-3.1,4.9-8.9,8.5-3.6,6.9c5.3-1.6,7.2-1.1,8,0.8
		c0.8,2,1.8,1.8,4.1-0.3c2.3-2.1,6.2-4.4,4.4-1.6c-1.8,2.8-5.6,7.1-10.2,8.7s-13.6,6.9-18.2,8.5c-4.6,1.6-11.8,3.4-14.4,4.9
		c-2.6,1.5-5.9,1.6-9.8,3.3c-3.9,1.6-9.8,3.9-7.1,4.4c2.8,0.5,20.3-5.3,20.3-5.3c2.6-1.5,11.2-3.4,14.4-4.9s6.4-5.7,11.6-6.7
		s11.6-4.8,12.3-5.4c0.7-0.7,6.6-1.8,10.5-3.3c3.9-1.6,9.8-3.9,10.3-5.3s0-1.3-0.8-2c-0.7-0.7-4.6,1-0.7-0.7
		c3.9-1.6,10.5-3.9,14.9-6.2c4.6-2.3,5.7-4.4,9-5.3s8-1.1,4.1,0.3c-3.9,1.6-7.9,2.5-10.3,4.6s-9.5,7.2-3.6,5.6
		c5.9-1.6,10.3-4.6,13.1-4.8c2.6-0.2,5.3-1.6,7.2-3.1s5.6-5.7,9.2-3.9c3.4,1.8,4.3,4.4,7.1,4.9s12.8,1.1,14.1,1.1
		c1.3-0.2,4.6-1,3.4,1.1s1.5,1.3,2.1,3.1c0.7,1.8,6.7,1.6,4.3,3.8c-2.6,2.1-4.3,5.6-2.3,4.8s3.9-1,2.6-0.2s-3.9,1.6-3.8,3.6
		c0.2,2,1.6,3.9,2.8,1.8c1.1-2.1,1.6-6.1,2.3-4.8s-3.9,11-2.6,12.8c1.3,1.8,3.4,1.1,3.9-1.6c0.5-2.6,1.6-6.7,2.5-4.1
		s1.6,3.9,2.3,5.9c0.8,2,4.1,0.3,5.9-3.1c1.8-3.4,1.6-6.1-0.3-6.7s1-4.8,0.2-8.7c-1-3.9,2-10.2-2-9.2c-3.9,1-7.7,3.8-8.4,4.6
		c-0.7,0.7-3.3,1.5-3.4-1.1c-0.2-2.6,1.6-6.7-1.6-5.9S285.1,223.7,285.1,223.7z"/>
	<path class="st4" d="M436.5,460.6c-2,1.5-2.5,4.1-2.1,7.5c0.2,3.3-1.8,4.1-3.8,4.9s-2.6,2.1-5.4,4.3c-2.8,2.1-6.9,2.5-9.5,2
		c-2.6-0.5-1.8,2.1-3.1,3.6c-1.3,1.5,2.3,3.9,4.4,6.4s-5.3,1-7.9,1.8s-2.1,8.2-2.8,8.9c-0.7,0.7-4.9-5.1-7.2-7.5s-5.4-1-8.7-0.2
		s-7.2,3.1-9.2,2.6c-2-0.5-21.3-9.4-25.6-12.5c-4.3-3.1-7.5-2.1-11-4.6c-3.4-2.5-8.5-7.5-5.9-10.3c2.5-2.8,0-10-0.2-13.3
		c-0.2-3.3-9.5-12.8-13.8-17.2s-3.6-4.4-2.5-6.6s-8-10.2-10.2-14.1c-2.3-3.9-3.4-13.1-3.6-14.4c-0.2-1.3-6.9-2.3-8.4-4.1
		c-1.5-1.8-2.1,8.2-1.3,11.5c0.8,3.3,1.5,3.3,3,5.1c1.5,2,5.6,15.1,6.4,17.1c0.8,2,1.6,5.3,3.1,8.7c1.3,3.4,1.8,5.1,4.6,6.6
		s1.5,3.6,0.3,4.9c-1.3,1.5-2.1-1.1-2.1-2.5c0-1.3-5.6-3.6-7.7-6.2s0.3-4.8,0.2-6.7c-0.2-2-4.4-5.7-6.4-5.6c-2,0.2-7.1-5.6-6.4-6.2
		c0.7-0.7,4.3,3.8,5.3-1.6c1-5.4-5.3-9-6.4-10.7c-1-1.5-1.1-15.6-1.1-17.7l0,0l10.3-0.7c2.3,0.5,14.8,6.4,16.7,6.9s13.5,0.5,14.9-1
		c1.6-1.5-0.5-2.6,1.5-2.8c2-0.2,8.5-1.8,10,0c1.5,2,5.6,4.9,5.7,6.4c0.2,1.3,0.3,4.6,1.6,5.9s3.8,5.7,5.6,3
		c1.8-2.8,4.3-5.6,7.1-5.1c2.6,0.5,5.4,0.3,7.1,5.6c1.6,5.3,2.5,7.2,3.1,7.9c0.7,0.7-0.5,3.3,0.3,5.3c0.8,2,6.2,3,8.4,4.1
		c0.7,0.3,1,0,1.1-1c0.5,0.7,1.1,1.5,1.1,2.1c0.2,1.3-4.1,9.7-5.3,12.3s-0.5,14.1,1.3,20c1.6,5.9,5.4,11,6.7,11s3.4,0.5,4.3,3.8
		s6.7-0.3,12-2.1c1.6-0.5,2.3-0.8,2.6-1c0.2,0,0.3,0.2,0.7,0.2c2.6,0.5,2.1,1.1,4.6-1.6c2.5-2.8,3.8-4.9,6.2-7.7s0.8-7.4,1.5-7.4
		s13.3-2.1,15.9-3S438.5,459.1,436.5,460.6z"/>
	<path class="st0" d="M728.3,95.4c0,0-34.8,3-42.2,4.4c-7.4,1.5-20.3,4.3-18.9,7.2s4.4,4.4-7.2,4.4c-11.6,0-25.4,6.2-19.2,6.7
		c6.2,0.5,19.2-1.5,13.5,1c-5.7,2.5-15.9,4.8-8,4.3c7.9-0.5,28.7-3,32.8,1.1c4.1,4.3,11.8,8.4,8.7,13.6c-3.1,5.1-7.9,5.6-4.1,7.5
		c3.9,2,9.7-1,11.2,3.4c1.5,4.4,5.7,4.4,0,8.7c-5.7,4.4-5.4,1.5-4.1,5.1c1.3,3.6,4.1,3.6-1.6,3.6c-5.7,0-10.2-0.5-8.7,2
		c1.5,2.5,4.4,3.9,1.5,5.4c-3,1.5-4.4,1.8-1.5,4.6c3,2.8,8.4-0.2,5.6,3.4c-2.8,3.6-4.1,3.6-2.8,6.4c1.3,2.8,3.6,13,6.2,13
		c2.6,0,8.7-4.4,10.7,0c2,4.4,6.4,7.4,9.2,3c3-4.4,4.4-14.6,7.2-14.6c2.8,0,7.2-1.6,8.7-4.4c1.5-2.8,2.1-5.6,6.9-8.5
		c4.8-3,20.7-3,23.6-5.9c3-3,8-10,12.8-10.8c4.8-0.8,34.1-9.4,34-10.2c-0.2-0.8-3.1-0.8-8.9-2.3c-5.7-1.5,0-5.7,3-5.7
		c3,0,4.8,4.8,8.2,3.9c3.4-1,9.2-1,6.4-3.9c-2.8-3-2.6-2-7.1-3.9s-7.4,1-7.4-3.4s-1.5-7.2,3-4.4c4.4,2.8,4.4,1.5,7.2,3
		c3,1.5,15.9-3,13.1-5.7c-3-3-4.4-3-1.5-4.4c3-1.5,10.2-0.5,7.2-3.9c-3-3.4-11.6-0.5-7.2-3.4s8.7-1.5,8.7-1.5s4.4-5.7-1.5-5.7
		s-10.2,0-7.2-1.5c3-1.5,1.5-1.5,7.2-4.4c5.7-3,1.5-4.4,7.2-4.4c5.7,0,29-5.7,21.8-7.2c-7.2-1.5-13.1-1.5-20.3-1.5
		c-7.2,0-9,1.5-12.5,0c-3.4-1.5-10.7-3-18-3c-7.4,0-29,3-37.7,3c-8.7,0-7.2-3-14.4,1.5c-7.2,4.4-13.1,1.5-17.4,3
		C729.7,95.4,728.3,95.4,728.3,95.4z"/>
	<path class="st5" d="M931.4,201L931.4,201C931.5,201,931.4,201,931.4,201z"/>
	<path class="st4" d="M1117.8,307c0.8-0.8,0.8-1.8,0.8-2.3c0-0.8-0.5,0-1-0.3c-0.5-0.3-0.5-0.5-0.5-1c0-0.5-1.8-0.8-2.6-1.3
		s0-1.8,0-2.3s-0.3-0.5-0.8-0.8c-0.5-0.3-0.8-1.3-1-1.8c-0.3-0.5-1.8-2.3-2.3-3.3c-0.5-1,0,0,0.5-0.5c0.5-0.5,0.5,0,0.8-1
		c0.3-1-1-0.5-0.8-1.3c0.2-0.8,0.3-0.8-0.5-1.3c-0.8-0.5-0.8,0-1.3,0.5c-0.5,0.5-1.1,0.5-2,0c-0.8-0.5-0.8-0.3-1.3-0.8
		c-0.5-0.5,0-1.3-0.5-2c-0.5-0.7-0.5-1-1-1.8c-0.5-0.8-1-0.3-1.8-0.5c-0.8-0.3-2-0.5-2.8-1c-0.8-0.5-0.8-0.5-1,0
		c-0.2,0.5,0,0.5-0.5,0.8c-0.5,0.3-1.3,0.5-1.8,1c-0.2,0.3-1,0.5-1.6,0.7c0,0.2,0,0.3,0,0.3c-0.5,2.5-2.5,4.6-4.6,5.6
		c-2,1-1.5,0.5-3.1,0.5c-1.6,0-3.6,2-4.6,3.1c-1,1.1-3.6,1-5.1,1c-1.5,0-3.6,0-4.6,0.5c-1,0.5-1,0-2-1s-1-0.5-2-0.5s-2.5,1-3.1,0.5
		c-0.7-0.5-1-1-2-0.5s-3.1,1-5.1,1.5s-4.1,1.5-5.1,3.1c-1,1.5-3.6,4.6-4.1,5.6c-0.5,1-4.1,1-5.6,1.5c-1.5,0.5-3.1,0.5-6.6,0.5
		c-3.4,0-4.1-1.5-4.6-2.5c-0.5-1-2-2-3.1-3.6c-1-1.5,0.5-0.5,1-2c0.5-1.5,0-2,0.5-3.6c0.5-1.6,1,0,1.5-0.5s0.5-1.5,0-2.5
		c-0.5-1,0-4.6,0-6.1c0-1.5,0-1,1-1s1,0,1.5-2c0.5-2,0-1.5-0.5-3.6c-0.5-2,1-1.5,2-3.1c1-1.5,1-2,1-3.6s1-1,2.6-2
		c1.3-0.8,2.1,0.3,2.5,0.8c0,0.2,0.2,0.2,0.2,0.2s0.5,0.5,2,1c1.5,0.5,1.5,0,3.6-1s1-0.5,2.6,0c1.5,0.5-3.1,3.1-4.1,4.6s0,1,1,0.5
		s2.6,0.5,4.1,0.5s0.5,1,0.5,3.1c0,2.1,2,1,4.1,0c2-1,0.5-1.5,1-2.5c0.5-1,0.5-0.5,1.5-1c1-0.5,1-0.5,1.5-2c0.5-1.5,0.5,0,1.5-0.3
		c1-0.2,1.6,0.3,2.1-1.3c0-0.2,0.2-0.3,0.3-0.5v-1.3l0.2-0.7c-1.5,0.5-1.5,0.5-3.1,1c-1.5,0.5-0.5,1-2.6,1s-1.5-1.5-2.6-2
		c-1-0.5-1-0.5-0.5-2c0.5-1.5,1.5-2.5,2.6-3.6c1-1,2-1.5,2.6-2c0.7-0.5,3.1-2.5,3.1-2.5s0-1.5,1.5-2c0.5-0.2,1.5-0.8,2.5-1.6
		c0.7-0.7,1-1.1,0.8-1.1c-0.3,0-1.8,1.5-2.6,1.8s0-0.5-0.5-1.8c-0.5-1.3,0-1,0.5-1.5s0.5-0.8,0.8-1.8c0.3-1,2.6-1,3.6-1.5
		c1-0.5-0.3-3.6-1-3.9c-0.7-0.3-1.3-1-1.3-1.3s-0.3-0.8-0.8-1.3c-0.5-0.5,0.5-1.5,1-2.8c0.5-1.1-0.5-0.8-1-1.8c-0.5-1-0.3,0.5-1,0.8
		c-0.7,0.3-5.1-0.5-6.7-0.8s-0.5,0.3-1.5,0.8c-1,0.5-1.5-1-2.3-1.8c-0.8-0.8-2.6,1.8-3.3,2.3c-0.8,0.5-1.5-0.3-2.6,0
		c-1.1,0.3-1.3,0.8-2,0.5c-0.7-0.3-1-2-2-3.4c-1-1.5-1.3-0.3-1.3-0.2c0,0.3-2.6,0-3.6-1c-1-1,0-1.3,0.3-2c0.3-0.7-2.3-2-3.6-2.8
		s-2.3,1-2.6,1.3c-0.3,0.3-1.3,0.8-2.3,0.5c-1-0.3-0.3,0.8-0.5,1.8c-0.3,1-0.8,0.3-2,0s-1.3-1.8-1.8-3.1c-0.5-1.3-0.8-0.8-0.8-2.3
		c0,0,0.3-0.8,1-0.5c0.7,0.3,1,0.3,1.8-0.5c0.8-0.8,0.5-1,1-2.3c0.5-1.3-1-1-1.8-1.3c-0.8-0.3-2.3,0-2.3-0.8s-0.3-1-1.3-1
		s-1.5-0.5-2-1.5c-0.5-1-1.3-1-1.8-1.8s-0.3-0.5,0-1.5c0.3-1-0.5-1.5-0.8-2.6c-0.3-1.1-1.8-1.3-2.3-1.5c-0.5-0.3-2.6,0.8-3.3,1.3
		s-1.5-0.3-1.6-1.3c-0.2-1-1.8,0-3.1,0c-1.3,0-0.8-1-1.8-2.6c-1-1.6-1.3-1.3-1.8-2.8c-0.5-1.5-0.8-1.8-1-2c-0.3-0.3-0.8-1.8-0.8-1.8
		s0.3-1.3,0-2c-0.2-0.7-0.8-0.2-1.1-1.1c0-0.2,0-0.2,0-0.2c0.2,0.2-0.2-0.5,0,0c0,0,0,0-0.2-0.2c-0.3-0.7-0.3-1-1-2.5
		c-0.5-1.5,0-1,0.3-2c0.3-1,0.3-1.5,1-2.8c0.5-1,0.2-1-0.3-1.3c-0.2,0.3-0.3,0.5-0.5,0.8c-0.5,1-4.6,0.5-6.1,0.5
		c-1.5,0-3.1,0.5-4.6,1.5s-2.6,2-3.6,3.1c-1,1.1-2,1-3.6,1s0,1,1.5,2c1.5,1-0.5,0.5-1.5,1.5c-1,1,0,2.6,0.5,4.1c0.5,1.5,1-1,1.5-2
		c0.5-1,1.5-1.5,2-2s1-1,1.5,0c0.5,1,1.5,0,2.3-0.5c0.8-0.5,0.7,1,0.7,2s0,2,0.5,4.1c0.5,2,0,1.5-1,2.6c-1,1-1.5,0.5-3.1-1.5
		c-1.5-2-3.6-2-4.6-1c-1,1-1.5,4.1-1.8,6.6s1.8,6.2,1.8,7.7c0,1.5-1.5,3.1-3.1,3.6c-1.5,0.5-1,0.5-0.5,1.8s0.5,0.8-1,2.3
		s-4.1,0.5-4.1-0.7c-0.2-1.1-2.5-1.8-3.3-1.1c-0.8,0.7-3.6,2.3-4.8,3.3s-0.5,0.7-1,1.1s-3.6,1.5-5.6,2c-2,0.5-1.5,0.5-2.6,0
		c-1-0.5,0-1-1-3.1s-1-0.5-1.6,0.5s-0.3,0.5-1.8,0.5s-1,0-2,0.5c-1,0.5-0.5,0-1.5,1s-1,0.5-1.5,1c-0.5,0.5-1,0.5-1.5-1
		c-0.5-1.5,1-1,1.3-2.1c0.3-1-1.3,0-2.3,0c-1,0-0.5,0-1.5-0.5c-1-0.5-1-1.5-1.3-3.1c-0.3-1.6,0.3-0.5,1.8,0c1.5,0.5,0.5,1,1.5,0.5
		c1-0.5,0-0.5-0.2-2.8c-0.2-2.3-1.8-1.3-2.8-1.8c-1-0.5,0-0.5,1-1s0.5-0.5,2-1.5c1.5-1,0-1.5-0.5-2.6s-0.5-0.5-1.5-1.5
		c-1-1,0.5-2,0.5-3.1c0-1.1,0.5-1,0-2.6c-0.5-1.5-0.5-0.5-2,0c-1.5,0.5-0.5,2-2.3,2.5c-1.6,0.5-2.3,0-3.4,0.7c-1,0.5-1,3.6-1,5.1
		s0,4.6,1.5,5.6c1.5,1-0.5,1.5-1,3.1c-0.5,1.5,0,1,1.5,2c1.5,1,0.5,1-0.5,1s0.5,1.5,1,2.6c0.5,1-0.5,1-1,1.5s0,1-0.5,1.5
		c-0.5,0.5-2-0.5-2.6-1c-0.7-0.5-2.6,0-2.6,1s-2,1-3,0.8c-0.8-0.3-3.3,0.8-4.3,1.8s0.5,1,1,2.6c0.5,1.5,0,1-1,2c-1,1-1-0.5-0.5-1.5
		c0.5-1-1-2-1-3.1s-1.5,1.5-1.5,3.6s-1,2-2,3.6c-1,1.5-0.5,0.5-1.5,1c-1,0.5-1,1-1.5,2c-0.5,1-1,1-1.5,1c-0.5,0-2.8,1.5-2.8,1.5
		l-0.8,5.1l10.7,33.8l7.7,9.5c0,0,1-0.5,2.6-0.5c1.5,0,1.5-0.5,2.6-1.5c1-1,2-2,4.1-2c2,0,0.5,1,2,1.5c1.5,0.5,3.6,1.5,3.1,3.6
		c-0.5,2,2,3.6,3.1,5.6c1.1,2,0.5,1,2,1.5c1.5,0.5,1.5,1,2.6,2.5c1,1.5,2.6,2.5,3.6,3.6c1,1.1,3.6,1.5,5.1,1.5c1.5,0,1.5,0.5,2.6,2
		c1,1.5,2,1,3.1,1.5s1,0.5,1,2c0,1.5,2,1,3.6,1.5s0.5,0.5,1.5,1.5c1,1,1.5,2.5,2,4.6s0,1.5-1,2s0,1-0.5,1.5s-1,1.5-2,2
		c-1,0.5-3.6,1-4.6,1.5s-3.1,0.5-4.1,0.5s-2-2-2.6-1.5c-0.7,0.5-1,1-2.6,1c-1.5,0-1,0-1.5,2c-0.5,2,2,1.5,3.6,2s1,1,2.3,1.3
		c1.1,0.3,1.8,1.3,3.4,1.3c1.5,0,0.5,0,1,1s2,1,3.6,1s0.5-1,1.5-1.5s-0.5-1.5-1-3.1s0.5-1.5,1-3.1s0.5-1,1-0.5s2,0.5,2.6-0.5
		c0.7-1,1.5-2,2-3.1c0.5-1,0-1,0-2.5c0-1.5,1.5-1,2.6-1c1,0,0.5-1.5,0-2.5s-1.5-1.5-2.6-1.5c-1,0-1-1-0.5-2s1-3.6,2.6-4.1
		c1.6-0.5,1,1,2.6,1c1.5,0,1,0,1.5,1s1,1.5,2,2c1,0.5,1-2,0.5-3.6s-4.1-2.5-5.6-3.1c-1.5-0.5-5.1-1.5-6.6-2.5c-1.5-1-1-1-0.5-1.5
		s1-1,0.5-2s-3.6,0-5.1,0s-2.6-1.5-4.6-3.1c-2-1.5-1.5-3.1-2-5.1c-0.5-2-2-2.5-4.6-4.1s-2-1.5-2.6-3.1c-0.7-1.6,0.5-2,1-3.1
		s-1.5-1.5-1.5-3.1s4.1-2,5.1-2.5s0.5,1,0,2s1.5,3.6,2,4.6s1.5-1,2.6-2.5c1-1.5,0-1,1-1s1,2,1.5,2.5c0.5,0.5,0.5,4.1,1,5.1
		s3.1,2.5,4.1,2.5s3.1,2,4.6,2.5s1,0.5,2,1.5c1,1,0.5,0.5,2,0.5c1.5,0,2,1,4.6,2c2.6,1,4.1,2,5.1,3.1c1,1,0,7.5,0,8.7s0.5,1,2,2
		s0.5,1,2,2c1.5,1,0.5,1,1,1.5s1.5,2,3.1,2.5c1.5,0.5,1,0,0,1s0,0.5,1,1s1,1,2,2s1.5-0.5,2.6-1c1.1-0.5,4.6,0.5,6.6,0.5
		c2,0,0,1-0.5,1.5s-2.6-0.5-3.6-0.5c-1,0-2.6-0.5-3.1,0l-2,2c-1,1,1,1.5,2,2c1,0.5,1,2,0.5,3.1s1.5,2.5,2,2s1.5-2.5,2.6,0
		c1,2.5,1,1,1.5-0.5c0.5-1.5,1.5,0.5,2.6,1.5c1,1-1.5-5.1-2.6-6.6c-1-1.5,0,0,1.5,1c1.5,1,0.5,0,1.1,0s0.8-0.7,0.8-1.1s0-1-0.5-1
		s-1-0.5-1.5-1.5c-0.5-1,0,0,0-0.5c0-0.5,1,0,2.6,0.5c1.5,0.5,1,0,1.5,0.5c0.5,0.5,1,0,1-0.5s-0.5-1-0.5-2s1,0.5,1.5,0
		c0.5-0.5,0.5,0.5,3.1,1.5s-1.5-1.5-3.6-2.5s-0.5-1-1-2s-2-1-3.6-1s-0.5-1-1-2.5s-1-1.5-2.6-2.5c-1.5-1-1-1-2-2.5s-1-1.5,0-2.5
		s0.5,0.5,2,1c1.5,0.5,1,1.5,2.6,2c1.5,0.5-1.5-1.5-0.5-2c1-0.5,0.5,0.5,2.6,1c2.1,0.5-1-1-1.5-2c-0.5-1,2,0,3.1,0.5
		c0.2,0,0.2,0,0.2,0c-0.2-0.2-3-1.6-3.8-2.1c-1-0.5,0-0.5,0-0.5s2-0.5,2.6-1.5c0.7-1,0-0.5,1-0.5s1.5,0.5,2-0.5
		c0.5-1,3.1-0.5,4.6-0.5s1,0.5,1,1s1.5,0,2.6-0.5c1-0.5,1.5,0.5,2.6-0.5c1.1-1,1-1.5,1.5-2.5c0.5-1,1.5-0.5,2.6-1
		c1-0.5,1.5-0.5,2.6-0.5c1,0,2-0.5,2.6-0.5c0.7,0,1.5,1.5,0.5,2s-1.5,1-0.5,1.5c1,0.5-2,1-3.6,1c-1.6,0-2,0.5-2.6,1
		c-0.7,0.5-2.6,0-3.6,0.5c-1,0.5-2,1.5-3.1,3.1c-1.1,1.6,0.5,4.1,1,3.6c0.5-0.5,1.5-1,2.6-1s0,1,0.5,2.5c0.5,1.5,1,1,1,1.5
		s-1,1-0.5,1.5c0.5,0.5,1.5,1.5,0.5,1.5c-1,0-1.5,0.5-2,1.5c-0.5,1,1.5,0,2.6,0c1,0,2,0.5,2,1.5s0.5,2.5,2,3.1c1.5,0.5,0,1-0.5,2
		c-0.5,1,3.1-0.5,4.6-0.5c1.5,0-0.5,1-1.5,1.5c-1,0.5,1.5,0.5,3.1-1c1.5-1.5,1,0.5,2,0.5s1.5,1,2,1.5c0.5,0.5,3.6,1,4.1,0
		c0.5-1,1-0.5,2.6-1c1.6-0.5,0-2,0.5-3.6c0.5-1.5,1.5-0.5,3.6-1c2.1-0.5,3.6,0.5,4.6,1c1,0.5,2,1.5,3.6,1.5c1.6,0,4.1-2.5,5.6-3.6
		c1.5-1,0.5-2.5,2.5-4.1c2-1.5,1-0.5,2,0c1,0.5,2,0,3.6-1c1.5-1,0,0,0.5-1.5c0.5-1.5,0.5-0.5,1.5,0c1,0.5,0,1.5-1,3.1s0,0.5,0.5,1
		c0.5,0.5,0.5,1,1.5,1.5s1-0.5,1-1s0.5-0.5,1-1.5c0.5-1,0.5-1,0-2c-0.5-1-0.5-0.5-0.5-2s1.5-0.5,2.5,0s3.6-3.1,4.6-3.6
		c1-0.5,1-0.5,1.5,0c0.5,0.5,5.1-1,7.1-2s1.5-3.6,3.1-4.6c1.6-1,2-0.5,5.1-2.5c3.1-2,0.5-0.5,1.5-1.5c1-1,1,0.5,2.5-1.5
		c1.5-2,0.5-0.5,2.5-1c2-0.5,2-0.5,2.5-1.5c0.2-0.3,0.3-0.5,0.5-0.5c0.3,0,0.5,1,1,1C1117.6,307.4,1117.6,307.4,1117.8,307z"/>
	<path class="st6" d="M1008.7,171.5c-0.3-1.8-4.1-2.6-5.1-3s-0.3-1.1-0.2-2.5c0.3-1.3,0-1.3-1.3-1.8c-1.3-0.5-0.8-0.8-0.8-1.5
		s-0.5-1.3-1.8-1.3c-1.3,0,0-0.7-0.5-1.5s0-3.9-0.8-5.4c-0.8-1.5-2.6-4.1-3.6-5.9c-1-1.8,0-1.6,0-3s-0.3-2-1-3.1
		c-0.7-1.1-1.8-1-2.8-1c-1,0-0.8-1-0.8-2.1c0-1-0.7-2.6-0.7-2.6s0.5-1.8,0.8-2.6c0.3-0.8,0.5-0.5,0.8-1.5c0.3-1,1.5-0.8,2.6-1
		c1.1-0.2,0.3-1.5,0.3-1.5v-0.5c-1.3,1.8,0-0.2-1.5-0.2c-1.5,0-1,0-2,0c-1,0-0.5-1,0.5-1.5c1-0.5,0.5-0.5,1-1.5c0.5-1,0-1-1-2
		c-1-1-4.6,0-5.1-0.5s-0.5-0.5-2-0.5c-1.5,0-0.5,0.5-0.5,1.5c0,1,0,2.6-0.5,3.1c-0.5,0.5-0.5-2-1-3.1c-0.5-1.1-1,4.1-1.5,5.6
		s-0.5-4.6,0-6.1c0.5-1.5-1.5-0.5-3.6,0.5c-2.1,1-0.5,0.5,1,1.5s-2,0.5-3.6,1c-1.6,0.5-1.5,1.5,0,1.5c1.5,0-0.5,1.5-2,1.5
		c-1.5,0-1,0.5-0.8,1.5c0.2,0.8-0.2,0.2-1.3,0.2c-1,0-2-0.5-3.6,0.5s-0.5,0.5-0.5,1.5s-0.5,1.5-2,2.6c-1.5,1-1.5,3.1-1,4.6
		c0.5,1.5-0.5,0.5-1.5,0c-1-0.5-0.5-1.5-1-2.6c-0.5-1-1,1-2,2.6c-1,1.5-1,0.5-1.5,2c-0.5,1.5,2,0.5,2,1c0,0.5-4.1,1-5.6,3.6
		c-1.5,2.6,1,0.5,2-0.5c1-1,4.6-2,6.1-2c1.5,0-1,1-2.6,2c-1.5,1-0.5,0.5-0.5,2s0,1.5-0.5,2.6c-0.5,1-1.5,2-2.6,3.1
		c-1.1,1.1-1,2.6-0.8,3.9c0.2,1.5-0.8,0.7-1.8,0.2c-1-0.5,0,0.5,0,1.5s1,1,0.3,2c-0.7,1-0.8,0-1.8,0s0,0.5,1,1s0,1-0.5,2.6
		c-0.5,1.5-1.5,1.5-2.6,1.5c-1.1,0-0.5,0,0.5,1s0,0.5-0.5,1s-0.5,1-2,1s0,1-0.5,2s0,1.5-0.5,1.8c-0.5,0.2-0.5,0.3-1,1.3s-1,0-2.6-1
		c-1.5-1-0.5,1-1,1.5c-0.5,0.5-0.5,1-1.5,1c-1,0,0.5,1.1,0.5,1.6s-1.5,0.5-1.5,0.5s-1,0.5-1,1s0,1-0.5,1s-1,0-1,0.5s-0.5,1.5-0.5,1
		s-1,0-1.5,0.5c-0.5,0.5,0,1-1,0.8c-1-0.3-1,0.3-1,1.3s-0.5,0-1.5,1s0.5,1.5,1,2s-1.5,1-1.8,2.6c-0.3,1.6,0.3,1.3,0,3
		c-0.2,1.6,0.2,3,1,3.6c0.8,0.7,0.8,0.3-0.3,1.3c-0.5,0.5-0.7,0.7-0.5,0.8c0.2,0.3,0.8,0,1,0.3c0.2,0.3-0.5,0.7-1,1.8
		c-0.2,0.3-0.2,0.5-0.2,0.7c0.2,0.7,1,1,2,0.8c1.3-0.3,0.8-0.7,1.8,0c1,0.7-2,1.8-2.5,2.8s1,2.6,3.6,4.6c2.6,2,3.1,1,5.1,0.5
		s2.6-2.6,4.1-4.6c1.5-2,1.5-0.5,3.1-1c1.5-0.5,0.5-3.6,1-5.1c0.5-1.5,0.5,2.6,0.5,3.1c0,0.5,1.5,1.3,1.5,1.3l3.1,1.3l4.1-1.5l3-5.6
		l2-11.2l8.2-15.3l1.5-6.1l9.7-8.7c0,0,2,0,3.6,0s1.5,1,2,2s0.5,1.5-0.5,1.5s-0.5,0.5-0.5,1v2c0,1-2,4.6-2.5,5.7s-1,1.8-1.6,3.3
		c-0.5,1.5,0.5,1-1.5,1.5c-2,0.5-2,0.5-1,1.5c1,1,0,1.5-0.5,3.1c-0.5,1.5,1.5,1.5,1.5,2.6c0,1,0.5,1.5,1,3.1c0.5,1.5,0.5,5.6,1,6.6
		s2.6,1.5,4.6,3.1c2,1.5,4.1,0.5,5.6-0.5c1.5-1,5.6-3.6,6.6-4.6c0.7-0.7,1.6-1,2.6-1.5c0.2-1.1,3.6-6.2,4.8-8.7
		C1008.2,177.3,1008.8,173.2,1008.7,171.5z"/>
	<path class="st7" d="M953.2,226.5c0.3,0,0.3-1.1,1-1.5c0.3-0.2,0.7-0.2,1,0c0.3,0.2,0.5,0.7,0.5,1c0,0.3,0,0.8-0.5,2.6
		c-0.2,0.7-0.2,0.7-0.2,0.8c0,0.8,0.8,1.1,0.7,1.6c0,0.5-0.7,0.3-1,1c-0.5,0.8,0,1.5-0.5,2s-1.5,0.2-2,0c-0.8-0.2-1.6-0.8-1.5-1
		c0.2-0.3,1.3,0.2,2-0.5c0.5-0.3,0.8-1.1,0.5-1.5c-0.3-0.5-1.3,0.2-2-0.5c-0.2-0.2-0.3-0.7-0.5-1.5c-0.2-0.7-0.3-1.6-0.3-1.6l0,0
		l0,0c0,0,0.3-1,0.8-1c0.7,0,1-1,1.5-0.8C953,225.7,952.9,226.5,953.2,226.5z"/>
	<path class="st7" d="M882,222.7c0,0-1.6-0.5-2.6-0.2s-0.5,0.8-1,1.3s-0.5,0-1,0.5s-1,1-0.5,1s1.5-0.5,1.5,0s0.8,0.8-0.3,1.1
		s-1.1,1.8-2.6,0.8s-1-2-2.6-1.5c-1.6,0.5-2.6,0-2,1.5c0.7,1.5,1.5,0.7,0.5,1.8c-1,1.1-2-0.3-1.5,1.1s0,1.1,1.5,1.8
		c1.5,0.7,1.5,0.2,1,1.6s-1.3,2.1-2.6,3.1c-1.3,1-3.9-0.7-3.4,2c0.5,2.6,1,4.6,3.1,5.1c2,0.5,4.6-0.5,6.1-1c1.5-0.5,3.6-1.5,4.6-1
		c1,0.5,0.8,1,2.3-0.5c1.3-1.5,1.8-4.1,2.3-5.6c0.5-1.5,1-5.6,1-5.6L882,222.7z"/>
	<path class="st7" d="M863.6,137.9c0.3-0.3,1-0.3,1.5,0c1.1,0.7,1.5,3,1,4.6c-0.3,1.3-1,2.6-0.8,3c0,0,0.2,0.2,0.3,0.2
		c1,0,0.5-1,1.3,0c0.8,1,0.8,1,1.3-0.5c0.5-1.5,1.5-3.6,2-2c0.5,1.5-0.5,1,1,1s2,0.5,2.6,1c0.7,0.5,0.5-0.5,1.5,0.5
		c1,1,1.6,1.5,3,0.7c1.1-0.7,1.6-1.8,2.3-1.1c0.5,0.5-0.5,2.6,1,2.6s1.5,1,1,1.5c-0.5,0.5-0.5,0,0,1.5c0.5,1.5,2,1.5,1,3.1
		c-1,1.5,0.5,2-0.5,2.6s-0.5,1.5-1.5,1.5c-1,0-1-0.5-2,0.5c-1,1-0.5,1-2,1c-1.5,0-2.6,0-3.6,0.5s-1.5,0.5-3.6,0.5s-2-1-2.5,0
		c-0.7,1-0.7,1.5-2.6,0.5c-2-1-3.1-2.6-3.6-4.1s0.5-2-1.5-2c-2,0-4.1-3.1-2-2.6c2,0.5,1.5,1,1.5-1c0-2,2.6-3.6,0.5-3.6
		s-6.6-1.5-1-1.5s4.6,0,3.6-1s0.5-2-1-2s-4.1,0-3.6-1c1-2,2.6-3.1,2.6-3.1c0.7-0.3,1.1-0.7,1.5-0.5c1.1,0.3,1.5,2.6,1.5,2.6
		C863.8,141,862.8,138.7,863.6,137.9z"/>
	<path class="st4" d="M858,301.8c0,0-2,4.6-2,7.5s-3.1,9.2-4.1,9.7c-1,0.5-4.1,4.1-3.1,5.1c1,1,1,0.5,1,1.5s2.6,0,2,1.5
		s-4.1,7.5-3.1,8.2s2-0.5,3.6,0.5c1.6,1,2.6,1,3.6,0.5c1-0.5,5.6-2,5.6-2l8.7-10.7l3.6-14.3l-3.1-6.6l-7.1-1L858,301.8L858,301.8z"
		/>
	<path class="st7" d="M944,309.3c0,0,0,2-1,2s-2.3-1-3,0.8c-0.7,1.8,0.5,5.7,1,6.4c0.5,0.5,1,2,2,0c1-2,2-5.1,1.5-6.1
		C944,311.5,944,309.3,944,309.3z"/>
	<path class="st7" d="M939.9,322.6c-1,0.2-1.8-0.5-2.3-0.2c-0.2,0-0.2,0.3-0.2,0.7c0,1.5,1,2,1,3.6s-1,6.6,0,7.5s1.5,2,2.6,1
		c1-1,0.5-1.5,1.5-1.5c1,0,2.3,1.5,2.1-0.8c0-0.7,0.2-2.8,0.3-6.9c0-0.5,0.2-1.3,0-2.5c-0.2-1.5-0.3-1.8-0.5-2c-0.3-0.5-1.1-1.1-2-1
		C941.2,320.7,941.2,322.3,939.9,322.6z"/>
	<path class="st7" d="M1019.7,349.9c-0.3,0.2-0.7,0.5-1,0.8c-1,1.5-1,2,0.5,2c1.5,0,4.8-1,5.4,0c0.7,1,1,0.5,2.6,0
		c1.6-0.5,5.1-1.5,5.1-2s0-1.1-1-0.8s-0.5,0.3-2.1,0.3c-1,0-2,0-3.1,0c-4.1,0-4.1,0.3-5.1,0C1021,349.9,1020.3,349.5,1019.7,349.9z"
		/>
	<path class="st7" d="M896.8,179.1c-0.3,0-0.5-1-1-1.1c-0.2,0-0.3,0-0.5,0.2c-1,0.5-1.5,0.5-1,2c0.5,1.5-0.5,2.6,0,3.6
		c0.5,1,1,2,1.5,0.5c0.7-2,0.3-2.6,1-3.6c0.5-0.8,1.1-1,1-1.5c0-0.3-0.3-0.5-0.5-0.5C896.9,178.6,896.9,179.1,896.8,179.1z"/>
	<path class="st4" d="M891.3,303.4c-0.2,0-0.2-0.2-0.3-0.2c-0.7-0.5-4.3-2.6-8.7-3.1c-1.3-0.2-2.3,0-4.1-0.5c-1.6-0.5-2-0.8-3.6-1.5
		c-3.4-1.3-4.4,0.3-8.2-1.5c-1-0.5-2.6-2.5-4.1-1.5c-1.5,1-5.6,1-6.1,2c-0.5,1,0.5,7.5,0.5,7.5s3.1-1,3.4,0c0.2,1,1.8,2,2.3,2
		s3.1,0,4.1,0.5s2.6,2.5,1.5,3.6c-1,1-3.6,2-3.6,3.1s0,2.5-0.5,3.6c-0.5,1-1.5,4.1-2.6,4.1c-1.1,0-1,1.5-1,2s1.5,1,1,2
		c-0.5,1-2.6,2-2,3.1s1.5,1,1,2s-3.6,2.5-3.6,3.1s0,2.5,0,2.5s2.6,1,3.1,1.5s1.5,5.6,2.6,6.1c1,0.5,2.6,2.5,3.6,1.5
		c1-1,3.6-1.5,4.1-1.5s3-1.8,4.3-1.1c1.3,0.7,8.5,2.1,10,0.7c1.5-1.5,2.6-3.6,3.6-3.6c1,0,3.1,0,3.1,0s0.5-3.1,2-4.1
		c1.5-1,4.6-1.5,3.6-2.5s-2.6-2-2-3.6c0.7-1.6,4.6-7.1,5.1-7.1s2-0.5,2-1s0-2,1-2s3.1-0.5,3.6-0.5s2-0.5,2.6-1c0.7-0.5,3.1-1,4.1-2
		s2-4.1,1-4.1c-0.2,0-0.3,0-0.5,0"/>
	<path class="st8" d="M913.7,312c-1,0.2-2.3,0.5-3.1,0c-1-0.5-2-1-3.6-1.5s-4.1-2-5.1-2s-1.5,0-3.1-0.5c-0.7-0.2-1.1-0.3-1.5-0.5
		c-0.8-0.3-1.3-0.8-1.6-1c-1-0.8-2.5-1.6-4.3-3"/>
	<path class="st8" d="M913.7,312c-1,0.2-2.3,0.5-3.1,0c-1-0.5-2-1-3.6-1.5s-4.1-2-5.1-2s-1.5,0-3.1-0.5c-0.7-0.2-1.1-0.3-1.5-0.5
		c-0.8-0.3-1.3-0.8-1.6-1c-1-0.8-2.5-1.6-4.3-3L913.7,312z"/>
	<path class="st4" d="M895.8,306.4l0.2,0.2c0.3,0.2,0.7,0.5,1.3,0.8c0.3,0.2,0.7,0.3,1.5,0.5c1.5,0.5,2,0.5,3.1,0.5s3.6,1.5,5.1,2
		c0.5,0.2,0.8,0.3,1.3,0.5c1.3,0.5,1.6,0.8,2.3,1s1.6,0.3,3.1,0c0,0-0.7-2.6-0.2-4.1c0.5-1.5,1.5-1.5,3.1-2.5c1.5-1,2-0.5,4.1-0.5
		c2,0,3.6,2,5.6,3.1c2,1.1,3.1,0,4.1-0.5c1-0.5,4.1-3.6,5.1-4.6c1-1-1-1-2-1.5c-1-0.5-1.5-1.5-1-2.5c0.5-1,0-1-0.5-1.5s-1-2,0.7-2.3
		c1.6-0.3-0.2-2.3-0.2-3.8c0-1.5,0.5-0.5,1-1c0.5-0.5-1-1-1-2.5c0-1.5-1.5-1-3.1,0c-1.5,1-0.5-0.5,0-1.5s3.6-4.6,4.1-5.1s2-1,2.6-2
		c0.7-1,1-5.6,2.6-7.1c1.5-1.5-2-1.5-3.6-2s-2.6-1.5-3.6-2c-1-0.5-2.6-1.5-3.6-1.5c-1,0-4.1-2.5-5.1-3.1c-1-0.5-1.5-2.5-3.6-3.6
		c-2-1-1.5-2-2.6-3.1c-1.1-1.1-2-0.5-3.6-0.5s-1.5,3.6-1.5,4.6s-3.6,1.5-5.1,2s-1.5,2-2,3.1c-0.5,1-4.1-1-4.6-2s-1.5-1.5-2.6-1.5
		c-1.1,0,0,2.5,0.5,4.6c0.5,2-1.5,2.5-3.1,2c-1.5-0.5-2.6-1-3.3-2s-5.4,0-6.9,0s-1,2,0,2.5s-0.5,2.1,0,2.6s6.6,3.6,8.2,5.6
		c1.5,2,0.5,1.5,0.5,2c0,0.5,0.5,2,1.5,3.1c1,1.1,1.5,4.1,1.5,6.6s-4.8,14.4-4.8,14.4C894.1,305.2,895.3,306.1,895.8,306.4z"/>
	<path class="st4" d="M897.7,228c0,0-2.6,1.5-2,3.1c0.5,1.5,0.5,2.3,1,2.1c0.5-0.2,1,0.2,1,0.7c0,0.3-1,3.4-1.5,3.9
		c-0.5,0.5-3,0-3.4,0s-0.5-1.5-1.5-1c-1,0.5-1,2-0.5,2s1.5,2,1,3.6c-0.5,1.6-4.1,2.6-5.1,3.1c-1,0.5-1,2,0,2s3.6,0,3.6,0.5
		s0.8,1.5,1.6,1.8c0.8,0.3,2.5,0.8,3.4,0s1.5-0.8,1.5-0.8s-1.5,2.6-3.1,2.6s-3.1-1-4.1-0.5s-2,2.6-3.1,3.1c-1.1,0.5-5.1,2-4.6,2.6
		s1.5,1.5,2,1c0.5-0.5,0.5-2,2-1.5c1.5,0.5,3.1,1.5,4.1,1s0.5-2,1.5-2c1,0,2.6-0.5,3.1,0s0.3,0.8,2,0.8c1.6,0.2,1.1-0.8,2.1-0.3
		s1.5,2,2,1.5s0.2-1.3,1.1-1.1c1,0.2,2.5-0.3,3.4,0.2s2.6,1,4.1,0c1.5-1,3.1-2,2-2.6c-1.1-0.7-4.1-0.5-3.1-1s3.6-2.6,4.6-4.1
		c1-1.5,1-3.6,0-4.6s-3-1.5-3.4-1c-0.5,0.5-1.1,1-1.1,0s1-2.6,0.5-3.6s-1-1-1-2.6c0-1.5-0.5-4.6-1.5-5.1c-1-0.5-1.5-1-2-2.6
		c-0.5-1.5,0-4.1-1-5.6c-1-1.5-5.1-2-4.6-2.6c0.5-0.5,1.5-1.5,2-2s1.5-1,2.6-2.6c1-1.5,1-2.6,1.5-3.1c0.5-0.5,1.5-2,0.5-2.6
		c-1-0.7-5.1-1-6.1-0.5c-1,0.5-1.8,0.7-1.5-0.2s1-0.3,1-0.8c0-0.3,0.3-1.8,1-2c0.2,0,0.3,0,0.5,0c0.3,0,1-0.2,2-1.5
		c1.1-1.3,1.6-2.1,1.5-3.1c-0.2-0.7-0.5-1.5-1-1.5s-1,0.8-1,1c-0.7,1.1,0,1.8-0.5,2.3c-0.7,0.7-2.3,0.2-3-0.3
		c-1.3-0.7-2-1.6-2.5-1.3c-0.2,0.2-0.5,0.3-0.5,0.8c-0.5,2,0,3.1-1,3.6s-1.5,0-2,1s0.5,1.5-0.5,1s-3.1-0.5-3.1,0s1.5,1,1,2
		c-0.5,1-1.5,1-1,1.5c0.5,0.5,2-1,2,0c0,1,0.5,0.5-0.5,1c-1,0.5-1-0.5-2,0c-1,0.5-2.6,2-1,1.5c1.5-0.5,2.6,0,2,0.5
		c-0.7,0.5-2,1.5-0.5,1.5c1.5,0,3.1-0.5,1.5,0.5c-1.5,1-4.1,2-3.6,2.6s0.5,1.5,1.5,1c1-0.5,1.5-1,1.5-0.5s-1,0.5-1,2s0.5,1,1,1
		s1-2.6,1-1.5c0,1,0.5,1.5,1,0.5c0.5-1,2-1,1.5,0s-2.6,2.6-2.6,3.6s-1.5,1,0.5,1.5c2.1,0.5,3.3-0.8,5.1-0.5
		C896.6,227.5,897.1,227.6,897.7,228z"/>
	<path class="st7" d="M883.5,221.9c-0.2,0-0.7-0.2-1,0c-0.3,0.2-1,0.2-1,0.5c-0.2,0.5,0.8,1,0.8,2c0,0.2-0.2,0.5-0.5,1
		c-1,1.1-3,0.7-2.5,2.3s2,3.3,2.3,2.1c0.3-1.1,0.8-2.6,1.3-1.6s0.5,2.1,1,2.6s2,1.5,3.1,0.5c1.1-1,2-1,1.5-2.6c-0.5-1.5,0-4.1-1-4.6
		s-2.6-0.5-3.1-1C884.5,222.9,883.8,222,883.5,221.9z"/>
	<path class="st8" d="M892.7,229.9c-0.5-0.3-2.3,1.3-2,2c0.2,0.3,0.5,0.3,0.8,0.3c0.7,0,1-0.7,1.1-0.8
		C892.8,231.1,893,230.3,892.7,229.9z"/>
	<path class="st7" d="M890.7,203c0,0-1.5,0.5-2,1.5c-0.5,1-0.5,1-1,2c-0.5,1-1.5,0.5-1.5,2s-1.5,3.6-0.5,3.1c1-0.5,0.5-2,2-3.1
		c1.5-1,4.6-2.6,4.6-4.1c0-1.5,1-2,0-1.8C891.2,203,890.7,203,890.7,203z"/>
	<path class="st7" d="M910.9,192.4c-0.8,1-1.6,0.7-2,1.5c-0.2,0.3-0.2,0.7-0.2,1c0.2,0.8,0.7,1.3,0.7,2c0,0.8,0.2,1.1,0.3,1.1
		c0.3,0,0.5-1,1.1-2.6c1-2.5,1.8-3.8,1.5-4.1c-0.2-0.2-0.3,0-0.5,0C911.5,191.5,911.4,191.9,910.9,192.4z"/>
	<g>
		<path class="st4" d="M975,142.5c-2.1-0.3-2.8-3.3-3.6-3.1c-0.8,0.3,0.7,4.6-1,4.6c-1,0-4.6-1.5-4.6,0s1,3.1-0.5,3.1s-2,0-2.6,1.5
			c-0.7,1.5-1,1.5-0.5,3.1s0.5,2,0,2.6s-2,3.6-2,4.1s-1,1-1.5,1.5c-0.5,0.5,0.5,3,0,5.1s-2.6,5.1-1.5,5.6c1,0.5,1.5,2,0.5,2.6
			c-1,0.7-2-1-2.8,0c-0.8,1-2.3,2-2.3,6.1c0,4.1-0.5,9.2,0.5,9.7s3,1.5,2.3,2.5c-0.7,1-1.8,1.1-1.8,2.1s1.5,3.1,1,4.6
			c-0.5,1.5-1.8,1.6-2.1,2.8c-0.3,1.1,0.2,4.3-0.3,4.8s-2-0.5-2,0s0.5,5.6,3.1,10.2c2.6,4.6,4.1,6.1,3.6,6.6s-1.5,0-1,1.5
			c0.5,1.5,1.5,1,1.5,2.6c0,1.5,0,3.1,1,3.1s1-0.5,2-0.5c1,0,2.6,0,2-1c-0.7-1-1-2,0-2.6s0.5-1.5,2.6-1.5s3.6-0.5,3.6-0.5
			c0-1,0-2.6,0.5-2.6s-0.5-3.1,0-4.1s0-5.1,0.5-6.6s-1-2.6,0.5-3.1c1.5-0.5,2.6,0,2-2c-0.7-2-1.5-1.5-1.5-2.6c0-1.1,0-1.5,1-1
			c1,0.5,0,1,1.5,0.5c1.5-0.5,0.5,0,1.5-1.5c1-1.5,2-1.5,0.5-3.1c-1.5-1.6-4.6-2.6-5.1-3.6c-0.5-1-1-1.5-1-5.1
			c0-3.6-0.5-6.1,0.5-7.1s1.5-2.6,2-3.6c0.5-1,4.1-2.6,5.1-5.1s1-2.6,1.5-3.6c0.5-1,1.5-1.5,0.5-2s-1.5,0-1-2.6
			c0.5-2.6,0.5-3.6,2-4.6s4.6-1,4.1-2c-0.5-1-2-1.5-2-3.1c0-1.6,1-3.1,0-4.1s-1.5-2-1.5-2.6s0.5-2.6-0.5-3.6c-0.8-0.8-0.7-1.3-1-1.6
			c-0.2-0.2-0.3-0.3-0.5-0.3C977.3,142.5,975.7,142.6,975,142.5z"/>
		<path class="st4" d="M970.9,215.8c0,0-1,3.6-1,4.6s0,2.6,0,2.6"/>
		<path class="st4" d="M974.5,202.5c-0.3-0.3-1.8,0-2,1c-0.2,0.7,0.2,1.5,0.5,1.5c0.3,0,0.7-0.5,1-1
			C974.2,203.7,974.9,202.9,974.5,202.5z"/>
		<path class="st4" d="M978.1,210.7c0,0-2,0.5-3.1,1.5s0,3.3,0,4.4c0,1.1,0,1.6,1,0.2c1-1.5,1-2.6,1-3.1s0.5-1.5,1-2
			c0,0,0.2-0.2,0.2-0.3C978.3,211.1,978.1,210.9,978.1,210.7z"/>
	</g>
	<path class="st9" d="M970.9,215.8c0,0-1,3.6-1,4.6s0,2.6,0,2.6"/>
	<path class="st0" d="M1188,633.6c-3,4.4-13.1,10.2-15.9,11.6c-3,1.5-5.7,7.2-4.4,11.6c1.3,4.4,3,14.6,1.5,18.9
		c-1.5,4.4-4.4,11.6-3,13.1c1.5,1.5,0,10.2,3,11.6c3,1.5,5.7,7.2,11.6,0c5.9-7.2,7.2-14.4,8.7-21.8c1.5-7.2,7.2-30.5,7.2-34.8
		s-1.5-4.4,1.5-5.7c3-1.3,2.1-3,1.1-4.4c-1.1-1.5,0.3-7.2-1.1-8.7c-1.5-1.5-2.1-5.7-5.4,0C1189.3,630.6,1188,633.6,1188,633.6z"/>
	<path class="st0" d="M1357.8,488.2c4.4-3,4.4-8.7,1.5-13.1s-8.7-14.6-8.7-5.7s-1.5,13.1,1.5,15.9
		C1355,488,1357.8,488.2,1357.8,488.2z"/>
	<path class="st0" d="M1471.2,499.8c10.2,5.7,26.1,20.3,27.6,26.1c1.5,5.7,4.4,15.9,3,18.9s-4.4,3-10.2-1.5
		c-5.7-4.4-14.6-17.4-21.8-26.1c-7.2-8.7-8.7-14.6-15.9-18.9s-17.4-11.6-15.9-14.6c1.5-3,1.5-3,5.7-1.5c4.4,1.5,7.2,0,8.7,3
		C1453.8,488.2,1471.2,499.8,1471.2,499.8z"/>
	<path class="st0" d="M1520.6,550.7c-9.8-1-14.6-4.6-15.9-3c-1.1,1.5,0,8.7,4.4,8.7s17.4,1.5,23.3,1.5c5.9,0,20.3,0,24.6,1.5
		c4.3,1.5,15.9,0,11.6-1.5c-4.3-1.5-8.7-3-17.4-4.4c-10.3-1.6-15.6-2.8-18.9-3C1525.2,550.4,1525.8,551.4,1520.6,550.7z"/>
	<path class="st0" d="M1549.6,468c-4.4,4.4-17.4,24.6-23.3,26.1s-10.2,0-10.2,4.4s-1.5,10.2,3,13.1c4.4,3,5.7,3,5.7,7.2
		s-1.5,7.2,4.4,7.2s15.9-3,18.9-1.5c3,1.5,4.4,8.7,8.7,5.7c4.4-3,3-7.2,3-10.2c0-3-1.5-7.2,0-8.7c1.5-1.5,5.7-3,4.4-7.2
		c-1.5-4.4-2.3-6.4,0.3-6.7c2.6-0.5,8.9,0.5,5.1-2.8c-3.9-3.4-8.2-13.6-8.2-15.1s8.7-7.2,5.7-11.6c-3-4.4-10.2-11.6-13.1-7.2
		C1551.1,465.1,1549.6,468,1549.6,468z"/>
	<path class="st0" d="M1551.1,345.9c0,0-4.4,0-3,7.2c1.5,7.2,1.5,14.6,4.4,10.2c3-4.4,4.4-5.7,3-10.2
		C1554.1,348.9,1551.1,345.9,1551.1,345.9z"/>
	<path class="st0" d="M1558.3,396.8c0,0.2,0,0.3,0.2,0.7c1.3,6.9,0,12.5,4.3,12.5c4.4,0,7.2,0,5.7,3s0,3.4,2.1,2.5s3.6-2.5,0.7-3.9
		c-3-1.5-3-1.5-3-4.4s6.2-7.1,4.6-9.4c-1.6-2.3-7.4-12.5-10.3-11c-3,1.5-4.4,1.1-4.4,4.3C1558.3,393.8,1558.3,396.8,1558.3,396.8z"
		/>
	<path class="st0" d="M1568.5,419.9c0,3,3,4.4,3,3s1.5-3.9,0-4.1c-1.5-0.2-3,0.7-3,0.7V419.9z"/>
	<path class="st0" d="M1580.2,430.1c-1.5,0-4.4,1.5-1.5,3c3,1.5,4.4-1.5,4.4,1.5s-3,7.2,0,7.2c3,0,3,1.5,3-3c0-4.4,0.8-8.7-1.6-8.7
		C1581.6,430.1,1580.2,430.1,1580.2,430.1z"/>
	<path class="st0" d="M1575.7,411.2c3,1.5,7.5,6.1,10.3,7.4c2.8,1.3,6.2,2.5,7.4,4.8s7.1,6.7,2.6,5.3s-4.4-1.5-7.2-4.4
		c-2.8-3-2.5-2.6-4.9-4.3c-2.5-1.6-0.8-0.2-3.8-3.1c-3-3-1-2.8-2.6-3.6c-1.6-0.8-4.4-2.3-3-2.3
		C1576.1,410.9,1575.7,411.2,1575.7,411.2z"/>
	<path class="st0" d="M1599,440.3c0,1.5,1.8,0.8-1.3,2.6c-3.1,1.6-3.1-1.1-3.1,1.6c0,2.8,0,0,0,1.5c0,1.5-1.5,3-1.5,5.7
		s-0.5,6.1,2,7.4c2.5,1.3,3.9,5.7,5.4,1.3c1.5-4.4-1.5-7.2,1.5-7.2c3,0,7.2,3,5.7,0c-1.5-3-1.5-3-3-7.2c-1.5-4.4,0-7.2-3-7.2
		C1598.9,438.8,1599,440.3,1599,440.3z"/>
	<path class="st0" d="M1588.9,446.2c-3,1.5-3,0-4.4,3s-1.5,6.7,0,4.8s1.5-2,3-2c1.5,0,1.5,0.5,3-1.3s1.5-4.6,0-4.6
		S1588.9,446.2,1588.9,446.2z"/>
	<path class="st0" d="M1591.8,222.4c1.5,1.6,2.5,2.8,3,4.4c0.3,1,0.2,1.3,0,1.5c-0.8,0.8-3.8-1.1-4.6-0.5c-0.2,0.2-0.2,0.7,0.3,2
		c1.5,4.4,0,4.4,3,5.7c3,1.5,6.6,1.5,3.9,0c-2.6-1.5-3.9-3-1.1-3c2.8,0,7.2,0,8.7,0s4.4,1.5,4.4-1.5c0-3-0.3-3.3,2.8-3.8
		c3.1-0.5,4.1-2.3,0-3.6c-4.1-1.3-13.6-2.8-17.6-5.6c-3.9-3-6.9-3-6.9-1.5c0,0.3,0,0.7,0.3,1
		C1589.2,219.9,1590.7,221.4,1591.8,222.4z"/>
	<path class="st0" d="M1603.5,245.7c0.5,0.3,1.6,1.5,1.5,10.2c-0.2,5.7-0.2,8.7-1.5,10.2c-2.1,2.5-5.4,2.3-5.7,4.4
		c-0.3,1.6,1.5,2.6,1,4.1c-0.3,1-1.8,1.5-2.5,1.6c-4.4,1.5-10.2,0-14.4,4.4c-4.4,4.4-10.2,8.7-7.2,11.6c3,3,13.1,15.9,13.1,11.6
		s-1.5-3,0-7.2s4.4-3,7.2-5.7s3-5.7,4.4-4.4c1.5,1.5,5.4,4.1,6.4,1.3c0.8-2.8-2-7.2,0.8-7.2s13.1-4.4,14.4-7.2
		c1.5-3,1.5-7.2-1.5-10.2c-3-3-5.1-3.9-4.8-6.2c0.3-2.3,0.3,0.5-1.1-5.3c-1.5-5.7-7.2-13.1-10.2-11.6c-2.1,1-4.3,0.7-4.6,1.3
		c-0.3,0.5,0.2,1.1,0.3,1.5C1600,244.7,1602,244.7,1603.5,245.7z"/>
	<path class="st0" d="M1668.8,508.5c4.4-4.4,5.7-11.6,8.7-8.7c3,3,10.2,7.2,14.4,7.2c4.3,0,18.9-1.5,21.8,4.4
		c3,5.9,5.7,11.6,13.1,11.6s15.9,0,20.3-3s13.1-7.2,7.2-3s-7.2,7.2-14.4,8.7c-7.2,1.5-11.6-1.5-10.2,4.4c1.5,5.7,11.6,8.7,13.1,13.1
		c1.5,4.4,0,7.2-5.7,5.7s-4.4-1.5-10.2-5.7c-5.7-4.4,0-5.7-8.7-5.7s-13.1-3-11.6,1.5c1.5,4.4,12.1,5.1,6.1,6.9
		c-6.1,1.8-8.5,3-13.1,1s-6.1-6.4-10.3-4.9c-4.3,1.5-13.1,4.4-10.2,1.5c3-3,8.7-3,5.7-7.2c-3-4.3-5.7-14.6-11.6-14.6
		s-10.2-3-13.1-4.4c-3-1.5-3-3-4.4-1.5c-1.5,1.5-4.6,5.7-5.3,3.6c-0.5-2.1-1.3-4.1-2.5-5.3c-1.1-1.3-1.1-2.6,1.8-2.6
		c3,0,4.4-1.5,5.7-1.5c1.5,0-1.5-3,3,0c4.4,3,5.7,4.4,7.2,3C1667.3,511.5,1668.8,508.5,1668.8,508.5z"/>
	<path class="st0" d="M1642.7,499.8c3-1.5,0-1.5,5.7-1.5c5.7,0,11.6,3,8.7,5.7c-3,3-1.8,4.4-6.7,3.6c-4.9-0.7-4.9-0.7-6.4-2.1
		c-1.5-1.5-5.7-0.5-5.1-2.5C1639.7,501.3,1642.7,499.8,1642.7,499.8z"/>
	<path class="st0" d="M1577.5,507.2c-3.1,1.5-5.1-1.5-3.4,5.1c1.6,6.6,2.1,18.9,3.4,22.2s5.9,3.1,4.3-3.3c-1.6-6.6-2.8-9.4,0-10.2
		c2.8-0.8,2.6-3.3,4.1,0.8c1.5,4.1,3.3,12.8,4.6,9.2s4.9-2.5,3.8-6.6c-1.1-4.1,1.1-3.9-2.8-6.9c-4.1-3.1-6.9,1.3-4.1-3.1
		c2.8-4.4,5.7-7.2,4.4-8.7s1.8-4.4-2.8,0s-5.6,1.8-7.2,2.3S1577.5,507.2,1577.5,507.2z"/>
	<path class="st0" d="M1583.9,493.8c4.9,0.3,4.6,2.6,10.5,1.5c5.9-1.1,5.9-2.6,7.4-4.1c1.5-1.5,3.9-3,2.8,0s0.2,4.4-5.6,5.7
		c-5.7,1.3-8.4,1.5-13,1.5s-9.5,3-7.7,0s2.1-3.3,3.4-3.8C1583.1,494.1,1583.9,493.8,1583.9,493.8z"/>
	<path class="st0" d="M1619.4,485.4c-1.5,1.5-1.5,0-1.5,3s4.4,0,3,3c-1.5,3-2.6,9.5-1.3,9.8c1.3,0.3,0.5-1.5,1.6-4.1
		c1.1-2.8,1.5-0.2,2.8-3.6s2.8-3.4-0.2-4.9c-3-1.5-3,1.5-3-1.5S1619.4,485.4,1619.4,485.4z"/>
	<path class="st10" d="M1555.1,638.8c-1.3,0.7-1,1.3-3,3.3c-0.8,0.8-1.3,1.1-1.8,1.6c-2,1.5-3.8,1.1-4.1,2.8c-0.3,1.6-1,5.1-1.5,3.4
		c-0.5-1.6,0.3-5.4-1-4.3s-2.8,4.6-2.3,5.4c0.5,0.8,1.3,1.6,1.5,2.5c0,0.8,0.2,2.5-0.7,3.4c-0.8,1-1.1,2.6-1.5,4.3
		c-0.3,1.6,0.2,2.1,1,3.3c0.8,1.1,0.5,2.5,2,4.6c1.5,2.1,3.6,3.9,2.8,5.3c-0.8,1.3-1.6,1-2,0.2c-0.3-0.8-0.8-2.5-0.8-2.1
		c0,0.5-0.8,1.3-0.8,0.5c0-0.8-2.3-4.8-2.1-3.3s0.3,3.4,1.6,4.6c1.3,1.1,1.8,1.6,1,2s-0.3,0.5-1.3-0.8c-1-1.1-0.5-3-1.1-2.5
		c-0.7,0.5-0.7,0.8-1.1-0.3c-0.5-1.3-1.1-5.4-1.5-3.3c-0.3,2.1,1.5,4.6,2,5.7c0.5,1.3,4.9,5.3,5.1,6.4c0,1.3-0.2,4.6,1.1,5.7
		c1.3,1.1,2.1,1.5,2.3,2.5c0,0.8-0.3,0.8,1,2.5s1.8,2.5,1.5,4.1s0.5,6.7,2.8,10c2.3,3.3,2.8,4.4,3,6.6c0.2,2.1,1,3.3,0.2,3.3
		s-0.5-1.3-0.8,0.5c-0.3,1.8,1.3,1.6,0.7,3c-0.8,1.3-1.5,3.9-2.3,3.1c-0.8-0.8-1.8-0.8-1.5,0.3c0.3,1.1-0.5,3.3,0.8,3.6
		s3.8,0.2,4.3,1.6c0.5,1.5,0.7,2.3,3.6,2.5c3,0.2,4.3,0.5,5.9,0.5c1.6-0.2,3,0.7,4.6-1.1c1.6-1.8,0.3-0.8,1.6-1.8
		c1.1-1,1.1-2.1,2.5-1.8s1.3,0.3,2.5-0.5c1.1-0.8-1.8-0.8-0.2-1.5c1.6-0.7,1.1-2.5,2.8-2.1c1.6,0.3,2.5,0.3,3-0.2
		c0.3-0.5,7.1-0.8,8.4-0.5s4.6-1.5,5.4-0.8c0.8,0.7,1.8,1.1,3,0.7c1.1-0.5,2.1-5.6,3.4-6.1c1.3-0.5,3-1,5.7-3c2.8-2,4.4-2.8,7.4-2.6
		c3,0.2,8.2-2.6,11.2-3.6c3-1,4.1-2.8,7.1-2.5c3,0.2,5.9,0.5,6.4,0c0.3-0.5,1.5-2.1,3.3-1c1.8,1.1,3.3,4.1,4.4,3.1
		c1.1-1,3-1,3.8-0.2c0.8,0.8,2.6,1.5,2.6,0.7c0-0.8-0.2-1.6,0.8-0.8c0.8,0.8,1.8,2.5,1.8,2.5c2.1,0.7,3.3-0.7,2.1,0.7
		c-1.1,1.3-2.1,0.5-0.7,2.1s3.4,0.7,4.1,2s-0.8,2.5,0.8,3.1c1.8,0.8,1.8,0.8,2.3,2.5s3.1,3.1,1.5,2.8c-1.6-0.3-2.5-0.3-1.6,0.5
		c0.8,0.8,1.3,0,1.8,1.1c0.5,1.1,1.3,1.6,1.8,0.8c0.3-0.8-0.2-1.6,0.7-2.1c0.8-0.5,1.3-0.5,1.1-1.3c0-0.8,3.4-4.4,4.3-4.9
		c0.8-0.5,0.8,0.3,1.6-1.8c0.8-2.1,1.1-2.6,2-3.1s1.1-2.1,1.1-2.1c0.5,1.6,0.5,1.8,0.2,2.8s1.1,2,0.5,3s-1.8,3.6-2.1,4.9
		c-0.3,1.3,2,4.1,0.3,4.3c-1.6,0.2-1.8-1.1-2.5,0.5c-0.8,1.8-1.1,2.6,0.5,1.6c1.6-1,1.6-1.3,2.5-1s1.6,0.3,1.6-1
		c0-1.3,0.8-7.2,1.3-5.6s0.5,2.5,1.5,3.3c1,0.8,1.6,3.4,1,4.1s-2.8,2-1.5,2.3s2-1,4.3-0.3c2.1,0.7,4.4,4.4,5.1,6.1
		c0.5,1.6-0.8,2.1-0.2,3.4c0.7,1.3,1,1.6,1.8,2.5c0.8,0.8,1.5,2.5,3.1,3.1c1.8,0.8,2-1,3.4,0.7c1.3,1.6,2.6,2.3,3.1,1.5
		c0.3-0.8,2-1,3-0.2c1,0.8,0-0.7,2,0.2c2,0.8,6.7,2.6,7.1,1.8c0.3-0.8,3.1-3.9,3.9-3.6c0,0,1.6-0.2,1.3-0.5s-0.8-0.3-1.3-0.3
		s-1.3-0.3-0.5-0.8c0.8-0.5,2.5-1.5,3-1s1.8,1.6,1,2s-2.1,0.5-1.6,1.3c0.5,0.8,0.8,0.3,1.6-0.2c0.8-0.5,1.1-1.8,1.6-1.3
		c0.5,0.3,0,1.1,0.2,1.6c0.2,0.5,0.5,1.6,1.3,1.3c0.8-0.3,1.1-1,1.3,0c0.2,1,0.2,2.1,1,1.6c0.8-0.5,0.3-0.8,1.6-1.3
		c1.3-0.5,3-0.7,3.8-1.1c0.8-0.5,3.4-4.4,5.3-4.9c1.8-0.5,9.2-1,9.5-1.5c0.3-0.5,0.3-1.6,0.8-1.8c0.5-0.2,1.3,0.3,1.3,0
		c0-0.5-0.2-1.8-0.2-2.1s-0.8,0.5-0.5-1.6c0.3-2.1,0.2-3.8,0.7-3.8s0.5,0.3,0.3-0.8c0-1.3-0.2-2.1,0.2-3c0.3-0.8,2-2.6,2-3.1
		c0-0.5,0-1.3,0.3-1.3c0.5,0,0.8-0.5,0.8-0.8c0-0.5-0.8-0.3-0.5-0.8c0.3-0.5,0.8-0.5,0.8-1.3c0-0.8-0.5-0.5-0.2-1.5
		c0.3-1,1.5-2.8,2-3.3c0.5-0.5,0.8-0.8,0.3-1.6c-0.5-0.8-1.3-1.1-0.5-1.3c0.8,0,1.3,0.8,1.6-0.5c0.3-1.3-0.5-2.5,0.7-3
		c1.1-0.5,2.5-1.8,2.8-2.3c0.3-0.5,0.8-0.5,1.1-1c0.3-0.5,1.3,0,0.8-1.3c-0.5-1.3-0.5-2.5,0.2-3.4s3.1-3.9,2.1-5.6s-0.3-5.4,0-6.4
		c0.3-0.8,1.1-1.8,1-3.4c-0.2-1.6-1-1.3-0.2-2.5c0.8-1,2-2,1.5-3.6c-0.5-1.6-2.1-7.1-3-7.4s-1.3,0-1.3-1.1c0-1.1,0.3-2.6,0.5-3.6
		s-0.3-1.8-0.5-2.6c0-0.8,1.1-1.8,0.3-2.1c0,0-0.8,0.5-1.3-0.8c-0.5-1.3,0.2-3.4-1.1-3.8s-1.8-0.8-1.8-1.6c0-0.8-0.2-2.1-1-2
		s-1.6-0.3-1.8-1.1c-0.2-0.8-1-2.5-1.8-2.5c-0.8,0-2.1,0.2-2.6-0.7c-0.5-0.8-0.5-2.1-1.3-2c-0.8,0-1.3,0-1.3-0.3
		c0-0.5,0.8-0.5,0.3-1.3c-0.5-0.8-1-2-1-3s0.7-3-0.2-2.5c-0.8,0.5-1.3,0.5-1.6,0.2c-0.3-0.3-2.3-3.3-2.8-2.8
		c-0.3,0.5-0.8,0.5-0.8,1.3c0,0.8,1,1.6,0.5,1.3c-0.5-0.3-1.3-0.3-1.3-0.3s-0.3,1.3-0.8,0.5c-0.5-0.8-0.5-2.5-0.7-3.3
		c-0.2-0.8-0.5-0.8-0.5-1.6c0-0.8,0.3-0.8,0-1.3c-0.5-0.3-0.8-0.3-0.8-0.8c0-0.5-0.5-0.3-0.5-1.3c0-0.8,0.8-1.3-0.5-1.6
		s-2.1-0.7-2.6-2.3s-0.2-1.6,0.3-0.8c0.5,0.8,1.3,0.3,0.8-0.5c-0.5-0.8-1.8-1.1-2.1-1.5c-0.3-0.3-0.3,0.8-1,0
		c-0.7-0.8-0.3-1.3-1.6-1.1c-1.3,0-1.3,0-1.3-0.3c0-0.5,0-1.3-0.5-0.8c-0.5,0.5-0.3,0.8-0.8,0c-0.5-0.8-0.2-3-1.5-2.5
		c-1.3,0.5-2.1,0.2-2.1-0.3c0-0.5-0.5-0.8-0.8-0.3c-0.3,0.5-3.4-0.7-3.4-1.8c0-1.1,0.7-2.1-0.2-2.5c-0.8-0.3-2.1-1.5-1.8-2.5
		c0.3-0.8,0.7-2.6,0.2-3.8c-0.5-1.3-1.8-2-1.5-2.8c0.3-0.8,0.3-1.6-0.2-1.6c-0.5,0-0.8,0-1.8-1.1c-1-1.1-1.3-1.1-1-1.6
		c0.3-0.5,0.3-2.1-0.2-3.3c-0.5-1.3-1.8-2.8-1.5-3.8c0.3-0.8,1.6-1.8,0.7-2.6c-0.8-0.8-3-1.1-3.4-1.8c-0.5-0.8-0.7-3-1.5-2.5
		c-0.8,0.5-0.8,0.5-1.3,0.5c-0.5,0-0.8,0-1.3,0.5c-0.5,0.5-0.3,1.6-1.1,1c-0.8-0.8-1.8-2.5-2-3.6c-0.2-1.1-0.3-6.2-0.8-6.2
		c-0.5,0-0.8,0-0.8-0.3c0-0.5,0.8-0.8,0.3-1.3c-0.5-0.3-0.8-0.8-1-1.1c0-0.5,0.3-0.8-0.5-0.8s-1.3-0.3-0.8-0.8c0.3-0.5,2-1,1.1-1.3
		c-0.8-0.3-1.6,0.5-2.1-0.3c-0.5-0.8-0.3-5.1-0.8-5.4s-1.6,0.2-1.6-0.3c0-0.5,1.1-1.8,0.3-1.6c-0.8,0.2-1.3,0-1.3,0.5
		c0,0.5,0,0.8-0.3,0.8c-0.5,0-0.5-0.3-0.8,0.5c-0.3,0.8,0.2,3.3-0.2,3.8c-0.3,0.5-1.1,1.3-0.7,2.1c0.5,0.8,1.8,0.8,1,1.1
		c-0.8,0.5-0.8,0.5-1.3,0c-0.5-0.3,0-0.5-0.5,0c-0.3,0.5-1.1,3-0.7,3c0.5,0,1.3-0.5,1.6-0.2c0.3,0.3,1,1.1,0,1.3
		c-1,0.2-0.5-0.8-0.8,0c-0.3,0.8-0.3,0.5-0.8,1.3c-0.3,0.8,0.5,1.3,0.5,2.1c0,0.8,0.2,1.6-0.3,1.3s-0.8-0.8-0.8,0
		c0,0.8,0.7,3.3,0.7,4.6s-0.2,3.4,0.3,4.3c0.5,0.8,1.8,2.5,1,2.5c-0.8,0-0.8-0.3-1.1,1c-0.3,1.3,0.3,5.9-0.3,7.2
		c-0.8,1.3-1.5,2.6-2,3.4c-0.3,0.8,0.2,2.1-0.7,3c-0.8,0.8-2.8,2.6-3.6,2.3s-2.6-1.5-3.4-1.8c-0.8-0.3-1.6,0.5-2.1-0.7
		c-0.5-1.1-0.7-3-1.5-2.8c-0.8,0-3.8,0.2-5.1-1c-1.3-1.1-2-3.3-3.1-3.1c-1.1,0.2-1.3,0-2.1-0.7c-0.8-0.7,0-0.5-1.3-0.3
		c-1.3,0-2.1-0.3-2.1-0.7c0-0.5-2.8-3.6-4.1-3.9c-1.3-0.3-3.8-1-3.4-1.8c0.3-0.8,0.8-0.8,1.1-1.8c0.3-0.8,0.3-1.3,0.8-1.8
		c0.3-0.5,0.8,0,1.1-1.3c0.3-1.3-0.2-1.6,0.3-2.1c0.5-0.5,0.3-0.5,0-0.8c-0.5-0.3-1.8-0.8-1-1.6c0.8-0.8,0.7-2.1,1.1-1.8
		c0.5,0.3,1,1.1,0.8,0.3c-0.2-0.8-0.2-2.1,0.3-1.3c0.5,0.8,1,1.6,1.3,1.1c0.3-0.5-0.5-1.3,0-1.3c0.5,0,1.6-0.2,0.8-0.5
		c-0.8-0.3-2.1-0.7-1.3-0.8c0.8-0.2,0.8,0.3,1.3-0.5c0.3-0.8-0.5-2.1,0.3-2.1s1.6-0.5,1.1-1c-0.5-0.5-1-1.1-1.3-0.8
		c-0.3,0.5,0.5,1.3-0.3,0.5c-0.8-0.8-0.5-2.1-1.3-1.6c-0.8,0.5-1.6,1-1.1,1.3c0.5,0.3,1.8,0.8,1,1.1c-0.8,0.5-2.8,1.8-2.5,1
		c0.3-0.8,1.1-1.8,0.8-1.8c-0.5,0-0.8-0.3-0.8-0.3s-0.8,0.8-1.3,0.5c-0.5-0.3,0.3-1.3-0.5-0.8c-0.8,0.5-1.1,1.3-2.5,1
		c-1.3-0.3-2.1,0.2-2.1-0.7c0-0.8-0.8-0.8-1.3-0.3c-0.5,0.5,0,0.8-0.8,0.5c-0.8-0.3-0.5-1.3-1.8-1.1s-2.1,0.2-1.6-0.3
		c0.5-0.5,1.1-1,0.3-0.8c-0.8,0-1.1,1-2,1s-1.6-0.3-2.1-0.7c-0.5-0.3-1-2-1.3-2c-0.5,0-0.8,0.5-1.1,1.3c-0.3,0.8-1.1,1-0.8,1.3
		c0.5,0.3,0.5,0.8,0.5,0.8s0.5,0.3,0,0.5c-0.5,0.2,0,0.8,0,0.8s0,0-0.5,0c-0.5,0-0.8-0.3-0.8,0.5c0,0.8,0.2,2.1-0.3,1.3
		s-0.2-1.6-1-1.1c-0.8,0.5-0.8,0.8-2,1c-1.1,0.2-2.5,0.2-2.5-0.3s0.8-0.8-0.5-0.8s-2.1,0.5-1.6,1c0.5,0.5,0.8,0.8,0,0.8
		c-0.8,0-1.3,0-0.8,0.5c0.5,0.3,1,1.6,0,0.8c-0.8-0.8-1.3-2-1.3-1.1c0,0.8,0.5,1.3-0.3,1.6s-1.3-0.8-1.3,0.5s0.5,0.8-0.3,1.3
		c-0.8,0.5-1.3-0.3-0.8,0.8c0.5,1.3,1,1.1,0.5,2.1c-0.3,0.8-0.8,0.8-1.1,1c-0.3,0.2-0.8-0.3-0.8,0.5c0,0.8-0.7,2.1-0.7,2.6
		c0,0.5,0.5,0,0,0.5c-0.5,0.5-1.6,1.3-1.5,2.1c0.2,0.8-0.3,0.8,1,1.1s1.3,0,1.3,0.8c0,0.8-0.3,1.3,0.5,0.8c0.8-0.5,0.8-0.5,0.8,0
		c0,0.5-0.8,0.8-1.6,1c-0.8,0-0.8,0.5-0.3,0.8c0.5,0.3,1.6,0.3,0.8,0.8c-0.8,0.5-0.8,1.3-1.3,0s-0.5-1.3-1-1.6
		c-0.5-0.3-0.8-0.3-0.8,0c0,0.5,1,2,0,1.3c-0.8-0.8,0.3-0.8-1.3-1.1c-1.6-0.3-3.4-1.5-3.4-0.7c0,0.8,1,2,0.2,1.6
		c-0.8-0.3-1.3-0.8-1.3,0c0,0.8-0.3,1.3-0.3,0.8c0-0.5-1-1.6-0.5-2.1c0.5-0.5,1.1-1,0.8-1.3c-0.5-0.3-0.8-0.8-1.8-1.1
		c-1-0.3-2.1-1.5-2.6-2.3c-0.5-0.8,0.8-0.8-0.5-0.8s-1.3,0.5-1.6-0.3c-0.5-0.8-0.5-1.6-1.3-0.3s-0.7,2.6-1.1,2.6s-1.3-0.3-0.8-0.8
		c0.3-0.5,0.3-1.6,0-1.3c-0.3,0.5-0.3,0.5-0.8,1.3c-0.3,0.8,0.2,1.6-0.3,0.8c-0.5-0.8,0.3-2.1-0.5-2.1c-0.8,0-1.3,0.5-1.1,1
		c0,0.5,1.3,1.1,1,1.6c-0.3,0.5-1.3,0.5-0.8,0.8c0.5,0.3,0.5,0.8,0,0.8c-0.5,0-0.5-0.8-0.8-0.3c-0.3,0.5,0,0.8-0.8,0.8
		s-1.3-0.3-2.1,0.2s-1.3,0-0.3,1.3c1,1.1,1.8,1.6,1.3,2c-0.3,0.5-0.8,0.5-1.3,0c-0.5-0.3,0-1.3-0.8-0.8c-0.8,0.5-1.1,1.3-1.1,1.8
		s1.3,0,1.3,0.3c0,0.5,0.5,0,0.5,0.8c0,0.8-0.3,0.5-0.8,0c-0.5-0.5-1.3-1.1-1.8-0.8s0,1.3-0.3,1.3c-0.5,0-0.8-0.3-1.3,0.5
		c-0.3,0.8,0.2,1.6,0.5,1.6c0.3,0,2-1,1.6-0.5c-0.3,0.5-1.1,1.8-1.1,2.1c0,0.5,0,0.8-0.3,0.5c-0.5-0.3-0.5-0.8-0.5,0
		c0,0.8,0,1.3,0.2,1.6c0,0.5-0.3,0.5-1.3-0.3c-1-0.8-2.6-1.5-3-1.1c-0.3,0.5,0.5,0.3,0,1.3c-0.3,0.8-1.3,0.5-0.8,1.3
		c0.5,0.8,1,1.6,1.8,1.6s1.3,0,0.8,0.8c-0.3,0.8,0.5,2.1-0.3,1.6c-0.8-0.5-0.8-0.3-0.8-0.3s-0.5-0.3-0.3,0.5c0,0.8,0.2,2.5-0.3,1.6
		c-0.5-0.8-1.5-2.5-1.8-2.8c-0.5-0.3-0.5,0-0.5-0.8c0-0.8-0.2-1.6-0.5-1.6c-0.5,0-1.6,0.5-1.3-0.3c0.3-0.8,0-1.3-0.5-0.8
		c-0.5,0.5-0.8,0.8-0.8,1.3c0,0.5,0,0.5-0.3,0.8c-0.3,0.3-0.3,1.3-0.3,1.3s0.5,0-0.3,0.5c-0.8,0.5-1.1,1.3-1.5,2.1
		c-0.3,0.8,0.2,3,0.2,3c0,0.8,0,1.3,0.5,1.3c0.5,0,1.6-0.2,1.3,0.3c-0.3,0.5-2.3,2.6-2.8,2.6s-1.3,0-1.1,1c0.2,1,0,0.8-0.3,1.3
		c-0.3,0.5-0.3,1.3-0.7,2.1c-0.3,0.8-0.7,2.6-2.3,3.4c-1.6,1-5.3,2.8-6.6,3c-1.3,0-0.8,0-1.3,0.5c-0.5,0.5-1.6-0.3-2.5-0.3
		c-0.8,0-1.6,0.5-1.6,1.3c0,0.8-0.3,0.5-1.6,1c-1.3,0.5-2.5-0.3-3,0.7c-0.3,0.8-0.3,2.1-1.5,2.1c-1.3,0-1.6,0.2-1.6,0.2
		c-0.3,0.5-0.3,0.8-0.8,0.5s0-1.3-0.8-0.8c-0.8,0.5-2,1.8-2,1c0-0.8,0.3-1.6-0.2-1.6c-0.5,0-1.6,0.2-1.1,1c0.3,0.5,0.7,0.8,0.5,1.1
		c0,0.2-0.3,0.2-0.5,0.2C1557,637.8,1556.4,638.2,1555.1,638.8z"/>
	<path class="st10" d="M1684.5,718.2c-0.8,0.5-0.8,0.8-3,1c-2.1,0.2-3-0.2-2.5,1c0.5,1.3,1.3,1.1,3,1.1c1.6,0,1.6,0.3,2.1,0.3
		c0.5,0,0-0.5,0.8-0.8s1.3-0.5,2.1-0.5s1.6-0.5,0.3-0.8s-1.6,1-2.1,0.2c-0.5-0.8,0.2-1.3-0.3-1.3
		C1684.5,718.2,1684.5,718.2,1684.5,718.2z"/>
	<path class="st10" d="M1729.8,749.6c0.5-0.2,0.7-0.8,0.8-0.7c0,0,0.2,0.2,0.2,0.3c0.2,0.8,0,0.3,1,0.5c1,0.2,0.5,0.7,2.3,1.3
		c1.8,0.8,1.8,1.1,3.4,0.7c1.6-0.5,1.3-0.5,1.6-1c0.3-0.5,3.4,0.2,4.1-0.7c0.8-0.8,1.3,0.5,2.3-0.5s1.3-1.5,1.8-0.7
		c0.5,0.8,0.3,1.1,0.7,2.3c0.3,1.1,0.7,1.6,0.2,3c-0.5,1.1,0.2,3.3-0.3,3s-1.6,0.2-1.1,1.3c0.5,1.3,0.8,0.8,0,1.3
		c-0.8,0.5-0.5-0.3-0.3,0.8c0.2,1.1,1,3.3,0.2,3.3s-2.3,1-1.8,0.2c0.5-0.8,1.3-1,0-1.3s-2.6-2-2.1-0.7s1.6,2,0.7,2.5
		c-1,0.5-1.8,0.2-1.6,1c0,0.8,0.5,1.3-0.8,1.8c-1.3,0.5-2.1,0.2-2.1,0.2c-0.5-0.3-1.3-0.8-2.1-0.3c-0.8,0.5-1.1,1-1.3,0
		c-0.2-1-0.5-2.1-1.5-2.5c-0.8-0.3-1.3-0.3-1.8-1.1c-0.5-0.8-1-1.6-1.5-2.8c-0.5-1.1,0.3-1.5-0.2-2.1c-0.8-1.1-1.8-2.8-1.8-2.8
		c-0.5-0.8-0.8-1.5-1.5-2.8c-0.3-0.8-0.7-1.6-0.5-2.5c0-0.5,0-1.1,0.3-1.3C1727.8,748.6,1729,749.9,1729.8,749.6z"/>
	<path class="st10" d="M1808.1,769.3c0,0-1.1,1-2,1.3c-0.8,0.5-1.6,1.3-2.5,1.8c-0.8,0.5-1.1,1.8-2,2.6c-0.8,0.8-1.1-0.8-1.8,0.2
		c-0.7,0.8-1.6,0.2-2,1.8c-0.3,1.6,0.5,1.6-0.7,2.6c-1.1,1-0.5-0.3-1.1,1.3c-0.8,1.8,0.8,0.3-0.8,1.8c-1.6,1.3,0.2,1.8,0.2,1.8
		s1.1-2.3,0.8-0.5c-0.3,1.6,0.2,1.6,1,1.6c0.8,0,0.8-0.5,2.5-0.2c1.6,0.3,2.1-0.5,2.6,0.7c0.5,1.3,0.5,0.3,1.8,0.8
		c1.3,0.3,0.8-0.5,1.3,0.8c0.5,1.3,0.2-0.8,1.6-0.2c1.5,0.8,2,0.7,3.6,0.2c1.6-0.5,4.4-2.5,5.3-3.3c0.8-0.8,3-1,2.5-2.3
		c-0.5-1.3-0.8-0.3,0.3-1.6c1.1-1.3,0.7-2.1,1.1-3c0.3-0.8,2-1.3,1.5-2.6c-0.5-1.3-0.2-2.6-0.2-2.6s1.6-0.3,2.5-1.3
		c0.8-0.8,0-1.3,0.8-0.8c0.8,0.3,1.1-2.1,2.1-1.8c1.1,0.3,3-1.1,3.4-0.3c0.5,0.8,2,0,0.7-0.3c-1.3-0.3-1.8-0.8-1.5-2.1
		s0.3-2.5,1.1-2.6c0.8-0.2,2-1.3,2.8-2.8c0.8-1.3,0.3-2.1,1.5-2.6c1.1-0.5,0-0.8,1.1-1.8c1.1-1,1.1-2.1,1.1-2.1l-0.5-2.1l0.8-1.3
		l-1.8-0.8c0,0-1.8-0.8-3,0.7c-1.1,1.3-2,1.3-2.5,0.5c-0.5-0.8,0.7-2.6-0.5-2.5c-1.3,0-0.8,0-2.1-0.7s-1.5-0.3-2.1,1s-0.5,3-0.5,3
		s0,0-0.8,1.3c-0.8,1.3-2,3.1-2.3,4.4c-0.3,1.3-0.3,1.6,0.5,1.6s-2.3,4.8-3.1,4.4c-0.8-0.3-1.3,0-1.3,0s0.5,1.3-0.8,1.3
		c0,0-0.8,0-1.6,0.2c-0.8,0-2.5-0.3-1.6,0.5c0.8,0.8,0.8,0.3,0,0.8c-0.8,0.5-1.6,1-1.1,1.3s0.5,0.3,0.5,0.3s-0.2-0.2-1,0.2
		c-0.8,0.3-0.3,0.8-1.5,0.8C1808.7,768.9,1808.1,769.3,1808.1,769.3z"/>
	<path class="st10" d="M1837.3,726.1c0.5,0.8,0.2,1.6,1,1.6s1.6-0.5,0.5,0.3c-1.1,0.8-1.6,0.2-1.1,1c0.5,0.8,0.2,0.3,0,1.5
		c-0.2,1.1,0.8,2.5,0.2,3.6c-0.7,1.1-1.1,1.5-1.1,1.5s-4.4,1.3-3.9,2.5c0.5,1.3,2.6,1.5,2.6,1.5c0.8,0.3,1,2,2.3,2
		c1.3,0,3-0.2,3.4,1.5s0.8,5.1-0.5,5.9c-1.3,0.8-2.5,1-1.6,1.8c0.8,0.8,2.6,0.3,2.8,1.1c0.2,0.8-0.2,1.3,1.5,0.3
		c1.6-1,3.1-3.6,4.3-5.3c1.1-1.6,1.6-1,2.3-2.6c0.8-1.8,2.6-4.4,1.8-4.3c-0.8,0-2,1-1.1-1.1c1-2.1,0.3-3.4,2.5-3.6
		c2.1-0.2,3.1,2,3,0.7c0-1.3-1.8-2.1-0.2-2.6c1.6-0.5,1.3-0.3,2-2.1c0.8-1.8-1-2.5,0.2-3.4c1.1-1,3.3-1,1.1-1.8
		c-2.1-0.7-2.6-1.5-4.3-0.2c-1.6,1.3-0.2,3-2.3,2.6c-2.1-0.3-6.4-0.5-7.2-1.6c-0.8-1.1-1-2-1.5-3.3c-0.5-1.3,1.1-2.1-0.2-2.5
		s-3.3-1.1-2.6,0.2s2,3.6,0.7,3c-1.3-0.8,0.3-1.6-1.3-1.6c-1.6,0-1.6-0.3-2,1C1837.9,724.8,1837.3,726.1,1837.3,726.1z"/>
	<path class="st10" d="M1836.9,722.3c0.3-0.3,0.2-0.5,0.5-0.8c0.8-0.8-0.5-0.3-0.2-1.6c0.3-1.3,0.2-1.5-0.3-2
		c-0.7-0.5-0.7-0.3-0.7-1.3s0.3-1-0.2-2.1c-0.8-1.8-1.1-2.8-2-3.3c-0.5-0.3-0.8-0.3-1.6-0.7c-0.7-0.2-1.3-0.3-1.6-0.3
		c-0.8-0.5-1.3-0.5-1.6-0.3c-0.5,0.3-0.5,1-1.1,1.3s-1.1-0.2-1.3,0c-0.3,0.3,0.7,1.8,1.8,2c0.7,0.2,0.8-0.3,1.3,0
		c1.1,0.5,0.7,3.3,1.5,3.4c1.3,0.2,0.8-0.7,1.3,0.2c0.5,0.8,1.8,1.3,2.1,1.5c0.3,0.2,1.1-1.3,0.5,0c-0.8,1.3-0.8,1.1-0.3,2.3
		c0.8,1.6,0.8,2.8,1.3,2.8C1836.3,723.3,1836.5,723,1836.9,722.3z"/>
</g>
</svg>
